<svg width="2804" height="108" viewBox="0 0 2804 108" fill="none" xmlns="http://www.w3.org/2000/svg">
<g opacity="0.3">
<mask id="path-1-outside-1_615_2184" maskUnits="userSpaceOnUse" x="16" y="10" width="672" height="89" fill="black">
<rect fill="white" x="16" y="10" width="672" height="89"/>
<path d="M47.2201 26.0038H19.303L21.9503 12.7672H93.4279L90.6602 26.0038H62.743L48.6641 97H33.0209L47.2201 26.0038ZM102.761 12.7672H118.404L101.558 97H85.9146L102.761 12.7672ZM230.956 12.7672L214.109 97H199.308L210.259 41.7673L174.279 87.3734H167.3L148.047 40.6843L136.856 97H121.934L138.781 12.7672H151.536L173.798 68.8422L217.479 12.7672H230.956ZM264.177 25.8834L259.845 47.784H300.638L298.111 60.6595H257.198L252.625 83.8837H300.277L297.629 97H234.455L251.301 12.7672H312.791L310.144 25.8834H264.177ZM374.797 26.0038H346.88L349.528 12.7672H421.005L418.238 26.0038H390.32L376.241 97H360.598L374.797 26.0038ZM495.077 38.1573C495.077 46.2597 492.911 53.1187 488.579 58.7342C484.248 64.2695 478.191 68.1202 470.409 70.2862L485.451 97H468.845L455.007 72.3318H454.886H434.069L429.255 97H413.492L430.338 12.7672H463.069C473.257 12.7672 481.119 15.0134 486.654 19.5058C492.27 23.918 495.077 30.1352 495.077 38.1573ZM455.368 59.4562C462.989 59.4562 468.885 57.7716 473.057 54.4023C477.228 50.9527 479.314 46.0191 479.314 39.6013C479.314 35.1089 477.75 31.7396 474.621 29.4934C471.572 27.167 467.16 26.0038 461.384 26.0038H443.455L436.716 59.4562H455.368ZM515.949 12.7672H531.592L514.745 97H499.102L515.949 12.7672ZM594.446 77.5061H552.089L539.935 97H523.209L577.96 12.7672H593.483L614.421 97H598.898L594.446 77.5061ZM591.558 65.2322L583.014 28.1697L559.79 65.2322H591.558ZM639.694 12.7672H655.337L641.138 83.7634H685.18L682.532 97H622.847L639.694 12.7672Z"/>
</mask>
<path d="M47.2201 26.0038L49.1813 26.396L49.6597 24.0038H47.2201V26.0038ZM19.303 26.0038L17.3418 25.6115L16.8633 28.0038H19.303V26.0038ZM21.9503 12.7672V10.7672H20.3107L19.9891 12.3749L21.9503 12.7672ZM93.4279 12.7672L95.3855 13.1765L95.8893 10.7672H93.4279V12.7672ZM90.6602 26.0038V28.0038H92.2853L92.6179 26.4131L90.6602 26.0038ZM62.743 26.0038V24.0038H61.1007L60.7812 25.6147L62.743 26.0038ZM48.6641 97V99H50.3064L50.6259 97.389L48.6641 97ZM33.0209 97L31.0597 96.6078L30.5813 99H33.0209V97ZM47.2201 24.0038H19.303V28.0038H47.2201V24.0038ZM21.2641 26.396L23.9114 13.1594L19.9891 12.3749L17.3418 25.6115L21.2641 26.396ZM21.9503 14.7672H93.4279V10.7672H21.9503V14.7672ZM91.4702 12.3578L88.7025 25.5944L92.6179 26.4131L95.3855 13.1765L91.4702 12.3578ZM90.6602 24.0038H62.743V28.0038H90.6602V24.0038ZM60.7812 25.6147L46.7023 96.611L50.6259 97.389L64.7048 26.3928L60.7812 25.6147ZM48.6641 95H33.0209V99H48.6641V95ZM34.982 97.3922L49.1813 26.396L45.259 25.6115L31.0597 96.6078L34.982 97.3922ZM102.761 12.7672V10.7672H101.122L100.8 12.3749L102.761 12.7672ZM118.404 12.7672L120.366 13.1594L120.844 10.7672H118.404V12.7672ZM101.558 97V99H103.197L103.519 97.3922L101.558 97ZM85.9146 97L83.9534 96.6078L83.475 99H85.9146V97ZM102.761 14.7672H118.404V10.7672H102.761V14.7672ZM116.443 12.3749L99.5967 96.6078L103.519 97.3922L120.366 13.1594L116.443 12.3749ZM101.558 95H85.9146V99H101.558V95ZM87.8757 97.3922L104.722 13.1594L100.8 12.3749L83.9534 96.6078L87.8757 97.3922ZM230.956 12.7672L232.917 13.1594L233.395 10.7672H230.956V12.7672ZM214.109 97V99H215.749L216.07 97.3922L214.109 97ZM199.308 97L197.347 96.6111L196.873 99H199.308V97ZM210.259 41.7673L212.22 42.1563L208.688 40.5286L210.259 41.7673ZM174.279 87.3734V89.3734H175.249L175.849 88.6121L174.279 87.3734ZM167.3 87.3734L165.451 88.1358L165.961 89.3734H167.3V87.3734ZM148.047 40.6843L149.896 39.9219L147.374 33.8073L146.085 40.2945L148.047 40.6843ZM136.856 97V99H138.497L138.817 97.3898L136.856 97ZM121.934 97L119.973 96.6078L119.495 99H121.934V97ZM138.781 12.7672V10.7672H137.141L136.82 12.3749L138.781 12.7672ZM151.536 12.7672L153.395 12.0292L152.894 10.7672H151.536V12.7672ZM173.798 68.8422L171.939 69.5801L173.228 72.8279L175.376 70.0712L173.798 68.8422ZM217.479 12.7672V10.7672H216.501L215.901 11.5381L217.479 12.7672ZM228.995 12.3749L212.148 96.6078L216.07 97.3922L232.917 13.1594L228.995 12.3749ZM214.109 95H199.308V99H214.109V95ZM201.27 97.3889L212.22 42.1563L208.297 41.3784L197.347 96.6111L201.27 97.3889ZM208.688 40.5286L172.709 86.1346L175.849 88.6121L211.829 43.0061L208.688 40.5286ZM174.279 85.3734H167.3V89.3734H174.279V85.3734ZM169.149 86.6109L149.896 39.9219L146.198 41.4468L165.451 88.1358L169.149 86.6109ZM146.085 40.2945L134.894 96.6102L138.817 97.3898L150.008 41.0741L146.085 40.2945ZM136.856 95H121.934V99H136.856V95ZM123.896 97.3922L140.742 13.1594L136.82 12.3749L119.973 96.6078L123.896 97.3922ZM138.781 14.7672H151.536V10.7672H138.781V14.7672ZM149.677 13.5051L171.939 69.5801L175.657 68.1042L153.395 12.0292L149.677 13.5051ZM175.376 70.0712L219.056 13.9962L215.901 11.5381L172.22 67.6131L175.376 70.0712ZM217.479 14.7672H230.956V10.7672H217.479V14.7672ZM264.177 25.8834V23.8834H262.534L262.215 25.4953L264.177 25.8834ZM259.845 47.784L257.883 47.3959L257.411 49.784H259.845V47.784ZM300.638 47.784L302.6 48.1691L303.068 45.784H300.638V47.784ZM298.111 60.6595V62.6595H299.756L300.073 61.0447L298.111 60.6595ZM257.198 60.6595V58.6595H255.553L255.235 60.2732L257.198 60.6595ZM252.625 83.8837L250.663 83.4974L250.193 85.8837H252.625V83.8837ZM300.277 83.8837L302.237 84.2794L302.721 81.8837H300.277V83.8837ZM297.629 97V99H299.266L299.59 97.3957L297.629 97ZM234.455 97L232.494 96.6078L232.015 99H234.455V97ZM251.301 12.7672V10.7672H249.662L249.34 12.3749L251.301 12.7672ZM312.791 12.7672L314.752 13.1629L315.235 10.7672H312.791V12.7672ZM310.144 25.8834V27.8834H311.781L312.105 26.2791L310.144 25.8834ZM262.215 25.4953L257.883 47.3959L261.807 48.172L266.139 26.2715L262.215 25.4953ZM259.845 49.784H300.638V45.784H259.845V49.784ZM298.675 47.3988L296.148 60.2744L300.073 61.0447L302.6 48.1691L298.675 47.3988ZM298.111 58.6595H257.198V62.6595H298.111V58.6595ZM255.235 60.2732L250.663 83.4974L254.587 84.2701L259.16 61.0459L255.235 60.2732ZM252.625 85.8837H300.277V81.8837H252.625V85.8837ZM298.316 83.4881L295.669 96.6043L299.59 97.3957L302.237 84.2794L298.316 83.4881ZM297.629 95H234.455V99H297.629V95ZM236.416 97.3922L253.263 13.1594L249.34 12.3749L232.494 96.6078L236.416 97.3922ZM251.301 14.7672H312.791V10.7672H251.301V14.7672ZM310.831 12.3715L308.184 25.4877L312.105 26.2791L314.752 13.1629L310.831 12.3715ZM310.144 23.8834H264.177V27.8834H310.144V23.8834ZM374.797 26.0038L376.759 26.396L377.237 24.0038H374.797V26.0038ZM346.88 26.0038L344.919 25.6115L344.441 28.0038H346.88V26.0038ZM349.528 12.7672V10.7672H347.888L347.566 12.3749L349.528 12.7672ZM421.005 12.7672L422.963 13.1765L423.467 10.7672H421.005V12.7672ZM418.238 26.0038V28.0038H419.863L420.195 26.4131L418.238 26.0038ZM390.32 26.0038V24.0038H388.678L388.359 25.6147L390.32 26.0038ZM376.241 97V99H377.884L378.203 97.389L376.241 97ZM360.598 97L358.637 96.6078L358.159 99H360.598V97ZM374.797 24.0038H346.88V28.0038H374.797V24.0038ZM348.841 26.396L351.489 13.1594L347.566 12.3749L344.919 25.6115L348.841 26.396ZM349.528 14.7672H421.005V10.7672H349.528V14.7672ZM419.048 12.3578L416.28 25.5944L420.195 26.4131L422.963 13.1765L419.048 12.3578ZM418.238 24.0038H390.32V28.0038H418.238V24.0038ZM388.359 25.6147L374.28 96.611L378.203 97.389L392.282 26.3928L388.359 25.6147ZM376.241 95H360.598V99H376.241V95ZM362.559 97.3922L376.759 26.396L372.836 25.6115L358.637 96.6078L362.559 97.3922ZM488.579 58.7342L490.155 59.9669L490.163 59.9558L488.579 58.7342ZM470.409 70.2862L469.873 68.3594L467.414 69.0437L468.667 71.2674L470.409 70.2862ZM485.451 97V99H488.872L487.194 96.0187L485.451 97ZM468.845 97L467.101 97.9785L467.674 99H468.845V97ZM455.007 72.3318L456.751 71.3533L456.178 70.3318H455.007V72.3318ZM434.069 72.3318V70.3318H432.421L432.106 71.9488L434.069 72.3318ZM429.255 97V99H430.903L431.218 97.383L429.255 97ZM413.492 97L411.531 96.6078L411.052 99H413.492V97ZM430.338 12.7672V10.7672H428.699L428.377 12.3749L430.338 12.7672ZM486.654 19.5058L485.394 21.0587L485.406 21.0687L485.419 21.0784L486.654 19.5058ZM473.057 54.4023L474.313 55.9581L474.322 55.9509L474.331 55.9435L473.057 54.4023ZM474.621 29.4934L473.408 31.0833L473.431 31.101L473.454 31.118L474.621 29.4934ZM443.455 26.0038V24.0038H441.817L441.494 25.6088L443.455 26.0038ZM436.716 59.4562L434.756 59.0613L434.273 61.4562H436.716V59.4562ZM493.077 38.1573C493.077 45.8837 491.02 52.296 486.996 57.5126L490.163 59.9558C494.803 53.9415 497.077 46.6358 497.077 38.1573H493.077ZM487.004 57.5016C482.974 62.6519 477.307 66.2902 469.873 68.3594L470.946 72.2129C479.075 69.9502 485.521 65.8872 490.154 59.9668L487.004 57.5016ZM468.667 71.2674L483.708 97.9813L487.194 96.0187L472.152 69.3049L468.667 71.2674ZM485.451 95H468.845V99H485.451V95ZM470.589 96.0215L456.751 71.3533L453.262 73.3103L467.101 97.9785L470.589 96.0215ZM455.007 70.3318H454.886V74.3318H455.007V70.3318ZM454.886 70.3318H434.069V74.3318H454.886V70.3318ZM432.106 71.9488L427.293 96.617L431.218 97.383L436.032 72.7148L432.106 71.9488ZM429.255 95H413.492V99H429.255V95ZM415.453 97.3922L432.3 13.1594L428.377 12.3749L411.531 96.6078L415.453 97.3922ZM430.338 14.7672H463.069V10.7672H430.338V14.7672ZM463.069 14.7672C472.991 14.7672 480.34 16.9572 485.394 21.0587L487.915 17.9529C481.898 13.0695 473.524 10.7672 463.069 10.7672V14.7672ZM485.419 21.0784C490.488 25.0613 493.077 30.6628 493.077 38.1573H497.077C497.077 29.6075 494.052 22.7747 487.89 17.9332L485.419 21.0784ZM455.368 61.4562C463.257 61.4562 469.663 59.7144 474.313 55.9581L471.8 52.8464C468.107 55.8287 462.72 57.4562 455.368 57.4562V61.4562ZM474.331 55.9435C479.049 52.0422 481.314 46.4926 481.314 39.6013H477.314C477.314 45.5456 475.407 49.8632 471.782 52.861L474.331 55.9435ZM481.314 39.6013C481.314 34.5873 479.531 30.5569 475.787 27.8687L473.454 31.118C475.968 32.9224 477.314 35.6305 477.314 39.6013H481.314ZM475.834 27.9035C472.3 25.2065 467.388 24.0038 461.384 24.0038V28.0038C466.933 28.0038 470.845 29.1275 473.408 31.0833L475.834 27.9035ZM461.384 24.0038H443.455V28.0038H461.384V24.0038ZM441.494 25.6088L434.756 59.0613L438.677 59.8512L445.415 26.3987L441.494 25.6088ZM436.716 61.4562H455.368V57.4562H436.716V61.4562ZM515.949 12.7672V10.7672H514.309L513.987 12.3749L515.949 12.7672ZM531.592 12.7672L533.553 13.1594L534.031 10.7672H531.592V12.7672ZM514.745 97V99H516.385L516.706 97.3922L514.745 97ZM499.102 97L497.141 96.6078L496.662 99H499.102V97ZM515.949 14.7672H531.592V10.7672H515.949V14.7672ZM529.631 12.3749L512.784 96.6078L516.706 97.3922L533.553 13.1594L529.631 12.3749ZM514.745 95H499.102V99H514.745V95ZM501.063 97.3922L517.91 13.1594L513.987 12.3749L497.141 96.6078L501.063 97.3922ZM594.446 77.5061L596.396 77.0608L596.041 75.5061H594.446V77.5061ZM552.089 77.5061V75.5061H550.979L550.392 76.448L552.089 77.5061ZM539.935 97V99H541.045L541.632 98.0581L539.935 97ZM523.209 97L521.532 95.91L519.524 99H523.209V97ZM577.96 12.7672V10.7672H576.875L576.283 11.6772L577.96 12.7672ZM593.483 12.7672L595.424 12.2847L595.047 10.7672H593.483V12.7672ZM614.421 97V99H616.979L616.362 96.5175L614.421 97ZM598.898 97L596.948 97.4453L597.303 99H598.898V97ZM591.558 65.2322V67.2322H594.071L593.507 64.7829L591.558 65.2322ZM583.014 28.1697L584.963 27.7205L583.88 23.0216L581.319 27.1078L583.014 28.1697ZM559.79 65.2322L558.095 64.1702L556.177 67.2322H559.79V65.2322ZM594.446 75.5061H552.089V79.5061H594.446V75.5061ZM550.392 76.448L538.238 95.9419L541.632 98.0581L553.786 78.5642L550.392 76.448ZM539.935 95H523.209V99H539.935V95ZM524.886 98.09L579.637 13.8571L576.283 11.6772L521.532 95.91L524.886 98.09ZM577.96 14.7672H593.483V10.7672H577.96V14.7672ZM591.542 13.2496L612.48 97.4825L616.362 96.5175L595.424 12.2847L591.542 13.2496ZM614.421 95H598.898V99H614.421V95ZM600.848 96.5547L596.396 77.0608L592.496 77.9514L596.948 97.4453L600.848 96.5547ZM593.507 64.7829L584.963 27.7205L581.065 28.619L589.609 65.6814L593.507 64.7829ZM581.319 27.1078L558.095 64.1702L561.485 66.2942L584.709 29.2317L581.319 27.1078ZM559.79 67.2322H591.558V63.2322H559.79V67.2322ZM639.694 12.7672V10.7672H638.054L637.733 12.3749L639.694 12.7672ZM655.337 12.7672L657.298 13.1594L657.777 10.7672H655.337V12.7672ZM641.138 83.7634L639.177 83.3712L638.698 85.7634H641.138V83.7634ZM685.18 83.7634L687.141 84.1556L687.619 81.7634H685.18V83.7634ZM682.532 97V99H684.172L684.493 97.3922L682.532 97ZM622.847 97L620.886 96.6078L620.408 99H622.847V97ZM639.694 14.7672H655.337V10.7672H639.694V14.7672ZM653.376 12.3749L639.177 83.3712L643.099 84.1556L657.298 13.1594L653.376 12.3749ZM641.138 85.7634H685.18V81.7634H641.138V85.7634ZM683.218 83.3712L680.571 96.6078L684.493 97.3922L687.141 84.1556L683.218 83.3712ZM682.532 95H622.847V99H682.532V95ZM624.808 97.3922L641.655 13.1594L637.733 12.3749L620.886 96.6078L624.808 97.3922Z" fill="white" mask="url(#path-1-outside-1_615_2184)"/>
<mask id="path-3-outside-2_615_2184" maskUnits="userSpaceOnUse" x="717" y="10" width="672" height="89" fill="black">
<rect fill="white" x="717" y="10" width="672" height="89"/>
<path d="M748.22 26.0038H720.303L722.95 12.7672H794.428L791.66 26.0038H763.743L749.664 97H734.021L748.22 26.0038ZM803.761 12.7672H819.404L802.558 97H786.915L803.761 12.7672ZM931.956 12.7672L915.109 97H900.308L911.259 41.7673L875.279 87.3734H868.3L849.047 40.6843L837.856 97H822.934L839.781 12.7672H852.536L874.798 68.8422L918.479 12.7672H931.956ZM965.177 25.8834L960.845 47.784H1001.64L999.111 60.6595H958.198L953.625 83.8837H1001.28L998.629 97H935.455L952.301 12.7672H1013.79L1011.14 25.8834H965.177ZM1075.8 26.0038H1047.88L1050.53 12.7672H1122.01L1119.24 26.0038H1091.32L1077.24 97H1061.6L1075.8 26.0038ZM1196.08 38.1573C1196.08 46.2597 1193.91 53.1187 1189.58 58.7342C1185.25 64.2695 1179.19 68.1202 1171.41 70.2862L1186.45 97H1169.84L1156.01 72.3318H1155.89H1135.07L1130.26 97H1114.49L1131.34 12.7672H1164.07C1174.26 12.7672 1182.12 15.0134 1187.65 19.5058C1193.27 23.918 1196.08 30.1352 1196.08 38.1573ZM1156.37 59.4562C1163.99 59.4562 1169.89 57.7716 1174.06 54.4023C1178.23 50.9527 1180.31 46.0191 1180.31 39.6013C1180.31 35.1089 1178.75 31.7396 1175.62 29.4934C1172.57 27.167 1168.16 26.0038 1162.38 26.0038H1144.45L1137.72 59.4562H1156.37ZM1216.95 12.7672H1232.59L1215.75 97H1200.1L1216.95 12.7672ZM1295.45 77.5061H1253.09L1240.94 97H1224.21L1278.96 12.7672H1294.48L1315.42 97H1299.9L1295.45 77.5061ZM1292.56 65.2322L1284.01 28.1697L1260.79 65.2322H1292.56ZM1340.69 12.7672H1356.34L1342.14 83.7634H1386.18L1383.53 97H1323.85L1340.69 12.7672Z"/>
</mask>
<path d="M748.22 26.0038L750.181 26.396L750.66 24.0038H748.22V26.0038ZM720.303 26.0038L718.342 25.6115L717.863 28.0038H720.303V26.0038ZM722.95 12.7672V10.7672H721.311L720.989 12.3749L722.95 12.7672ZM794.428 12.7672L796.386 13.1765L796.889 10.7672H794.428V12.7672ZM791.66 26.0038V28.0038H793.285L793.618 26.4131L791.66 26.0038ZM763.743 26.0038V24.0038H762.101L761.781 25.6147L763.743 26.0038ZM749.664 97V99H751.306L751.626 97.389L749.664 97ZM734.021 97L732.06 96.6078L731.581 99H734.021V97ZM748.22 24.0038H720.303V28.0038H748.22V24.0038ZM722.264 26.396L724.911 13.1594L720.989 12.3749L718.342 25.6115L722.264 26.396ZM722.95 14.7672H794.428V10.7672H722.95V14.7672ZM792.47 12.3578L789.703 25.5944L793.618 26.4131L796.386 13.1765L792.47 12.3578ZM791.66 24.0038H763.743V28.0038H791.66V24.0038ZM761.781 25.6147L747.702 96.611L751.626 97.389L765.705 26.3928L761.781 25.6147ZM749.664 95H734.021V99H749.664V95ZM735.982 97.3922L750.181 26.396L746.259 25.6115L732.06 96.6078L735.982 97.3922ZM803.761 12.7672V10.7672H802.122L801.8 12.3749L803.761 12.7672ZM819.404 12.7672L821.366 13.1594L821.844 10.7672H819.404V12.7672ZM802.558 97V99H804.197L804.519 97.3922L802.558 97ZM786.915 97L784.953 96.6078L784.475 99H786.915V97ZM803.761 14.7672H819.404V10.7672H803.761V14.7672ZM817.443 12.3749L800.597 96.6078L804.519 97.3922L821.366 13.1594L817.443 12.3749ZM802.558 95H786.915V99H802.558V95ZM788.876 97.3922L805.722 13.1594L801.8 12.3749L784.953 96.6078L788.876 97.3922ZM931.956 12.7672L933.917 13.1594L934.395 10.7672H931.956V12.7672ZM915.109 97V99H916.749L917.07 97.3922L915.109 97ZM900.308 97L898.347 96.6111L897.873 99H900.308V97ZM911.259 41.7673L913.22 42.1563L909.688 40.5286L911.259 41.7673ZM875.279 87.3734V89.3734H876.249L876.849 88.6121L875.279 87.3734ZM868.3 87.3734L866.451 88.1358L866.961 89.3734H868.3V87.3734ZM849.047 40.6843L850.896 39.9219L848.374 33.8073L847.085 40.2945L849.047 40.6843ZM837.856 97V99H839.497L839.817 97.3898L837.856 97ZM822.934 97L820.973 96.6078L820.495 99H822.934V97ZM839.781 12.7672V10.7672H838.141L837.82 12.3749L839.781 12.7672ZM852.536 12.7672L854.395 12.0292L853.894 10.7672H852.536V12.7672ZM874.798 68.8422L872.939 69.5801L874.228 72.8279L876.376 70.0712L874.798 68.8422ZM918.479 12.7672V10.7672H917.501L916.901 11.5381L918.479 12.7672ZM929.995 12.3749L913.148 96.6078L917.07 97.3922L933.917 13.1594L929.995 12.3749ZM915.109 95H900.308V99H915.109V95ZM902.27 97.3889L913.22 42.1563L909.297 41.3784L898.347 96.6111L902.27 97.3889ZM909.688 40.5286L873.709 86.1346L876.849 88.6121L912.829 43.0061L909.688 40.5286ZM875.279 85.3734H868.3V89.3734H875.279V85.3734ZM870.149 86.6109L850.896 39.9219L847.198 41.4468L866.451 88.1358L870.149 86.6109ZM847.085 40.2945L835.894 96.6102L839.817 97.3898L851.008 41.0741L847.085 40.2945ZM837.856 95H822.934V99H837.856V95ZM824.896 97.3922L841.742 13.1594L837.82 12.3749L820.973 96.6078L824.896 97.3922ZM839.781 14.7672H852.536V10.7672H839.781V14.7672ZM850.677 13.5051L872.939 69.5801L876.657 68.1042L854.395 12.0292L850.677 13.5051ZM876.376 70.0712L920.056 13.9962L916.901 11.5381L873.22 67.6131L876.376 70.0712ZM918.479 14.7672H931.956V10.7672H918.479V14.7672ZM965.177 25.8834V23.8834H963.534L963.215 25.4953L965.177 25.8834ZM960.845 47.784L958.883 47.3959L958.411 49.784H960.845V47.784ZM1001.64 47.784L1003.6 48.1691L1004.07 45.784H1001.64V47.784ZM999.111 60.6595V62.6595H1000.76L1001.07 61.0447L999.111 60.6595ZM958.198 60.6595V58.6595H956.553L956.235 60.2732L958.198 60.6595ZM953.625 83.8837L951.663 83.4974L951.193 85.8837H953.625V83.8837ZM1001.28 83.8837L1003.24 84.2794L1003.72 81.8837H1001.28V83.8837ZM998.629 97V99H1000.27L1000.59 97.3957L998.629 97ZM935.455 97L933.494 96.6078L933.015 99H935.455V97ZM952.301 12.7672V10.7672H950.662L950.34 12.3749L952.301 12.7672ZM1013.79 12.7672L1015.75 13.1629L1016.24 10.7672H1013.79V12.7672ZM1011.14 25.8834V27.8834H1012.78L1013.1 26.2791L1011.14 25.8834ZM963.215 25.4953L958.883 47.3959L962.807 48.172L967.139 26.2715L963.215 25.4953ZM960.845 49.784H1001.64V45.784H960.845V49.784ZM999.675 47.3988L997.148 60.2744L1001.07 61.0447L1003.6 48.1691L999.675 47.3988ZM999.111 58.6595H958.198V62.6595H999.111V58.6595ZM956.235 60.2732L951.663 83.4974L955.587 84.2701L960.16 61.0459L956.235 60.2732ZM953.625 85.8837H1001.28V81.8837H953.625V85.8837ZM999.316 83.4881L996.669 96.6043L1000.59 97.3957L1003.24 84.2794L999.316 83.4881ZM998.629 95H935.455V99H998.629V95ZM937.416 97.3922L954.263 13.1594L950.34 12.3749L933.494 96.6078L937.416 97.3922ZM952.301 14.7672H1013.79V10.7672H952.301V14.7672ZM1011.83 12.3715L1009.18 25.4877L1013.1 26.2791L1015.75 13.1629L1011.83 12.3715ZM1011.14 23.8834H965.177V27.8834H1011.14V23.8834ZM1075.8 26.0038L1077.76 26.396L1078.24 24.0038H1075.8V26.0038ZM1047.88 26.0038L1045.92 25.6115L1045.44 28.0038H1047.88V26.0038ZM1050.53 12.7672V10.7672H1048.89L1048.57 12.3749L1050.53 12.7672ZM1122.01 12.7672L1123.96 13.1765L1124.47 10.7672H1122.01V12.7672ZM1119.24 26.0038V28.0038H1120.86L1121.2 26.4131L1119.24 26.0038ZM1091.32 26.0038V24.0038H1089.68L1089.36 25.6147L1091.32 26.0038ZM1077.24 97V99H1078.88L1079.2 97.389L1077.24 97ZM1061.6 97L1059.64 96.6078L1059.16 99H1061.6V97ZM1075.8 24.0038H1047.88V28.0038H1075.8V24.0038ZM1049.84 26.396L1052.49 13.1594L1048.57 12.3749L1045.92 25.6115L1049.84 26.396ZM1050.53 14.7672H1122.01V10.7672H1050.53V14.7672ZM1120.05 12.3578L1117.28 25.5944L1121.2 26.4131L1123.96 13.1765L1120.05 12.3578ZM1119.24 24.0038H1091.32V28.0038H1119.24V24.0038ZM1089.36 25.6147L1075.28 96.611L1079.2 97.389L1093.28 26.3928L1089.36 25.6147ZM1077.24 95H1061.6V99H1077.24V95ZM1063.56 97.3922L1077.76 26.396L1073.84 25.6115L1059.64 96.6078L1063.56 97.3922ZM1189.58 58.7342L1191.15 59.9669L1191.16 59.9558L1189.58 58.7342ZM1171.41 70.2862L1170.87 68.3594L1168.41 69.0437L1169.67 71.2674L1171.41 70.2862ZM1186.45 97V99H1189.87L1188.19 96.0187L1186.45 97ZM1169.84 97L1168.1 97.9785L1168.67 99H1169.84V97ZM1156.01 72.3318L1157.75 71.3533L1157.18 70.3318H1156.01V72.3318ZM1135.07 72.3318V70.3318H1133.42L1133.11 71.9488L1135.07 72.3318ZM1130.26 97V99H1131.9L1132.22 97.383L1130.26 97ZM1114.49 97L1112.53 96.6078L1112.05 99H1114.49V97ZM1131.34 12.7672V10.7672H1129.7L1129.38 12.3749L1131.34 12.7672ZM1187.65 19.5058L1186.39 21.0587L1186.41 21.0687L1186.42 21.0784L1187.65 19.5058ZM1174.06 54.4023L1175.31 55.9581L1175.32 55.9509L1175.33 55.9435L1174.06 54.4023ZM1175.62 29.4934L1174.41 31.0833L1174.43 31.101L1174.45 31.118L1175.62 29.4934ZM1144.45 26.0038V24.0038H1142.82L1142.49 25.6088L1144.45 26.0038ZM1137.72 59.4562L1135.76 59.0613L1135.27 61.4562H1137.72V59.4562ZM1194.08 38.1573C1194.08 45.8837 1192.02 52.296 1188 57.5126L1191.16 59.9558C1195.8 53.9415 1198.08 46.6358 1198.08 38.1573H1194.08ZM1188 57.5016C1183.97 62.6519 1178.31 66.2902 1170.87 68.3594L1171.95 72.2129C1180.07 69.9502 1186.52 65.8872 1191.15 59.9668L1188 57.5016ZM1169.67 71.2674L1184.71 97.9813L1188.19 96.0187L1173.15 69.3049L1169.67 71.2674ZM1186.45 95H1169.84V99H1186.45V95ZM1171.59 96.0215L1157.75 71.3533L1154.26 73.3103L1168.1 97.9785L1171.59 96.0215ZM1156.01 70.3318H1155.89V74.3318H1156.01V70.3318ZM1155.89 70.3318H1135.07V74.3318H1155.89V70.3318ZM1133.11 71.9488L1128.29 96.617L1132.22 97.383L1137.03 72.7148L1133.11 71.9488ZM1130.26 95H1114.49V99H1130.26V95ZM1116.45 97.3922L1133.3 13.1594L1129.38 12.3749L1112.53 96.6078L1116.45 97.3922ZM1131.34 14.7672H1164.07V10.7672H1131.34V14.7672ZM1164.07 14.7672C1173.99 14.7672 1181.34 16.9572 1186.39 21.0587L1188.91 17.9529C1182.9 13.0695 1174.52 10.7672 1164.07 10.7672V14.7672ZM1186.42 21.0784C1191.49 25.0613 1194.08 30.6628 1194.08 38.1573H1198.08C1198.08 29.6075 1195.05 22.7747 1188.89 17.9332L1186.42 21.0784ZM1156.37 61.4562C1164.26 61.4562 1170.66 59.7144 1175.31 55.9581L1172.8 52.8464C1169.11 55.8287 1163.72 57.4562 1156.37 57.4562V61.4562ZM1175.33 55.9435C1180.05 52.0422 1182.31 46.4926 1182.31 39.6013H1178.31C1178.31 45.5456 1176.41 49.8632 1172.78 52.861L1175.33 55.9435ZM1182.31 39.6013C1182.31 34.5873 1180.53 30.5569 1176.79 27.8687L1174.45 31.118C1176.97 32.9224 1178.31 35.6305 1178.31 39.6013H1182.31ZM1176.83 27.9035C1173.3 25.2065 1168.39 24.0038 1162.38 24.0038V28.0038C1167.93 28.0038 1171.84 29.1275 1174.41 31.0833L1176.83 27.9035ZM1162.38 24.0038H1144.45V28.0038H1162.38V24.0038ZM1142.49 25.6088L1135.76 59.0613L1139.68 59.8512L1146.42 26.3987L1142.49 25.6088ZM1137.72 61.4562H1156.37V57.4562H1137.72V61.4562ZM1216.95 12.7672V10.7672H1215.31L1214.99 12.3749L1216.95 12.7672ZM1232.59 12.7672L1234.55 13.1594L1235.03 10.7672H1232.59V12.7672ZM1215.75 97V99H1217.38L1217.71 97.3922L1215.75 97ZM1200.1 97L1198.14 96.6078L1197.66 99H1200.1V97ZM1216.95 14.7672H1232.59V10.7672H1216.95V14.7672ZM1230.63 12.3749L1213.78 96.6078L1217.71 97.3922L1234.55 13.1594L1230.63 12.3749ZM1215.75 95H1200.1V99H1215.75V95ZM1202.06 97.3922L1218.91 13.1594L1214.99 12.3749L1198.14 96.6078L1202.06 97.3922ZM1295.45 77.5061L1297.4 77.0608L1297.04 75.5061H1295.45V77.5061ZM1253.09 77.5061V75.5061H1251.98L1251.39 76.448L1253.09 77.5061ZM1240.94 97V99H1242.05L1242.63 98.0581L1240.94 97ZM1224.21 97L1222.53 95.91L1220.52 99H1224.21V97ZM1278.96 12.7672V10.7672H1277.87L1277.28 11.6772L1278.96 12.7672ZM1294.48 12.7672L1296.42 12.2847L1296.05 10.7672H1294.48V12.7672ZM1315.42 97V99H1317.98L1317.36 96.5175L1315.42 97ZM1299.9 97L1297.95 97.4453L1298.3 99H1299.9V97ZM1292.56 65.2322V67.2322H1295.07L1294.51 64.7829L1292.56 65.2322ZM1284.01 28.1697L1285.96 27.7205L1284.88 23.0216L1282.32 27.1078L1284.01 28.1697ZM1260.79 65.2322L1259.1 64.1702L1257.18 67.2322H1260.79V65.2322ZM1295.45 75.5061H1253.09V79.5061H1295.45V75.5061ZM1251.39 76.448L1239.24 95.9419L1242.63 98.0581L1254.79 78.5642L1251.39 76.448ZM1240.94 95H1224.21V99H1240.94V95ZM1225.89 98.09L1280.64 13.8571L1277.28 11.6772L1222.53 95.91L1225.89 98.09ZM1278.96 14.7672H1294.48V10.7672H1278.96V14.7672ZM1292.54 13.2496L1313.48 97.4825L1317.36 96.5175L1296.42 12.2847L1292.54 13.2496ZM1315.42 95H1299.9V99H1315.42V95ZM1301.85 96.5547L1297.4 77.0608L1293.5 77.9514L1297.95 97.4453L1301.85 96.5547ZM1294.51 64.7829L1285.96 27.7205L1282.07 28.619L1290.61 65.6814L1294.51 64.7829ZM1282.32 27.1078L1259.1 64.1702L1262.48 66.2942L1285.71 29.2317L1282.32 27.1078ZM1260.79 67.2322H1292.56V63.2322H1260.79V67.2322ZM1340.69 12.7672V10.7672H1339.05L1338.73 12.3749L1340.69 12.7672ZM1356.34 12.7672L1358.3 13.1594L1358.78 10.7672H1356.34V12.7672ZM1342.14 83.7634L1340.18 83.3712L1339.7 85.7634H1342.14V83.7634ZM1386.18 83.7634L1388.14 84.1556L1388.62 81.7634H1386.18V83.7634ZM1383.53 97V99H1385.17L1385.49 97.3922L1383.53 97ZM1323.85 97L1321.89 96.6078L1321.41 99H1323.85V97ZM1340.69 14.7672H1356.34V10.7672H1340.69V14.7672ZM1354.38 12.3749L1340.18 83.3712L1344.1 84.1556L1358.3 13.1594L1354.38 12.3749ZM1342.14 85.7634H1386.18V81.7634H1342.14V85.7634ZM1384.22 83.3712L1381.57 96.6078L1385.49 97.3922L1388.14 84.1556L1384.22 83.3712ZM1383.53 95H1323.85V99H1383.53V95ZM1325.81 97.3922L1342.65 13.1594L1338.73 12.3749L1321.89 96.6078L1325.81 97.3922Z" fill="white" mask="url(#path-3-outside-2_615_2184)"/>
<mask id="path-5-outside-3_615_2184" maskUnits="userSpaceOnUse" x="1418" y="10" width="672" height="89" fill="black">
<rect fill="white" x="1418" y="10" width="672" height="89"/>
<path d="M1449.22 26.0038H1421.3L1423.95 12.7672H1495.43L1492.66 26.0038H1464.74L1450.66 97H1435.02L1449.22 26.0038ZM1504.76 12.7672H1520.4L1503.56 97H1487.91L1504.76 12.7672ZM1632.96 12.7672L1616.11 97H1601.31L1612.26 41.7673L1576.28 87.3734H1569.3L1550.05 40.6843L1538.86 97H1523.93L1540.78 12.7672H1553.54L1575.8 68.8422L1619.48 12.7672H1632.96ZM1666.18 25.8834L1661.85 47.784H1702.64L1700.11 60.6595H1659.2L1654.63 83.8837H1702.28L1699.63 97H1636.45L1653.3 12.7672H1714.79L1712.14 25.8834H1666.18ZM1776.8 26.0038H1748.88L1751.53 12.7672H1823.01L1820.24 26.0038H1792.32L1778.24 97H1762.6L1776.8 26.0038ZM1897.08 38.1573C1897.08 46.2597 1894.91 53.1187 1890.58 58.7342C1886.25 64.2695 1880.19 68.1202 1872.41 70.2862L1887.45 97H1870.84L1857.01 72.3318H1856.89H1836.07L1831.26 97H1815.49L1832.34 12.7672H1865.07C1875.26 12.7672 1883.12 15.0134 1888.65 19.5058C1894.27 23.918 1897.08 30.1352 1897.08 38.1573ZM1857.37 59.4562C1864.99 59.4562 1870.89 57.7716 1875.06 54.4023C1879.23 50.9527 1881.31 46.0191 1881.31 39.6013C1881.31 35.1089 1879.75 31.7396 1876.62 29.4934C1873.57 27.167 1869.16 26.0038 1863.38 26.0038H1845.45L1838.72 59.4562H1857.37ZM1917.95 12.7672H1933.59L1916.75 97H1901.1L1917.95 12.7672ZM1996.45 77.5061H1954.09L1941.94 97H1925.21L1979.96 12.7672H1995.48L2016.42 97H2000.9L1996.45 77.5061ZM1993.56 65.2322L1985.01 28.1697L1961.79 65.2322H1993.56ZM2041.69 12.7672H2057.34L2043.14 83.7634H2087.18L2084.53 97H2024.85L2041.69 12.7672Z"/>
</mask>
<path d="M1449.22 26.0038L1451.18 26.396L1451.66 24.0038H1449.22V26.0038ZM1421.3 26.0038L1419.34 25.6115L1418.86 28.0038H1421.3V26.0038ZM1423.95 12.7672V10.7672H1422.31L1421.99 12.3749L1423.95 12.7672ZM1495.43 12.7672L1497.39 13.1765L1497.89 10.7672H1495.43V12.7672ZM1492.66 26.0038V28.0038H1494.29L1494.62 26.4131L1492.66 26.0038ZM1464.74 26.0038V24.0038H1463.1L1462.78 25.6147L1464.74 26.0038ZM1450.66 97V99H1452.31L1452.63 97.389L1450.66 97ZM1435.02 97L1433.06 96.6078L1432.58 99H1435.02V97ZM1449.22 24.0038H1421.3V28.0038H1449.22V24.0038ZM1423.26 26.396L1425.91 13.1594L1421.99 12.3749L1419.34 25.6115L1423.26 26.396ZM1423.95 14.7672H1495.43V10.7672H1423.95V14.7672ZM1493.47 12.3578L1490.7 25.5944L1494.62 26.4131L1497.39 13.1765L1493.47 12.3578ZM1492.66 24.0038H1464.74V28.0038H1492.66V24.0038ZM1462.78 25.6147L1448.7 96.611L1452.63 97.389L1466.7 26.3928L1462.78 25.6147ZM1450.66 95H1435.02V99H1450.66V95ZM1436.98 97.3922L1451.18 26.396L1447.26 25.6115L1433.06 96.6078L1436.98 97.3922ZM1504.76 12.7672V10.7672H1503.12L1502.8 12.3749L1504.76 12.7672ZM1520.4 12.7672L1522.37 13.1594L1522.84 10.7672H1520.4V12.7672ZM1503.56 97V99H1505.2L1505.52 97.3922L1503.56 97ZM1487.91 97L1485.95 96.6078L1485.47 99H1487.91V97ZM1504.76 14.7672H1520.4V10.7672H1504.76V14.7672ZM1518.44 12.3749L1501.6 96.6078L1505.52 97.3922L1522.37 13.1594L1518.44 12.3749ZM1503.56 95H1487.91V99H1503.56V95ZM1489.88 97.3922L1506.72 13.1594L1502.8 12.3749L1485.95 96.6078L1489.88 97.3922ZM1632.96 12.7672L1634.92 13.1594L1635.4 10.7672H1632.96V12.7672ZM1616.11 97V99H1617.75L1618.07 97.3922L1616.11 97ZM1601.31 97L1599.35 96.6111L1598.87 99H1601.31V97ZM1612.26 41.7673L1614.22 42.1563L1610.69 40.5286L1612.26 41.7673ZM1576.28 87.3734V89.3734H1577.25L1577.85 88.6121L1576.28 87.3734ZM1569.3 87.3734L1567.45 88.1358L1567.96 89.3734H1569.3V87.3734ZM1550.05 40.6843L1551.9 39.9219L1549.37 33.8073L1548.08 40.2945L1550.05 40.6843ZM1538.86 97V99H1540.5L1540.82 97.3898L1538.86 97ZM1523.93 97L1521.97 96.6078L1521.49 99H1523.93V97ZM1540.78 12.7672V10.7672H1539.14L1538.82 12.3749L1540.78 12.7672ZM1553.54 12.7672L1555.4 12.0292L1554.89 10.7672H1553.54V12.7672ZM1575.8 68.8422L1573.94 69.5801L1575.23 72.8279L1577.38 70.0712L1575.8 68.8422ZM1619.48 12.7672V10.7672H1618.5L1617.9 11.5381L1619.48 12.7672ZM1630.99 12.3749L1614.15 96.6078L1618.07 97.3922L1634.92 13.1594L1630.99 12.3749ZM1616.11 95H1601.31V99H1616.11V95ZM1603.27 97.3889L1614.22 42.1563L1610.3 41.3784L1599.35 96.6111L1603.27 97.3889ZM1610.69 40.5286L1574.71 86.1346L1577.85 88.6121L1613.83 43.0061L1610.69 40.5286ZM1576.28 85.3734H1569.3V89.3734H1576.28V85.3734ZM1571.15 86.6109L1551.9 39.9219L1548.2 41.4468L1567.45 88.1358L1571.15 86.6109ZM1548.08 40.2945L1536.89 96.6102L1540.82 97.3898L1552.01 41.0741L1548.08 40.2945ZM1538.86 95H1523.93V99H1538.86V95ZM1525.9 97.3922L1542.74 13.1594L1538.82 12.3749L1521.97 96.6078L1525.9 97.3922ZM1540.78 14.7672H1553.54V10.7672H1540.78V14.7672ZM1551.68 13.5051L1573.94 69.5801L1577.66 68.1042L1555.4 12.0292L1551.68 13.5051ZM1577.38 70.0712L1621.06 13.9962L1617.9 11.5381L1574.22 67.6131L1577.38 70.0712ZM1619.48 14.7672H1632.96V10.7672H1619.48V14.7672ZM1666.18 25.8834V23.8834H1664.53L1664.22 25.4953L1666.18 25.8834ZM1661.85 47.784L1659.88 47.3959L1659.41 49.784H1661.85V47.784ZM1702.64 47.784L1704.6 48.1691L1705.07 45.784H1702.64V47.784ZM1700.11 60.6595V62.6595H1701.76L1702.07 61.0447L1700.11 60.6595ZM1659.2 60.6595V58.6595H1657.55L1657.24 60.2732L1659.2 60.6595ZM1654.63 83.8837L1652.66 83.4974L1652.19 85.8837H1654.63V83.8837ZM1702.28 83.8837L1704.24 84.2794L1704.72 81.8837H1702.28V83.8837ZM1699.63 97V99H1701.27L1701.59 97.3957L1699.63 97ZM1636.45 97L1634.49 96.6078L1634.02 99H1636.45V97ZM1653.3 12.7672V10.7672H1651.66L1651.34 12.3749L1653.3 12.7672ZM1714.79 12.7672L1716.75 13.1629L1717.24 10.7672H1714.79V12.7672ZM1712.14 25.8834V27.8834H1713.78L1714.1 26.2791L1712.14 25.8834ZM1664.22 25.4953L1659.88 47.3959L1663.81 48.172L1668.14 26.2715L1664.22 25.4953ZM1661.85 49.784H1702.64V45.784H1661.85V49.784ZM1700.68 47.3988L1698.15 60.2744L1702.07 61.0447L1704.6 48.1691L1700.68 47.3988ZM1700.11 58.6595H1659.2V62.6595H1700.11V58.6595ZM1657.24 60.2732L1652.66 83.4974L1656.59 84.2701L1661.16 61.0459L1657.24 60.2732ZM1654.63 85.8837H1702.28V81.8837H1654.63V85.8837ZM1700.32 83.4881L1697.67 96.6043L1701.59 97.3957L1704.24 84.2794L1700.32 83.4881ZM1699.63 95H1636.45V99H1699.63V95ZM1638.42 97.3922L1655.26 13.1594L1651.34 12.3749L1634.49 96.6078L1638.42 97.3922ZM1653.3 14.7672H1714.79V10.7672H1653.3V14.7672ZM1712.83 12.3715L1710.18 25.4877L1714.1 26.2791L1716.75 13.1629L1712.83 12.3715ZM1712.14 23.8834H1666.18V27.8834H1712.14V23.8834ZM1776.8 26.0038L1778.76 26.396L1779.24 24.0038H1776.8V26.0038ZM1748.88 26.0038L1746.92 25.6115L1746.44 28.0038H1748.88V26.0038ZM1751.53 12.7672V10.7672H1749.89L1749.57 12.3749L1751.53 12.7672ZM1823.01 12.7672L1824.96 13.1765L1825.47 10.7672H1823.01V12.7672ZM1820.24 26.0038V28.0038H1821.86L1822.2 26.4131L1820.24 26.0038ZM1792.32 26.0038V24.0038H1790.68L1790.36 25.6147L1792.32 26.0038ZM1778.24 97V99H1779.88L1780.2 97.389L1778.24 97ZM1762.6 97L1760.64 96.6078L1760.16 99H1762.6V97ZM1776.8 24.0038H1748.88V28.0038H1776.8V24.0038ZM1750.84 26.396L1753.49 13.1594L1749.57 12.3749L1746.92 25.6115L1750.84 26.396ZM1751.53 14.7672H1823.01V10.7672H1751.53V14.7672ZM1821.05 12.3578L1818.28 25.5944L1822.2 26.4131L1824.96 13.1765L1821.05 12.3578ZM1820.24 24.0038H1792.32V28.0038H1820.24V24.0038ZM1790.36 25.6147L1776.28 96.611L1780.2 97.389L1794.28 26.3928L1790.36 25.6147ZM1778.24 95H1762.6V99H1778.24V95ZM1764.56 97.3922L1778.76 26.396L1774.84 25.6115L1760.64 96.6078L1764.56 97.3922ZM1890.58 58.7342L1892.15 59.9669L1892.16 59.9558L1890.58 58.7342ZM1872.41 70.2862L1871.87 68.3594L1869.41 69.0437L1870.67 71.2674L1872.41 70.2862ZM1887.45 97V99H1890.87L1889.19 96.0187L1887.45 97ZM1870.84 97L1869.1 97.9785L1869.67 99H1870.84V97ZM1857.01 72.3318L1858.75 71.3533L1858.18 70.3318H1857.01V72.3318ZM1836.07 72.3318V70.3318H1834.42L1834.11 71.9488L1836.07 72.3318ZM1831.26 97V99H1832.9L1833.22 97.383L1831.26 97ZM1815.49 97L1813.53 96.6078L1813.05 99H1815.49V97ZM1832.34 12.7672V10.7672H1830.7L1830.38 12.3749L1832.34 12.7672ZM1888.65 19.5058L1887.39 21.0587L1887.41 21.0687L1887.42 21.0784L1888.65 19.5058ZM1875.06 54.4023L1876.31 55.9581L1876.32 55.9509L1876.33 55.9435L1875.06 54.4023ZM1876.62 29.4934L1875.41 31.0833L1875.43 31.101L1875.45 31.118L1876.62 29.4934ZM1845.45 26.0038V24.0038H1843.82L1843.49 25.6088L1845.45 26.0038ZM1838.72 59.4562L1836.76 59.0613L1836.27 61.4562H1838.72V59.4562ZM1895.08 38.1573C1895.08 45.8837 1893.02 52.296 1889 57.5126L1892.16 59.9558C1896.8 53.9415 1899.08 46.6358 1899.08 38.1573H1895.08ZM1889 57.5016C1884.97 62.6519 1879.31 66.2902 1871.87 68.3594L1872.95 72.2129C1881.07 69.9502 1887.52 65.8872 1892.15 59.9668L1889 57.5016ZM1870.67 71.2674L1885.71 97.9813L1889.19 96.0187L1874.15 69.3049L1870.67 71.2674ZM1887.45 95H1870.84V99H1887.45V95ZM1872.59 96.0215L1858.75 71.3533L1855.26 73.3103L1869.1 97.9785L1872.59 96.0215ZM1857.01 70.3318H1856.89V74.3318H1857.01V70.3318ZM1856.89 70.3318H1836.07V74.3318H1856.89V70.3318ZM1834.11 71.9488L1829.29 96.617L1833.22 97.383L1838.03 72.7148L1834.11 71.9488ZM1831.26 95H1815.49V99H1831.26V95ZM1817.45 97.3922L1834.3 13.1594L1830.38 12.3749L1813.53 96.6078L1817.45 97.3922ZM1832.34 14.7672H1865.07V10.7672H1832.34V14.7672ZM1865.07 14.7672C1874.99 14.7672 1882.34 16.9572 1887.39 21.0587L1889.91 17.9529C1883.9 13.0695 1875.52 10.7672 1865.07 10.7672V14.7672ZM1887.42 21.0784C1892.49 25.0613 1895.08 30.6628 1895.08 38.1573H1899.08C1899.08 29.6075 1896.05 22.7747 1889.89 17.9332L1887.42 21.0784ZM1857.37 61.4562C1865.26 61.4562 1871.66 59.7144 1876.31 55.9581L1873.8 52.8464C1870.11 55.8287 1864.72 57.4562 1857.37 57.4562V61.4562ZM1876.33 55.9435C1881.05 52.0422 1883.31 46.4926 1883.31 39.6013H1879.31C1879.31 45.5456 1877.41 49.8632 1873.78 52.861L1876.33 55.9435ZM1883.31 39.6013C1883.31 34.5873 1881.53 30.5569 1877.79 27.8687L1875.45 31.118C1877.97 32.9224 1879.31 35.6305 1879.31 39.6013H1883.31ZM1877.83 27.9035C1874.3 25.2065 1869.39 24.0038 1863.38 24.0038V28.0038C1868.93 28.0038 1872.84 29.1275 1875.41 31.0833L1877.83 27.9035ZM1863.38 24.0038H1845.45V28.0038H1863.38V24.0038ZM1843.49 25.6088L1836.76 59.0613L1840.68 59.8512L1847.42 26.3987L1843.49 25.6088ZM1838.72 61.4562H1857.37V57.4562H1838.72V61.4562ZM1917.95 12.7672V10.7672H1916.31L1915.99 12.3749L1917.95 12.7672ZM1933.59 12.7672L1935.55 13.1594L1936.03 10.7672H1933.59V12.7672ZM1916.75 97V99H1918.38L1918.71 97.3922L1916.75 97ZM1901.1 97L1899.14 96.6078L1898.66 99H1901.1V97ZM1917.95 14.7672H1933.59V10.7672H1917.95V14.7672ZM1931.63 12.3749L1914.78 96.6078L1918.71 97.3922L1935.55 13.1594L1931.63 12.3749ZM1916.75 95H1901.1V99H1916.75V95ZM1903.06 97.3922L1919.91 13.1594L1915.99 12.3749L1899.14 96.6078L1903.06 97.3922ZM1996.45 77.5061L1998.4 77.0608L1998.04 75.5061H1996.45V77.5061ZM1954.09 77.5061V75.5061H1952.98L1952.39 76.448L1954.09 77.5061ZM1941.94 97V99H1943.05L1943.63 98.0581L1941.94 97ZM1925.21 97L1923.53 95.91L1921.52 99H1925.21V97ZM1979.96 12.7672V10.7672H1978.87L1978.28 11.6772L1979.96 12.7672ZM1995.48 12.7672L1997.42 12.2847L1997.05 10.7672H1995.48V12.7672ZM2016.42 97V99H2018.98L2018.36 96.5175L2016.42 97ZM2000.9 97L1998.95 97.4453L1999.3 99H2000.9V97ZM1993.56 65.2322V67.2322H1996.07L1995.51 64.7829L1993.56 65.2322ZM1985.01 28.1697L1986.96 27.7205L1985.88 23.0216L1983.32 27.1078L1985.01 28.1697ZM1961.79 65.2322L1960.1 64.1702L1958.18 67.2322H1961.79V65.2322ZM1996.45 75.5061H1954.09V79.5061H1996.45V75.5061ZM1952.39 76.448L1940.24 95.9419L1943.63 98.0581L1955.79 78.5642L1952.39 76.448ZM1941.94 95H1925.21V99H1941.94V95ZM1926.89 98.09L1981.64 13.8571L1978.28 11.6772L1923.53 95.91L1926.89 98.09ZM1979.96 14.7672H1995.48V10.7672H1979.96V14.7672ZM1993.54 13.2496L2014.48 97.4825L2018.36 96.5175L1997.42 12.2847L1993.54 13.2496ZM2016.42 95H2000.9V99H2016.42V95ZM2002.85 96.5547L1998.4 77.0608L1994.5 77.9514L1998.95 97.4453L2002.85 96.5547ZM1995.51 64.7829L1986.96 27.7205L1983.07 28.619L1991.61 65.6814L1995.51 64.7829ZM1983.32 27.1078L1960.1 64.1702L1963.48 66.2942L1986.71 29.2317L1983.32 27.1078ZM1961.79 67.2322H1993.56V63.2322H1961.79V67.2322ZM2041.69 12.7672V10.7672H2040.05L2039.73 12.3749L2041.69 12.7672ZM2057.34 12.7672L2059.3 13.1594L2059.78 10.7672H2057.34V12.7672ZM2043.14 83.7634L2041.18 83.3712L2040.7 85.7634H2043.14V83.7634ZM2087.18 83.7634L2089.14 84.1556L2089.62 81.7634H2087.18V83.7634ZM2084.53 97V99H2086.17L2086.49 97.3922L2084.53 97ZM2024.85 97L2022.89 96.6078L2022.41 99H2024.85V97ZM2041.69 14.7672H2057.34V10.7672H2041.69V14.7672ZM2055.38 12.3749L2041.18 83.3712L2045.1 84.1556L2059.3 13.1594L2055.38 12.3749ZM2043.14 85.7634H2087.18V81.7634H2043.14V85.7634ZM2085.22 83.3712L2082.57 96.6078L2086.49 97.3922L2089.14 84.1556L2085.22 83.3712ZM2084.53 95H2024.85V99H2084.53V95ZM2026.81 97.3922L2043.65 13.1594L2039.73 12.3749L2022.89 96.6078L2026.81 97.3922Z" fill="white" mask="url(#path-5-outside-3_615_2184)"/>
<mask id="path-7-outside-4_615_2184" maskUnits="userSpaceOnUse" x="2119" y="10" width="672" height="89" fill="black">
<rect fill="white" x="2119" y="10" width="672" height="89"/>
<path d="M2150.22 26.0038H2122.3L2124.95 12.7672H2196.43L2193.66 26.0038H2165.74L2151.66 97H2136.02L2150.22 26.0038ZM2205.76 12.7672H2221.4L2204.56 97H2188.91L2205.76 12.7672ZM2333.96 12.7672L2317.11 97H2302.31L2313.26 41.7673L2277.28 87.3734H2270.3L2251.05 40.6843L2239.86 97H2224.93L2241.78 12.7672H2254.54L2276.8 68.8422L2320.48 12.7672H2333.96ZM2367.18 25.8834L2362.85 47.784H2403.64L2401.11 60.6595H2360.2L2355.63 83.8837H2403.28L2400.63 97H2337.45L2354.3 12.7672H2415.79L2413.14 25.8834H2367.18ZM2477.8 26.0038H2449.88L2452.53 12.7672H2524.01L2521.24 26.0038H2493.32L2479.24 97H2463.6L2477.8 26.0038ZM2598.08 38.1573C2598.08 46.2597 2595.91 53.1187 2591.58 58.7342C2587.25 64.2695 2581.19 68.1202 2573.41 70.2862L2588.45 97H2571.84L2558.01 72.3318H2557.89H2537.07L2532.26 97H2516.49L2533.34 12.7672H2566.07C2576.26 12.7672 2584.12 15.0134 2589.65 19.5058C2595.27 23.918 2598.08 30.1352 2598.08 38.1573ZM2558.37 59.4562C2565.99 59.4562 2571.89 57.7716 2576.06 54.4023C2580.23 50.9527 2582.31 46.0191 2582.31 39.6013C2582.31 35.1089 2580.75 31.7396 2577.62 29.4934C2574.57 27.167 2570.16 26.0038 2564.38 26.0038H2546.45L2539.72 59.4562H2558.37ZM2618.95 12.7672H2634.59L2617.75 97H2602.1L2618.95 12.7672ZM2697.45 77.5061H2655.09L2642.94 97H2626.21L2680.96 12.7672H2696.48L2717.42 97H2701.9L2697.45 77.5061ZM2694.56 65.2322L2686.01 28.1697L2662.79 65.2322H2694.56ZM2742.69 12.7672H2758.34L2744.14 83.7634H2788.18L2785.53 97H2725.85L2742.69 12.7672Z"/>
</mask>
<path d="M2150.22 26.0038L2152.18 26.396L2152.66 24.0038H2150.22V26.0038ZM2122.3 26.0038L2120.34 25.6115L2119.86 28.0038H2122.3V26.0038ZM2124.95 12.7672V10.7672H2123.31L2122.99 12.3749L2124.95 12.7672ZM2196.43 12.7672L2198.39 13.1765L2198.89 10.7672H2196.43V12.7672ZM2193.66 26.0038V28.0038H2195.29L2195.62 26.4131L2193.66 26.0038ZM2165.74 26.0038V24.0038H2164.1L2163.78 25.6147L2165.74 26.0038ZM2151.66 97V99H2153.31L2153.63 97.389L2151.66 97ZM2136.02 97L2134.06 96.6078L2133.58 99H2136.02V97ZM2150.22 24.0038H2122.3V28.0038H2150.22V24.0038ZM2124.26 26.396L2126.91 13.1594L2122.99 12.3749L2120.34 25.6115L2124.26 26.396ZM2124.95 14.7672H2196.43V10.7672H2124.95V14.7672ZM2194.47 12.3578L2191.7 25.5944L2195.62 26.4131L2198.39 13.1765L2194.47 12.3578ZM2193.66 24.0038H2165.74V28.0038H2193.66V24.0038ZM2163.78 25.6147L2149.7 96.611L2153.63 97.389L2167.7 26.3928L2163.78 25.6147ZM2151.66 95H2136.02V99H2151.66V95ZM2137.98 97.3922L2152.18 26.396L2148.26 25.6115L2134.06 96.6078L2137.98 97.3922ZM2205.76 12.7672V10.7672H2204.12L2203.8 12.3749L2205.76 12.7672ZM2221.4 12.7672L2223.37 13.1594L2223.84 10.7672H2221.4V12.7672ZM2204.56 97V99H2206.2L2206.52 97.3922L2204.56 97ZM2188.91 97L2186.95 96.6078L2186.47 99H2188.91V97ZM2205.76 14.7672H2221.4V10.7672H2205.76V14.7672ZM2219.44 12.3749L2202.6 96.6078L2206.52 97.3922L2223.37 13.1594L2219.44 12.3749ZM2204.56 95H2188.91V99H2204.56V95ZM2190.88 97.3922L2207.72 13.1594L2203.8 12.3749L2186.95 96.6078L2190.88 97.3922ZM2333.96 12.7672L2335.92 13.1594L2336.4 10.7672H2333.96V12.7672ZM2317.11 97V99H2318.75L2319.07 97.3922L2317.11 97ZM2302.31 97L2300.35 96.6111L2299.87 99H2302.31V97ZM2313.26 41.7673L2315.22 42.1563L2311.69 40.5286L2313.26 41.7673ZM2277.28 87.3734V89.3734H2278.25L2278.85 88.6121L2277.28 87.3734ZM2270.3 87.3734L2268.45 88.1358L2268.96 89.3734H2270.3V87.3734ZM2251.05 40.6843L2252.9 39.9219L2250.37 33.8073L2249.08 40.2945L2251.05 40.6843ZM2239.86 97V99H2241.5L2241.82 97.3898L2239.86 97ZM2224.93 97L2222.97 96.6078L2222.49 99H2224.93V97ZM2241.78 12.7672V10.7672H2240.14L2239.82 12.3749L2241.78 12.7672ZM2254.54 12.7672L2256.4 12.0292L2255.89 10.7672H2254.54V12.7672ZM2276.8 68.8422L2274.94 69.5801L2276.23 72.8279L2278.38 70.0712L2276.8 68.8422ZM2320.48 12.7672V10.7672H2319.5L2318.9 11.5381L2320.48 12.7672ZM2331.99 12.3749L2315.15 96.6078L2319.07 97.3922L2335.92 13.1594L2331.99 12.3749ZM2317.11 95H2302.31V99H2317.11V95ZM2304.27 97.3889L2315.22 42.1563L2311.3 41.3784L2300.35 96.6111L2304.27 97.3889ZM2311.69 40.5286L2275.71 86.1346L2278.85 88.6121L2314.83 43.0061L2311.69 40.5286ZM2277.28 85.3734H2270.3V89.3734H2277.28V85.3734ZM2272.15 86.6109L2252.9 39.9219L2249.2 41.4468L2268.45 88.1358L2272.15 86.6109ZM2249.08 40.2945L2237.89 96.6102L2241.82 97.3898L2253.01 41.0741L2249.08 40.2945ZM2239.86 95H2224.93V99H2239.86V95ZM2226.9 97.3922L2243.74 13.1594L2239.82 12.3749L2222.97 96.6078L2226.9 97.3922ZM2241.78 14.7672H2254.54V10.7672H2241.78V14.7672ZM2252.68 13.5051L2274.94 69.5801L2278.66 68.1042L2256.4 12.0292L2252.68 13.5051ZM2278.38 70.0712L2322.06 13.9962L2318.9 11.5381L2275.22 67.6131L2278.38 70.0712ZM2320.48 14.7672H2333.96V10.7672H2320.48V14.7672ZM2367.18 25.8834V23.8834H2365.53L2365.22 25.4953L2367.18 25.8834ZM2362.85 47.784L2360.88 47.3959L2360.41 49.784H2362.85V47.784ZM2403.64 47.784L2405.6 48.1691L2406.07 45.784H2403.64V47.784ZM2401.11 60.6595V62.6595H2402.76L2403.07 61.0447L2401.11 60.6595ZM2360.2 60.6595V58.6595H2358.55L2358.24 60.2732L2360.2 60.6595ZM2355.63 83.8837L2353.66 83.4974L2353.19 85.8837H2355.63V83.8837ZM2403.28 83.8837L2405.24 84.2794L2405.72 81.8837H2403.28V83.8837ZM2400.63 97V99H2402.27L2402.59 97.3957L2400.63 97ZM2337.45 97L2335.49 96.6078L2335.02 99H2337.45V97ZM2354.3 12.7672V10.7672H2352.66L2352.34 12.3749L2354.3 12.7672ZM2415.79 12.7672L2417.75 13.1629L2418.24 10.7672H2415.79V12.7672ZM2413.14 25.8834V27.8834H2414.78L2415.1 26.2791L2413.14 25.8834ZM2365.22 25.4953L2360.88 47.3959L2364.81 48.172L2369.14 26.2715L2365.22 25.4953ZM2362.85 49.784H2403.64V45.784H2362.85V49.784ZM2401.68 47.3988L2399.15 60.2744L2403.07 61.0447L2405.6 48.1691L2401.68 47.3988ZM2401.11 58.6595H2360.2V62.6595H2401.11V58.6595ZM2358.24 60.2732L2353.66 83.4974L2357.59 84.2701L2362.16 61.0459L2358.24 60.2732ZM2355.63 85.8837H2403.28V81.8837H2355.63V85.8837ZM2401.32 83.4881L2398.67 96.6043L2402.59 97.3957L2405.24 84.2794L2401.32 83.4881ZM2400.63 95H2337.45V99H2400.63V95ZM2339.42 97.3922L2356.26 13.1594L2352.34 12.3749L2335.49 96.6078L2339.42 97.3922ZM2354.3 14.7672H2415.79V10.7672H2354.3V14.7672ZM2413.83 12.3715L2411.18 25.4877L2415.1 26.2791L2417.75 13.1629L2413.83 12.3715ZM2413.14 23.8834H2367.18V27.8834H2413.14V23.8834ZM2477.8 26.0038L2479.76 26.396L2480.24 24.0038H2477.8V26.0038ZM2449.88 26.0038L2447.92 25.6115L2447.44 28.0038H2449.88V26.0038ZM2452.53 12.7672V10.7672H2450.89L2450.57 12.3749L2452.53 12.7672ZM2524.01 12.7672L2525.96 13.1765L2526.47 10.7672H2524.01V12.7672ZM2521.24 26.0038V28.0038H2522.86L2523.2 26.4131L2521.24 26.0038ZM2493.32 26.0038V24.0038H2491.68L2491.36 25.6147L2493.32 26.0038ZM2479.24 97V99H2480.88L2481.2 97.389L2479.24 97ZM2463.6 97L2461.64 96.6078L2461.16 99H2463.6V97ZM2477.8 24.0038H2449.88V28.0038H2477.8V24.0038ZM2451.84 26.396L2454.49 13.1594L2450.57 12.3749L2447.92 25.6115L2451.84 26.396ZM2452.53 14.7672H2524.01V10.7672H2452.53V14.7672ZM2522.05 12.3578L2519.28 25.5944L2523.2 26.4131L2525.96 13.1765L2522.05 12.3578ZM2521.24 24.0038H2493.32V28.0038H2521.24V24.0038ZM2491.36 25.6147L2477.28 96.611L2481.2 97.389L2495.28 26.3928L2491.36 25.6147ZM2479.24 95H2463.6V99H2479.24V95ZM2465.56 97.3922L2479.76 26.396L2475.84 25.6115L2461.64 96.6078L2465.56 97.3922ZM2591.58 58.7342L2593.15 59.9669L2593.16 59.9558L2591.58 58.7342ZM2573.41 70.2862L2572.87 68.3594L2570.41 69.0437L2571.67 71.2674L2573.41 70.2862ZM2588.45 97V99H2591.87L2590.19 96.0187L2588.45 97ZM2571.84 97L2570.1 97.9785L2570.67 99H2571.84V97ZM2558.01 72.3318L2559.75 71.3533L2559.18 70.3318H2558.01V72.3318ZM2537.07 72.3318V70.3318H2535.42L2535.11 71.9488L2537.07 72.3318ZM2532.26 97V99H2533.9L2534.22 97.383L2532.26 97ZM2516.49 97L2514.53 96.6078L2514.05 99H2516.49V97ZM2533.34 12.7672V10.7672H2531.7L2531.38 12.3749L2533.34 12.7672ZM2589.65 19.5058L2588.39 21.0587L2588.41 21.0687L2588.42 21.0784L2589.65 19.5058ZM2576.06 54.4023L2577.31 55.9581L2577.32 55.9509L2577.33 55.9435L2576.06 54.4023ZM2577.62 29.4934L2576.41 31.0833L2576.43 31.101L2576.45 31.118L2577.62 29.4934ZM2546.45 26.0038V24.0038H2544.82L2544.49 25.6088L2546.45 26.0038ZM2539.72 59.4562L2537.76 59.0613L2537.27 61.4562H2539.72V59.4562ZM2596.08 38.1573C2596.08 45.8837 2594.02 52.296 2590 57.5126L2593.16 59.9558C2597.8 53.9415 2600.08 46.6358 2600.08 38.1573H2596.08ZM2590 57.5016C2585.97 62.6519 2580.31 66.2902 2572.87 68.3594L2573.95 72.2129C2582.07 69.9502 2588.52 65.8872 2593.15 59.9668L2590 57.5016ZM2571.67 71.2674L2586.71 97.9813L2590.19 96.0187L2575.15 69.3049L2571.67 71.2674ZM2588.45 95H2571.84V99H2588.45V95ZM2573.59 96.0215L2559.75 71.3533L2556.26 73.3103L2570.1 97.9785L2573.59 96.0215ZM2558.01 70.3318H2557.89V74.3318H2558.01V70.3318ZM2557.89 70.3318H2537.07V74.3318H2557.89V70.3318ZM2535.11 71.9488L2530.29 96.617L2534.22 97.383L2539.03 72.7148L2535.11 71.9488ZM2532.26 95H2516.49V99H2532.26V95ZM2518.45 97.3922L2535.3 13.1594L2531.38 12.3749L2514.53 96.6078L2518.45 97.3922ZM2533.34 14.7672H2566.07V10.7672H2533.34V14.7672ZM2566.07 14.7672C2575.99 14.7672 2583.34 16.9572 2588.39 21.0587L2590.91 17.9529C2584.9 13.0695 2576.52 10.7672 2566.07 10.7672V14.7672ZM2588.42 21.0784C2593.49 25.0613 2596.08 30.6628 2596.08 38.1573H2600.08C2600.08 29.6075 2597.05 22.7747 2590.89 17.9332L2588.42 21.0784ZM2558.37 61.4562C2566.26 61.4562 2572.66 59.7144 2577.31 55.9581L2574.8 52.8464C2571.11 55.8287 2565.72 57.4562 2558.37 57.4562V61.4562ZM2577.33 55.9435C2582.05 52.0422 2584.31 46.4926 2584.31 39.6013H2580.31C2580.31 45.5456 2578.41 49.8632 2574.78 52.861L2577.33 55.9435ZM2584.31 39.6013C2584.31 34.5873 2582.53 30.5569 2578.79 27.8687L2576.45 31.118C2578.97 32.9224 2580.31 35.6305 2580.31 39.6013H2584.31ZM2578.83 27.9035C2575.3 25.2065 2570.39 24.0038 2564.38 24.0038V28.0038C2569.93 28.0038 2573.84 29.1275 2576.41 31.0833L2578.83 27.9035ZM2564.38 24.0038H2546.45V28.0038H2564.38V24.0038ZM2544.49 25.6088L2537.76 59.0613L2541.68 59.8512L2548.42 26.3987L2544.49 25.6088ZM2539.72 61.4562H2558.37V57.4562H2539.72V61.4562ZM2618.95 12.7672V10.7672H2617.31L2616.99 12.3749L2618.95 12.7672ZM2634.59 12.7672L2636.55 13.1594L2637.03 10.7672H2634.59V12.7672ZM2617.75 97V99H2619.38L2619.71 97.3922L2617.75 97ZM2602.1 97L2600.14 96.6078L2599.66 99H2602.1V97ZM2618.95 14.7672H2634.59V10.7672H2618.95V14.7672ZM2632.63 12.3749L2615.78 96.6078L2619.71 97.3922L2636.55 13.1594L2632.63 12.3749ZM2617.75 95H2602.1V99H2617.75V95ZM2604.06 97.3922L2620.91 13.1594L2616.99 12.3749L2600.14 96.6078L2604.06 97.3922ZM2697.45 77.5061L2699.4 77.0608L2699.04 75.5061H2697.45V77.5061ZM2655.09 77.5061V75.5061H2653.98L2653.39 76.448L2655.09 77.5061ZM2642.94 97V99H2644.05L2644.63 98.0581L2642.94 97ZM2626.21 97L2624.53 95.91L2622.52 99H2626.21V97ZM2680.96 12.7672V10.7672H2679.87L2679.28 11.6772L2680.96 12.7672ZM2696.48 12.7672L2698.42 12.2847L2698.05 10.7672H2696.48V12.7672ZM2717.42 97V99H2719.98L2719.36 96.5175L2717.42 97ZM2701.9 97L2699.95 97.4453L2700.3 99H2701.9V97ZM2694.56 65.2322V67.2322H2697.07L2696.51 64.7829L2694.56 65.2322ZM2686.01 28.1697L2687.96 27.7205L2686.88 23.0216L2684.32 27.1078L2686.01 28.1697ZM2662.79 65.2322L2661.1 64.1702L2659.18 67.2322H2662.79V65.2322ZM2697.45 75.5061H2655.09V79.5061H2697.45V75.5061ZM2653.39 76.448L2641.24 95.9419L2644.63 98.0581L2656.79 78.5642L2653.39 76.448ZM2642.94 95H2626.21V99H2642.94V95ZM2627.89 98.09L2682.64 13.8571L2679.28 11.6772L2624.53 95.91L2627.89 98.09ZM2680.96 14.7672H2696.48V10.7672H2680.96V14.7672ZM2694.54 13.2496L2715.48 97.4825L2719.36 96.5175L2698.42 12.2847L2694.54 13.2496ZM2717.42 95H2701.9V99H2717.42V95ZM2703.85 96.5547L2699.4 77.0608L2695.5 77.9514L2699.95 97.4453L2703.85 96.5547ZM2696.51 64.7829L2687.96 27.7205L2684.07 28.619L2692.61 65.6814L2696.51 64.7829ZM2684.32 27.1078L2661.1 64.1702L2664.48 66.2942L2687.71 29.2317L2684.32 27.1078ZM2662.79 67.2322H2694.56V63.2322H2662.79V67.2322ZM2742.69 12.7672V10.7672H2741.05L2740.73 12.3749L2742.69 12.7672ZM2758.34 12.7672L2760.3 13.1594L2760.78 10.7672H2758.34V12.7672ZM2744.14 83.7634L2742.18 83.3712L2741.7 85.7634H2744.14V83.7634ZM2788.18 83.7634L2790.14 84.1556L2790.62 81.7634H2788.18V83.7634ZM2785.53 97V99H2787.17L2787.49 97.3922L2785.53 97ZM2725.85 97L2723.89 96.6078L2723.41 99H2725.85V97ZM2742.69 14.7672H2758.34V10.7672H2742.69V14.7672ZM2756.38 12.3749L2742.18 83.3712L2746.1 84.1556L2760.3 13.1594L2756.38 12.3749ZM2744.14 85.7634H2788.18V81.7634H2744.14V85.7634ZM2786.22 83.3712L2783.57 96.6078L2787.49 97.3922L2790.14 84.1556L2786.22 83.3712ZM2785.53 95H2725.85V99H2785.53V95ZM2727.81 97.3922L2744.65 13.1594L2740.73 12.3749L2723.89 96.6078L2727.81 97.3922Z" fill="white" mask="url(#path-7-outside-4_615_2184)"/>
</g>
</svg>
