<svg width="2736" height="108" viewBox="0 0 2736 108" fill="none" xmlns="http://www.w3.org/2000/svg">
<g opacity="0.3">
<mask id="path-1-outside-1_615_2189" maskUnits="userSpaceOnUse" x="15" y="9" width="658" height="92" fill="black">
<rect fill="white" x="15" y="9" width="658" height="92"/>
<path d="M58.0501 98.2033C49.707 98.2033 42.487 96.7192 36.3902 93.751C30.3736 90.7026 25.7608 86.491 22.5519 81.1161C19.3431 75.661 17.7386 69.3636 17.7386 62.2239C17.7386 52.7577 19.8645 44.174 24.1163 36.4727C28.4482 28.7714 34.5451 22.7147 42.4068 18.3025C50.2685 13.81 59.2534 11.5638 69.3613 11.5638C77.7044 11.5638 84.8842 13.088 90.9009 16.1365C96.9977 19.1047 101.651 23.3163 104.859 28.7714C108.068 34.1463 109.673 40.4036 109.673 47.5433C109.673 57.0095 107.507 65.5932 103.175 73.2945C98.923 80.9958 92.8663 87.0926 85.0046 91.585C77.1428 95.9972 68.158 98.2033 58.0501 98.2033ZM59.3737 84.4854C66.1926 84.4854 72.2092 82.881 77.4236 79.6721C82.7182 76.383 86.7694 72.0109 89.5772 66.5558C92.4652 61.0205 93.9092 55.0039 93.9092 48.506C93.9092 41.4464 91.6229 35.8309 87.0502 31.6594C82.5578 27.4076 76.1802 25.2818 67.9173 25.2818C61.0985 25.2818 55.0417 26.9263 49.7471 30.2154C44.5327 33.4243 40.5216 37.7963 37.7138 43.3317C34.9061 48.7867 33.5022 54.7632 33.5022 61.2612C33.5022 68.3207 35.7484 73.9764 40.2408 78.2281C44.7332 82.3996 51.1109 84.4854 59.3737 84.4854ZM144.665 25.8834L139.491 51.5143H180.284L177.636 64.7509H136.964L130.466 97H114.823L131.669 12.7672H193.159L190.512 25.8834H144.665ZM218.876 25.8834L213.702 51.5143H254.495L251.848 64.7509H211.175L204.677 97H189.034L205.881 12.7672H267.371L264.723 25.8834H218.876ZM266.494 57.2902H299.586L297.059 69.8048H264.088L266.494 57.2902ZM388.724 38.1573C388.724 46.2597 386.558 53.1187 382.226 58.7342C377.894 64.2695 371.837 68.1202 364.056 70.2862L379.097 97H362.492L348.653 72.3318H348.533H327.715L322.902 97H307.139L323.985 12.7672H356.716C366.904 12.7672 374.766 15.0134 380.301 19.5058C385.916 23.918 388.724 30.1352 388.724 38.1573ZM349.014 59.4562C356.635 59.4562 362.532 57.7716 366.703 54.4023C370.875 50.9527 372.961 46.0191 372.961 39.6013C372.961 35.1089 371.396 31.7396 368.268 29.4934C365.219 27.167 360.807 26.0038 355.031 26.0038H337.101L330.363 59.4562H349.014ZM434.865 98.2033C426.522 98.2033 419.302 96.7192 413.205 93.751C407.189 90.7026 402.576 86.491 399.367 81.1161C396.158 75.661 394.554 69.3636 394.554 62.2239C394.554 52.7577 396.68 44.174 400.931 36.4727C405.263 28.7714 411.36 22.7147 419.222 18.3025C427.084 13.81 436.068 11.5638 446.176 11.5638C454.519 11.5638 461.699 13.088 467.716 16.1365C473.813 19.1047 478.466 23.3163 481.674 28.7714C484.883 34.1463 486.488 40.4036 486.488 47.5433C486.488 57.0095 484.322 65.5932 479.99 73.2945C475.738 80.9958 469.681 87.0926 461.82 91.585C453.958 95.9972 444.973 98.2033 434.865 98.2033ZM436.189 84.4854C443.008 84.4854 449.024 82.881 454.239 79.6721C459.533 76.383 463.584 72.0109 466.392 66.5558C469.28 61.0205 470.724 55.0039 470.724 48.506C470.724 41.4464 468.438 35.8309 463.865 31.6594C459.373 27.4076 452.995 25.2818 444.732 25.2818C437.913 25.2818 431.857 26.9263 426.562 30.2154C421.348 33.4243 417.337 37.7963 414.529 43.3317C411.721 48.7867 410.317 54.7632 410.317 61.2612C410.317 68.3207 412.563 73.9764 417.056 78.2281C421.548 82.3996 427.926 84.4854 436.189 84.4854ZM549.786 77.5061H507.429L495.276 97H478.55L533.301 12.7672H548.824L569.762 97H554.239L549.786 77.5061ZM546.899 65.2322L538.355 28.1697L515.131 65.2322H546.899ZM595.034 12.7672H629.088C637.512 12.7672 644.812 14.2112 650.989 17.0991C657.166 19.9069 661.859 23.918 665.068 29.1324C668.357 34.3468 670.002 40.4838 670.002 47.5433C670.002 57.4106 667.795 66.0745 663.383 73.5351C659.051 80.9958 652.914 86.7717 644.972 90.863C637.03 94.9543 627.885 97 617.537 97H578.188L595.034 12.7672ZM618.018 83.7634C625.398 83.7634 631.816 82.2392 637.271 79.1908C642.726 76.1423 646.898 71.9708 649.786 66.6762C652.754 61.3013 654.238 55.2446 654.238 48.506C654.238 41.4464 651.952 35.9512 647.379 32.0204C642.806 28.0093 636.148 26.0038 627.404 26.0038H608.03L596.478 83.7634H618.018Z"/>
</mask>
<path d="M36.3902 93.751L35.4863 95.5351L35.5004 95.5423L35.5147 95.5492L36.3902 93.751ZM22.5519 81.1161L20.828 82.1302L20.8347 82.1413L22.5519 81.1161ZM24.1163 36.4727L22.3731 35.4922L22.3692 35.4991L22.3654 35.5061L24.1163 36.4727ZM42.4068 18.3025L43.3856 20.0466L43.3924 20.0428L43.3991 20.0389L42.4068 18.3025ZM90.9009 16.1365L89.9969 17.9205L90.0111 17.9277L90.0254 17.9347L90.9009 16.1365ZM104.859 28.7714L103.136 29.7855L103.142 29.7966L104.859 28.7714ZM103.175 73.2945L101.432 72.3139L101.428 72.3209L101.424 72.3278L103.175 73.2945ZM85.0046 91.585L85.9834 93.3291L85.9901 93.3254L85.9968 93.3215L85.0046 91.585ZM77.4236 79.6721L78.4718 81.3754L78.479 81.371L77.4236 79.6721ZM89.5772 66.5558L87.804 65.6307L87.7989 65.6406L89.5772 66.5558ZM87.0502 31.6594L85.6754 33.112L85.6888 33.1246L85.7023 33.1369L87.0502 31.6594ZM49.7471 30.2154L50.7953 31.9187L50.8025 31.9143L49.7471 30.2154ZM37.7138 43.3317L39.4921 44.247L39.4975 44.2364L37.7138 43.3317ZM40.2408 78.2281L38.8661 79.6807L38.873 79.6872L38.8799 79.6937L40.2408 78.2281ZM58.0501 96.2033C49.9418 96.2033 43.0342 94.7612 37.2656 91.9528L35.5147 95.5492C41.9399 98.6773 49.4721 100.203 58.0501 100.203V96.2033ZM37.2941 91.9669C31.5877 89.0757 27.2691 85.1157 24.2692 80.0909L20.8347 82.1413C24.2525 87.8662 29.1594 92.3295 35.4863 95.5351L37.2941 91.9669ZM24.2758 80.1021C21.27 74.9922 19.7386 69.0537 19.7386 62.2239H15.7386C15.7386 69.6735 17.4161 76.3298 20.8281 82.1301L24.2758 80.1021ZM19.7386 62.2239C19.7386 53.0693 21.7911 44.8223 25.8671 37.4393L22.3654 35.5061C17.9379 43.5257 15.7386 52.4461 15.7386 62.2239H19.7386ZM25.8594 37.4532C30.0077 30.0785 35.8371 24.283 43.3856 20.0466L41.428 16.5584C33.2531 21.1463 26.8888 27.4643 22.3731 35.4922L25.8594 37.4532ZM43.3991 20.0389C50.9246 15.7386 59.5601 13.5638 69.3613 13.5638V9.56384C58.9467 9.56384 49.6125 11.8814 41.4145 16.566L43.3991 20.0389ZM69.3613 13.5638C77.4633 13.5638 84.3191 15.0438 89.9969 17.9205L91.8048 14.3524C85.4494 11.1323 77.9454 9.56384 69.3613 9.56384V13.5638ZM90.0254 17.9347C95.795 20.7436 100.141 24.6941 103.136 29.7854L106.583 27.7574C103.16 21.9386 98.2004 17.4658 91.7763 14.3383L90.0254 17.9347ZM103.142 29.7966C106.141 34.8199 107.673 40.7128 107.673 47.5433H111.673C111.673 40.0943 109.995 33.4726 106.577 27.7462L103.142 29.7966ZM107.673 47.5433C107.673 56.6913 105.583 64.9333 101.432 72.3139L104.918 74.275C109.43 66.2531 111.673 57.3276 111.673 47.5433H107.673ZM101.424 72.3278C97.355 79.698 91.5651 85.5327 84.0123 89.8485L85.9968 93.3215C94.1675 88.6526 100.491 82.2935 104.926 74.2611L101.424 72.3278ZM84.0257 89.8409C76.4978 94.0658 67.8575 96.2033 58.0501 96.2033V100.203C68.4585 100.203 77.7878 97.9287 85.9834 93.3291L84.0257 89.8409ZM59.3737 86.4854C66.5194 86.4854 72.9072 84.7998 78.4718 81.3754L76.3754 77.9688C71.5112 80.9622 65.8658 82.4854 59.3737 82.4854V86.4854ZM78.479 81.371C84.0759 77.8941 88.3793 73.2534 91.3555 67.4711L87.7989 65.6406C85.1596 70.7685 81.3606 74.8719 76.3682 77.9732L78.479 81.371ZM91.3504 67.481C94.3935 61.6483 95.9092 55.3125 95.9092 48.506H91.9092C91.9092 54.6954 90.5368 60.3928 87.804 65.6307L91.3504 67.481ZM95.9092 48.506C95.9092 40.9714 93.4465 34.7874 88.3981 30.1819L85.7023 33.1369C89.7992 36.8745 91.9092 41.9215 91.9092 48.506H95.9092ZM88.425 30.2068C83.4506 25.4989 76.5157 23.2818 67.9173 23.2818V27.2818C75.8446 27.2818 81.665 29.3164 85.6754 33.112L88.425 30.2068ZM67.9173 23.2818C60.7618 23.2818 54.3327 25.0123 48.6917 28.5165L50.8025 31.9143C55.7508 28.8403 61.4352 27.2818 67.9173 27.2818V23.2818ZM48.6989 28.5121C43.1659 31.917 38.9024 36.5675 35.9302 42.4269L39.4975 44.2364C42.1408 39.0252 45.8995 34.9315 50.7953 31.9187L48.6989 28.5121ZM35.9356 42.4164C32.9735 48.1713 31.5022 54.4642 31.5022 61.2612H35.5022C35.5022 55.0623 36.8387 49.4022 39.4921 44.2469L35.9356 42.4164ZM31.5022 61.2612C31.5022 68.7851 33.9166 74.9964 38.8661 79.6807L41.6156 76.7755C37.5802 72.9563 35.5022 67.8564 35.5022 61.2612H31.5022ZM38.8799 79.6937C43.8552 84.3136 50.7848 86.4854 59.3737 86.4854V82.4854C51.437 82.4854 45.6113 80.4857 41.6017 76.7625L38.8799 79.6937ZM144.665 25.8834V23.8834H143.029L142.705 25.4876L144.665 25.8834ZM139.491 51.5143L137.53 51.1185L137.047 53.5143H139.491V51.5143ZM180.284 51.5143L182.245 51.9065L182.723 49.5143H180.284V51.5143ZM177.636 64.7509V66.7509H179.276L179.597 65.1431L177.636 64.7509ZM136.964 64.7509V62.7509H135.327L135.003 64.3558L136.964 64.7509ZM130.466 97V99H132.103L132.426 97.395L130.466 97ZM114.823 97L112.861 96.6078L112.383 99H114.823V97ZM131.669 12.7672V10.7672H130.03L129.708 12.3749L131.669 12.7672ZM193.159 12.7672L195.12 13.1629L195.603 10.7672H193.159V12.7672ZM190.512 25.8834V27.8834H192.148L192.472 26.2791L190.512 25.8834ZM142.705 25.4876L137.53 51.1185L141.451 51.91L146.626 26.2792L142.705 25.4876ZM139.491 53.5143H180.284V49.5143H139.491V53.5143ZM178.322 51.122L175.675 64.3586L179.597 65.1431L182.245 51.9065L178.322 51.122ZM177.636 62.7509H136.964V66.7509H177.636V62.7509ZM135.003 64.3558L128.505 96.605L132.426 97.395L138.924 65.1459L135.003 64.3558ZM130.466 95H114.823V99H130.466V95ZM116.784 97.3922L133.63 13.1594L129.708 12.3749L112.861 96.6078L116.784 97.3922ZM131.669 14.7672H193.159V10.7672H131.669V14.7672ZM191.199 12.3715L188.551 25.4877L192.472 26.2791L195.12 13.1629L191.199 12.3715ZM190.512 23.8834H144.665V27.8834H190.512V23.8834ZM218.876 25.8834V23.8834H217.24L216.916 25.4876L218.876 25.8834ZM213.702 51.5143L211.742 51.1185L211.258 53.5143H213.702V51.5143ZM254.495 51.5143L256.456 51.9065L256.935 49.5143H254.495V51.5143ZM251.848 64.7509V66.7509H253.487L253.809 65.1431L251.848 64.7509ZM211.175 64.7509V62.7509H209.538L209.215 64.3558L211.175 64.7509ZM204.677 97V99H206.314L206.638 97.395L204.677 97ZM189.034 97L187.073 96.6078L186.594 99H189.034V97ZM205.881 12.7672V10.7672H204.241L203.919 12.3749L205.881 12.7672ZM267.371 12.7672L269.331 13.1629L269.815 10.7672H267.371V12.7672ZM264.723 25.8834V27.8834H266.36L266.684 26.2791L264.723 25.8834ZM216.916 25.4876L211.742 51.1185L215.663 51.91L220.837 26.2792L216.916 25.4876ZM213.702 53.5143H254.495V49.5143H213.702V53.5143ZM252.534 51.122L249.886 64.3586L253.809 65.1431L256.456 51.9065L252.534 51.122ZM251.848 62.7509H211.175V66.7509H251.848V62.7509ZM209.215 64.3558L202.717 96.605L206.638 97.395L213.136 65.1459L209.215 64.3558ZM204.677 95H189.034V99H204.677V95ZM190.995 97.3922L207.842 13.1594L203.919 12.3749L187.073 96.6078L190.995 97.3922ZM205.881 14.7672H267.371V10.7672H205.881V14.7672ZM265.41 12.3715L262.763 25.4877L266.684 26.2791L269.331 13.1629L265.41 12.3715ZM264.723 23.8834H218.876V27.8834H264.723V23.8834ZM266.494 57.2902V55.2902H264.842L264.53 56.9125L266.494 57.2902ZM299.586 57.2902L301.546 57.6861L302.03 55.2902H299.586V57.2902ZM297.059 69.8048V71.8048H298.695L299.019 70.2007L297.059 69.8048ZM264.088 69.8048L262.124 69.4271L261.666 71.8048H264.088V69.8048ZM266.494 59.2902H299.586V55.2902H266.494V59.2902ZM297.625 56.8944L295.098 69.409L299.019 70.2007L301.546 57.6861L297.625 56.8944ZM297.059 67.8048H264.088V71.8048H297.059V67.8048ZM266.052 70.1825L268.458 57.6679L264.53 56.9125L262.124 69.4271L266.052 70.1825ZM382.226 58.7342L383.801 59.9669L383.81 59.9558L382.226 58.7342ZM364.056 70.2862L363.52 68.3594L361.061 69.0437L362.313 71.2674L364.056 70.2862ZM379.097 97V99H382.519L380.84 96.0187L379.097 97ZM362.492 97L360.747 97.9785L361.32 99H362.492V97ZM348.653 72.3318L350.398 71.3533L349.825 70.3318H348.653V72.3318ZM327.715 72.3318V70.3318H326.068L325.752 71.9488L327.715 72.3318ZM322.902 97V99H324.55L324.865 97.383L322.902 97ZM307.139 97L305.177 96.6078L304.699 99H307.139V97ZM323.985 12.7672V10.7672H322.346L322.024 12.3749L323.985 12.7672ZM380.301 19.5058L379.04 21.0587L379.053 21.0687L379.065 21.0784L380.301 19.5058ZM366.703 54.4023L367.96 55.9581L367.969 55.9509L367.978 55.9435L366.703 54.4023ZM368.268 29.4934L367.054 31.0833L367.077 31.101L367.101 31.118L368.268 29.4934ZM337.101 26.0038V24.0038H335.464L335.141 25.6088L337.101 26.0038ZM330.363 59.4562L328.402 59.0613L327.92 61.4562H330.363V59.4562ZM386.724 38.1573C386.724 45.8837 384.667 52.296 380.643 57.5126L383.81 59.9558C388.449 53.9415 390.724 46.6358 390.724 38.1573H386.724ZM380.651 57.5016C376.62 62.6519 370.953 66.2902 363.52 68.3594L364.592 72.2129C372.721 69.9502 379.168 65.8872 383.801 59.9668L380.651 57.5016ZM362.313 71.2674L377.355 97.9813L380.84 96.0187L365.799 69.3049L362.313 71.2674ZM379.097 95H362.492V99H379.097V95ZM364.236 96.0215L350.398 71.3533L346.909 73.3103L360.747 97.9785L364.236 96.0215ZM348.653 70.3318H348.533V74.3318H348.653V70.3318ZM348.533 70.3318H327.715V74.3318H348.533V70.3318ZM325.752 71.9488L320.939 96.617L324.865 97.383L329.678 72.7148L325.752 71.9488ZM322.902 95H307.139V99H322.902V95ZM309.1 97.3922L325.946 13.1594L322.024 12.3749L305.177 96.6078L309.1 97.3922ZM323.985 14.7672H356.716V10.7672H323.985V14.7672ZM356.716 14.7672C366.637 14.7672 373.987 16.9572 379.04 21.0587L381.561 17.9529C375.544 13.0695 367.17 10.7672 356.716 10.7672V14.7672ZM379.065 21.0784C384.134 25.0613 386.724 30.6628 386.724 38.1573H390.724C390.724 29.6075 387.698 22.7747 381.536 17.9332L379.065 21.0784ZM349.014 61.4562C356.904 61.4562 363.309 59.7144 367.96 55.9581L365.447 52.8464C361.754 55.8287 356.367 57.4562 349.014 57.4562V61.4562ZM367.978 55.9435C372.696 52.0422 374.961 46.4926 374.961 39.6013H370.961C370.961 45.5456 369.054 49.8632 365.429 52.861L367.978 55.9435ZM374.961 39.6013C374.961 34.5873 373.178 30.5569 369.434 27.8687L367.101 31.118C369.614 32.9224 370.961 35.6305 370.961 39.6013H374.961ZM369.481 27.9035C365.947 25.2065 361.034 24.0038 355.031 24.0038V28.0038C360.58 28.0038 364.491 29.1275 367.054 31.0833L369.481 27.9035ZM355.031 24.0038H337.101V28.0038H355.031V24.0038ZM335.141 25.6088L328.402 59.0613L332.323 59.8512L339.062 26.3987L335.141 25.6088ZM330.363 61.4562H349.014V57.4562H330.363V61.4562ZM413.205 93.751L412.301 95.5351L412.315 95.5423L412.33 95.5492L413.205 93.751ZM399.367 81.1161L397.643 82.1302L397.65 82.1413L399.367 81.1161ZM400.931 36.4727L399.188 35.4922L399.184 35.4991L399.18 35.5061L400.931 36.4727ZM419.222 18.3025L420.201 20.0466L420.207 20.0428L420.214 20.0389L419.222 18.3025ZM467.716 16.1365L466.812 17.9205L466.826 17.9277L466.84 17.9347L467.716 16.1365ZM481.674 28.7714L479.951 29.7855L479.957 29.7966L481.674 28.7714ZM479.99 73.2945L478.247 72.3139L478.243 72.3209L478.239 72.3278L479.99 73.2945ZM461.82 91.585L462.798 93.3291L462.805 93.3254L462.812 93.3215L461.82 91.585ZM454.239 79.6721L455.287 81.3754L455.294 81.371L454.239 79.6721ZM466.392 66.5558L464.619 65.6307L464.614 65.6406L466.392 66.5558ZM463.865 31.6594L462.49 33.112L462.504 33.1246L462.517 33.1369L463.865 31.6594ZM426.562 30.2154L427.61 31.9187L427.617 31.9143L426.562 30.2154ZM414.529 43.3317L416.307 44.247L416.313 44.2364L414.529 43.3317ZM417.056 78.2281L415.681 79.6807L415.688 79.6872L415.695 79.6937L417.056 78.2281ZM434.865 96.2033C426.757 96.2033 419.849 94.7612 414.081 91.9528L412.33 95.5492C418.755 98.6773 426.287 100.203 434.865 100.203V96.2033ZM414.109 91.9669C408.403 89.0757 404.084 85.1157 401.084 80.0909L397.65 82.1413C401.068 87.8662 405.974 92.3295 412.301 95.5351L414.109 91.9669ZM401.091 80.1021C398.085 74.9922 396.554 69.0537 396.554 62.2239H392.554C392.554 69.6735 394.231 76.3298 397.643 82.1301L401.091 80.1021ZM396.554 62.2239C396.554 53.0693 398.606 44.8223 402.682 37.4393L399.18 35.5061C394.753 43.5257 392.554 52.4461 392.554 62.2239H396.554ZM402.674 37.4532C406.823 30.0785 412.652 24.283 420.201 20.0466L418.243 16.5584C410.068 21.1463 403.704 27.4643 399.188 35.4922L402.674 37.4532ZM420.214 20.0389C427.74 15.7386 436.375 13.5638 446.176 13.5638V9.56384C435.762 9.56384 426.427 11.8814 418.23 16.566L420.214 20.0389ZM446.176 13.5638C454.278 13.5638 461.134 15.0438 466.812 17.9205L468.62 14.3524C462.264 11.1323 454.76 9.56384 446.176 9.56384V13.5638ZM466.84 17.9347C472.61 20.7436 476.956 24.6941 479.951 29.7854L483.398 27.7574C479.975 21.9386 475.015 17.4658 468.591 14.3383L466.84 17.9347ZM479.957 29.7966C482.956 34.8199 484.488 40.7128 484.488 47.5433H488.488C488.488 40.0943 486.81 33.4726 483.392 27.7462L479.957 29.7966ZM484.488 47.5433C484.488 56.6913 482.398 64.9333 478.247 72.3139L481.733 74.275C486.245 66.2531 488.488 57.3276 488.488 47.5433H484.488ZM478.239 72.3278C474.17 79.698 468.38 85.5327 460.827 89.8485L462.812 93.3215C470.982 88.6526 477.306 82.2935 481.741 74.2611L478.239 72.3278ZM460.841 89.8409C453.313 94.0658 444.673 96.2033 434.865 96.2033V100.203C445.273 100.203 454.603 97.9287 462.798 93.3291L460.841 89.8409ZM436.189 86.4854C443.334 86.4854 449.722 84.7998 455.287 81.3754L453.19 77.9688C448.326 80.9622 442.681 82.4854 436.189 82.4854V86.4854ZM455.294 81.371C460.891 77.8941 465.194 73.2534 468.17 67.4711L464.614 65.6406C461.975 70.7685 458.176 74.8719 453.183 77.9732L455.294 81.371ZM468.165 67.481C471.209 61.6483 472.724 55.3125 472.724 48.506H468.724C468.724 54.6954 467.352 60.3928 464.619 65.6307L468.165 67.481ZM472.724 48.506C472.724 40.9714 470.262 34.7874 465.213 30.1819L462.517 33.1369C466.614 36.8745 468.724 41.9215 468.724 48.506H472.724ZM465.24 30.2068C460.266 25.4989 453.331 23.2818 444.732 23.2818V27.2818C452.66 27.2818 458.48 29.3164 462.49 33.112L465.24 30.2068ZM444.732 23.2818C437.577 23.2818 431.148 25.0123 425.507 28.5165L427.617 31.9143C432.566 28.8403 438.25 27.2818 444.732 27.2818V23.2818ZM425.514 28.5121C419.981 31.917 415.717 36.5675 412.745 42.4269L416.313 44.2364C418.956 39.0252 422.714 34.9315 427.61 31.9187L425.514 28.5121ZM412.751 42.4164C409.788 48.1713 408.317 54.4642 408.317 61.2612H412.317C412.317 55.0623 413.654 49.4022 416.307 44.2469L412.751 42.4164ZM408.317 61.2612C408.317 68.7851 410.732 74.9964 415.681 79.6807L418.431 76.7755C414.395 72.9563 412.317 67.8564 412.317 61.2612H408.317ZM415.695 79.6937C420.67 84.3136 427.6 86.4854 436.189 86.4854V82.4854C428.252 82.4854 422.426 80.4857 418.417 76.7625L415.695 79.6937ZM549.786 77.5061L551.736 77.0608L551.381 75.5061H549.786V77.5061ZM507.429 77.5061V75.5061H506.319L505.732 76.448L507.429 77.5061ZM495.276 97V99H496.386L496.973 98.0581L495.276 97ZM478.55 97L476.873 95.91L474.864 99H478.55V97ZM533.301 12.7672V10.7672H532.216L531.624 11.6772L533.301 12.7672ZM548.824 12.7672L550.765 12.2847L550.388 10.7672H548.824V12.7672ZM569.762 97V99H572.32L571.703 96.5175L569.762 97ZM554.239 97L552.289 97.4453L552.644 99H554.239V97ZM546.899 65.2322V67.2322H549.412L548.847 64.7829L546.899 65.2322ZM538.355 28.1697L540.304 27.7205L539.221 23.0216L536.66 27.1078L538.355 28.1697ZM515.131 65.2322L513.436 64.1702L511.517 67.2322H515.131V65.2322ZM549.786 75.5061H507.429V79.5061H549.786V75.5061ZM505.732 76.448L493.579 95.9419L496.973 98.0581L509.127 78.5642L505.732 76.448ZM495.276 95H478.55V99H495.276V95ZM480.226 98.09L534.978 13.8571L531.624 11.6772L476.873 95.91L480.226 98.09ZM533.301 14.7672H548.824V10.7672H533.301V14.7672ZM546.883 13.2496L567.821 97.4825L571.703 96.5175L550.765 12.2847L546.883 13.2496ZM569.762 95H554.239V99H569.762V95ZM556.189 96.5547L551.736 77.0608L547.837 77.9514L552.289 97.4453L556.189 96.5547ZM548.847 64.7829L540.304 27.7205L536.406 28.619L544.95 65.6814L548.847 64.7829ZM536.66 27.1078L513.436 64.1702L516.825 66.2942L540.05 29.2317L536.66 27.1078ZM515.131 67.2322H546.899V63.2322H515.131V67.2322ZM595.034 12.7672V10.7672H593.395L593.073 12.3749L595.034 12.7672ZM650.989 17.0991L650.142 18.9109L650.152 18.9154L650.161 18.9199L650.989 17.0991ZM665.068 29.1324L663.365 30.1806L663.37 30.19L663.376 30.1994L665.068 29.1324ZM663.383 73.5351L661.662 72.5171L661.658 72.5239L661.654 72.5309L663.383 73.5351ZM644.972 90.863L644.056 89.0851L644.056 89.0851L644.972 90.863ZM578.188 97L576.227 96.6078L575.748 99H578.188V97ZM637.271 79.1908L636.295 77.4449L636.295 77.4449L637.271 79.1908ZM649.786 66.6762L648.035 65.7093L648.03 65.7185L649.786 66.6762ZM647.379 32.0204L646.06 33.5239L646.068 33.5305L646.075 33.537L647.379 32.0204ZM608.03 26.0038V24.0038H606.391L606.069 25.6115L608.03 26.0038ZM596.478 83.7634L594.517 83.3712L594.039 85.7634H596.478V83.7634ZM595.034 14.7672H629.088V10.7672H595.034V14.7672ZM629.088 14.7672C637.286 14.7672 644.285 16.1725 650.142 18.9109L651.836 15.2874C645.339 12.2498 637.737 10.7672 629.088 10.7672V14.7672ZM650.161 18.9199C656.017 21.5815 660.387 25.3413 663.365 30.1806L666.771 28.0842C663.332 22.4947 658.315 18.2323 651.817 15.2784L650.161 18.9199ZM663.376 30.1994C666.436 35.0501 668.002 40.8053 668.002 47.5433H672.002C672.002 40.1622 670.278 33.6436 666.76 28.0654L663.376 30.1994ZM668.002 47.5433C668.002 57.1029 665.868 65.4055 661.662 72.5171L665.105 74.5532C669.723 66.7435 672.002 57.7182 672.002 47.5433H668.002ZM661.654 72.5309C657.521 79.649 651.672 85.1621 644.056 89.0851L645.888 92.641C654.157 88.3813 660.582 82.3425 665.113 74.5394L661.654 72.5309ZM644.056 89.0851C636.44 93.0089 627.617 95 617.537 95V99C628.153 99 637.621 96.8997 645.888 92.641L644.056 89.0851ZM617.537 95H578.188V99H617.537V95ZM580.149 97.3922L596.996 13.1594L593.073 12.3749L576.227 96.6078L580.149 97.3922ZM618.018 85.7634C625.678 85.7634 632.444 84.1796 638.247 80.9367L636.295 77.4449C631.188 80.2988 625.119 81.7634 618.018 81.7634V85.7634ZM638.247 80.9367C644.018 77.7113 648.466 73.2719 651.541 67.6339L648.03 65.7185C645.329 70.6697 641.434 74.5734 636.295 77.4449L638.247 80.9367ZM651.536 67.643C654.684 61.9439 656.238 55.549 656.238 48.506H652.238C652.238 54.9402 650.824 60.6587 648.035 65.7093L651.536 67.643ZM656.238 48.506C656.238 40.9736 653.775 34.8809 648.683 30.5038L646.075 33.537C650.129 37.0216 652.238 41.9192 652.238 48.506H656.238ZM648.698 30.5169C643.629 26.0704 636.424 24.0038 627.404 24.0038V28.0038C635.872 28.0038 641.984 29.9482 646.06 33.5239L648.698 30.5169ZM627.404 24.0038H608.03V28.0038H627.404V24.0038ZM606.069 25.6115L594.517 83.3712L598.44 84.1556L609.991 26.396L606.069 25.6115ZM596.478 85.7634H618.018V81.7634H596.478V85.7634Z" fill="white" mask="url(#path-1-outside-1_615_2189)"/>
<mask id="path-3-outside-2_615_2189" maskUnits="userSpaceOnUse" x="699" y="9" width="658" height="92" fill="black">
<rect fill="white" x="699" y="9" width="658" height="92"/>
<path d="M742.05 98.2033C733.707 98.2033 726.487 96.7192 720.39 93.751C714.374 90.7026 709.761 86.491 706.552 81.1161C703.343 75.661 701.739 69.3636 701.739 62.2239C701.739 52.7577 703.865 44.174 708.116 36.4727C712.448 28.7714 718.545 22.7147 726.407 18.3025C734.269 13.81 743.253 11.5638 753.361 11.5638C761.704 11.5638 768.884 13.088 774.901 16.1365C780.998 19.1047 785.651 23.3163 788.859 28.7714C792.068 34.1463 793.673 40.4036 793.673 47.5433C793.673 57.0095 791.507 65.5932 787.175 73.2945C782.923 80.9958 776.866 87.0926 769.005 91.585C761.143 95.9972 752.158 98.2033 742.05 98.2033ZM743.374 84.4854C750.193 84.4854 756.209 82.881 761.424 79.6721C766.718 76.383 770.769 72.0109 773.577 66.5558C776.465 61.0205 777.909 55.0039 777.909 48.506C777.909 41.4464 775.623 35.8309 771.05 31.6594C766.558 27.4076 760.18 25.2818 751.917 25.2818C745.098 25.2818 739.042 26.9263 733.747 30.2154C728.533 33.4243 724.522 37.7963 721.714 43.3317C718.906 48.7867 717.502 54.7632 717.502 61.2612C717.502 68.3207 719.748 73.9764 724.241 78.2281C728.733 82.3996 735.111 84.4854 743.374 84.4854ZM828.665 25.8834L823.491 51.5143H864.284L861.636 64.7509H820.964L814.466 97H798.823L815.669 12.7672H877.159L874.512 25.8834H828.665ZM902.876 25.8834L897.702 51.5143H938.495L935.848 64.7509H895.175L888.677 97H873.034L889.881 12.7672H951.371L948.723 25.8834H902.876ZM950.494 57.2902H983.586L981.059 69.8048H948.088L950.494 57.2902ZM1072.72 38.1573C1072.72 46.2597 1070.56 53.1187 1066.23 58.7342C1061.89 64.2695 1055.84 68.1202 1048.06 70.2862L1063.1 97H1046.49L1032.65 72.3318H1032.53H1011.72L1006.9 97H991.139L1007.99 12.7672H1040.72C1050.9 12.7672 1058.77 15.0134 1064.3 19.5058C1069.92 23.918 1072.72 30.1352 1072.72 38.1573ZM1033.01 59.4562C1040.64 59.4562 1046.53 57.7716 1050.7 54.4023C1054.87 50.9527 1056.96 46.0191 1056.96 39.6013C1056.96 35.1089 1055.4 31.7396 1052.27 29.4934C1049.22 27.167 1044.81 26.0038 1039.03 26.0038H1021.1L1014.36 59.4562H1033.01ZM1118.87 98.2033C1110.52 98.2033 1103.3 96.7192 1097.21 93.751C1091.19 90.7026 1086.58 86.491 1083.37 81.1161C1080.16 75.661 1078.55 69.3636 1078.55 62.2239C1078.55 52.7577 1080.68 44.174 1084.93 36.4727C1089.26 28.7714 1095.36 22.7147 1103.22 18.3025C1111.08 13.81 1120.07 11.5638 1130.18 11.5638C1138.52 11.5638 1145.7 13.088 1151.72 16.1365C1157.81 19.1047 1162.47 23.3163 1165.67 28.7714C1168.88 34.1463 1170.49 40.4036 1170.49 47.5433C1170.49 57.0095 1168.32 65.5932 1163.99 73.2945C1159.74 80.9958 1153.68 87.0926 1145.82 91.585C1137.96 95.9972 1128.97 98.2033 1118.87 98.2033ZM1120.19 84.4854C1127.01 84.4854 1133.02 82.881 1138.24 79.6721C1143.53 76.383 1147.58 72.0109 1150.39 66.5558C1153.28 61.0205 1154.72 55.0039 1154.72 48.506C1154.72 41.4464 1152.44 35.8309 1147.87 31.6594C1143.37 27.4076 1137 25.2818 1128.73 25.2818C1121.91 25.2818 1115.86 26.9263 1110.56 30.2154C1105.35 33.4243 1101.34 37.7963 1098.53 43.3317C1095.72 48.7867 1094.32 54.7632 1094.32 61.2612C1094.32 68.3207 1096.56 73.9764 1101.06 78.2281C1105.55 82.3996 1111.93 84.4854 1120.19 84.4854ZM1233.79 77.5061H1191.43L1179.28 97H1162.55L1217.3 12.7672H1232.82L1253.76 97H1238.24L1233.79 77.5061ZM1230.9 65.2322L1222.35 28.1697L1199.13 65.2322H1230.9ZM1279.03 12.7672H1313.09C1321.51 12.7672 1328.81 14.2112 1334.99 17.0991C1341.17 19.9069 1345.86 23.918 1349.07 29.1324C1352.36 34.3468 1354 40.4838 1354 47.5433C1354 57.4106 1351.8 66.0745 1347.38 73.5351C1343.05 80.9958 1336.91 86.7717 1328.97 90.863C1321.03 94.9543 1311.89 97 1301.54 97H1262.19L1279.03 12.7672ZM1302.02 83.7634C1309.4 83.7634 1315.82 82.2392 1321.27 79.1908C1326.73 76.1423 1330.9 71.9708 1333.79 66.6762C1336.75 61.3013 1338.24 55.2446 1338.24 48.506C1338.24 41.4464 1335.95 35.9512 1331.38 32.0204C1326.81 28.0093 1320.15 26.0038 1311.4 26.0038H1292.03L1280.48 83.7634H1302.02Z"/>
</mask>
<path d="M720.39 93.751L719.486 95.5351L719.5 95.5423L719.515 95.5492L720.39 93.751ZM706.552 81.1161L704.828 82.1302L704.835 82.1413L706.552 81.1161ZM708.116 36.4727L706.373 35.4922L706.369 35.4991L706.365 35.5061L708.116 36.4727ZM726.407 18.3025L727.386 20.0466L727.392 20.0428L727.399 20.0389L726.407 18.3025ZM774.901 16.1365L773.997 17.9205L774.011 17.9277L774.025 17.9347L774.901 16.1365ZM788.859 28.7714L787.136 29.7855L787.142 29.7966L788.859 28.7714ZM787.175 73.2945L785.432 72.3139L785.428 72.3209L785.424 72.3278L787.175 73.2945ZM769.005 91.585L769.983 93.3291L769.99 93.3254L769.997 93.3215L769.005 91.585ZM761.424 79.6721L762.472 81.3754L762.479 81.371L761.424 79.6721ZM773.577 66.5558L771.804 65.6307L771.799 65.6406L773.577 66.5558ZM771.05 31.6594L769.675 33.112L769.689 33.1246L769.702 33.1369L771.05 31.6594ZM733.747 30.2154L734.795 31.9187L734.802 31.9143L733.747 30.2154ZM721.714 43.3317L723.492 44.247L723.497 44.2364L721.714 43.3317ZM724.241 78.2281L722.866 79.6807L722.873 79.6872L722.88 79.6937L724.241 78.2281ZM742.05 96.2033C733.942 96.2033 727.034 94.7612 721.266 91.9528L719.515 95.5492C725.94 98.6773 733.472 100.203 742.05 100.203V96.2033ZM721.294 91.9669C715.588 89.0757 711.269 85.1157 708.269 80.0909L704.835 82.1413C708.253 87.8662 713.159 92.3295 719.486 95.5351L721.294 91.9669ZM708.276 80.1021C705.27 74.9922 703.739 69.0537 703.739 62.2239H699.739C699.739 69.6735 701.416 76.3298 704.828 82.1301L708.276 80.1021ZM703.739 62.2239C703.739 53.0693 705.791 44.8223 709.867 37.4393L706.365 35.5061C701.938 43.5257 699.739 52.4461 699.739 62.2239H703.739ZM709.859 37.4532C714.008 30.0785 719.837 24.283 727.386 20.0466L725.428 16.5584C717.253 21.1463 710.889 27.4643 706.373 35.4922L709.859 37.4532ZM727.399 20.0389C734.925 15.7386 743.56 13.5638 753.361 13.5638V9.56384C742.947 9.56384 733.612 11.8814 725.415 16.566L727.399 20.0389ZM753.361 13.5638C761.463 13.5638 768.319 15.0438 773.997 17.9205L775.805 14.3524C769.449 11.1323 761.945 9.56384 753.361 9.56384V13.5638ZM774.025 17.9347C779.795 20.7436 784.141 24.6941 787.136 29.7854L790.583 27.7574C787.16 21.9386 782.2 17.4658 775.776 14.3383L774.025 17.9347ZM787.142 29.7966C790.141 34.8199 791.673 40.7128 791.673 47.5433H795.673C795.673 40.0943 793.995 33.4726 790.577 27.7462L787.142 29.7966ZM791.673 47.5433C791.673 56.6913 789.583 64.9333 785.432 72.3139L788.918 74.275C793.43 66.2531 795.673 57.3276 795.673 47.5433H791.673ZM785.424 72.3278C781.355 79.698 775.565 85.5327 768.012 89.8485L769.997 93.3215C778.167 88.6526 784.491 82.2935 788.926 74.2611L785.424 72.3278ZM768.026 89.8409C760.498 94.0658 751.858 96.2033 742.05 96.2033V100.203C752.458 100.203 761.788 97.9287 769.983 93.3291L768.026 89.8409ZM743.374 86.4854C750.519 86.4854 756.907 84.7998 762.472 81.3754L760.375 77.9688C755.511 80.9622 749.866 82.4854 743.374 82.4854V86.4854ZM762.479 81.371C768.076 77.8941 772.379 73.2534 775.355 67.4711L771.799 65.6406C769.16 70.7685 765.361 74.8719 760.368 77.9732L762.479 81.371ZM775.35 67.481C778.394 61.6483 779.909 55.3125 779.909 48.506H775.909C775.909 54.6954 774.537 60.3928 771.804 65.6307L775.35 67.481ZM779.909 48.506C779.909 40.9714 777.446 34.7874 772.398 30.1819L769.702 33.1369C773.799 36.8745 775.909 41.9215 775.909 48.506H779.909ZM772.425 30.2068C767.451 25.4989 760.516 23.2818 751.917 23.2818V27.2818C759.845 27.2818 765.665 29.3164 769.675 33.112L772.425 30.2068ZM751.917 23.2818C744.762 23.2818 738.333 25.0123 732.692 28.5165L734.802 31.9143C739.751 28.8403 745.435 27.2818 751.917 27.2818V23.2818ZM732.699 28.5121C727.166 31.917 722.902 36.5675 719.93 42.4269L723.497 44.2364C726.141 39.0252 729.899 34.9315 734.795 31.9187L732.699 28.5121ZM719.936 42.4164C716.973 48.1713 715.502 54.4642 715.502 61.2612H719.502C719.502 55.0623 720.839 49.4022 723.492 44.2469L719.936 42.4164ZM715.502 61.2612C715.502 68.7851 717.917 74.9964 722.866 79.6807L725.616 76.7755C721.58 72.9563 719.502 67.8564 719.502 61.2612H715.502ZM722.88 79.6937C727.855 84.3136 734.785 86.4854 743.374 86.4854V82.4854C735.437 82.4854 729.611 80.4857 725.602 76.7625L722.88 79.6937ZM828.665 25.8834V23.8834H827.029L826.705 25.4876L828.665 25.8834ZM823.491 51.5143L821.53 51.1185L821.047 53.5143H823.491V51.5143ZM864.284 51.5143L866.245 51.9065L866.723 49.5143H864.284V51.5143ZM861.636 64.7509V66.7509H863.276L863.597 65.1431L861.636 64.7509ZM820.964 64.7509V62.7509H819.327L819.003 64.3558L820.964 64.7509ZM814.466 97V99H816.103L816.426 97.395L814.466 97ZM798.823 97L796.861 96.6078L796.383 99H798.823V97ZM815.669 12.7672V10.7672H814.03L813.708 12.3749L815.669 12.7672ZM877.159 12.7672L879.12 13.1629L879.603 10.7672H877.159V12.7672ZM874.512 25.8834V27.8834H876.148L876.472 26.2791L874.512 25.8834ZM826.705 25.4876L821.53 51.1185L825.451 51.91L830.626 26.2792L826.705 25.4876ZM823.491 53.5143H864.284V49.5143H823.491V53.5143ZM862.322 51.122L859.675 64.3586L863.597 65.1431L866.245 51.9065L862.322 51.122ZM861.636 62.7509H820.964V66.7509H861.636V62.7509ZM819.003 64.3558L812.505 96.605L816.426 97.395L822.924 65.1459L819.003 64.3558ZM814.466 95H798.823V99H814.466V95ZM800.784 97.3922L817.63 13.1594L813.708 12.3749L796.861 96.6078L800.784 97.3922ZM815.669 14.7672H877.159V10.7672H815.669V14.7672ZM875.199 12.3715L872.551 25.4877L876.472 26.2791L879.12 13.1629L875.199 12.3715ZM874.512 23.8834H828.665V27.8834H874.512V23.8834ZM902.876 25.8834V23.8834H901.24L900.916 25.4876L902.876 25.8834ZM897.702 51.5143L895.742 51.1185L895.258 53.5143H897.702V51.5143ZM938.495 51.5143L940.456 51.9065L940.935 49.5143H938.495V51.5143ZM935.848 64.7509V66.7509H937.487L937.809 65.1431L935.848 64.7509ZM895.175 64.7509V62.7509H893.538L893.215 64.3558L895.175 64.7509ZM888.677 97V99H890.314L890.638 97.395L888.677 97ZM873.034 97L871.073 96.6078L870.594 99H873.034V97ZM889.881 12.7672V10.7672H888.241L887.919 12.3749L889.881 12.7672ZM951.371 12.7672L953.331 13.1629L953.815 10.7672H951.371V12.7672ZM948.723 25.8834V27.8834H950.36L950.684 26.2791L948.723 25.8834ZM900.916 25.4876L895.742 51.1185L899.663 51.91L904.837 26.2792L900.916 25.4876ZM897.702 53.5143H938.495V49.5143H897.702V53.5143ZM936.534 51.122L933.886 64.3586L937.809 65.1431L940.456 51.9065L936.534 51.122ZM935.848 62.7509H895.175V66.7509H935.848V62.7509ZM893.215 64.3558L886.717 96.605L890.638 97.395L897.136 65.1459L893.215 64.3558ZM888.677 95H873.034V99H888.677V95ZM874.995 97.3922L891.842 13.1594L887.919 12.3749L871.073 96.6078L874.995 97.3922ZM889.881 14.7672H951.371V10.7672H889.881V14.7672ZM949.41 12.3715L946.763 25.4877L950.684 26.2791L953.331 13.1629L949.41 12.3715ZM948.723 23.8834H902.876V27.8834H948.723V23.8834ZM950.494 57.2902V55.2902H948.842L948.53 56.9125L950.494 57.2902ZM983.586 57.2902L985.546 57.6861L986.03 55.2902H983.586V57.2902ZM981.059 69.8048V71.8048H982.695L983.019 70.2007L981.059 69.8048ZM948.088 69.8048L946.124 69.4271L945.666 71.8048H948.088V69.8048ZM950.494 59.2902H983.586V55.2902H950.494V59.2902ZM981.625 56.8944L979.098 69.409L983.019 70.2007L985.546 57.6861L981.625 56.8944ZM981.059 67.8048H948.088V71.8048H981.059V67.8048ZM950.052 70.1825L952.458 57.6679L948.53 56.9125L946.124 69.4271L950.052 70.1825ZM1066.23 58.7342L1067.8 59.9669L1067.81 59.9558L1066.23 58.7342ZM1048.06 70.2862L1047.52 68.3594L1045.06 69.0437L1046.31 71.2674L1048.06 70.2862ZM1063.1 97V99H1066.52L1064.84 96.0187L1063.1 97ZM1046.49 97L1044.75 97.9785L1045.32 99H1046.49V97ZM1032.65 72.3318L1034.4 71.3533L1033.82 70.3318H1032.65V72.3318ZM1011.72 72.3318V70.3318H1010.07L1009.75 71.9488L1011.72 72.3318ZM1006.9 97V99H1008.55L1008.87 97.383L1006.9 97ZM991.139 97L989.177 96.6078L988.699 99H991.139V97ZM1007.99 12.7672V10.7672H1006.35L1006.02 12.3749L1007.99 12.7672ZM1064.3 19.5058L1063.04 21.0587L1063.05 21.0687L1063.07 21.0784L1064.3 19.5058ZM1050.7 54.4023L1051.96 55.9581L1051.97 55.9509L1051.98 55.9435L1050.7 54.4023ZM1052.27 29.4934L1051.05 31.0833L1051.08 31.101L1051.1 31.118L1052.27 29.4934ZM1021.1 26.0038V24.0038H1019.46L1019.14 25.6088L1021.1 26.0038ZM1014.36 59.4562L1012.4 59.0613L1011.92 61.4562H1014.36V59.4562ZM1070.72 38.1573C1070.72 45.8837 1068.67 52.296 1064.64 57.5126L1067.81 59.9558C1072.45 53.9415 1074.72 46.6358 1074.72 38.1573H1070.72ZM1064.65 57.5016C1060.62 62.6519 1054.95 66.2902 1047.52 68.3594L1048.59 72.2129C1056.72 69.9502 1063.17 65.8872 1067.8 59.9668L1064.65 57.5016ZM1046.31 71.2674L1061.35 97.9813L1064.84 96.0187L1049.8 69.3049L1046.31 71.2674ZM1063.1 95H1046.49V99H1063.1V95ZM1048.24 96.0215L1034.4 71.3533L1030.91 73.3103L1044.75 97.9785L1048.24 96.0215ZM1032.65 70.3318H1032.53V74.3318H1032.65V70.3318ZM1032.53 70.3318H1011.72V74.3318H1032.53V70.3318ZM1009.75 71.9488L1004.94 96.617L1008.87 97.383L1013.68 72.7148L1009.75 71.9488ZM1006.9 95H991.139V99H1006.9V95ZM993.1 97.3922L1009.95 13.1594L1006.02 12.3749L989.177 96.6078L993.1 97.3922ZM1007.99 14.7672H1040.72V10.7672H1007.99V14.7672ZM1040.72 14.7672C1050.64 14.7672 1057.99 16.9572 1063.04 21.0587L1065.56 17.9529C1059.54 13.0695 1051.17 10.7672 1040.72 10.7672V14.7672ZM1063.07 21.0784C1068.13 25.0613 1070.72 30.6628 1070.72 38.1573H1074.72C1074.72 29.6075 1071.7 22.7747 1065.54 17.9332L1063.07 21.0784ZM1033.01 61.4562C1040.9 61.4562 1047.31 59.7144 1051.96 55.9581L1049.45 52.8464C1045.75 55.8287 1040.37 57.4562 1033.01 57.4562V61.4562ZM1051.98 55.9435C1056.7 52.0422 1058.96 46.4926 1058.96 39.6013H1054.96C1054.96 45.5456 1053.05 49.8632 1049.43 52.861L1051.98 55.9435ZM1058.96 39.6013C1058.96 34.5873 1057.18 30.5569 1053.43 27.8687L1051.1 31.118C1053.61 32.9224 1054.96 35.6305 1054.96 39.6013H1058.96ZM1053.48 27.9035C1049.95 25.2065 1045.03 24.0038 1039.03 24.0038V28.0038C1044.58 28.0038 1048.49 29.1275 1051.05 31.0833L1053.48 27.9035ZM1039.03 24.0038H1021.1V28.0038H1039.03V24.0038ZM1019.14 25.6088L1012.4 59.0613L1016.32 59.8512L1023.06 26.3987L1019.14 25.6088ZM1014.36 61.4562H1033.01V57.4562H1014.36V61.4562ZM1097.21 93.751L1096.3 95.5351L1096.32 95.5423L1096.33 95.5492L1097.21 93.751ZM1083.37 81.1161L1081.64 82.1302L1081.65 82.1413L1083.37 81.1161ZM1084.93 36.4727L1083.19 35.4922L1083.18 35.4991L1083.18 35.5061L1084.93 36.4727ZM1103.22 18.3025L1104.2 20.0466L1104.21 20.0428L1104.21 20.0389L1103.22 18.3025ZM1151.72 16.1365L1150.81 17.9205L1150.83 17.9277L1150.84 17.9347L1151.72 16.1365ZM1165.67 28.7714L1163.95 29.7855L1163.96 29.7966L1165.67 28.7714ZM1163.99 73.2945L1162.25 72.3139L1162.24 72.3209L1162.24 72.3278L1163.99 73.2945ZM1145.82 91.585L1146.8 93.3291L1146.81 93.3254L1146.81 93.3215L1145.82 91.585ZM1138.24 79.6721L1139.29 81.3754L1139.29 81.371L1138.24 79.6721ZM1150.39 66.5558L1148.62 65.6307L1148.61 65.6406L1150.39 66.5558ZM1147.87 31.6594L1146.49 33.112L1146.5 33.1246L1146.52 33.1369L1147.87 31.6594ZM1110.56 30.2154L1111.61 31.9187L1111.62 31.9143L1110.56 30.2154ZM1098.53 43.3317L1100.31 44.247L1100.31 44.2364L1098.53 43.3317ZM1101.06 78.2281L1099.68 79.6807L1099.69 79.6872L1099.69 79.6937L1101.06 78.2281ZM1118.87 96.2033C1110.76 96.2033 1103.85 94.7612 1098.08 91.9528L1096.33 95.5492C1102.75 98.6773 1110.29 100.203 1118.87 100.203V96.2033ZM1098.11 91.9669C1092.4 89.0757 1088.08 85.1157 1085.08 80.0909L1081.65 82.1413C1085.07 87.8662 1089.97 92.3295 1096.3 95.5351L1098.11 91.9669ZM1085.09 80.1021C1082.09 74.9922 1080.55 69.0537 1080.55 62.2239H1076.55C1076.55 69.6735 1078.23 76.3298 1081.64 82.1301L1085.09 80.1021ZM1080.55 62.2239C1080.55 53.0693 1082.61 44.8223 1086.68 37.4393L1083.18 35.5061C1078.75 43.5257 1076.55 52.4461 1076.55 62.2239H1080.55ZM1086.67 37.4532C1090.82 30.0785 1096.65 24.283 1104.2 20.0466L1102.24 16.5584C1094.07 21.1463 1087.7 27.4643 1083.19 35.4922L1086.67 37.4532ZM1104.21 20.0389C1111.74 15.7386 1120.38 13.5638 1130.18 13.5638V9.56384C1119.76 9.56384 1110.43 11.8814 1102.23 16.566L1104.21 20.0389ZM1130.18 13.5638C1138.28 13.5638 1145.13 15.0438 1150.81 17.9205L1152.62 14.3524C1146.26 11.1323 1138.76 9.56384 1130.18 9.56384V13.5638ZM1150.84 17.9347C1156.61 20.7436 1160.96 24.6941 1163.95 29.7854L1167.4 27.7574C1163.98 21.9386 1159.02 17.4658 1152.59 14.3383L1150.84 17.9347ZM1163.96 29.7966C1166.96 34.8199 1168.49 40.7128 1168.49 47.5433H1172.49C1172.49 40.0943 1170.81 33.4726 1167.39 27.7462L1163.96 29.7966ZM1168.49 47.5433C1168.49 56.6913 1166.4 64.9333 1162.25 72.3139L1165.73 74.275C1170.25 66.2531 1172.49 57.3276 1172.49 47.5433H1168.49ZM1162.24 72.3278C1158.17 79.698 1152.38 85.5327 1144.83 89.8485L1146.81 93.3215C1154.98 88.6526 1161.31 82.2935 1165.74 74.2611L1162.24 72.3278ZM1144.84 89.8409C1137.31 94.0658 1128.67 96.2033 1118.87 96.2033V100.203C1129.27 100.203 1138.6 97.9287 1146.8 93.3291L1144.84 89.8409ZM1120.19 86.4854C1127.33 86.4854 1133.72 84.7998 1139.29 81.3754L1137.19 77.9688C1132.33 80.9622 1126.68 82.4854 1120.19 82.4854V86.4854ZM1139.29 81.371C1144.89 77.8941 1149.19 73.2534 1152.17 67.4711L1148.61 65.6406C1145.97 70.7685 1142.18 74.8719 1137.18 77.9732L1139.29 81.371ZM1152.17 67.481C1155.21 61.6483 1156.72 55.3125 1156.72 48.506H1152.72C1152.72 54.6954 1151.35 60.3928 1148.62 65.6307L1152.17 67.481ZM1156.72 48.506C1156.72 40.9714 1154.26 34.7874 1149.21 30.1819L1146.52 33.1369C1150.61 36.8745 1152.72 41.9215 1152.72 48.506H1156.72ZM1149.24 30.2068C1144.27 25.4989 1137.33 23.2818 1128.73 23.2818V27.2818C1136.66 27.2818 1142.48 29.3164 1146.49 33.112L1149.24 30.2068ZM1128.73 23.2818C1121.58 23.2818 1115.15 25.0123 1109.51 28.5165L1111.62 31.9143C1116.57 28.8403 1122.25 27.2818 1128.73 27.2818V23.2818ZM1109.51 28.5121C1103.98 31.917 1099.72 36.5675 1096.75 42.4269L1100.31 44.2364C1102.96 39.0252 1106.71 34.9315 1111.61 31.9187L1109.51 28.5121ZM1096.75 42.4164C1093.79 48.1713 1092.32 54.4642 1092.32 61.2612H1096.32C1096.32 55.0623 1097.65 49.4022 1100.31 44.2469L1096.75 42.4164ZM1092.32 61.2612C1092.32 68.7851 1094.73 74.9964 1099.68 79.6807L1102.43 76.7755C1098.4 72.9563 1096.32 67.8564 1096.32 61.2612H1092.32ZM1099.69 79.6937C1104.67 84.3136 1111.6 86.4854 1120.19 86.4854V82.4854C1112.25 82.4854 1106.43 80.4857 1102.42 76.7625L1099.69 79.6937ZM1233.79 77.5061L1235.74 77.0608L1235.38 75.5061H1233.79V77.5061ZM1191.43 77.5061V75.5061H1190.32L1189.73 76.448L1191.43 77.5061ZM1179.28 97V99H1180.39L1180.97 98.0581L1179.28 97ZM1162.55 97L1160.87 95.91L1158.86 99H1162.55V97ZM1217.3 12.7672V10.7672H1216.22L1215.62 11.6772L1217.3 12.7672ZM1232.82 12.7672L1234.76 12.2847L1234.39 10.7672H1232.82V12.7672ZM1253.76 97V99H1256.32L1255.7 96.5175L1253.76 97ZM1238.24 97L1236.29 97.4453L1236.64 99H1238.24V97ZM1230.9 65.2322V67.2322H1233.41L1232.85 64.7829L1230.9 65.2322ZM1222.35 28.1697L1224.3 27.7205L1223.22 23.0216L1220.66 27.1078L1222.35 28.1697ZM1199.13 65.2322L1197.44 64.1702L1195.52 67.2322H1199.13V65.2322ZM1233.79 75.5061H1191.43V79.5061H1233.79V75.5061ZM1189.73 76.448L1177.58 95.9419L1180.97 98.0581L1193.13 78.5642L1189.73 76.448ZM1179.28 95H1162.55V99H1179.28V95ZM1164.23 98.09L1218.98 13.8571L1215.62 11.6772L1160.87 95.91L1164.23 98.09ZM1217.3 14.7672H1232.82V10.7672H1217.3V14.7672ZM1230.88 13.2496L1251.82 97.4825L1255.7 96.5175L1234.76 12.2847L1230.88 13.2496ZM1253.76 95H1238.24V99H1253.76V95ZM1240.19 96.5547L1235.74 77.0608L1231.84 77.9514L1236.29 97.4453L1240.19 96.5547ZM1232.85 64.7829L1224.3 27.7205L1220.41 28.619L1228.95 65.6814L1232.85 64.7829ZM1220.66 27.1078L1197.44 64.1702L1200.83 66.2942L1224.05 29.2317L1220.66 27.1078ZM1199.13 67.2322H1230.9V63.2322H1199.13V67.2322ZM1279.03 12.7672V10.7672H1277.39L1277.07 12.3749L1279.03 12.7672ZM1334.99 17.0991L1334.14 18.9109L1334.15 18.9154L1334.16 18.9199L1334.99 17.0991ZM1349.07 29.1324L1347.36 30.1806L1347.37 30.19L1347.38 30.1994L1349.07 29.1324ZM1347.38 73.5351L1345.66 72.5171L1345.66 72.5239L1345.65 72.5309L1347.38 73.5351ZM1328.97 90.863L1328.06 89.0851L1328.06 89.0851L1328.97 90.863ZM1262.19 97L1260.23 96.6078L1259.75 99H1262.19V97ZM1321.27 79.1908L1320.3 77.4449L1320.3 77.4449L1321.27 79.1908ZM1333.79 66.6762L1332.03 65.7093L1332.03 65.7185L1333.79 66.6762ZM1331.38 32.0204L1330.06 33.5239L1330.07 33.5305L1330.08 33.537L1331.38 32.0204ZM1292.03 26.0038V24.0038H1290.39L1290.07 25.6115L1292.03 26.0038ZM1280.48 83.7634L1278.52 83.3712L1278.04 85.7634H1280.48V83.7634ZM1279.03 14.7672H1313.09V10.7672H1279.03V14.7672ZM1313.09 14.7672C1321.29 14.7672 1328.28 16.1725 1334.14 18.9109L1335.84 15.2874C1329.34 12.2498 1321.74 10.7672 1313.09 10.7672V14.7672ZM1334.16 18.9199C1340.02 21.5815 1344.39 25.3413 1347.36 30.1806L1350.77 28.0842C1347.33 22.4947 1342.32 18.2323 1335.82 15.2784L1334.16 18.9199ZM1347.38 30.1994C1350.44 35.0501 1352 40.8053 1352 47.5433H1356C1356 40.1622 1354.28 33.6436 1350.76 28.0654L1347.38 30.1994ZM1352 47.5433C1352 57.1029 1349.87 65.4055 1345.66 72.5171L1349.1 74.5532C1353.72 66.7435 1356 57.7182 1356 47.5433H1352ZM1345.65 72.5309C1341.52 79.649 1335.67 85.1621 1328.06 89.0851L1329.89 92.641C1338.16 88.3813 1344.58 82.3425 1349.11 74.5394L1345.65 72.5309ZM1328.06 89.0851C1320.44 93.0089 1311.62 95 1301.54 95V99C1312.15 99 1321.62 96.8997 1329.89 92.641L1328.06 89.0851ZM1301.54 95H1262.19V99H1301.54V95ZM1264.15 97.3922L1281 13.1594L1277.07 12.3749L1260.23 96.6078L1264.15 97.3922ZM1302.02 85.7634C1309.68 85.7634 1316.44 84.1796 1322.25 80.9367L1320.3 77.4449C1315.19 80.2988 1309.12 81.7634 1302.02 81.7634V85.7634ZM1322.25 80.9367C1328.02 77.7113 1332.47 73.2719 1335.54 67.6339L1332.03 65.7185C1329.33 70.6697 1325.43 74.5734 1320.3 77.4449L1322.25 80.9367ZM1335.54 67.643C1338.68 61.9439 1340.24 55.549 1340.24 48.506H1336.24C1336.24 54.9402 1334.82 60.6587 1332.03 65.7093L1335.54 67.643ZM1340.24 48.506C1340.24 40.9736 1337.77 34.8809 1332.68 30.5038L1330.08 33.537C1334.13 37.0216 1336.24 41.9192 1336.24 48.506H1340.24ZM1332.7 30.5169C1327.63 26.0704 1320.42 24.0038 1311.4 24.0038V28.0038C1319.87 28.0038 1325.98 29.9482 1330.06 33.5239L1332.7 30.5169ZM1311.4 24.0038H1292.03V28.0038H1311.4V24.0038ZM1290.07 25.6115L1278.52 83.3712L1282.44 84.1556L1293.99 26.396L1290.07 25.6115ZM1280.48 85.7634H1302.02V81.7634H1280.48V85.7634Z" fill="white" mask="url(#path-3-outside-2_615_2189)"/>
<mask id="path-5-outside-3_615_2189" maskUnits="userSpaceOnUse" x="1383" y="9" width="658" height="92" fill="black">
<rect fill="white" x="1383" y="9" width="658" height="92"/>
<path d="M1426.05 98.2033C1417.71 98.2033 1410.49 96.7192 1404.39 93.751C1398.37 90.7026 1393.76 86.491 1390.55 81.1161C1387.34 75.661 1385.74 69.3636 1385.74 62.2239C1385.74 52.7577 1387.86 44.174 1392.12 36.4727C1396.45 28.7714 1402.55 22.7147 1410.41 18.3025C1418.27 13.81 1427.25 11.5638 1437.36 11.5638C1445.7 11.5638 1452.88 13.088 1458.9 16.1365C1465 19.1047 1469.65 23.3163 1472.86 28.7714C1476.07 34.1463 1477.67 40.4036 1477.67 47.5433C1477.67 57.0095 1475.51 65.5932 1471.17 73.2945C1466.92 80.9958 1460.87 87.0926 1453 91.585C1445.14 95.9972 1436.16 98.2033 1426.05 98.2033ZM1427.37 84.4854C1434.19 84.4854 1440.21 82.881 1445.42 79.6721C1450.72 76.383 1454.77 72.0109 1457.58 66.5558C1460.47 61.0205 1461.91 55.0039 1461.91 48.506C1461.91 41.4464 1459.62 35.8309 1455.05 31.6594C1450.56 27.4076 1444.18 25.2818 1435.92 25.2818C1429.1 25.2818 1423.04 26.9263 1417.75 30.2154C1412.53 33.4243 1408.52 37.7963 1405.71 43.3317C1402.91 48.7867 1401.5 54.7632 1401.5 61.2612C1401.5 68.3207 1403.75 73.9764 1408.24 78.2281C1412.73 82.3996 1419.11 84.4854 1427.37 84.4854ZM1512.67 25.8834L1507.49 51.5143H1548.28L1545.64 64.7509H1504.96L1498.47 97H1482.82L1499.67 12.7672H1561.16L1558.51 25.8834H1512.67ZM1586.88 25.8834L1581.7 51.5143H1622.49L1619.85 64.7509H1579.18L1572.68 97H1557.03L1573.88 12.7672H1635.37L1632.72 25.8834H1586.88ZM1634.49 57.2902H1667.59L1665.06 69.8048H1632.09L1634.49 57.2902ZM1756.72 38.1573C1756.72 46.2597 1754.56 53.1187 1750.23 58.7342C1745.89 64.2695 1739.84 68.1202 1732.06 70.2862L1747.1 97H1730.49L1716.65 72.3318H1716.53H1695.72L1690.9 97H1675.14L1691.99 12.7672H1724.72C1734.9 12.7672 1742.77 15.0134 1748.3 19.5058C1753.92 23.918 1756.72 30.1352 1756.72 38.1573ZM1717.01 59.4562C1724.64 59.4562 1730.53 57.7716 1734.7 54.4023C1738.87 50.9527 1740.96 46.0191 1740.96 39.6013C1740.96 35.1089 1739.4 31.7396 1736.27 29.4934C1733.22 27.167 1728.81 26.0038 1723.03 26.0038H1705.1L1698.36 59.4562H1717.01ZM1802.87 98.2033C1794.52 98.2033 1787.3 96.7192 1781.21 93.751C1775.19 90.7026 1770.58 86.491 1767.37 81.1161C1764.16 75.661 1762.55 69.3636 1762.55 62.2239C1762.55 52.7577 1764.68 44.174 1768.93 36.4727C1773.26 28.7714 1779.36 22.7147 1787.22 18.3025C1795.08 13.81 1804.07 11.5638 1814.18 11.5638C1822.52 11.5638 1829.7 13.088 1835.72 16.1365C1841.81 19.1047 1846.47 23.3163 1849.67 28.7714C1852.88 34.1463 1854.49 40.4036 1854.49 47.5433C1854.49 57.0095 1852.32 65.5932 1847.99 73.2945C1843.74 80.9958 1837.68 87.0926 1829.82 91.585C1821.96 95.9972 1812.97 98.2033 1802.87 98.2033ZM1804.19 84.4854C1811.01 84.4854 1817.02 82.881 1822.24 79.6721C1827.53 76.383 1831.58 72.0109 1834.39 66.5558C1837.28 61.0205 1838.72 55.0039 1838.72 48.506C1838.72 41.4464 1836.44 35.8309 1831.87 31.6594C1827.37 27.4076 1821 25.2818 1812.73 25.2818C1805.91 25.2818 1799.86 26.9263 1794.56 30.2154C1789.35 33.4243 1785.34 37.7963 1782.53 43.3317C1779.72 48.7867 1778.32 54.7632 1778.32 61.2612C1778.32 68.3207 1780.56 73.9764 1785.06 78.2281C1789.55 82.3996 1795.93 84.4854 1804.19 84.4854ZM1917.79 77.5061H1875.43L1863.28 97H1846.55L1901.3 12.7672H1916.82L1937.76 97H1922.24L1917.79 77.5061ZM1914.9 65.2322L1906.35 28.1697L1883.13 65.2322H1914.9ZM1963.03 12.7672H1997.09C2005.51 12.7672 2012.81 14.2112 2018.99 17.0991C2025.17 19.9069 2029.86 23.918 2033.07 29.1324C2036.36 34.3468 2038 40.4838 2038 47.5433C2038 57.4106 2035.8 66.0745 2031.38 73.5351C2027.05 80.9958 2020.91 86.7717 2012.97 90.863C2005.03 94.9543 1995.89 97 1985.54 97H1946.19L1963.03 12.7672ZM1986.02 83.7634C1993.4 83.7634 1999.82 82.2392 2005.27 79.1908C2010.73 76.1423 2014.9 71.9708 2017.79 66.6762C2020.75 61.3013 2022.24 55.2446 2022.24 48.506C2022.24 41.4464 2019.95 35.9512 2015.38 32.0204C2010.81 28.0093 2004.15 26.0038 1995.4 26.0038H1976.03L1964.48 83.7634H1986.02Z"/>
</mask>
<path d="M1404.39 93.751L1403.49 95.5351L1403.5 95.5423L1403.51 95.5492L1404.39 93.751ZM1390.55 81.1161L1388.83 82.1302L1388.83 82.1413L1390.55 81.1161ZM1392.12 36.4727L1390.37 35.4922L1390.37 35.4991L1390.37 35.5061L1392.12 36.4727ZM1410.41 18.3025L1411.39 20.0466L1411.39 20.0428L1411.4 20.0389L1410.41 18.3025ZM1458.9 16.1365L1458 17.9205L1458.01 17.9277L1458.03 17.9347L1458.9 16.1365ZM1472.86 28.7714L1471.14 29.7855L1471.14 29.7966L1472.86 28.7714ZM1471.17 73.2945L1469.43 72.3139L1469.43 72.3209L1469.42 72.3278L1471.17 73.2945ZM1453 91.585L1453.98 93.3291L1453.99 93.3254L1454 93.3215L1453 91.585ZM1445.42 79.6721L1446.47 81.3754L1446.48 81.371L1445.42 79.6721ZM1457.58 66.5558L1455.8 65.6307L1455.8 65.6406L1457.58 66.5558ZM1455.05 31.6594L1453.68 33.112L1453.69 33.1246L1453.7 33.1369L1455.05 31.6594ZM1417.75 30.2154L1418.8 31.9187L1418.8 31.9143L1417.75 30.2154ZM1405.71 43.3317L1407.49 44.247L1407.5 44.2364L1405.71 43.3317ZM1408.24 78.2281L1406.87 79.6807L1406.87 79.6872L1406.88 79.6937L1408.24 78.2281ZM1426.05 96.2033C1417.94 96.2033 1411.03 94.7612 1405.27 91.9528L1403.51 95.5492C1409.94 98.6773 1417.47 100.203 1426.05 100.203V96.2033ZM1405.29 91.9669C1399.59 89.0757 1395.27 85.1157 1392.27 80.0909L1388.83 82.1413C1392.25 87.8662 1397.16 92.3295 1403.49 95.5351L1405.29 91.9669ZM1392.28 80.1021C1389.27 74.9922 1387.74 69.0537 1387.74 62.2239H1383.74C1383.74 69.6735 1385.42 76.3298 1388.83 82.1301L1392.28 80.1021ZM1387.74 62.2239C1387.74 53.0693 1389.79 44.8223 1393.87 37.4393L1390.37 35.5061C1385.94 43.5257 1383.74 52.4461 1383.74 62.2239H1387.74ZM1393.86 37.4532C1398.01 30.0785 1403.84 24.283 1411.39 20.0466L1409.43 16.5584C1401.25 21.1463 1394.89 27.4643 1390.37 35.4922L1393.86 37.4532ZM1411.4 20.0389C1418.92 15.7386 1427.56 13.5638 1437.36 13.5638V9.56384C1426.95 9.56384 1417.61 11.8814 1409.41 16.566L1411.4 20.0389ZM1437.36 13.5638C1445.46 13.5638 1452.32 15.0438 1458 17.9205L1459.8 14.3524C1453.45 11.1323 1445.95 9.56384 1437.36 9.56384V13.5638ZM1458.03 17.9347C1463.79 20.7436 1468.14 24.6941 1471.14 29.7854L1474.58 27.7574C1471.16 21.9386 1466.2 17.4658 1459.78 14.3383L1458.03 17.9347ZM1471.14 29.7966C1474.14 34.8199 1475.67 40.7128 1475.67 47.5433H1479.67C1479.67 40.0943 1478 33.4726 1474.58 27.7462L1471.14 29.7966ZM1475.67 47.5433C1475.67 56.6913 1473.58 64.9333 1469.43 72.3139L1472.92 74.275C1477.43 66.2531 1479.67 57.3276 1479.67 47.5433H1475.67ZM1469.42 72.3278C1465.35 79.698 1459.57 85.5327 1452.01 89.8485L1454 93.3215C1462.17 88.6526 1468.49 82.2935 1472.93 74.2611L1469.42 72.3278ZM1452.03 89.8409C1444.5 94.0658 1435.86 96.2033 1426.05 96.2033V100.203C1436.46 100.203 1445.79 97.9287 1453.98 93.3291L1452.03 89.8409ZM1427.37 86.4854C1434.52 86.4854 1440.91 84.7998 1446.47 81.3754L1444.38 77.9688C1439.51 80.9622 1433.87 82.4854 1427.37 82.4854V86.4854ZM1446.48 81.371C1452.08 77.8941 1456.38 73.2534 1459.36 67.4711L1455.8 65.6406C1453.16 70.7685 1449.36 74.8719 1444.37 77.9732L1446.48 81.371ZM1459.35 67.481C1462.39 61.6483 1463.91 55.3125 1463.91 48.506H1459.91C1459.91 54.6954 1458.54 60.3928 1455.8 65.6307L1459.35 67.481ZM1463.91 48.506C1463.91 40.9714 1461.45 34.7874 1456.4 30.1819L1453.7 33.1369C1457.8 36.8745 1459.91 41.9215 1459.91 48.506H1463.91ZM1456.42 30.2068C1451.45 25.4989 1444.52 23.2818 1435.92 23.2818V27.2818C1443.84 27.2818 1449.67 29.3164 1453.68 33.112L1456.42 30.2068ZM1435.92 23.2818C1428.76 23.2818 1422.33 25.0123 1416.69 28.5165L1418.8 31.9143C1423.75 28.8403 1429.44 27.2818 1435.92 27.2818V23.2818ZM1416.7 28.5121C1411.17 31.917 1406.9 36.5675 1403.93 42.4269L1407.5 44.2364C1410.14 39.0252 1413.9 34.9315 1418.8 31.9187L1416.7 28.5121ZM1403.94 42.4164C1400.97 48.1713 1399.5 54.4642 1399.5 61.2612H1403.5C1403.5 55.0623 1404.84 49.4022 1407.49 44.2469L1403.94 42.4164ZM1399.5 61.2612C1399.5 68.7851 1401.92 74.9964 1406.87 79.6807L1409.62 76.7755C1405.58 72.9563 1403.5 67.8564 1403.5 61.2612H1399.5ZM1406.88 79.6937C1411.86 84.3136 1418.78 86.4854 1427.37 86.4854V82.4854C1419.44 82.4854 1413.61 80.4857 1409.6 76.7625L1406.88 79.6937ZM1512.67 25.8834V23.8834H1511.03L1510.7 25.4876L1512.67 25.8834ZM1507.49 51.5143L1505.53 51.1185L1505.05 53.5143H1507.49V51.5143ZM1548.28 51.5143L1550.24 51.9065L1550.72 49.5143H1548.28V51.5143ZM1545.64 64.7509V66.7509H1547.28L1547.6 65.1431L1545.64 64.7509ZM1504.96 64.7509V62.7509H1503.33L1503 64.3558L1504.96 64.7509ZM1498.47 97V99H1500.1L1500.43 97.395L1498.47 97ZM1482.82 97L1480.86 96.6078L1480.38 99H1482.82V97ZM1499.67 12.7672V10.7672H1498.03L1497.71 12.3749L1499.67 12.7672ZM1561.16 12.7672L1563.12 13.1629L1563.6 10.7672H1561.16V12.7672ZM1558.51 25.8834V27.8834H1560.15L1560.47 26.2791L1558.51 25.8834ZM1510.7 25.4876L1505.53 51.1185L1509.45 51.91L1514.63 26.2792L1510.7 25.4876ZM1507.49 53.5143H1548.28V49.5143H1507.49V53.5143ZM1546.32 51.122L1543.68 64.3586L1547.6 65.1431L1550.24 51.9065L1546.32 51.122ZM1545.64 62.7509H1504.96V66.7509H1545.64V62.7509ZM1503 64.3558L1496.51 96.605L1500.43 97.395L1506.92 65.1459L1503 64.3558ZM1498.47 95H1482.82V99H1498.47V95ZM1484.78 97.3922L1501.63 13.1594L1497.71 12.3749L1480.86 96.6078L1484.78 97.3922ZM1499.67 14.7672H1561.16V10.7672H1499.67V14.7672ZM1559.2 12.3715L1556.55 25.4877L1560.47 26.2791L1563.12 13.1629L1559.2 12.3715ZM1558.51 23.8834H1512.67V27.8834H1558.51V23.8834ZM1586.88 25.8834V23.8834H1585.24L1584.92 25.4876L1586.88 25.8834ZM1581.7 51.5143L1579.74 51.1185L1579.26 53.5143H1581.7V51.5143ZM1622.49 51.5143L1624.46 51.9065L1624.93 49.5143H1622.49V51.5143ZM1619.85 64.7509V66.7509H1621.49L1621.81 65.1431L1619.85 64.7509ZM1579.18 64.7509V62.7509H1577.54L1577.21 64.3558L1579.18 64.7509ZM1572.68 97V99H1574.31L1574.64 97.395L1572.68 97ZM1557.03 97L1555.07 96.6078L1554.59 99H1557.03V97ZM1573.88 12.7672V10.7672H1572.24L1571.92 12.3749L1573.88 12.7672ZM1635.37 12.7672L1637.33 13.1629L1637.81 10.7672H1635.37V12.7672ZM1632.72 25.8834V27.8834H1634.36L1634.68 26.2791L1632.72 25.8834ZM1584.92 25.4876L1579.74 51.1185L1583.66 51.91L1588.84 26.2792L1584.92 25.4876ZM1581.7 53.5143H1622.49V49.5143H1581.7V53.5143ZM1620.53 51.122L1617.89 64.3586L1621.81 65.1431L1624.46 51.9065L1620.53 51.122ZM1619.85 62.7509H1579.18V66.7509H1619.85V62.7509ZM1577.21 64.3558L1570.72 96.605L1574.64 97.395L1581.14 65.1459L1577.21 64.3558ZM1572.68 95H1557.03V99H1572.68V95ZM1559 97.3922L1575.84 13.1594L1571.92 12.3749L1555.07 96.6078L1559 97.3922ZM1573.88 14.7672H1635.37V10.7672H1573.88V14.7672ZM1633.41 12.3715L1630.76 25.4877L1634.68 26.2791L1637.33 13.1629L1633.41 12.3715ZM1632.72 23.8834H1586.88V27.8834H1632.72V23.8834ZM1634.49 57.2902V55.2902H1632.84L1632.53 56.9125L1634.49 57.2902ZM1667.59 57.2902L1669.55 57.6861L1670.03 55.2902H1667.59V57.2902ZM1665.06 69.8048V71.8048H1666.7L1667.02 70.2007L1665.06 69.8048ZM1632.09 69.8048L1630.12 69.4271L1629.67 71.8048H1632.09V69.8048ZM1634.49 59.2902H1667.59V55.2902H1634.49V59.2902ZM1665.63 56.8944L1663.1 69.409L1667.02 70.2007L1669.55 57.6861L1665.63 56.8944ZM1665.06 67.8048H1632.09V71.8048H1665.06V67.8048ZM1634.05 70.1825L1636.46 57.6679L1632.53 56.9125L1630.12 69.4271L1634.05 70.1825ZM1750.23 58.7342L1751.8 59.9669L1751.81 59.9558L1750.23 58.7342ZM1732.06 70.2862L1731.52 68.3594L1729.06 69.0437L1730.31 71.2674L1732.06 70.2862ZM1747.1 97V99H1750.52L1748.84 96.0187L1747.1 97ZM1730.49 97L1728.75 97.9785L1729.32 99H1730.49V97ZM1716.65 72.3318L1718.4 71.3533L1717.82 70.3318H1716.65V72.3318ZM1695.72 72.3318V70.3318H1694.07L1693.75 71.9488L1695.72 72.3318ZM1690.9 97V99H1692.55L1692.87 97.383L1690.9 97ZM1675.14 97L1673.18 96.6078L1672.7 99H1675.14V97ZM1691.99 12.7672V10.7672H1690.35L1690.02 12.3749L1691.99 12.7672ZM1748.3 19.5058L1747.04 21.0587L1747.05 21.0687L1747.07 21.0784L1748.3 19.5058ZM1734.7 54.4023L1735.96 55.9581L1735.97 55.9509L1735.98 55.9435L1734.7 54.4023ZM1736.27 29.4934L1735.05 31.0833L1735.08 31.101L1735.1 31.118L1736.27 29.4934ZM1705.1 26.0038V24.0038H1703.46L1703.14 25.6088L1705.1 26.0038ZM1698.36 59.4562L1696.4 59.0613L1695.92 61.4562H1698.36V59.4562ZM1754.72 38.1573C1754.72 45.8837 1752.67 52.296 1748.64 57.5126L1751.81 59.9558C1756.45 53.9415 1758.72 46.6358 1758.72 38.1573H1754.72ZM1748.65 57.5016C1744.62 62.6519 1738.95 66.2902 1731.52 68.3594L1732.59 72.2129C1740.72 69.9502 1747.17 65.8872 1751.8 59.9668L1748.65 57.5016ZM1730.31 71.2674L1745.35 97.9813L1748.84 96.0187L1733.8 69.3049L1730.31 71.2674ZM1747.1 95H1730.49V99H1747.1V95ZM1732.24 96.0215L1718.4 71.3533L1714.91 73.3103L1728.75 97.9785L1732.24 96.0215ZM1716.65 70.3318H1716.53V74.3318H1716.65V70.3318ZM1716.53 70.3318H1695.72V74.3318H1716.53V70.3318ZM1693.75 71.9488L1688.94 96.617L1692.87 97.383L1697.68 72.7148L1693.75 71.9488ZM1690.9 95H1675.14V99H1690.9V95ZM1677.1 97.3922L1693.95 13.1594L1690.02 12.3749L1673.18 96.6078L1677.1 97.3922ZM1691.99 14.7672H1724.72V10.7672H1691.99V14.7672ZM1724.72 14.7672C1734.64 14.7672 1741.99 16.9572 1747.04 21.0587L1749.56 17.9529C1743.54 13.0695 1735.17 10.7672 1724.72 10.7672V14.7672ZM1747.07 21.0784C1752.13 25.0613 1754.72 30.6628 1754.72 38.1573H1758.72C1758.72 29.6075 1755.7 22.7747 1749.54 17.9332L1747.07 21.0784ZM1717.01 61.4562C1724.9 61.4562 1731.31 59.7144 1735.96 55.9581L1733.45 52.8464C1729.75 55.8287 1724.37 57.4562 1717.01 57.4562V61.4562ZM1735.98 55.9435C1740.7 52.0422 1742.96 46.4926 1742.96 39.6013H1738.96C1738.96 45.5456 1737.05 49.8632 1733.43 52.861L1735.98 55.9435ZM1742.96 39.6013C1742.96 34.5873 1741.18 30.5569 1737.43 27.8687L1735.1 31.118C1737.61 32.9224 1738.96 35.6305 1738.96 39.6013H1742.96ZM1737.48 27.9035C1733.95 25.2065 1729.03 24.0038 1723.03 24.0038V28.0038C1728.58 28.0038 1732.49 29.1275 1735.05 31.0833L1737.48 27.9035ZM1723.03 24.0038H1705.1V28.0038H1723.03V24.0038ZM1703.14 25.6088L1696.4 59.0613L1700.32 59.8512L1707.06 26.3987L1703.14 25.6088ZM1698.36 61.4562H1717.01V57.4562H1698.36V61.4562ZM1781.21 93.751L1780.3 95.5351L1780.32 95.5423L1780.33 95.5492L1781.21 93.751ZM1767.37 81.1161L1765.64 82.1302L1765.65 82.1413L1767.37 81.1161ZM1768.93 36.4727L1767.19 35.4922L1767.18 35.4991L1767.18 35.5061L1768.93 36.4727ZM1787.22 18.3025L1788.2 20.0466L1788.21 20.0428L1788.21 20.0389L1787.22 18.3025ZM1835.72 16.1365L1834.81 17.9205L1834.83 17.9277L1834.84 17.9347L1835.72 16.1365ZM1849.67 28.7714L1847.95 29.7855L1847.96 29.7966L1849.67 28.7714ZM1847.99 73.2945L1846.25 72.3139L1846.24 72.3209L1846.24 72.3278L1847.99 73.2945ZM1829.82 91.585L1830.8 93.3291L1830.81 93.3254L1830.81 93.3215L1829.82 91.585ZM1822.24 79.6721L1823.29 81.3754L1823.29 81.371L1822.24 79.6721ZM1834.39 66.5558L1832.62 65.6307L1832.61 65.6406L1834.39 66.5558ZM1831.87 31.6594L1830.49 33.112L1830.5 33.1246L1830.52 33.1369L1831.87 31.6594ZM1794.56 30.2154L1795.61 31.9187L1795.62 31.9143L1794.56 30.2154ZM1782.53 43.3317L1784.31 44.247L1784.31 44.2364L1782.53 43.3317ZM1785.06 78.2281L1783.68 79.6807L1783.69 79.6872L1783.69 79.6937L1785.06 78.2281ZM1802.87 96.2033C1794.76 96.2033 1787.85 94.7612 1782.08 91.9528L1780.33 95.5492C1786.75 98.6773 1794.29 100.203 1802.87 100.203V96.2033ZM1782.11 91.9669C1776.4 89.0757 1772.08 85.1157 1769.08 80.0909L1765.65 82.1413C1769.07 87.8662 1773.97 92.3295 1780.3 95.5351L1782.11 91.9669ZM1769.09 80.1021C1766.09 74.9922 1764.55 69.0537 1764.55 62.2239H1760.55C1760.55 69.6735 1762.23 76.3298 1765.64 82.1301L1769.09 80.1021ZM1764.55 62.2239C1764.55 53.0693 1766.61 44.8223 1770.68 37.4393L1767.18 35.5061C1762.75 43.5257 1760.55 52.4461 1760.55 62.2239H1764.55ZM1770.67 37.4532C1774.82 30.0785 1780.65 24.283 1788.2 20.0466L1786.24 16.5584C1778.07 21.1463 1771.7 27.4643 1767.19 35.4922L1770.67 37.4532ZM1788.21 20.0389C1795.74 15.7386 1804.38 13.5638 1814.18 13.5638V9.56384C1803.76 9.56384 1794.43 11.8814 1786.23 16.566L1788.21 20.0389ZM1814.18 13.5638C1822.28 13.5638 1829.13 15.0438 1834.81 17.9205L1836.62 14.3524C1830.26 11.1323 1822.76 9.56384 1814.18 9.56384V13.5638ZM1834.84 17.9347C1840.61 20.7436 1844.96 24.6941 1847.95 29.7854L1851.4 27.7574C1847.98 21.9386 1843.02 17.4658 1836.59 14.3383L1834.84 17.9347ZM1847.96 29.7966C1850.96 34.8199 1852.49 40.7128 1852.49 47.5433H1856.49C1856.49 40.0943 1854.81 33.4726 1851.39 27.7462L1847.96 29.7966ZM1852.49 47.5433C1852.49 56.6913 1850.4 64.9333 1846.25 72.3139L1849.73 74.275C1854.25 66.2531 1856.49 57.3276 1856.49 47.5433H1852.49ZM1846.24 72.3278C1842.17 79.698 1836.38 85.5327 1828.83 89.8485L1830.81 93.3215C1838.98 88.6526 1845.31 82.2935 1849.74 74.2611L1846.24 72.3278ZM1828.84 89.8409C1821.31 94.0658 1812.67 96.2033 1802.87 96.2033V100.203C1813.27 100.203 1822.6 97.9287 1830.8 93.3291L1828.84 89.8409ZM1804.19 86.4854C1811.33 86.4854 1817.72 84.7998 1823.29 81.3754L1821.19 77.9688C1816.33 80.9622 1810.68 82.4854 1804.19 82.4854V86.4854ZM1823.29 81.371C1828.89 77.8941 1833.19 73.2534 1836.17 67.4711L1832.61 65.6406C1829.97 70.7685 1826.18 74.8719 1821.18 77.9732L1823.29 81.371ZM1836.17 67.481C1839.21 61.6483 1840.72 55.3125 1840.72 48.506H1836.72C1836.72 54.6954 1835.35 60.3928 1832.62 65.6307L1836.17 67.481ZM1840.72 48.506C1840.72 40.9714 1838.26 34.7874 1833.21 30.1819L1830.52 33.1369C1834.61 36.8745 1836.72 41.9215 1836.72 48.506H1840.72ZM1833.24 30.2068C1828.27 25.4989 1821.33 23.2818 1812.73 23.2818V27.2818C1820.66 27.2818 1826.48 29.3164 1830.49 33.112L1833.24 30.2068ZM1812.73 23.2818C1805.58 23.2818 1799.15 25.0123 1793.51 28.5165L1795.62 31.9143C1800.57 28.8403 1806.25 27.2818 1812.73 27.2818V23.2818ZM1793.51 28.5121C1787.98 31.917 1783.72 36.5675 1780.75 42.4269L1784.31 44.2364C1786.96 39.0252 1790.71 34.9315 1795.61 31.9187L1793.51 28.5121ZM1780.75 42.4164C1777.79 48.1713 1776.32 54.4642 1776.32 61.2612H1780.32C1780.32 55.0623 1781.65 49.4022 1784.31 44.2469L1780.75 42.4164ZM1776.32 61.2612C1776.32 68.7851 1778.73 74.9964 1783.68 79.6807L1786.43 76.7755C1782.4 72.9563 1780.32 67.8564 1780.32 61.2612H1776.32ZM1783.69 79.6937C1788.67 84.3136 1795.6 86.4854 1804.19 86.4854V82.4854C1796.25 82.4854 1790.43 80.4857 1786.42 76.7625L1783.69 79.6937ZM1917.79 77.5061L1919.74 77.0608L1919.38 75.5061H1917.79V77.5061ZM1875.43 77.5061V75.5061H1874.32L1873.73 76.448L1875.43 77.5061ZM1863.28 97V99H1864.39L1864.97 98.0581L1863.28 97ZM1846.55 97L1844.87 95.91L1842.86 99H1846.55V97ZM1901.3 12.7672V10.7672H1900.22L1899.62 11.6772L1901.3 12.7672ZM1916.82 12.7672L1918.76 12.2847L1918.39 10.7672H1916.82V12.7672ZM1937.76 97V99H1940.32L1939.7 96.5175L1937.76 97ZM1922.24 97L1920.29 97.4453L1920.64 99H1922.24V97ZM1914.9 65.2322V67.2322H1917.41L1916.85 64.7829L1914.9 65.2322ZM1906.35 28.1697L1908.3 27.7205L1907.22 23.0216L1904.66 27.1078L1906.35 28.1697ZM1883.13 65.2322L1881.44 64.1702L1879.52 67.2322H1883.13V65.2322ZM1917.79 75.5061H1875.43V79.5061H1917.79V75.5061ZM1873.73 76.448L1861.58 95.9419L1864.97 98.0581L1877.13 78.5642L1873.73 76.448ZM1863.28 95H1846.55V99H1863.28V95ZM1848.23 98.09L1902.98 13.8571L1899.62 11.6772L1844.87 95.91L1848.23 98.09ZM1901.3 14.7672H1916.82V10.7672H1901.3V14.7672ZM1914.88 13.2496L1935.82 97.4825L1939.7 96.5175L1918.76 12.2847L1914.88 13.2496ZM1937.76 95H1922.24V99H1937.76V95ZM1924.19 96.5547L1919.74 77.0608L1915.84 77.9514L1920.29 97.4453L1924.19 96.5547ZM1916.85 64.7829L1908.3 27.7205L1904.41 28.619L1912.95 65.6814L1916.85 64.7829ZM1904.66 27.1078L1881.44 64.1702L1884.83 66.2942L1908.05 29.2317L1904.66 27.1078ZM1883.13 67.2322H1914.9V63.2322H1883.13V67.2322ZM1963.03 12.7672V10.7672H1961.39L1961.07 12.3749L1963.03 12.7672ZM2018.99 17.0991L2018.14 18.9109L2018.15 18.9154L2018.16 18.9199L2018.99 17.0991ZM2033.07 29.1324L2031.36 30.1806L2031.37 30.19L2031.38 30.1994L2033.07 29.1324ZM2031.38 73.5351L2029.66 72.5171L2029.66 72.5239L2029.65 72.5309L2031.38 73.5351ZM2012.97 90.863L2012.06 89.0851L2012.06 89.0851L2012.97 90.863ZM1946.19 97L1944.23 96.6078L1943.75 99H1946.19V97ZM2005.27 79.1908L2004.3 77.4449L2004.3 77.4449L2005.27 79.1908ZM2017.79 66.6762L2016.03 65.7093L2016.03 65.7185L2017.79 66.6762ZM2015.38 32.0204L2014.06 33.5239L2014.07 33.5305L2014.08 33.537L2015.38 32.0204ZM1976.03 26.0038V24.0038H1974.39L1974.07 25.6115L1976.03 26.0038ZM1964.48 83.7634L1962.52 83.3712L1962.04 85.7634H1964.48V83.7634ZM1963.03 14.7672H1997.09V10.7672H1963.03V14.7672ZM1997.09 14.7672C2005.29 14.7672 2012.28 16.1725 2018.14 18.9109L2019.84 15.2874C2013.34 12.2498 2005.74 10.7672 1997.09 10.7672V14.7672ZM2018.16 18.9199C2024.02 21.5815 2028.39 25.3413 2031.36 30.1806L2034.77 28.0842C2031.33 22.4947 2026.32 18.2323 2019.82 15.2784L2018.16 18.9199ZM2031.38 30.1994C2034.44 35.0501 2036 40.8053 2036 47.5433H2040C2040 40.1622 2038.28 33.6436 2034.76 28.0654L2031.38 30.1994ZM2036 47.5433C2036 57.1029 2033.87 65.4055 2029.66 72.5171L2033.1 74.5532C2037.72 66.7435 2040 57.7182 2040 47.5433H2036ZM2029.65 72.5309C2025.52 79.649 2019.67 85.1621 2012.06 89.0851L2013.89 92.641C2022.16 88.3813 2028.58 82.3425 2033.11 74.5394L2029.65 72.5309ZM2012.06 89.0851C2004.44 93.0089 1995.62 95 1985.54 95V99C1996.15 99 2005.62 96.8997 2013.89 92.641L2012.06 89.0851ZM1985.54 95H1946.19V99H1985.54V95ZM1948.15 97.3922L1965 13.1594L1961.07 12.3749L1944.23 96.6078L1948.15 97.3922ZM1986.02 85.7634C1993.68 85.7634 2000.44 84.1796 2006.25 80.9367L2004.3 77.4449C1999.19 80.2988 1993.12 81.7634 1986.02 81.7634V85.7634ZM2006.25 80.9367C2012.02 77.7113 2016.47 73.2719 2019.54 67.6339L2016.03 65.7185C2013.33 70.6697 2009.43 74.5734 2004.3 77.4449L2006.25 80.9367ZM2019.54 67.643C2022.68 61.9439 2024.24 55.549 2024.24 48.506H2020.24C2020.24 54.9402 2018.82 60.6587 2016.03 65.7093L2019.54 67.643ZM2024.24 48.506C2024.24 40.9736 2021.77 34.8809 2016.68 30.5038L2014.08 33.537C2018.13 37.0216 2020.24 41.9192 2020.24 48.506H2024.24ZM2016.7 30.5169C2011.63 26.0704 2004.42 24.0038 1995.4 24.0038V28.0038C2003.87 28.0038 2009.98 29.9482 2014.06 33.5239L2016.7 30.5169ZM1995.4 24.0038H1976.03V28.0038H1995.4V24.0038ZM1974.07 25.6115L1962.52 83.3712L1966.44 84.1556L1977.99 26.396L1974.07 25.6115ZM1964.48 85.7634H1986.02V81.7634H1964.48V85.7634Z" fill="white" mask="url(#path-5-outside-3_615_2189)"/>
<mask id="path-7-outside-4_615_2189" maskUnits="userSpaceOnUse" x="2067" y="9" width="658" height="92" fill="black">
<rect fill="white" x="2067" y="9" width="658" height="92"/>
<path d="M2110.05 98.2033C2101.71 98.2033 2094.49 96.7192 2088.39 93.751C2082.37 90.7026 2077.76 86.491 2074.55 81.1161C2071.34 75.661 2069.74 69.3636 2069.74 62.2239C2069.74 52.7577 2071.86 44.174 2076.12 36.4727C2080.45 28.7714 2086.55 22.7147 2094.41 18.3025C2102.27 13.81 2111.25 11.5638 2121.36 11.5638C2129.7 11.5638 2136.88 13.088 2142.9 16.1365C2149 19.1047 2153.65 23.3163 2156.86 28.7714C2160.07 34.1463 2161.67 40.4036 2161.67 47.5433C2161.67 57.0095 2159.51 65.5932 2155.17 73.2945C2150.92 80.9958 2144.87 87.0926 2137 91.585C2129.14 95.9972 2120.16 98.2033 2110.05 98.2033ZM2111.37 84.4854C2118.19 84.4854 2124.21 82.881 2129.42 79.6721C2134.72 76.383 2138.77 72.0109 2141.58 66.5558C2144.47 61.0205 2145.91 55.0039 2145.91 48.506C2145.91 41.4464 2143.62 35.8309 2139.05 31.6594C2134.56 27.4076 2128.18 25.2818 2119.92 25.2818C2113.1 25.2818 2107.04 26.9263 2101.75 30.2154C2096.53 33.4243 2092.52 37.7963 2089.71 43.3317C2086.91 48.7867 2085.5 54.7632 2085.5 61.2612C2085.5 68.3207 2087.75 73.9764 2092.24 78.2281C2096.73 82.3996 2103.11 84.4854 2111.37 84.4854ZM2196.67 25.8834L2191.49 51.5143H2232.28L2229.64 64.7509H2188.96L2182.47 97H2166.82L2183.67 12.7672H2245.16L2242.51 25.8834H2196.67ZM2270.88 25.8834L2265.7 51.5143H2306.49L2303.85 64.7509H2263.18L2256.68 97H2241.03L2257.88 12.7672H2319.37L2316.72 25.8834H2270.88ZM2318.49 57.2902H2351.59L2349.06 69.8048H2316.09L2318.49 57.2902ZM2440.72 38.1573C2440.72 46.2597 2438.56 53.1187 2434.23 58.7342C2429.89 64.2695 2423.84 68.1202 2416.06 70.2862L2431.1 97H2414.49L2400.65 72.3318H2400.53H2379.72L2374.9 97H2359.14L2375.99 12.7672H2408.72C2418.9 12.7672 2426.77 15.0134 2432.3 19.5058C2437.92 23.918 2440.72 30.1352 2440.72 38.1573ZM2401.01 59.4562C2408.64 59.4562 2414.53 57.7716 2418.7 54.4023C2422.87 50.9527 2424.96 46.0191 2424.96 39.6013C2424.96 35.1089 2423.4 31.7396 2420.27 29.4934C2417.22 27.167 2412.81 26.0038 2407.03 26.0038H2389.1L2382.36 59.4562H2401.01ZM2486.87 98.2033C2478.52 98.2033 2471.3 96.7192 2465.21 93.751C2459.19 90.7026 2454.58 86.491 2451.37 81.1161C2448.16 75.661 2446.55 69.3636 2446.55 62.2239C2446.55 52.7577 2448.68 44.174 2452.93 36.4727C2457.26 28.7714 2463.36 22.7147 2471.22 18.3025C2479.08 13.81 2488.07 11.5638 2498.18 11.5638C2506.52 11.5638 2513.7 13.088 2519.72 16.1365C2525.81 19.1047 2530.47 23.3163 2533.67 28.7714C2536.88 34.1463 2538.49 40.4036 2538.49 47.5433C2538.49 57.0095 2536.32 65.5932 2531.99 73.2945C2527.74 80.9958 2521.68 87.0926 2513.82 91.585C2505.96 95.9972 2496.97 98.2033 2486.87 98.2033ZM2488.19 84.4854C2495.01 84.4854 2501.02 82.881 2506.24 79.6721C2511.53 76.383 2515.58 72.0109 2518.39 66.5558C2521.28 61.0205 2522.72 55.0039 2522.72 48.506C2522.72 41.4464 2520.44 35.8309 2515.87 31.6594C2511.37 27.4076 2505 25.2818 2496.73 25.2818C2489.91 25.2818 2483.86 26.9263 2478.56 30.2154C2473.35 33.4243 2469.34 37.7963 2466.53 43.3317C2463.72 48.7867 2462.32 54.7632 2462.32 61.2612C2462.32 68.3207 2464.56 73.9764 2469.06 78.2281C2473.55 82.3996 2479.93 84.4854 2488.19 84.4854ZM2601.79 77.5061H2559.43L2547.28 97H2530.55L2585.3 12.7672H2600.82L2621.76 97H2606.24L2601.79 77.5061ZM2598.9 65.2322L2590.35 28.1697L2567.13 65.2322H2598.9ZM2647.03 12.7672H2681.09C2689.51 12.7672 2696.81 14.2112 2702.99 17.0991C2709.17 19.9069 2713.86 23.918 2717.07 29.1324C2720.36 34.3468 2722 40.4838 2722 47.5433C2722 57.4106 2719.8 66.0745 2715.38 73.5351C2711.05 80.9958 2704.91 86.7717 2696.97 90.863C2689.03 94.9543 2679.89 97 2669.54 97H2630.19L2647.03 12.7672ZM2670.02 83.7634C2677.4 83.7634 2683.82 82.2392 2689.27 79.1908C2694.73 76.1423 2698.9 71.9708 2701.79 66.6762C2704.75 61.3013 2706.24 55.2446 2706.24 48.506C2706.24 41.4464 2703.95 35.9512 2699.38 32.0204C2694.81 28.0093 2688.15 26.0038 2679.4 26.0038H2660.03L2648.48 83.7634H2670.02Z"/>
</mask>
<path d="M2088.39 93.751L2087.49 95.5351L2087.5 95.5423L2087.51 95.5492L2088.39 93.751ZM2074.55 81.1161L2072.83 82.1302L2072.83 82.1413L2074.55 81.1161ZM2076.12 36.4727L2074.37 35.4922L2074.37 35.4991L2074.37 35.5061L2076.12 36.4727ZM2094.41 18.3025L2095.39 20.0466L2095.39 20.0428L2095.4 20.0389L2094.41 18.3025ZM2142.9 16.1365L2142 17.9205L2142.01 17.9277L2142.03 17.9347L2142.9 16.1365ZM2156.86 28.7714L2155.14 29.7855L2155.14 29.7966L2156.86 28.7714ZM2155.17 73.2945L2153.43 72.3139L2153.43 72.3209L2153.42 72.3278L2155.17 73.2945ZM2137 91.585L2137.98 93.3291L2137.99 93.3254L2138 93.3215L2137 91.585ZM2129.42 79.6721L2130.47 81.3754L2130.48 81.371L2129.42 79.6721ZM2141.58 66.5558L2139.8 65.6307L2139.8 65.6406L2141.58 66.5558ZM2139.05 31.6594L2137.68 33.112L2137.69 33.1246L2137.7 33.1369L2139.05 31.6594ZM2101.75 30.2154L2102.8 31.9187L2102.8 31.9143L2101.75 30.2154ZM2089.71 43.3317L2091.49 44.247L2091.5 44.2364L2089.71 43.3317ZM2092.24 78.2281L2090.87 79.6807L2090.87 79.6872L2090.88 79.6937L2092.24 78.2281ZM2110.05 96.2033C2101.94 96.2033 2095.03 94.7612 2089.27 91.9528L2087.51 95.5492C2093.94 98.6773 2101.47 100.203 2110.05 100.203V96.2033ZM2089.29 91.9669C2083.59 89.0757 2079.27 85.1157 2076.27 80.0909L2072.83 82.1413C2076.25 87.8662 2081.16 92.3295 2087.49 95.5351L2089.29 91.9669ZM2076.28 80.1021C2073.27 74.9922 2071.74 69.0537 2071.74 62.2239H2067.74C2067.74 69.6735 2069.42 76.3298 2072.83 82.1301L2076.28 80.1021ZM2071.74 62.2239C2071.74 53.0693 2073.79 44.8223 2077.87 37.4393L2074.37 35.5061C2069.94 43.5257 2067.74 52.4461 2067.74 62.2239H2071.74ZM2077.86 37.4532C2082.01 30.0785 2087.84 24.283 2095.39 20.0466L2093.43 16.5584C2085.25 21.1463 2078.89 27.4643 2074.37 35.4922L2077.86 37.4532ZM2095.4 20.0389C2102.92 15.7386 2111.56 13.5638 2121.36 13.5638V9.56384C2110.95 9.56384 2101.61 11.8814 2093.41 16.566L2095.4 20.0389ZM2121.36 13.5638C2129.46 13.5638 2136.32 15.0438 2142 17.9205L2143.8 14.3524C2137.45 11.1323 2129.95 9.56384 2121.36 9.56384V13.5638ZM2142.03 17.9347C2147.79 20.7436 2152.14 24.6941 2155.14 29.7854L2158.58 27.7574C2155.16 21.9386 2150.2 17.4658 2143.78 14.3383L2142.03 17.9347ZM2155.14 29.7966C2158.14 34.8199 2159.67 40.7128 2159.67 47.5433H2163.67C2163.67 40.0943 2162 33.4726 2158.58 27.7462L2155.14 29.7966ZM2159.67 47.5433C2159.67 56.6913 2157.58 64.9333 2153.43 72.3139L2156.92 74.275C2161.43 66.2531 2163.67 57.3276 2163.67 47.5433H2159.67ZM2153.42 72.3278C2149.35 79.698 2143.57 85.5327 2136.01 89.8485L2138 93.3215C2146.17 88.6526 2152.49 82.2935 2156.93 74.2611L2153.42 72.3278ZM2136.03 89.8409C2128.5 94.0658 2119.86 96.2033 2110.05 96.2033V100.203C2120.46 100.203 2129.79 97.9287 2137.98 93.3291L2136.03 89.8409ZM2111.37 86.4854C2118.52 86.4854 2124.91 84.7998 2130.47 81.3754L2128.38 77.9688C2123.51 80.9622 2117.87 82.4854 2111.37 82.4854V86.4854ZM2130.48 81.371C2136.08 77.8941 2140.38 73.2534 2143.36 67.4711L2139.8 65.6406C2137.16 70.7685 2133.36 74.8719 2128.37 77.9732L2130.48 81.371ZM2143.35 67.481C2146.39 61.6483 2147.91 55.3125 2147.91 48.506H2143.91C2143.91 54.6954 2142.54 60.3928 2139.8 65.6307L2143.35 67.481ZM2147.91 48.506C2147.91 40.9714 2145.45 34.7874 2140.4 30.1819L2137.7 33.1369C2141.8 36.8745 2143.91 41.9215 2143.91 48.506H2147.91ZM2140.42 30.2068C2135.45 25.4989 2128.52 23.2818 2119.92 23.2818V27.2818C2127.84 27.2818 2133.67 29.3164 2137.68 33.112L2140.42 30.2068ZM2119.92 23.2818C2112.76 23.2818 2106.33 25.0123 2100.69 28.5165L2102.8 31.9143C2107.75 28.8403 2113.44 27.2818 2119.92 27.2818V23.2818ZM2100.7 28.5121C2095.17 31.917 2090.9 36.5675 2087.93 42.4269L2091.5 44.2364C2094.14 39.0252 2097.9 34.9315 2102.8 31.9187L2100.7 28.5121ZM2087.94 42.4164C2084.97 48.1713 2083.5 54.4642 2083.5 61.2612H2087.5C2087.5 55.0623 2088.84 49.4022 2091.49 44.2469L2087.94 42.4164ZM2083.5 61.2612C2083.5 68.7851 2085.92 74.9964 2090.87 79.6807L2093.62 76.7755C2089.58 72.9563 2087.5 67.8564 2087.5 61.2612H2083.5ZM2090.88 79.6937C2095.86 84.3136 2102.78 86.4854 2111.37 86.4854V82.4854C2103.44 82.4854 2097.61 80.4857 2093.6 76.7625L2090.88 79.6937ZM2196.67 25.8834V23.8834H2195.03L2194.7 25.4876L2196.67 25.8834ZM2191.49 51.5143L2189.53 51.1185L2189.05 53.5143H2191.49V51.5143ZM2232.28 51.5143L2234.24 51.9065L2234.72 49.5143H2232.28V51.5143ZM2229.64 64.7509V66.7509H2231.28L2231.6 65.1431L2229.64 64.7509ZM2188.96 64.7509V62.7509H2187.33L2187 64.3558L2188.96 64.7509ZM2182.47 97V99H2184.1L2184.43 97.395L2182.47 97ZM2166.82 97L2164.86 96.6078L2164.38 99H2166.82V97ZM2183.67 12.7672V10.7672H2182.03L2181.71 12.3749L2183.67 12.7672ZM2245.16 12.7672L2247.12 13.1629L2247.6 10.7672H2245.16V12.7672ZM2242.51 25.8834V27.8834H2244.15L2244.47 26.2791L2242.51 25.8834ZM2194.7 25.4876L2189.53 51.1185L2193.45 51.91L2198.63 26.2792L2194.7 25.4876ZM2191.49 53.5143H2232.28V49.5143H2191.49V53.5143ZM2230.32 51.122L2227.68 64.3586L2231.6 65.1431L2234.24 51.9065L2230.32 51.122ZM2229.64 62.7509H2188.96V66.7509H2229.64V62.7509ZM2187 64.3558L2180.51 96.605L2184.43 97.395L2190.92 65.1459L2187 64.3558ZM2182.47 95H2166.82V99H2182.47V95ZM2168.78 97.3922L2185.63 13.1594L2181.71 12.3749L2164.86 96.6078L2168.78 97.3922ZM2183.67 14.7672H2245.16V10.7672H2183.67V14.7672ZM2243.2 12.3715L2240.55 25.4877L2244.47 26.2791L2247.12 13.1629L2243.2 12.3715ZM2242.51 23.8834H2196.67V27.8834H2242.51V23.8834ZM2270.88 25.8834V23.8834H2269.24L2268.92 25.4876L2270.88 25.8834ZM2265.7 51.5143L2263.74 51.1185L2263.26 53.5143H2265.7V51.5143ZM2306.49 51.5143L2308.46 51.9065L2308.93 49.5143H2306.49V51.5143ZM2303.85 64.7509V66.7509H2305.49L2305.81 65.1431L2303.85 64.7509ZM2263.18 64.7509V62.7509H2261.54L2261.21 64.3558L2263.18 64.7509ZM2256.68 97V99H2258.31L2258.64 97.395L2256.68 97ZM2241.03 97L2239.07 96.6078L2238.59 99H2241.03V97ZM2257.88 12.7672V10.7672H2256.24L2255.92 12.3749L2257.88 12.7672ZM2319.37 12.7672L2321.33 13.1629L2321.81 10.7672H2319.37V12.7672ZM2316.72 25.8834V27.8834H2318.36L2318.68 26.2791L2316.72 25.8834ZM2268.92 25.4876L2263.74 51.1185L2267.66 51.91L2272.84 26.2792L2268.92 25.4876ZM2265.7 53.5143H2306.49V49.5143H2265.7V53.5143ZM2304.53 51.122L2301.89 64.3586L2305.81 65.1431L2308.46 51.9065L2304.53 51.122ZM2303.85 62.7509H2263.18V66.7509H2303.85V62.7509ZM2261.21 64.3558L2254.72 96.605L2258.64 97.395L2265.14 65.1459L2261.21 64.3558ZM2256.68 95H2241.03V99H2256.68V95ZM2243 97.3922L2259.84 13.1594L2255.92 12.3749L2239.07 96.6078L2243 97.3922ZM2257.88 14.7672H2319.37V10.7672H2257.88V14.7672ZM2317.41 12.3715L2314.76 25.4877L2318.68 26.2791L2321.33 13.1629L2317.41 12.3715ZM2316.72 23.8834H2270.88V27.8834H2316.72V23.8834ZM2318.49 57.2902V55.2902H2316.84L2316.53 56.9125L2318.49 57.2902ZM2351.59 57.2902L2353.55 57.6861L2354.03 55.2902H2351.59V57.2902ZM2349.06 69.8048V71.8048H2350.7L2351.02 70.2007L2349.06 69.8048ZM2316.09 69.8048L2314.12 69.4271L2313.67 71.8048H2316.09V69.8048ZM2318.49 59.2902H2351.59V55.2902H2318.49V59.2902ZM2349.63 56.8944L2347.1 69.409L2351.02 70.2007L2353.55 57.6861L2349.63 56.8944ZM2349.06 67.8048H2316.09V71.8048H2349.06V67.8048ZM2318.05 70.1825L2320.46 57.6679L2316.53 56.9125L2314.12 69.4271L2318.05 70.1825ZM2434.23 58.7342L2435.8 59.9669L2435.81 59.9558L2434.23 58.7342ZM2416.06 70.2862L2415.52 68.3594L2413.06 69.0437L2414.31 71.2674L2416.06 70.2862ZM2431.1 97V99H2434.52L2432.84 96.0187L2431.1 97ZM2414.49 97L2412.75 97.9785L2413.32 99H2414.49V97ZM2400.65 72.3318L2402.4 71.3533L2401.82 70.3318H2400.65V72.3318ZM2379.72 72.3318V70.3318H2378.07L2377.75 71.9488L2379.72 72.3318ZM2374.9 97V99H2376.55L2376.87 97.383L2374.9 97ZM2359.14 97L2357.18 96.6078L2356.7 99H2359.14V97ZM2375.99 12.7672V10.7672H2374.35L2374.02 12.3749L2375.99 12.7672ZM2432.3 19.5058L2431.04 21.0587L2431.05 21.0687L2431.07 21.0784L2432.3 19.5058ZM2418.7 54.4023L2419.96 55.9581L2419.97 55.9509L2419.98 55.9435L2418.7 54.4023ZM2420.27 29.4934L2419.05 31.0833L2419.08 31.101L2419.1 31.118L2420.27 29.4934ZM2389.1 26.0038V24.0038H2387.46L2387.14 25.6088L2389.1 26.0038ZM2382.36 59.4562L2380.4 59.0613L2379.92 61.4562H2382.36V59.4562ZM2438.72 38.1573C2438.72 45.8837 2436.67 52.296 2432.64 57.5126L2435.81 59.9558C2440.45 53.9415 2442.72 46.6358 2442.72 38.1573H2438.72ZM2432.65 57.5016C2428.62 62.6519 2422.95 66.2902 2415.52 68.3594L2416.59 72.2129C2424.72 69.9502 2431.17 65.8872 2435.8 59.9668L2432.65 57.5016ZM2414.31 71.2674L2429.35 97.9813L2432.84 96.0187L2417.8 69.3049L2414.31 71.2674ZM2431.1 95H2414.49V99H2431.1V95ZM2416.24 96.0215L2402.4 71.3533L2398.91 73.3103L2412.75 97.9785L2416.24 96.0215ZM2400.65 70.3318H2400.53V74.3318H2400.65V70.3318ZM2400.53 70.3318H2379.72V74.3318H2400.53V70.3318ZM2377.75 71.9488L2372.94 96.617L2376.87 97.383L2381.68 72.7148L2377.75 71.9488ZM2374.9 95H2359.14V99H2374.9V95ZM2361.1 97.3922L2377.95 13.1594L2374.02 12.3749L2357.18 96.6078L2361.1 97.3922ZM2375.99 14.7672H2408.72V10.7672H2375.99V14.7672ZM2408.72 14.7672C2418.64 14.7672 2425.99 16.9572 2431.04 21.0587L2433.56 17.9529C2427.54 13.0695 2419.17 10.7672 2408.72 10.7672V14.7672ZM2431.07 21.0784C2436.13 25.0613 2438.72 30.6628 2438.72 38.1573H2442.72C2442.72 29.6075 2439.7 22.7747 2433.54 17.9332L2431.07 21.0784ZM2401.01 61.4562C2408.9 61.4562 2415.31 59.7144 2419.96 55.9581L2417.45 52.8464C2413.75 55.8287 2408.37 57.4562 2401.01 57.4562V61.4562ZM2419.98 55.9435C2424.7 52.0422 2426.96 46.4926 2426.96 39.6013H2422.96C2422.96 45.5456 2421.05 49.8632 2417.43 52.861L2419.98 55.9435ZM2426.96 39.6013C2426.96 34.5873 2425.18 30.5569 2421.43 27.8687L2419.1 31.118C2421.61 32.9224 2422.96 35.6305 2422.96 39.6013H2426.96ZM2421.48 27.9035C2417.95 25.2065 2413.03 24.0038 2407.03 24.0038V28.0038C2412.58 28.0038 2416.49 29.1275 2419.05 31.0833L2421.48 27.9035ZM2407.03 24.0038H2389.1V28.0038H2407.03V24.0038ZM2387.14 25.6088L2380.4 59.0613L2384.32 59.8512L2391.06 26.3987L2387.14 25.6088ZM2382.36 61.4562H2401.01V57.4562H2382.36V61.4562ZM2465.21 93.751L2464.3 95.5351L2464.32 95.5423L2464.33 95.5492L2465.21 93.751ZM2451.37 81.1161L2449.64 82.1302L2449.65 82.1413L2451.37 81.1161ZM2452.93 36.4727L2451.19 35.4922L2451.18 35.4991L2451.18 35.5061L2452.93 36.4727ZM2471.22 18.3025L2472.2 20.0466L2472.21 20.0428L2472.21 20.0389L2471.22 18.3025ZM2519.72 16.1365L2518.81 17.9205L2518.83 17.9277L2518.84 17.9347L2519.72 16.1365ZM2533.67 28.7714L2531.95 29.7855L2531.96 29.7966L2533.67 28.7714ZM2531.99 73.2945L2530.25 72.3139L2530.24 72.3209L2530.24 72.3278L2531.99 73.2945ZM2513.82 91.585L2514.8 93.3291L2514.81 93.3254L2514.81 93.3215L2513.82 91.585ZM2506.24 79.6721L2507.29 81.3754L2507.29 81.371L2506.24 79.6721ZM2518.39 66.5558L2516.62 65.6307L2516.61 65.6406L2518.39 66.5558ZM2515.87 31.6594L2514.49 33.112L2514.5 33.1246L2514.52 33.1369L2515.87 31.6594ZM2478.56 30.2154L2479.61 31.9187L2479.62 31.9143L2478.56 30.2154ZM2466.53 43.3317L2468.31 44.247L2468.31 44.2364L2466.53 43.3317ZM2469.06 78.2281L2467.68 79.6807L2467.69 79.6872L2467.69 79.6937L2469.06 78.2281ZM2486.87 96.2033C2478.76 96.2033 2471.85 94.7612 2466.08 91.9528L2464.33 95.5492C2470.75 98.6773 2478.29 100.203 2486.87 100.203V96.2033ZM2466.11 91.9669C2460.4 89.0757 2456.08 85.1157 2453.08 80.0909L2449.65 82.1413C2453.07 87.8662 2457.97 92.3295 2464.3 95.5351L2466.11 91.9669ZM2453.09 80.1021C2450.09 74.9922 2448.55 69.0537 2448.55 62.2239H2444.55C2444.55 69.6735 2446.23 76.3298 2449.64 82.1301L2453.09 80.1021ZM2448.55 62.2239C2448.55 53.0693 2450.61 44.8223 2454.68 37.4393L2451.18 35.5061C2446.75 43.5257 2444.55 52.4461 2444.55 62.2239H2448.55ZM2454.67 37.4532C2458.82 30.0785 2464.65 24.283 2472.2 20.0466L2470.24 16.5584C2462.07 21.1463 2455.7 27.4643 2451.19 35.4922L2454.67 37.4532ZM2472.21 20.0389C2479.74 15.7386 2488.38 13.5638 2498.18 13.5638V9.56384C2487.76 9.56384 2478.43 11.8814 2470.23 16.566L2472.21 20.0389ZM2498.18 13.5638C2506.28 13.5638 2513.13 15.0438 2518.81 17.9205L2520.62 14.3524C2514.26 11.1323 2506.76 9.56384 2498.18 9.56384V13.5638ZM2518.84 17.9347C2524.61 20.7436 2528.96 24.6941 2531.95 29.7854L2535.4 27.7574C2531.98 21.9386 2527.02 17.4658 2520.59 14.3383L2518.84 17.9347ZM2531.96 29.7966C2534.96 34.8199 2536.49 40.7128 2536.49 47.5433H2540.49C2540.49 40.0943 2538.81 33.4726 2535.39 27.7462L2531.96 29.7966ZM2536.49 47.5433C2536.49 56.6913 2534.4 64.9333 2530.25 72.3139L2533.73 74.275C2538.25 66.2531 2540.49 57.3276 2540.49 47.5433H2536.49ZM2530.24 72.3278C2526.17 79.698 2520.38 85.5327 2512.83 89.8485L2514.81 93.3215C2522.98 88.6526 2529.31 82.2935 2533.74 74.2611L2530.24 72.3278ZM2512.84 89.8409C2505.31 94.0658 2496.67 96.2033 2486.87 96.2033V100.203C2497.27 100.203 2506.6 97.9287 2514.8 93.3291L2512.84 89.8409ZM2488.19 86.4854C2495.33 86.4854 2501.72 84.7998 2507.29 81.3754L2505.19 77.9688C2500.33 80.9622 2494.68 82.4854 2488.19 82.4854V86.4854ZM2507.29 81.371C2512.89 77.8941 2517.19 73.2534 2520.17 67.4711L2516.61 65.6406C2513.97 70.7685 2510.18 74.8719 2505.18 77.9732L2507.29 81.371ZM2520.17 67.481C2523.21 61.6483 2524.72 55.3125 2524.72 48.506H2520.72C2520.72 54.6954 2519.35 60.3928 2516.62 65.6307L2520.17 67.481ZM2524.72 48.506C2524.72 40.9714 2522.26 34.7874 2517.21 30.1819L2514.52 33.1369C2518.61 36.8745 2520.72 41.9215 2520.72 48.506H2524.72ZM2517.24 30.2068C2512.27 25.4989 2505.33 23.2818 2496.73 23.2818V27.2818C2504.66 27.2818 2510.48 29.3164 2514.49 33.112L2517.24 30.2068ZM2496.73 23.2818C2489.58 23.2818 2483.15 25.0123 2477.51 28.5165L2479.62 31.9143C2484.57 28.8403 2490.25 27.2818 2496.73 27.2818V23.2818ZM2477.51 28.5121C2471.98 31.917 2467.72 36.5675 2464.75 42.4269L2468.31 44.2364C2470.96 39.0252 2474.71 34.9315 2479.61 31.9187L2477.51 28.5121ZM2464.75 42.4164C2461.79 48.1713 2460.32 54.4642 2460.32 61.2612H2464.32C2464.32 55.0623 2465.65 49.4022 2468.31 44.2469L2464.75 42.4164ZM2460.32 61.2612C2460.32 68.7851 2462.73 74.9964 2467.68 79.6807L2470.43 76.7755C2466.4 72.9563 2464.32 67.8564 2464.32 61.2612H2460.32ZM2467.69 79.6937C2472.67 84.3136 2479.6 86.4854 2488.19 86.4854V82.4854C2480.25 82.4854 2474.43 80.4857 2470.42 76.7625L2467.69 79.6937ZM2601.79 77.5061L2603.74 77.0608L2603.38 75.5061H2601.79V77.5061ZM2559.43 77.5061V75.5061H2558.32L2557.73 76.448L2559.43 77.5061ZM2547.28 97V99H2548.39L2548.97 98.0581L2547.28 97ZM2530.55 97L2528.87 95.91L2526.86 99H2530.55V97ZM2585.3 12.7672V10.7672H2584.22L2583.62 11.6772L2585.3 12.7672ZM2600.82 12.7672L2602.76 12.2847L2602.39 10.7672H2600.82V12.7672ZM2621.76 97V99H2624.32L2623.7 96.5175L2621.76 97ZM2606.24 97L2604.29 97.4453L2604.64 99H2606.24V97ZM2598.9 65.2322V67.2322H2601.41L2600.85 64.7829L2598.9 65.2322ZM2590.35 28.1697L2592.3 27.7205L2591.22 23.0216L2588.66 27.1078L2590.35 28.1697ZM2567.13 65.2322L2565.44 64.1702L2563.52 67.2322H2567.13V65.2322ZM2601.79 75.5061H2559.43V79.5061H2601.79V75.5061ZM2557.73 76.448L2545.58 95.9419L2548.97 98.0581L2561.13 78.5642L2557.73 76.448ZM2547.28 95H2530.55V99H2547.28V95ZM2532.23 98.09L2586.98 13.8571L2583.62 11.6772L2528.87 95.91L2532.23 98.09ZM2585.3 14.7672H2600.82V10.7672H2585.3V14.7672ZM2598.88 13.2496L2619.82 97.4825L2623.7 96.5175L2602.76 12.2847L2598.88 13.2496ZM2621.76 95H2606.24V99H2621.76V95ZM2608.19 96.5547L2603.74 77.0608L2599.84 77.9514L2604.29 97.4453L2608.19 96.5547ZM2600.85 64.7829L2592.3 27.7205L2588.41 28.619L2596.95 65.6814L2600.85 64.7829ZM2588.66 27.1078L2565.44 64.1702L2568.83 66.2942L2592.05 29.2317L2588.66 27.1078ZM2567.13 67.2322H2598.9V63.2322H2567.13V67.2322ZM2647.03 12.7672V10.7672H2645.39L2645.07 12.3749L2647.03 12.7672ZM2702.99 17.0991L2702.14 18.9109L2702.15 18.9154L2702.16 18.9199L2702.99 17.0991ZM2717.07 29.1324L2715.36 30.1806L2715.37 30.19L2715.38 30.1994L2717.07 29.1324ZM2715.38 73.5351L2713.66 72.5171L2713.66 72.5239L2713.65 72.5309L2715.38 73.5351ZM2696.97 90.863L2696.06 89.0851L2696.06 89.0851L2696.97 90.863ZM2630.19 97L2628.23 96.6078L2627.75 99H2630.19V97ZM2689.27 79.1908L2688.3 77.4449L2688.3 77.4449L2689.27 79.1908ZM2701.79 66.6762L2700.03 65.7093L2700.03 65.7185L2701.79 66.6762ZM2699.38 32.0204L2698.06 33.5239L2698.07 33.5305L2698.08 33.537L2699.38 32.0204ZM2660.03 26.0038V24.0038H2658.39L2658.07 25.6115L2660.03 26.0038ZM2648.48 83.7634L2646.52 83.3712L2646.04 85.7634H2648.48V83.7634ZM2647.03 14.7672H2681.09V10.7672H2647.03V14.7672ZM2681.09 14.7672C2689.29 14.7672 2696.28 16.1725 2702.14 18.9109L2703.84 15.2874C2697.34 12.2498 2689.74 10.7672 2681.09 10.7672V14.7672ZM2702.16 18.9199C2708.02 21.5815 2712.39 25.3413 2715.36 30.1806L2718.77 28.0842C2715.33 22.4947 2710.32 18.2323 2703.82 15.2784L2702.16 18.9199ZM2715.38 30.1994C2718.44 35.0501 2720 40.8053 2720 47.5433H2724C2724 40.1622 2722.28 33.6436 2718.76 28.0654L2715.38 30.1994ZM2720 47.5433C2720 57.1029 2717.87 65.4055 2713.66 72.5171L2717.1 74.5532C2721.72 66.7435 2724 57.7182 2724 47.5433H2720ZM2713.65 72.5309C2709.52 79.649 2703.67 85.1621 2696.06 89.0851L2697.89 92.641C2706.16 88.3813 2712.58 82.3425 2717.11 74.5394L2713.65 72.5309ZM2696.06 89.0851C2688.44 93.0089 2679.62 95 2669.54 95V99C2680.15 99 2689.62 96.8997 2697.89 92.641L2696.06 89.0851ZM2669.54 95H2630.19V99H2669.54V95ZM2632.15 97.3922L2649 13.1594L2645.07 12.3749L2628.23 96.6078L2632.15 97.3922ZM2670.02 85.7634C2677.68 85.7634 2684.44 84.1796 2690.25 80.9367L2688.3 77.4449C2683.19 80.2988 2677.12 81.7634 2670.02 81.7634V85.7634ZM2690.25 80.9367C2696.02 77.7113 2700.47 73.2719 2703.54 67.6339L2700.03 65.7185C2697.33 70.6697 2693.43 74.5734 2688.3 77.4449L2690.25 80.9367ZM2703.54 67.643C2706.68 61.9439 2708.24 55.549 2708.24 48.506H2704.24C2704.24 54.9402 2702.82 60.6587 2700.03 65.7093L2703.54 67.643ZM2708.24 48.506C2708.24 40.9736 2705.77 34.8809 2700.68 30.5038L2698.08 33.537C2702.13 37.0216 2704.24 41.9192 2704.24 48.506H2708.24ZM2700.7 30.5169C2695.63 26.0704 2688.42 24.0038 2679.4 24.0038V28.0038C2687.87 28.0038 2693.98 29.9482 2698.06 33.5239L2700.7 30.5169ZM2679.4 24.0038H2660.03V28.0038H2679.4V24.0038ZM2658.07 25.6115L2646.52 83.3712L2650.44 84.1556L2661.99 26.396L2658.07 25.6115ZM2648.48 85.7634H2670.02V81.7634H2648.48V85.7634Z" fill="white" mask="url(#path-7-outside-4_615_2189)"/>
</g>
</svg>
