<svg width="2598" height="108" viewBox="0 0 2598 108" fill="none" xmlns="http://www.w3.org/2000/svg">
<g opacity="0.3">
<mask id="path-1-outside-1_615_2194" maskUnits="userSpaceOnUse" x="13" y="10" width="414" height="89" fill="black">
<rect fill="white" x="13" y="10" width="414" height="89"/>
<path d="M45.6558 25.8834L41.3238 47.784H82.1166L79.5896 60.6595H38.6765L34.1039 83.8837H81.7556L79.1083 97H15.9336L32.7802 12.7672H94.2702L91.6229 25.8834H45.6558ZM95.0392 57.2902H128.131L125.604 69.8048H92.6325L95.0392 57.2902ZM203.792 53.4396C207.402 54.8034 210.209 56.9292 212.215 59.8172C214.22 62.7052 215.223 66.2751 215.223 70.5268C215.223 79.1908 211.854 85.769 205.115 90.2614C198.377 94.7538 189.312 97 177.92 97H135.683L152.53 12.7672H191.397C200.142 12.7672 206.88 14.4117 211.613 17.7008C216.427 20.9097 218.833 25.5625 218.833 31.6594C218.833 36.8738 217.469 41.3662 214.742 45.1366C212.014 48.8268 208.364 51.5945 203.792 53.4396ZM165.646 25.0411L160.953 48.2653H183.215C189.151 48.2653 193.844 47.1021 197.294 44.7756C200.743 42.369 202.468 38.8793 202.468 34.3067C202.468 28.1296 197.615 25.0411 187.908 25.0411H165.646ZM179.003 84.7261C185.581 84.7261 190.635 83.5227 194.165 81.1161C197.775 78.7094 199.58 75.1797 199.58 70.5268C199.58 66.9168 198.296 64.3497 195.729 62.8255C193.242 61.2211 189.472 60.4189 184.418 60.4189H158.547L153.733 84.7261H179.003ZM241.665 12.7672H257.309L240.462 97H224.819L241.665 12.7672ZM308.129 51.9956L338.092 97H320.644L296.698 61.5019L280.694 75.4605L276.362 97H260.839L277.685 12.7672H293.208L284.665 55.3649L333.64 12.7672H353.375L308.37 51.8753L308.129 51.9956ZM375.818 25.8834L371.486 47.784H412.279L409.752 60.6595H368.839L364.266 83.8837H411.918L409.271 97H346.096L362.943 12.7672H424.433L421.785 25.8834H375.818Z"/>
</mask>
<path d="M45.6558 25.8834V23.8834H44.0127L43.6938 25.4953L45.6558 25.8834ZM41.3238 47.784L39.3618 47.3959L38.8895 49.784H41.3238V47.784ZM82.1166 47.784L84.0791 48.1691L84.5473 45.784H82.1166V47.784ZM79.5896 60.6595V62.6595H81.2352L81.5522 61.0447L79.5896 60.6595ZM38.6765 60.6595V58.6595H37.0319L36.7142 60.2732L38.6765 60.6595ZM34.1039 83.8837L32.1415 83.4974L31.6717 85.8837H34.1039V83.8837ZM81.7556 83.8837L83.716 84.2794L84.1996 81.8837H81.7556V83.8837ZM79.1083 97V99H80.7449L81.0687 97.3957L79.1083 97ZM15.9336 97L13.9725 96.6078L13.494 99H15.9336V97ZM32.7802 12.7672V10.7672H31.1406L30.819 12.3749L32.7802 12.7672ZM94.2702 12.7672L96.2306 13.1629L96.7142 10.7672H94.2702V12.7672ZM91.6229 25.8834V27.8834H93.2595L93.5833 26.2791L91.6229 25.8834ZM43.6938 25.4953L39.3618 47.3959L43.2858 48.172L47.6178 26.2715L43.6938 25.4953ZM41.3238 49.784H82.1166V45.784H41.3238V49.784ZM80.154 47.3988L77.627 60.2744L81.5522 61.0447L84.0791 48.1691L80.154 47.3988ZM79.5896 58.6595H38.6765V62.6595H79.5896V58.6595ZM36.7142 60.2732L32.1415 83.4974L36.0662 84.2701L40.6388 61.0459L36.7142 60.2732ZM34.1039 85.8837H81.7556V81.8837H34.1039V85.8837ZM79.7951 83.4881L77.1478 96.6043L81.0687 97.3957L83.716 84.2794L79.7951 83.4881ZM79.1083 95H15.9336V99H79.1083V95ZM17.8948 97.3922L34.7414 13.1594L30.819 12.3749L13.9725 96.6078L17.8948 97.3922ZM32.7802 14.7672H94.2702V10.7672H32.7802V14.7672ZM92.3097 12.3715L89.6624 25.4877L93.5833 26.2791L96.2306 13.1629L92.3097 12.3715ZM91.6229 23.8834H45.6558V27.8834H91.6229V23.8834ZM95.0392 57.2902V55.2902H93.3871L93.0752 56.9125L95.0392 57.2902ZM128.131 57.2902L130.091 57.6861L130.575 55.2902H128.131V57.2902ZM125.604 69.8048V71.8048H127.24L127.564 70.2007L125.604 69.8048ZM92.6325 69.8048L90.6685 69.4271L90.2113 71.8048H92.6325V69.8048ZM95.0392 59.2902H128.131V55.2902H95.0392V59.2902ZM126.17 56.8944L123.643 69.409L127.564 70.2007L130.091 57.6861L126.17 56.8944ZM125.604 67.8048H92.6325V71.8048H125.604V67.8048ZM94.5965 70.1825L97.0032 57.6679L93.0752 56.9125L90.6685 69.4271L94.5965 70.1825ZM203.792 53.4396L203.043 51.5849L198.295 53.5009L203.085 55.3105L203.792 53.4396ZM212.215 59.8172L213.858 58.6764L213.858 58.6764L212.215 59.8172ZM135.683 97L133.722 96.6078L133.244 99H135.683V97ZM152.53 12.7672V10.7672H150.89L150.569 12.3749L152.53 12.7672ZM211.613 17.7008L210.472 19.3432L210.488 19.3542L210.504 19.3649L211.613 17.7008ZM214.742 45.1366L216.35 46.3254L216.356 46.3172L216.362 46.3089L214.742 45.1366ZM165.646 25.0411V23.0411H164.01L163.686 24.6449L165.646 25.0411ZM160.953 48.2653L158.993 47.8691L158.509 50.2653H160.953V48.2653ZM197.294 44.7756L198.412 46.4338L198.425 46.4249L198.438 46.4159L197.294 44.7756ZM194.165 81.1161L193.056 79.452L193.047 79.4578L193.038 79.4636L194.165 81.1161ZM195.729 62.8255L194.645 64.5061L194.676 64.5263L194.708 64.5452L195.729 62.8255ZM158.547 60.4189V58.4189H156.904L156.585 60.0304L158.547 60.4189ZM153.733 84.7261L151.771 84.3376L151.298 86.7261H153.733V84.7261ZM203.085 55.3105C206.355 56.5458 208.82 58.4349 210.572 60.958L213.858 58.6764C211.599 55.4236 208.448 53.0609 204.498 51.5686L203.085 55.3105ZM210.572 60.958C212.3 63.4462 213.223 66.5961 213.223 70.5268H217.223C217.223 65.954 216.141 61.9642 213.858 58.6764L210.572 60.958ZM213.223 70.5268C213.223 78.5775 210.144 84.5055 204.006 88.5973L206.225 91.9255C213.564 87.0324 217.223 79.804 217.223 70.5268H213.223ZM204.006 88.5973C197.704 92.7984 189.071 95 177.92 95V99C189.552 99 199.049 96.7092 206.225 91.9255L204.006 88.5973ZM177.92 95H135.683V99H177.92V95ZM137.645 97.3922L154.491 13.1594L150.569 12.3749L133.722 96.6078L137.645 97.3922ZM152.53 14.7672H191.397V10.7672H152.53V14.7672ZM191.397 14.7672C199.931 14.7672 206.206 16.3789 210.472 19.3432L212.755 16.0584C207.554 12.4446 200.352 10.7672 191.397 10.7672V14.7672ZM210.504 19.3649C214.726 22.1796 216.833 26.1882 216.833 31.6594H220.833C220.833 24.9369 218.127 19.6398 212.723 16.0367L210.504 19.3649ZM216.833 31.6594C216.833 36.5059 215.573 40.5756 213.121 43.9644L216.362 46.3089C219.366 42.1568 220.833 37.2417 220.833 31.6594H216.833ZM213.134 43.9479C210.642 47.3187 207.3 49.8673 203.043 51.5849L204.54 55.2943C209.429 53.3216 213.387 50.335 216.35 46.3254L213.134 43.9479ZM163.686 24.6449L158.993 47.8691L162.914 48.6614L167.607 25.4372L163.686 24.6449ZM160.953 50.2653H183.215V46.2653H160.953V50.2653ZM183.215 50.2653C189.387 50.2653 194.519 49.0594 198.412 46.4338L196.175 43.1175C193.169 45.1448 188.916 46.2653 183.215 46.2653V50.2653ZM198.438 46.4159C202.476 43.5985 204.468 39.4662 204.468 34.3067H200.468C200.468 38.2925 199.01 41.1395 196.149 43.1354L198.438 46.4159ZM204.468 34.3067C204.468 30.5948 202.954 27.6129 199.902 25.6702C197.002 23.8251 192.909 23.0411 187.908 23.0411V27.0411C192.613 27.0411 195.8 27.8014 197.754 29.0448C199.555 30.1907 200.468 31.8415 200.468 34.3067H204.468ZM187.908 23.0411H165.646V27.0411H187.908V23.0411ZM179.003 86.7261C185.781 86.7261 191.295 85.4936 195.292 82.7685L193.038 79.4636C189.976 81.5519 185.381 82.7261 179.003 82.7261V86.7261ZM195.274 82.7802C199.487 79.9718 201.58 75.7908 201.58 70.5268H197.58C197.58 74.5685 196.063 77.4471 193.056 79.452L195.274 82.7802ZM201.58 70.5268C201.58 66.384 200.06 63.0707 196.75 61.1058L194.708 64.5452C196.533 65.6288 197.58 67.4497 197.58 70.5268H201.58ZM196.814 61.1449C193.848 59.2314 189.615 58.4189 184.418 58.4189V62.4189C189.329 62.4189 192.637 63.2108 194.645 64.5061L196.814 61.1449ZM184.418 58.4189H158.547V62.4189H184.418V58.4189ZM156.585 60.0304L151.771 84.3376L155.695 85.1146L160.508 60.8074L156.585 60.0304ZM153.733 86.7261H179.003V82.7261H153.733V86.7261ZM241.665 12.7672V10.7672H240.026L239.704 12.3749L241.665 12.7672ZM257.309 12.7672L259.27 13.1594L259.748 10.7672H257.309V12.7672ZM240.462 97V99H242.102L242.423 97.3922L240.462 97ZM224.819 97L222.858 96.6078L222.379 99H224.819V97ZM241.665 14.7672H257.309V10.7672H241.665V14.7672ZM255.347 12.3749L238.501 96.6078L242.423 97.3922L259.27 13.1594L255.347 12.3749ZM240.462 95H224.819V99H240.462V95ZM226.78 97.3922L243.627 13.1594L239.704 12.3749L222.858 96.6078L226.78 97.3922ZM308.129 51.9956L307.235 50.2068L305.21 51.2193L306.465 53.104L308.129 51.9956ZM338.092 97V99H341.827L339.757 95.8916L338.092 97ZM320.644 97L318.986 98.1185L319.581 99H320.644V97ZM296.698 61.5019L298.356 60.3834L297.09 58.5063L295.383 59.9946L296.698 61.5019ZM280.694 75.4605L279.379 73.9532L278.867 74.3999L278.733 75.0661L280.694 75.4605ZM276.362 97V99H277.999L278.322 97.3943L276.362 97ZM260.839 97L258.878 96.6078L258.399 99H260.839V97ZM277.685 12.7672V10.7672H276.046L275.724 12.3749L277.685 12.7672ZM293.208 12.7672L295.169 13.1605L295.649 10.7672H293.208V12.7672ZM284.665 55.3649L282.704 54.9716L281.55 60.7248L285.977 56.874L284.665 55.3649ZM333.64 12.7672V10.7672H332.892L332.327 11.2581L333.64 12.7672ZM353.375 12.7672L354.686 14.2768L358.725 10.7672H353.375V12.7672ZM308.37 51.8753L309.265 53.6641L309.491 53.5509L309.682 53.3849L308.37 51.8753ZM306.465 53.104L336.427 98.1084L339.757 95.8916L309.794 50.8872L306.465 53.104ZM338.092 95H320.644V99H338.092V95ZM322.302 95.8815L298.356 60.3834L295.04 62.6203L318.986 98.1185L322.302 95.8815ZM295.383 59.9946L279.379 73.9532L282.008 76.9677L298.012 63.0091L295.383 59.9946ZM278.733 75.0661L274.401 96.6057L278.322 97.3943L282.654 75.8548L278.733 75.0661ZM276.362 95H260.839V99H276.362V95ZM262.8 97.3922L279.646 13.1594L275.724 12.3749L258.878 96.6078L262.8 97.3922ZM277.685 14.7672H293.208V10.7672H277.685V14.7672ZM291.247 12.3739L282.704 54.9716L286.626 55.7582L295.169 13.1605L291.247 12.3739ZM285.977 56.874L334.952 14.2762L332.327 11.2581L283.352 53.8559L285.977 56.874ZM333.64 14.7672H353.375V10.7672H333.64V14.7672ZM352.063 11.2575L307.058 50.3656L309.682 53.3849L354.686 14.2768L352.063 11.2575ZM307.476 50.0864L307.235 50.2068L309.024 53.7844L309.265 53.6641L307.476 50.0864ZM375.818 25.8834V23.8834H374.175L373.856 25.4953L375.818 25.8834ZM371.486 47.784L369.524 47.3959L369.052 49.784H371.486V47.784ZM412.279 47.784L414.242 48.1691L414.71 45.784H412.279V47.784ZM409.752 60.6595V62.6595H411.398L411.715 61.0447L409.752 60.6595ZM368.839 60.6595V58.6595H367.195L366.877 60.2732L368.839 60.6595ZM364.266 83.8837L362.304 83.4974L361.834 85.8837H364.266V83.8837ZM411.918 83.8837L413.879 84.2794L414.362 81.8837H411.918V83.8837ZM409.271 97V99H410.908L411.231 97.3957L409.271 97ZM346.096 97L344.135 96.6078L343.657 99H346.096V97ZM362.943 12.7672V10.7672H361.303L360.982 12.3749L362.943 12.7672ZM424.433 12.7672L426.393 13.1629L426.877 10.7672H424.433V12.7672ZM421.785 25.8834V27.8834H423.422L423.746 26.2791L421.785 25.8834ZM373.856 25.4953L369.524 47.3959L373.448 48.172L377.78 26.2715L373.856 25.4953ZM371.486 49.784H412.279V45.784H371.486V49.784ZM410.317 47.3988L407.79 60.2744L411.715 61.0447L414.242 48.1691L410.317 47.3988ZM409.752 58.6595H368.839V62.6595H409.752V58.6595ZM366.877 60.2732L362.304 83.4974L366.229 84.2701L370.801 61.0459L366.877 60.2732ZM364.266 85.8837H411.918V81.8837H364.266V85.8837ZM409.958 83.4881L407.31 96.6043L411.231 97.3957L413.879 84.2794L409.958 83.4881ZM409.271 95H346.096V99H409.271V95ZM348.057 97.3922L364.904 13.1594L360.982 12.3749L344.135 96.6078L348.057 97.3922ZM362.943 14.7672H424.433V10.7672H362.943V14.7672ZM422.472 12.3715L419.825 25.4877L423.746 26.2791L426.393 13.1629L422.472 12.3715ZM421.785 23.8834H375.818V27.8834H421.785V23.8834Z" fill="white" mask="url(#path-1-outside-1_615_2194)"/>
<mask id="path-3-outside-2_615_2194" maskUnits="userSpaceOnUse" x="446" y="10" width="414" height="89" fill="black">
<rect fill="white" x="446" y="10" width="414" height="89"/>
<path d="M478.656 25.8834L474.324 47.784H515.117L512.59 60.6595H471.677L467.104 83.8837H514.756L512.108 97H448.934L465.78 12.7672H527.27L524.623 25.8834H478.656ZM528.039 57.2902H561.131L558.604 69.8048H525.633L528.039 57.2902ZM636.792 53.4396C640.402 54.8034 643.209 56.9292 645.215 59.8172C647.22 62.7052 648.223 66.2751 648.223 70.5268C648.223 79.1908 644.854 85.769 638.115 90.2614C631.377 94.7538 622.312 97 610.92 97H568.683L585.53 12.7672H624.397C633.142 12.7672 639.88 14.4117 644.613 17.7008C649.427 20.9097 651.833 25.5625 651.833 31.6594C651.833 36.8738 650.469 41.3662 647.742 45.1366C645.014 48.8268 641.364 51.5945 636.792 53.4396ZM598.646 25.0411L593.953 48.2653H616.215C622.151 48.2653 626.844 47.1021 630.294 44.7756C633.743 42.369 635.468 38.8793 635.468 34.3067C635.468 28.1296 630.615 25.0411 620.908 25.0411H598.646ZM612.003 84.7261C618.581 84.7261 623.635 83.5227 627.165 81.1161C630.775 78.7094 632.58 75.1797 632.58 70.5268C632.58 66.9168 631.296 64.3497 628.729 62.8255C626.242 61.2211 622.472 60.4189 617.418 60.4189H591.547L586.733 84.7261H612.003ZM674.665 12.7672H690.309L673.462 97H657.819L674.665 12.7672ZM741.129 51.9956L771.092 97H753.644L729.698 61.5019L713.694 75.4605L709.362 97H693.839L710.685 12.7672H726.208L717.665 55.3649L766.64 12.7672H786.375L741.37 51.8753L741.129 51.9956ZM808.818 25.8834L804.486 47.784H845.279L842.752 60.6595H801.839L797.266 83.8837H844.918L842.271 97H779.096L795.943 12.7672H857.433L854.785 25.8834H808.818Z"/>
</mask>
<path d="M478.656 25.8834V23.8834H477.013L476.694 25.4953L478.656 25.8834ZM474.324 47.784L472.362 47.3959L471.889 49.784H474.324V47.784ZM515.117 47.784L517.079 48.1691L517.547 45.784H515.117V47.784ZM512.59 60.6595V62.6595H514.235L514.552 61.0447L512.59 60.6595ZM471.677 60.6595V58.6595H470.032L469.714 60.2732L471.677 60.6595ZM467.104 83.8837L465.142 83.4974L464.672 85.8837H467.104V83.8837ZM514.756 83.8837L516.716 84.2794L517.2 81.8837H514.756V83.8837ZM512.108 97V99H513.745L514.069 97.3957L512.108 97ZM448.934 97L446.972 96.6078L446.494 99H448.934V97ZM465.78 12.7672V10.7672H464.141L463.819 12.3749L465.78 12.7672ZM527.27 12.7672L529.231 13.1629L529.714 10.7672H527.27V12.7672ZM524.623 25.8834V27.8834H526.26L526.583 26.2791L524.623 25.8834ZM476.694 25.4953L472.362 47.3959L476.286 48.172L480.618 26.2715L476.694 25.4953ZM474.324 49.784H515.117V45.784H474.324V49.784ZM513.154 47.3988L510.627 60.2744L514.552 61.0447L517.079 48.1691L513.154 47.3988ZM512.59 58.6595H471.677V62.6595H512.59V58.6595ZM469.714 60.2732L465.142 83.4974L469.066 84.2701L473.639 61.0459L469.714 60.2732ZM467.104 85.8837H514.756V81.8837H467.104V85.8837ZM512.795 83.4881L510.148 96.6043L514.069 97.3957L516.716 84.2794L512.795 83.4881ZM512.108 95H448.934V99H512.108V95ZM450.895 97.3922L467.741 13.1594L463.819 12.3749L446.972 96.6078L450.895 97.3922ZM465.78 14.7672H527.27V10.7672H465.78V14.7672ZM525.31 12.3715L522.662 25.4877L526.583 26.2791L529.231 13.1629L525.31 12.3715ZM524.623 23.8834H478.656V27.8834H524.623V23.8834ZM528.039 57.2902V55.2902H526.387L526.075 56.9125L528.039 57.2902ZM561.131 57.2902L563.091 57.6861L563.575 55.2902H561.131V57.2902ZM558.604 69.8048V71.8048H560.24L560.564 70.2007L558.604 69.8048ZM525.633 69.8048L523.669 69.4271L523.211 71.8048H525.633V69.8048ZM528.039 59.2902H561.131V55.2902H528.039V59.2902ZM559.17 56.8944L556.643 69.409L560.564 70.2007L563.091 57.6861L559.17 56.8944ZM558.604 67.8048H525.633V71.8048H558.604V67.8048ZM527.597 70.1825L530.003 57.6679L526.075 56.9125L523.669 69.4271L527.597 70.1825ZM636.792 53.4396L636.043 51.5849L631.295 53.5009L636.085 55.3105L636.792 53.4396ZM645.215 59.8172L646.858 58.6764L646.858 58.6764L645.215 59.8172ZM568.683 97L566.722 96.6078L566.244 99H568.683V97ZM585.53 12.7672V10.7672H583.89L583.569 12.3749L585.53 12.7672ZM644.613 17.7008L643.472 19.3432L643.488 19.3542L643.504 19.3649L644.613 17.7008ZM647.742 45.1366L649.35 46.3254L649.356 46.3172L649.362 46.3089L647.742 45.1366ZM598.646 25.0411V23.0411H597.01L596.686 24.6449L598.646 25.0411ZM593.953 48.2653L591.993 47.8691L591.509 50.2653H593.953V48.2653ZM630.294 44.7756L631.412 46.4338L631.425 46.4249L631.438 46.4159L630.294 44.7756ZM627.165 81.1161L626.056 79.452L626.047 79.4578L626.038 79.4636L627.165 81.1161ZM628.729 62.8255L627.645 64.5061L627.676 64.5263L627.708 64.5452L628.729 62.8255ZM591.547 60.4189V58.4189H589.904L589.585 60.0304L591.547 60.4189ZM586.733 84.7261L584.771 84.3376L584.298 86.7261H586.733V84.7261ZM636.085 55.3105C639.355 56.5458 641.82 58.4349 643.572 60.958L646.858 58.6764C644.599 55.4236 641.448 53.0609 637.498 51.5686L636.085 55.3105ZM643.572 60.958C645.3 63.4462 646.223 66.5961 646.223 70.5268H650.223C650.223 65.954 649.141 61.9642 646.858 58.6764L643.572 60.958ZM646.223 70.5268C646.223 78.5775 643.144 84.5055 637.006 88.5973L639.225 91.9255C646.564 87.0324 650.223 79.804 650.223 70.5268H646.223ZM637.006 88.5973C630.704 92.7984 622.071 95 610.92 95V99C622.552 99 632.049 96.7092 639.225 91.9255L637.006 88.5973ZM610.92 95H568.683V99H610.92V95ZM570.645 97.3922L587.491 13.1594L583.569 12.3749L566.722 96.6078L570.645 97.3922ZM585.53 14.7672H624.397V10.7672H585.53V14.7672ZM624.397 14.7672C632.931 14.7672 639.206 16.3789 643.472 19.3432L645.755 16.0584C640.554 12.4446 633.352 10.7672 624.397 10.7672V14.7672ZM643.504 19.3649C647.726 22.1796 649.833 26.1882 649.833 31.6594H653.833C653.833 24.9369 651.127 19.6398 645.723 16.0367L643.504 19.3649ZM649.833 31.6594C649.833 36.5059 648.573 40.5756 646.121 43.9644L649.362 46.3089C652.366 42.1568 653.833 37.2417 653.833 31.6594H649.833ZM646.134 43.9479C643.642 47.3187 640.3 49.8673 636.043 51.5849L637.54 55.2943C642.429 53.3216 646.387 50.335 649.35 46.3254L646.134 43.9479ZM596.686 24.6449L591.993 47.8691L595.914 48.6614L600.607 25.4372L596.686 24.6449ZM593.953 50.2653H616.215V46.2653H593.953V50.2653ZM616.215 50.2653C622.387 50.2653 627.519 49.0594 631.412 46.4338L629.175 43.1175C626.169 45.1448 621.916 46.2653 616.215 46.2653V50.2653ZM631.438 46.4159C635.476 43.5985 637.468 39.4662 637.468 34.3067H633.468C633.468 38.2925 632.01 41.1395 629.149 43.1354L631.438 46.4159ZM637.468 34.3067C637.468 30.5948 635.954 27.6129 632.902 25.6702C630.002 23.8251 625.909 23.0411 620.908 23.0411V27.0411C625.613 27.0411 628.8 27.8014 630.754 29.0448C632.555 30.1907 633.468 31.8415 633.468 34.3067H637.468ZM620.908 23.0411H598.646V27.0411H620.908V23.0411ZM612.003 86.7261C618.781 86.7261 624.295 85.4936 628.292 82.7685L626.038 79.4636C622.976 81.5519 618.381 82.7261 612.003 82.7261V86.7261ZM628.274 82.7802C632.487 79.9718 634.58 75.7908 634.58 70.5268H630.58C630.58 74.5685 629.063 77.4471 626.056 79.452L628.274 82.7802ZM634.58 70.5268C634.58 66.384 633.06 63.0707 629.75 61.1058L627.708 64.5452C629.533 65.6288 630.58 67.4497 630.58 70.5268H634.58ZM629.814 61.1449C626.848 59.2314 622.615 58.4189 617.418 58.4189V62.4189C622.329 62.4189 625.637 63.2108 627.645 64.5061L629.814 61.1449ZM617.418 58.4189H591.547V62.4189H617.418V58.4189ZM589.585 60.0304L584.771 84.3376L588.695 85.1146L593.508 60.8074L589.585 60.0304ZM586.733 86.7261H612.003V82.7261H586.733V86.7261ZM674.665 12.7672V10.7672H673.026L672.704 12.3749L674.665 12.7672ZM690.309 12.7672L692.27 13.1594L692.748 10.7672H690.309V12.7672ZM673.462 97V99H675.102L675.423 97.3922L673.462 97ZM657.819 97L655.858 96.6078L655.379 99H657.819V97ZM674.665 14.7672H690.309V10.7672H674.665V14.7672ZM688.347 12.3749L671.501 96.6078L675.423 97.3922L692.27 13.1594L688.347 12.3749ZM673.462 95H657.819V99H673.462V95ZM659.78 97.3922L676.627 13.1594L672.704 12.3749L655.858 96.6078L659.78 97.3922ZM741.129 51.9956L740.235 50.2068L738.21 51.2193L739.465 53.104L741.129 51.9956ZM771.092 97V99H774.827L772.757 95.8916L771.092 97ZM753.644 97L751.986 98.1185L752.581 99H753.644V97ZM729.698 61.5019L731.356 60.3834L730.09 58.5063L728.383 59.9946L729.698 61.5019ZM713.694 75.4605L712.379 73.9532L711.867 74.3999L711.733 75.0661L713.694 75.4605ZM709.362 97V99H710.999L711.322 97.3943L709.362 97ZM693.839 97L691.878 96.6078L691.399 99H693.839V97ZM710.685 12.7672V10.7672H709.046L708.724 12.3749L710.685 12.7672ZM726.208 12.7672L728.169 13.1605L728.649 10.7672H726.208V12.7672ZM717.665 55.3649L715.704 54.9716L714.55 60.7248L718.977 56.874L717.665 55.3649ZM766.64 12.7672V10.7672H765.892L765.327 11.2581L766.64 12.7672ZM786.375 12.7672L787.686 14.2768L791.725 10.7672H786.375V12.7672ZM741.37 51.8753L742.265 53.6641L742.491 53.5509L742.682 53.3849L741.37 51.8753ZM739.465 53.104L769.427 98.1084L772.757 95.8916L742.794 50.8872L739.465 53.104ZM771.092 95H753.644V99H771.092V95ZM755.302 95.8815L731.356 60.3834L728.04 62.6203L751.986 98.1185L755.302 95.8815ZM728.383 59.9946L712.379 73.9532L715.008 76.9677L731.012 63.0091L728.383 59.9946ZM711.733 75.0661L707.401 96.6057L711.322 97.3943L715.654 75.8548L711.733 75.0661ZM709.362 95H693.839V99H709.362V95ZM695.8 97.3922L712.646 13.1594L708.724 12.3749L691.878 96.6078L695.8 97.3922ZM710.685 14.7672H726.208V10.7672H710.685V14.7672ZM724.247 12.3739L715.704 54.9716L719.626 55.7582L728.169 13.1605L724.247 12.3739ZM718.977 56.874L767.952 14.2762L765.327 11.2581L716.352 53.8559L718.977 56.874ZM766.64 14.7672H786.375V10.7672H766.64V14.7672ZM785.063 11.2575L740.058 50.3656L742.682 53.3849L787.686 14.2768L785.063 11.2575ZM740.476 50.0864L740.235 50.2068L742.024 53.7844L742.265 53.6641L740.476 50.0864ZM808.818 25.8834V23.8834H807.175L806.856 25.4953L808.818 25.8834ZM804.486 47.784L802.524 47.3959L802.052 49.784H804.486V47.784ZM845.279 47.784L847.242 48.1691L847.71 45.784H845.279V47.784ZM842.752 60.6595V62.6595H844.398L844.715 61.0447L842.752 60.6595ZM801.839 60.6595V58.6595H800.195L799.877 60.2732L801.839 60.6595ZM797.266 83.8837L795.304 83.4974L794.834 85.8837H797.266V83.8837ZM844.918 83.8837L846.879 84.2794L847.362 81.8837H844.918V83.8837ZM842.271 97V99H843.908L844.231 97.3957L842.271 97ZM779.096 97L777.135 96.6078L776.657 99H779.096V97ZM795.943 12.7672V10.7672H794.303L793.982 12.3749L795.943 12.7672ZM857.433 12.7672L859.393 13.1629L859.877 10.7672H857.433V12.7672ZM854.785 25.8834V27.8834H856.422L856.746 26.2791L854.785 25.8834ZM806.856 25.4953L802.524 47.3959L806.448 48.172L810.78 26.2715L806.856 25.4953ZM804.486 49.784H845.279V45.784H804.486V49.784ZM843.317 47.3988L840.79 60.2744L844.715 61.0447L847.242 48.1691L843.317 47.3988ZM842.752 58.6595H801.839V62.6595H842.752V58.6595ZM799.877 60.2732L795.304 83.4974L799.229 84.2701L803.801 61.0459L799.877 60.2732ZM797.266 85.8837H844.918V81.8837H797.266V85.8837ZM842.958 83.4881L840.31 96.6043L844.231 97.3957L846.879 84.2794L842.958 83.4881ZM842.271 95H779.096V99H842.271V95ZM781.057 97.3922L797.904 13.1594L793.982 12.3749L777.135 96.6078L781.057 97.3922ZM795.943 14.7672H857.433V10.7672H795.943V14.7672ZM855.472 12.3715L852.825 25.4877L856.746 26.2791L859.393 13.1629L855.472 12.3715ZM854.785 23.8834H808.818V27.8834H854.785V23.8834Z" fill="white" mask="url(#path-3-outside-2_615_2194)"/>
<mask id="path-5-outside-3_615_2194" maskUnits="userSpaceOnUse" x="879" y="10" width="414" height="89" fill="black">
<rect fill="white" x="879" y="10" width="414" height="89"/>
<path d="M911.656 25.8834L907.324 47.784H948.117L945.59 60.6595H904.677L900.104 83.8837H947.756L945.108 97H881.934L898.78 12.7672H960.27L957.623 25.8834H911.656ZM961.039 57.2902H994.131L991.604 69.8048H958.633L961.039 57.2902ZM1069.79 53.4396C1073.4 54.8034 1076.21 56.9292 1078.21 59.8172C1080.22 62.7052 1081.22 66.2751 1081.22 70.5268C1081.22 79.1908 1077.85 85.769 1071.12 90.2614C1064.38 94.7538 1055.31 97 1043.92 97H1001.68L1018.53 12.7672H1057.4C1066.14 12.7672 1072.88 14.4117 1077.61 17.7008C1082.43 20.9097 1084.83 25.5625 1084.83 31.6594C1084.83 36.8738 1083.47 41.3662 1080.74 45.1366C1078.01 48.8268 1074.36 51.5945 1069.79 53.4396ZM1031.65 25.0411L1026.95 48.2653H1049.21C1055.15 48.2653 1059.84 47.1021 1063.29 44.7756C1066.74 42.369 1068.47 38.8793 1068.47 34.3067C1068.47 28.1296 1063.61 25.0411 1053.91 25.0411H1031.65ZM1045 84.7261C1051.58 84.7261 1056.64 83.5227 1060.17 81.1161C1063.78 78.7094 1065.58 75.1797 1065.58 70.5268C1065.58 66.9168 1064.3 64.3497 1061.73 62.8255C1059.24 61.2211 1055.47 60.4189 1050.42 60.4189H1024.55L1019.73 84.7261H1045ZM1107.67 12.7672H1123.31L1106.46 97H1090.82L1107.67 12.7672ZM1174.13 51.9956L1204.09 97H1186.64L1162.7 61.5019L1146.69 75.4605L1142.36 97H1126.84L1143.69 12.7672H1159.21L1150.66 55.3649L1199.64 12.7672H1219.37L1174.37 51.8753L1174.13 51.9956ZM1241.82 25.8834L1237.49 47.784H1278.28L1275.75 60.6595H1234.84L1230.27 83.8837H1277.92L1275.27 97H1212.1L1228.94 12.7672H1290.43L1287.79 25.8834H1241.82Z"/>
</mask>
<path d="M911.656 25.8834V23.8834H910.013L909.694 25.4953L911.656 25.8834ZM907.324 47.784L905.362 47.3959L904.889 49.784H907.324V47.784ZM948.117 47.784L950.079 48.1691L950.547 45.784H948.117V47.784ZM945.59 60.6595V62.6595H947.235L947.552 61.0447L945.59 60.6595ZM904.677 60.6595V58.6595H903.032L902.714 60.2732L904.677 60.6595ZM900.104 83.8837L898.142 83.4974L897.672 85.8837H900.104V83.8837ZM947.756 83.8837L949.716 84.2794L950.2 81.8837H947.756V83.8837ZM945.108 97V99H946.745L947.069 97.3957L945.108 97ZM881.934 97L879.972 96.6078L879.494 99H881.934V97ZM898.78 12.7672V10.7672H897.141L896.819 12.3749L898.78 12.7672ZM960.27 12.7672L962.231 13.1629L962.714 10.7672H960.27V12.7672ZM957.623 25.8834V27.8834H959.26L959.583 26.2791L957.623 25.8834ZM909.694 25.4953L905.362 47.3959L909.286 48.172L913.618 26.2715L909.694 25.4953ZM907.324 49.784H948.117V45.784H907.324V49.784ZM946.154 47.3988L943.627 60.2744L947.552 61.0447L950.079 48.1691L946.154 47.3988ZM945.59 58.6595H904.677V62.6595H945.59V58.6595ZM902.714 60.2732L898.142 83.4974L902.066 84.2701L906.639 61.0459L902.714 60.2732ZM900.104 85.8837H947.756V81.8837H900.104V85.8837ZM945.795 83.4881L943.148 96.6043L947.069 97.3957L949.716 84.2794L945.795 83.4881ZM945.108 95H881.934V99H945.108V95ZM883.895 97.3922L900.741 13.1594L896.819 12.3749L879.972 96.6078L883.895 97.3922ZM898.78 14.7672H960.27V10.7672H898.78V14.7672ZM958.31 12.3715L955.662 25.4877L959.583 26.2791L962.231 13.1629L958.31 12.3715ZM957.623 23.8834H911.656V27.8834H957.623V23.8834ZM961.039 57.2902V55.2902H959.387L959.075 56.9125L961.039 57.2902ZM994.131 57.2902L996.091 57.6861L996.575 55.2902H994.131V57.2902ZM991.604 69.8048V71.8048H993.24L993.564 70.2007L991.604 69.8048ZM958.633 69.8048L956.669 69.4271L956.211 71.8048H958.633V69.8048ZM961.039 59.2902H994.131V55.2902H961.039V59.2902ZM992.17 56.8944L989.643 69.409L993.564 70.2007L996.091 57.6861L992.17 56.8944ZM991.604 67.8048H958.633V71.8048H991.604V67.8048ZM960.597 70.1825L963.003 57.6679L959.075 56.9125L956.669 69.4271L960.597 70.1825ZM1069.79 53.4396L1069.04 51.5849L1064.29 53.5009L1069.08 55.3105L1069.79 53.4396ZM1078.21 59.8172L1079.86 58.6764L1079.86 58.6764L1078.21 59.8172ZM1001.68 97L999.722 96.6078L999.244 99H1001.68V97ZM1018.53 12.7672V10.7672H1016.89L1016.57 12.3749L1018.53 12.7672ZM1077.61 17.7008L1076.47 19.3432L1076.49 19.3542L1076.5 19.3649L1077.61 17.7008ZM1080.74 45.1366L1082.35 46.3254L1082.36 46.3172L1082.36 46.3089L1080.74 45.1366ZM1031.65 25.0411V23.0411H1030.01L1029.69 24.6449L1031.65 25.0411ZM1026.95 48.2653L1024.99 47.8691L1024.51 50.2653H1026.95V48.2653ZM1063.29 44.7756L1064.41 46.4338L1064.43 46.4249L1064.44 46.4159L1063.29 44.7756ZM1060.17 81.1161L1059.06 79.452L1059.05 79.4578L1059.04 79.4636L1060.17 81.1161ZM1061.73 62.8255L1060.65 64.5061L1060.68 64.5263L1060.71 64.5452L1061.73 62.8255ZM1024.55 60.4189V58.4189H1022.9L1022.58 60.0304L1024.55 60.4189ZM1019.73 84.7261L1017.77 84.3376L1017.3 86.7261H1019.73V84.7261ZM1069.08 55.3105C1072.35 56.5458 1074.82 58.4349 1076.57 60.958L1079.86 58.6764C1077.6 55.4236 1074.45 53.0609 1070.5 51.5686L1069.08 55.3105ZM1076.57 60.958C1078.3 63.4462 1079.22 66.5961 1079.22 70.5268H1083.22C1083.22 65.954 1082.14 61.9642 1079.86 58.6764L1076.57 60.958ZM1079.22 70.5268C1079.22 78.5775 1076.14 84.5055 1070.01 88.5973L1072.22 91.9255C1079.56 87.0324 1083.22 79.804 1083.22 70.5268H1079.22ZM1070.01 88.5973C1063.7 92.7984 1055.07 95 1043.92 95V99C1055.55 99 1065.05 96.7092 1072.22 91.9255L1070.01 88.5973ZM1043.92 95H1001.68V99H1043.92V95ZM1003.64 97.3922L1020.49 13.1594L1016.57 12.3749L999.722 96.6078L1003.64 97.3922ZM1018.53 14.7672H1057.4V10.7672H1018.53V14.7672ZM1057.4 14.7672C1065.93 14.7672 1072.21 16.3789 1076.47 19.3432L1078.75 16.0584C1073.55 12.4446 1066.35 10.7672 1057.4 10.7672V14.7672ZM1076.5 19.3649C1080.73 22.1796 1082.83 26.1882 1082.83 31.6594H1086.83C1086.83 24.9369 1084.13 19.6398 1078.72 16.0367L1076.5 19.3649ZM1082.83 31.6594C1082.83 36.5059 1081.57 40.5756 1079.12 43.9644L1082.36 46.3089C1085.37 42.1568 1086.83 37.2417 1086.83 31.6594H1082.83ZM1079.13 43.9479C1076.64 47.3187 1073.3 49.8673 1069.04 51.5849L1070.54 55.2943C1075.43 53.3216 1079.39 50.335 1082.35 46.3254L1079.13 43.9479ZM1029.69 24.6449L1024.99 47.8691L1028.91 48.6614L1033.61 25.4372L1029.69 24.6449ZM1026.95 50.2653H1049.21V46.2653H1026.95V50.2653ZM1049.21 50.2653C1055.39 50.2653 1060.52 49.0594 1064.41 46.4338L1062.18 43.1175C1059.17 45.1448 1054.92 46.2653 1049.21 46.2653V50.2653ZM1064.44 46.4159C1068.48 43.5985 1070.47 39.4662 1070.47 34.3067H1066.47C1066.47 38.2925 1065.01 41.1395 1062.15 43.1354L1064.44 46.4159ZM1070.47 34.3067C1070.47 30.5948 1068.95 27.6129 1065.9 25.6702C1063 23.8251 1058.91 23.0411 1053.91 23.0411V27.0411C1058.61 27.0411 1061.8 27.8014 1063.75 29.0448C1065.55 30.1907 1066.47 31.8415 1066.47 34.3067H1070.47ZM1053.91 23.0411H1031.65V27.0411H1053.91V23.0411ZM1045 86.7261C1051.78 86.7261 1057.3 85.4936 1061.29 82.7685L1059.04 79.4636C1055.98 81.5519 1051.38 82.7261 1045 82.7261V86.7261ZM1061.27 82.7802C1065.49 79.9718 1067.58 75.7908 1067.58 70.5268H1063.58C1063.58 74.5685 1062.06 77.4471 1059.06 79.452L1061.27 82.7802ZM1067.58 70.5268C1067.58 66.384 1066.06 63.0707 1062.75 61.1058L1060.71 64.5452C1062.53 65.6288 1063.58 67.4497 1063.58 70.5268H1067.58ZM1062.81 61.1449C1059.85 59.2314 1055.62 58.4189 1050.42 58.4189V62.4189C1055.33 62.4189 1058.64 63.2108 1060.65 64.5061L1062.81 61.1449ZM1050.42 58.4189H1024.55V62.4189H1050.42V58.4189ZM1022.58 60.0304L1017.77 84.3376L1021.7 85.1146L1026.51 60.8074L1022.58 60.0304ZM1019.73 86.7261H1045V82.7261H1019.73V86.7261ZM1107.67 12.7672V10.7672H1106.03L1105.7 12.3749L1107.67 12.7672ZM1123.31 12.7672L1125.27 13.1594L1125.75 10.7672H1123.31V12.7672ZM1106.46 97V99H1108.1L1108.42 97.3922L1106.46 97ZM1090.82 97L1088.86 96.6078L1088.38 99H1090.82V97ZM1107.67 14.7672H1123.31V10.7672H1107.67V14.7672ZM1121.35 12.3749L1104.5 96.6078L1108.42 97.3922L1125.27 13.1594L1121.35 12.3749ZM1106.46 95H1090.82V99H1106.46V95ZM1092.78 97.3922L1109.63 13.1594L1105.7 12.3749L1088.86 96.6078L1092.78 97.3922ZM1174.13 51.9956L1173.23 50.2068L1171.21 51.2193L1172.46 53.104L1174.13 51.9956ZM1204.09 97V99H1207.83L1205.76 95.8916L1204.09 97ZM1186.64 97L1184.99 98.1185L1185.58 99H1186.64V97ZM1162.7 61.5019L1164.36 60.3834L1163.09 58.5063L1161.38 59.9946L1162.7 61.5019ZM1146.69 75.4605L1145.38 73.9532L1144.87 74.3999L1144.73 75.0661L1146.69 75.4605ZM1142.36 97V99H1144L1144.32 97.3943L1142.36 97ZM1126.84 97L1124.88 96.6078L1124.4 99H1126.84V97ZM1143.69 12.7672V10.7672H1142.05L1141.72 12.3749L1143.69 12.7672ZM1159.21 12.7672L1161.17 13.1605L1161.65 10.7672H1159.21V12.7672ZM1150.66 55.3649L1148.7 54.9716L1147.55 60.7248L1151.98 56.874L1150.66 55.3649ZM1199.64 12.7672V10.7672H1198.89L1198.33 11.2581L1199.64 12.7672ZM1219.37 12.7672L1220.69 14.2768L1224.73 10.7672H1219.37V12.7672ZM1174.37 51.8753L1175.26 53.6641L1175.49 53.5509L1175.68 53.3849L1174.37 51.8753ZM1172.46 53.104L1202.43 98.1084L1205.76 95.8916L1175.79 50.8872L1172.46 53.104ZM1204.09 95H1186.64V99H1204.09V95ZM1188.3 95.8815L1164.36 60.3834L1161.04 62.6203L1184.99 98.1185L1188.3 95.8815ZM1161.38 59.9946L1145.38 73.9532L1148.01 76.9677L1164.01 63.0091L1161.38 59.9946ZM1144.73 75.0661L1140.4 96.6057L1144.32 97.3943L1148.65 75.8548L1144.73 75.0661ZM1142.36 95H1126.84V99H1142.36V95ZM1128.8 97.3922L1145.65 13.1594L1141.72 12.3749L1124.88 96.6078L1128.8 97.3922ZM1143.69 14.7672H1159.21V10.7672H1143.69V14.7672ZM1157.25 12.3739L1148.7 54.9716L1152.63 55.7582L1161.17 13.1605L1157.25 12.3739ZM1151.98 56.874L1200.95 14.2762L1198.33 11.2581L1149.35 53.8559L1151.98 56.874ZM1199.64 14.7672H1219.37V10.7672H1199.64V14.7672ZM1218.06 11.2575L1173.06 50.3656L1175.68 53.3849L1220.69 14.2768L1218.06 11.2575ZM1173.48 50.0864L1173.23 50.2068L1175.02 53.7844L1175.26 53.6641L1173.48 50.0864ZM1241.82 25.8834V23.8834H1240.18L1239.86 25.4953L1241.82 25.8834ZM1237.49 47.784L1235.52 47.3959L1235.05 49.784H1237.49V47.784ZM1278.28 47.784L1280.24 48.1691L1280.71 45.784H1278.28V47.784ZM1275.75 60.6595V62.6595H1277.4L1277.71 61.0447L1275.75 60.6595ZM1234.84 60.6595V58.6595H1233.19L1232.88 60.2732L1234.84 60.6595ZM1230.27 83.8837L1228.3 83.4974L1227.83 85.8837H1230.27V83.8837ZM1277.92 83.8837L1279.88 84.2794L1280.36 81.8837H1277.92V83.8837ZM1275.27 97V99H1276.91L1277.23 97.3957L1275.27 97ZM1212.1 97L1210.14 96.6078L1209.66 99H1212.1V97ZM1228.94 12.7672V10.7672H1227.3L1226.98 12.3749L1228.94 12.7672ZM1290.43 12.7672L1292.39 13.1629L1292.88 10.7672H1290.43V12.7672ZM1287.79 25.8834V27.8834H1289.42L1289.75 26.2791L1287.79 25.8834ZM1239.86 25.4953L1235.52 47.3959L1239.45 48.172L1243.78 26.2715L1239.86 25.4953ZM1237.49 49.784H1278.28V45.784H1237.49V49.784ZM1276.32 47.3988L1273.79 60.2744L1277.71 61.0447L1280.24 48.1691L1276.32 47.3988ZM1275.75 58.6595H1234.84V62.6595H1275.75V58.6595ZM1232.88 60.2732L1228.3 83.4974L1232.23 84.2701L1236.8 61.0459L1232.88 60.2732ZM1230.27 85.8837H1277.92V81.8837H1230.27V85.8837ZM1275.96 83.4881L1273.31 96.6043L1277.23 97.3957L1279.88 84.2794L1275.96 83.4881ZM1275.27 95H1212.1V99H1275.27V95ZM1214.06 97.3922L1230.9 13.1594L1226.98 12.3749L1210.14 96.6078L1214.06 97.3922ZM1228.94 14.7672H1290.43V10.7672H1228.94V14.7672ZM1288.47 12.3715L1285.83 25.4877L1289.75 26.2791L1292.39 13.1629L1288.47 12.3715ZM1287.79 23.8834H1241.82V27.8834H1287.79V23.8834Z" fill="white" mask="url(#path-5-outside-3_615_2194)"/>
<mask id="path-7-outside-4_615_2194" maskUnits="userSpaceOnUse" x="1312" y="10" width="414" height="89" fill="black">
<rect fill="white" x="1312" y="10" width="414" height="89"/>
<path d="M1344.66 25.8834L1340.32 47.784H1381.12L1378.59 60.6595H1337.68L1333.1 83.8837H1380.76L1378.11 97H1314.93L1331.78 12.7672H1393.27L1390.62 25.8834H1344.66ZM1394.04 57.2902H1427.13L1424.6 69.8048H1391.63L1394.04 57.2902ZM1502.79 53.4396C1506.4 54.8034 1509.21 56.9292 1511.21 59.8172C1513.22 62.7052 1514.22 66.2751 1514.22 70.5268C1514.22 79.1908 1510.85 85.769 1504.12 90.2614C1497.38 94.7538 1488.31 97 1476.92 97H1434.68L1451.53 12.7672H1490.4C1499.14 12.7672 1505.88 14.4117 1510.61 17.7008C1515.43 20.9097 1517.83 25.5625 1517.83 31.6594C1517.83 36.8738 1516.47 41.3662 1513.74 45.1366C1511.01 48.8268 1507.36 51.5945 1502.79 53.4396ZM1464.65 25.0411L1459.95 48.2653H1482.21C1488.15 48.2653 1492.84 47.1021 1496.29 44.7756C1499.74 42.369 1501.47 38.8793 1501.47 34.3067C1501.47 28.1296 1496.61 25.0411 1486.91 25.0411H1464.65ZM1478 84.7261C1484.58 84.7261 1489.64 83.5227 1493.17 81.1161C1496.78 78.7094 1498.58 75.1797 1498.58 70.5268C1498.58 66.9168 1497.3 64.3497 1494.73 62.8255C1492.24 61.2211 1488.47 60.4189 1483.42 60.4189H1457.55L1452.73 84.7261H1478ZM1540.67 12.7672H1556.31L1539.46 97H1523.82L1540.67 12.7672ZM1607.13 51.9956L1637.09 97H1619.64L1595.7 61.5019L1579.69 75.4605L1575.36 97H1559.84L1576.69 12.7672H1592.21L1583.66 55.3649L1632.64 12.7672H1652.37L1607.37 51.8753L1607.13 51.9956ZM1674.82 25.8834L1670.49 47.784H1711.28L1708.75 60.6595H1667.84L1663.27 83.8837H1710.92L1708.27 97H1645.1L1661.94 12.7672H1723.43L1720.79 25.8834H1674.82Z"/>
</mask>
<path d="M1344.66 25.8834V23.8834H1343.01L1342.69 25.4953L1344.66 25.8834ZM1340.32 47.784L1338.36 47.3959L1337.89 49.784H1340.32V47.784ZM1381.12 47.784L1383.08 48.1691L1383.55 45.784H1381.12V47.784ZM1378.59 60.6595V62.6595H1380.24L1380.55 61.0447L1378.59 60.6595ZM1337.68 60.6595V58.6595H1336.03L1335.71 60.2732L1337.68 60.6595ZM1333.1 83.8837L1331.14 83.4974L1330.67 85.8837H1333.1V83.8837ZM1380.76 83.8837L1382.72 84.2794L1383.2 81.8837H1380.76V83.8837ZM1378.11 97V99H1379.74L1380.07 97.3957L1378.11 97ZM1314.93 97L1312.97 96.6078L1312.49 99H1314.93V97ZM1331.78 12.7672V10.7672H1330.14L1329.82 12.3749L1331.78 12.7672ZM1393.27 12.7672L1395.23 13.1629L1395.71 10.7672H1393.27V12.7672ZM1390.62 25.8834V27.8834H1392.26L1392.58 26.2791L1390.62 25.8834ZM1342.69 25.4953L1338.36 47.3959L1342.29 48.172L1346.62 26.2715L1342.69 25.4953ZM1340.32 49.784H1381.12V45.784H1340.32V49.784ZM1379.15 47.3988L1376.63 60.2744L1380.55 61.0447L1383.08 48.1691L1379.15 47.3988ZM1378.59 58.6595H1337.68V62.6595H1378.59V58.6595ZM1335.71 60.2732L1331.14 83.4974L1335.07 84.2701L1339.64 61.0459L1335.71 60.2732ZM1333.1 85.8837H1380.76V81.8837H1333.1V85.8837ZM1378.8 83.4881L1376.15 96.6043L1380.07 97.3957L1382.72 84.2794L1378.8 83.4881ZM1378.11 95H1314.93V99H1378.11V95ZM1316.89 97.3922L1333.74 13.1594L1329.82 12.3749L1312.97 96.6078L1316.89 97.3922ZM1331.78 14.7672H1393.27V10.7672H1331.78V14.7672ZM1391.31 12.3715L1388.66 25.4877L1392.58 26.2791L1395.23 13.1629L1391.31 12.3715ZM1390.62 23.8834H1344.66V27.8834H1390.62V23.8834ZM1394.04 57.2902V55.2902H1392.39L1392.08 56.9125L1394.04 57.2902ZM1427.13 57.2902L1429.09 57.6861L1429.57 55.2902H1427.13V57.2902ZM1424.6 69.8048V71.8048H1426.24L1426.56 70.2007L1424.6 69.8048ZM1391.63 69.8048L1389.67 69.4271L1389.21 71.8048H1391.63V69.8048ZM1394.04 59.2902H1427.13V55.2902H1394.04V59.2902ZM1425.17 56.8944L1422.64 69.409L1426.56 70.2007L1429.09 57.6861L1425.17 56.8944ZM1424.6 67.8048H1391.63V71.8048H1424.6V67.8048ZM1393.6 70.1825L1396 57.6679L1392.08 56.9125L1389.67 69.4271L1393.6 70.1825ZM1502.79 53.4396L1502.04 51.5849L1497.29 53.5009L1502.08 55.3105L1502.79 53.4396ZM1511.21 59.8172L1512.86 58.6764L1512.86 58.6764L1511.21 59.8172ZM1434.68 97L1432.72 96.6078L1432.24 99H1434.68V97ZM1451.53 12.7672V10.7672H1449.89L1449.57 12.3749L1451.53 12.7672ZM1510.61 17.7008L1509.47 19.3432L1509.49 19.3542L1509.5 19.3649L1510.61 17.7008ZM1513.74 45.1366L1515.35 46.3254L1515.36 46.3172L1515.36 46.3089L1513.74 45.1366ZM1464.65 25.0411V23.0411H1463.01L1462.69 24.6449L1464.65 25.0411ZM1459.95 48.2653L1457.99 47.8691L1457.51 50.2653H1459.95V48.2653ZM1496.29 44.7756L1497.41 46.4338L1497.43 46.4249L1497.44 46.4159L1496.29 44.7756ZM1493.17 81.1161L1492.06 79.452L1492.05 79.4578L1492.04 79.4636L1493.17 81.1161ZM1494.73 62.8255L1493.65 64.5061L1493.68 64.5263L1493.71 64.5452L1494.73 62.8255ZM1457.55 60.4189V58.4189H1455.9L1455.58 60.0304L1457.55 60.4189ZM1452.73 84.7261L1450.77 84.3376L1450.3 86.7261H1452.73V84.7261ZM1502.08 55.3105C1505.35 56.5458 1507.82 58.4349 1509.57 60.958L1512.86 58.6764C1510.6 55.4236 1507.45 53.0609 1503.5 51.5686L1502.08 55.3105ZM1509.57 60.958C1511.3 63.4462 1512.22 66.5961 1512.22 70.5268H1516.22C1516.22 65.954 1515.14 61.9642 1512.86 58.6764L1509.57 60.958ZM1512.22 70.5268C1512.22 78.5775 1509.14 84.5055 1503.01 88.5973L1505.22 91.9255C1512.56 87.0324 1516.22 79.804 1516.22 70.5268H1512.22ZM1503.01 88.5973C1496.7 92.7984 1488.07 95 1476.92 95V99C1488.55 99 1498.05 96.7092 1505.22 91.9255L1503.01 88.5973ZM1476.92 95H1434.68V99H1476.92V95ZM1436.64 97.3922L1453.49 13.1594L1449.57 12.3749L1432.72 96.6078L1436.64 97.3922ZM1451.53 14.7672H1490.4V10.7672H1451.53V14.7672ZM1490.4 14.7672C1498.93 14.7672 1505.21 16.3789 1509.47 19.3432L1511.75 16.0584C1506.55 12.4446 1499.35 10.7672 1490.4 10.7672V14.7672ZM1509.5 19.3649C1513.73 22.1796 1515.83 26.1882 1515.83 31.6594H1519.83C1519.83 24.9369 1517.13 19.6398 1511.72 16.0367L1509.5 19.3649ZM1515.83 31.6594C1515.83 36.5059 1514.57 40.5756 1512.12 43.9644L1515.36 46.3089C1518.37 42.1568 1519.83 37.2417 1519.83 31.6594H1515.83ZM1512.13 43.9479C1509.64 47.3187 1506.3 49.8673 1502.04 51.5849L1503.54 55.2943C1508.43 53.3216 1512.39 50.335 1515.35 46.3254L1512.13 43.9479ZM1462.69 24.6449L1457.99 47.8691L1461.91 48.6614L1466.61 25.4372L1462.69 24.6449ZM1459.95 50.2653H1482.21V46.2653H1459.95V50.2653ZM1482.21 50.2653C1488.39 50.2653 1493.52 49.0594 1497.41 46.4338L1495.18 43.1175C1492.17 45.1448 1487.92 46.2653 1482.21 46.2653V50.2653ZM1497.44 46.4159C1501.48 43.5985 1503.47 39.4662 1503.47 34.3067H1499.47C1499.47 38.2925 1498.01 41.1395 1495.15 43.1354L1497.44 46.4159ZM1503.47 34.3067C1503.47 30.5948 1501.95 27.6129 1498.9 25.6702C1496 23.8251 1491.91 23.0411 1486.91 23.0411V27.0411C1491.61 27.0411 1494.8 27.8014 1496.75 29.0448C1498.55 30.1907 1499.47 31.8415 1499.47 34.3067H1503.47ZM1486.91 23.0411H1464.65V27.0411H1486.91V23.0411ZM1478 86.7261C1484.78 86.7261 1490.3 85.4936 1494.29 82.7685L1492.04 79.4636C1488.98 81.5519 1484.38 82.7261 1478 82.7261V86.7261ZM1494.27 82.7802C1498.49 79.9718 1500.58 75.7908 1500.58 70.5268H1496.58C1496.58 74.5685 1495.06 77.4471 1492.06 79.452L1494.27 82.7802ZM1500.58 70.5268C1500.58 66.384 1499.06 63.0707 1495.75 61.1058L1493.71 64.5452C1495.53 65.6288 1496.58 67.4497 1496.58 70.5268H1500.58ZM1495.81 61.1449C1492.85 59.2314 1488.62 58.4189 1483.42 58.4189V62.4189C1488.33 62.4189 1491.64 63.2108 1493.65 64.5061L1495.81 61.1449ZM1483.42 58.4189H1457.55V62.4189H1483.42V58.4189ZM1455.58 60.0304L1450.77 84.3376L1454.7 85.1146L1459.51 60.8074L1455.58 60.0304ZM1452.73 86.7261H1478V82.7261H1452.73V86.7261ZM1540.67 12.7672V10.7672H1539.03L1538.7 12.3749L1540.67 12.7672ZM1556.31 12.7672L1558.27 13.1594L1558.75 10.7672H1556.31V12.7672ZM1539.46 97V99H1541.1L1541.42 97.3922L1539.46 97ZM1523.82 97L1521.86 96.6078L1521.38 99H1523.82V97ZM1540.67 14.7672H1556.31V10.7672H1540.67V14.7672ZM1554.35 12.3749L1537.5 96.6078L1541.42 97.3922L1558.27 13.1594L1554.35 12.3749ZM1539.46 95H1523.82V99H1539.46V95ZM1525.78 97.3922L1542.63 13.1594L1538.7 12.3749L1521.86 96.6078L1525.78 97.3922ZM1607.13 51.9956L1606.23 50.2068L1604.21 51.2193L1605.46 53.104L1607.13 51.9956ZM1637.09 97V99H1640.83L1638.76 95.8916L1637.09 97ZM1619.64 97L1617.99 98.1185L1618.58 99H1619.64V97ZM1595.7 61.5019L1597.36 60.3834L1596.09 58.5063L1594.38 59.9946L1595.7 61.5019ZM1579.69 75.4605L1578.38 73.9532L1577.87 74.3999L1577.73 75.0661L1579.69 75.4605ZM1575.36 97V99H1577L1577.32 97.3943L1575.36 97ZM1559.84 97L1557.88 96.6078L1557.4 99H1559.84V97ZM1576.69 12.7672V10.7672H1575.05L1574.72 12.3749L1576.69 12.7672ZM1592.21 12.7672L1594.17 13.1605L1594.65 10.7672H1592.21V12.7672ZM1583.66 55.3649L1581.7 54.9716L1580.55 60.7248L1584.98 56.874L1583.66 55.3649ZM1632.64 12.7672V10.7672H1631.89L1631.33 11.2581L1632.64 12.7672ZM1652.37 12.7672L1653.69 14.2768L1657.73 10.7672H1652.37V12.7672ZM1607.37 51.8753L1608.26 53.6641L1608.49 53.5509L1608.68 53.3849L1607.37 51.8753ZM1605.46 53.104L1635.43 98.1084L1638.76 95.8916L1608.79 50.8872L1605.46 53.104ZM1637.09 95H1619.64V99H1637.09V95ZM1621.3 95.8815L1597.36 60.3834L1594.04 62.6203L1617.99 98.1185L1621.3 95.8815ZM1594.38 59.9946L1578.38 73.9532L1581.01 76.9677L1597.01 63.0091L1594.38 59.9946ZM1577.73 75.0661L1573.4 96.6057L1577.32 97.3943L1581.65 75.8548L1577.73 75.0661ZM1575.36 95H1559.84V99H1575.36V95ZM1561.8 97.3922L1578.65 13.1594L1574.72 12.3749L1557.88 96.6078L1561.8 97.3922ZM1576.69 14.7672H1592.21V10.7672H1576.69V14.7672ZM1590.25 12.3739L1581.7 54.9716L1585.63 55.7582L1594.17 13.1605L1590.25 12.3739ZM1584.98 56.874L1633.95 14.2762L1631.33 11.2581L1582.35 53.8559L1584.98 56.874ZM1632.64 14.7672H1652.37V10.7672H1632.64V14.7672ZM1651.06 11.2575L1606.06 50.3656L1608.68 53.3849L1653.69 14.2768L1651.06 11.2575ZM1606.48 50.0864L1606.23 50.2068L1608.02 53.7844L1608.26 53.6641L1606.48 50.0864ZM1674.82 25.8834V23.8834H1673.18L1672.86 25.4953L1674.82 25.8834ZM1670.49 47.784L1668.52 47.3959L1668.05 49.784H1670.49V47.784ZM1711.28 47.784L1713.24 48.1691L1713.71 45.784H1711.28V47.784ZM1708.75 60.6595V62.6595H1710.4L1710.71 61.0447L1708.75 60.6595ZM1667.84 60.6595V58.6595H1666.19L1665.88 60.2732L1667.84 60.6595ZM1663.27 83.8837L1661.3 83.4974L1660.83 85.8837H1663.27V83.8837ZM1710.92 83.8837L1712.88 84.2794L1713.36 81.8837H1710.92V83.8837ZM1708.27 97V99H1709.91L1710.23 97.3957L1708.27 97ZM1645.1 97L1643.14 96.6078L1642.66 99H1645.1V97ZM1661.94 12.7672V10.7672H1660.3L1659.98 12.3749L1661.94 12.7672ZM1723.43 12.7672L1725.39 13.1629L1725.88 10.7672H1723.43V12.7672ZM1720.79 25.8834V27.8834H1722.42L1722.75 26.2791L1720.79 25.8834ZM1672.86 25.4953L1668.52 47.3959L1672.45 48.172L1676.78 26.2715L1672.86 25.4953ZM1670.49 49.784H1711.28V45.784H1670.49V49.784ZM1709.32 47.3988L1706.79 60.2744L1710.71 61.0447L1713.24 48.1691L1709.32 47.3988ZM1708.75 58.6595H1667.84V62.6595H1708.75V58.6595ZM1665.88 60.2732L1661.3 83.4974L1665.23 84.2701L1669.8 61.0459L1665.88 60.2732ZM1663.27 85.8837H1710.92V81.8837H1663.27V85.8837ZM1708.96 83.4881L1706.31 96.6043L1710.23 97.3957L1712.88 84.2794L1708.96 83.4881ZM1708.27 95H1645.1V99H1708.27V95ZM1647.06 97.3922L1663.9 13.1594L1659.98 12.3749L1643.14 96.6078L1647.06 97.3922ZM1661.94 14.7672H1723.43V10.7672H1661.94V14.7672ZM1721.47 12.3715L1718.83 25.4877L1722.75 26.2791L1725.39 13.1629L1721.47 12.3715ZM1720.79 23.8834H1674.82V27.8834H1720.79V23.8834Z" fill="white" mask="url(#path-7-outside-4_615_2194)"/>
<mask id="path-9-outside-5_615_2194" maskUnits="userSpaceOnUse" x="1745" y="10" width="414" height="89" fill="black">
<rect fill="white" x="1745" y="10" width="414" height="89"/>
<path d="M1777.66 25.8834L1773.32 47.784H1814.12L1811.59 60.6595H1770.68L1766.1 83.8837H1813.76L1811.11 97H1747.93L1764.78 12.7672H1826.27L1823.62 25.8834H1777.66ZM1827.04 57.2902H1860.13L1857.6 69.8048H1824.63L1827.04 57.2902ZM1935.79 53.4396C1939.4 54.8034 1942.21 56.9292 1944.21 59.8172C1946.22 62.7052 1947.22 66.2751 1947.22 70.5268C1947.22 79.1908 1943.85 85.769 1937.12 90.2614C1930.38 94.7538 1921.31 97 1909.92 97H1867.68L1884.53 12.7672H1923.4C1932.14 12.7672 1938.88 14.4117 1943.61 17.7008C1948.43 20.9097 1950.83 25.5625 1950.83 31.6594C1950.83 36.8738 1949.47 41.3662 1946.74 45.1366C1944.01 48.8268 1940.36 51.5945 1935.79 53.4396ZM1897.65 25.0411L1892.95 48.2653H1915.21C1921.15 48.2653 1925.84 47.1021 1929.29 44.7756C1932.74 42.369 1934.47 38.8793 1934.47 34.3067C1934.47 28.1296 1929.61 25.0411 1919.91 25.0411H1897.65ZM1911 84.7261C1917.58 84.7261 1922.64 83.5227 1926.17 81.1161C1929.78 78.7094 1931.58 75.1797 1931.58 70.5268C1931.58 66.9168 1930.3 64.3497 1927.73 62.8255C1925.24 61.2211 1921.47 60.4189 1916.42 60.4189H1890.55L1885.73 84.7261H1911ZM1973.67 12.7672H1989.31L1972.46 97H1956.82L1973.67 12.7672ZM2040.13 51.9956L2070.09 97H2052.64L2028.7 61.5019L2012.69 75.4605L2008.36 97H1992.84L2009.69 12.7672H2025.21L2016.66 55.3649L2065.64 12.7672H2085.37L2040.37 51.8753L2040.13 51.9956ZM2107.82 25.8834L2103.49 47.784H2144.28L2141.75 60.6595H2100.84L2096.27 83.8837H2143.92L2141.27 97H2078.1L2094.94 12.7672H2156.43L2153.79 25.8834H2107.82Z"/>
</mask>
<path d="M1777.66 25.8834V23.8834H1776.01L1775.69 25.4953L1777.66 25.8834ZM1773.32 47.784L1771.36 47.3959L1770.89 49.784H1773.32V47.784ZM1814.12 47.784L1816.08 48.1691L1816.55 45.784H1814.12V47.784ZM1811.59 60.6595V62.6595H1813.24L1813.55 61.0447L1811.59 60.6595ZM1770.68 60.6595V58.6595H1769.03L1768.71 60.2732L1770.68 60.6595ZM1766.1 83.8837L1764.14 83.4974L1763.67 85.8837H1766.1V83.8837ZM1813.76 83.8837L1815.72 84.2794L1816.2 81.8837H1813.76V83.8837ZM1811.11 97V99H1812.74L1813.07 97.3957L1811.11 97ZM1747.93 97L1745.97 96.6078L1745.49 99H1747.93V97ZM1764.78 12.7672V10.7672H1763.14L1762.82 12.3749L1764.78 12.7672ZM1826.27 12.7672L1828.23 13.1629L1828.71 10.7672H1826.27V12.7672ZM1823.62 25.8834V27.8834H1825.26L1825.58 26.2791L1823.62 25.8834ZM1775.69 25.4953L1771.36 47.3959L1775.29 48.172L1779.62 26.2715L1775.69 25.4953ZM1773.32 49.784H1814.12V45.784H1773.32V49.784ZM1812.15 47.3988L1809.63 60.2744L1813.55 61.0447L1816.08 48.1691L1812.15 47.3988ZM1811.59 58.6595H1770.68V62.6595H1811.59V58.6595ZM1768.71 60.2732L1764.14 83.4974L1768.07 84.2701L1772.64 61.0459L1768.71 60.2732ZM1766.1 85.8837H1813.76V81.8837H1766.1V85.8837ZM1811.8 83.4881L1809.15 96.6043L1813.07 97.3957L1815.72 84.2794L1811.8 83.4881ZM1811.11 95H1747.93V99H1811.11V95ZM1749.89 97.3922L1766.74 13.1594L1762.82 12.3749L1745.97 96.6078L1749.89 97.3922ZM1764.78 14.7672H1826.27V10.7672H1764.78V14.7672ZM1824.31 12.3715L1821.66 25.4877L1825.58 26.2791L1828.23 13.1629L1824.31 12.3715ZM1823.62 23.8834H1777.66V27.8834H1823.62V23.8834ZM1827.04 57.2902V55.2902H1825.39L1825.08 56.9125L1827.04 57.2902ZM1860.13 57.2902L1862.09 57.6861L1862.57 55.2902H1860.13V57.2902ZM1857.6 69.8048V71.8048H1859.24L1859.56 70.2007L1857.6 69.8048ZM1824.63 69.8048L1822.67 69.4271L1822.21 71.8048H1824.63V69.8048ZM1827.04 59.2902H1860.13V55.2902H1827.04V59.2902ZM1858.17 56.8944L1855.64 69.409L1859.56 70.2007L1862.09 57.6861L1858.17 56.8944ZM1857.6 67.8048H1824.63V71.8048H1857.6V67.8048ZM1826.6 70.1825L1829 57.6679L1825.08 56.9125L1822.67 69.4271L1826.6 70.1825ZM1935.79 53.4396L1935.04 51.5849L1930.29 53.5009L1935.08 55.3105L1935.79 53.4396ZM1944.21 59.8172L1945.86 58.6764L1945.86 58.6764L1944.21 59.8172ZM1867.68 97L1865.72 96.6078L1865.24 99H1867.68V97ZM1884.53 12.7672V10.7672H1882.89L1882.57 12.3749L1884.53 12.7672ZM1943.61 17.7008L1942.47 19.3432L1942.49 19.3542L1942.5 19.3649L1943.61 17.7008ZM1946.74 45.1366L1948.35 46.3254L1948.36 46.3172L1948.36 46.3089L1946.74 45.1366ZM1897.65 25.0411V23.0411H1896.01L1895.69 24.6449L1897.65 25.0411ZM1892.95 48.2653L1890.99 47.8691L1890.51 50.2653H1892.95V48.2653ZM1929.29 44.7756L1930.41 46.4338L1930.43 46.4249L1930.44 46.4159L1929.29 44.7756ZM1926.17 81.1161L1925.06 79.452L1925.05 79.4578L1925.04 79.4636L1926.17 81.1161ZM1927.73 62.8255L1926.65 64.5061L1926.68 64.5263L1926.71 64.5452L1927.73 62.8255ZM1890.55 60.4189V58.4189H1888.9L1888.58 60.0304L1890.55 60.4189ZM1885.73 84.7261L1883.77 84.3376L1883.3 86.7261H1885.73V84.7261ZM1935.08 55.3105C1938.35 56.5458 1940.82 58.4349 1942.57 60.958L1945.86 58.6764C1943.6 55.4236 1940.45 53.0609 1936.5 51.5686L1935.08 55.3105ZM1942.57 60.958C1944.3 63.4462 1945.22 66.5961 1945.22 70.5268H1949.22C1949.22 65.954 1948.14 61.9642 1945.86 58.6764L1942.57 60.958ZM1945.22 70.5268C1945.22 78.5775 1942.14 84.5055 1936.01 88.5973L1938.22 91.9255C1945.56 87.0324 1949.22 79.804 1949.22 70.5268H1945.22ZM1936.01 88.5973C1929.7 92.7984 1921.07 95 1909.92 95V99C1921.55 99 1931.05 96.7092 1938.22 91.9255L1936.01 88.5973ZM1909.92 95H1867.68V99H1909.92V95ZM1869.64 97.3922L1886.49 13.1594L1882.57 12.3749L1865.72 96.6078L1869.64 97.3922ZM1884.53 14.7672H1923.4V10.7672H1884.53V14.7672ZM1923.4 14.7672C1931.93 14.7672 1938.21 16.3789 1942.47 19.3432L1944.75 16.0584C1939.55 12.4446 1932.35 10.7672 1923.4 10.7672V14.7672ZM1942.5 19.3649C1946.73 22.1796 1948.83 26.1882 1948.83 31.6594H1952.83C1952.83 24.9369 1950.13 19.6398 1944.72 16.0367L1942.5 19.3649ZM1948.83 31.6594C1948.83 36.5059 1947.57 40.5756 1945.12 43.9644L1948.36 46.3089C1951.37 42.1568 1952.83 37.2417 1952.83 31.6594H1948.83ZM1945.13 43.9479C1942.64 47.3187 1939.3 49.8673 1935.04 51.5849L1936.54 55.2943C1941.43 53.3216 1945.39 50.335 1948.35 46.3254L1945.13 43.9479ZM1895.69 24.6449L1890.99 47.8691L1894.91 48.6614L1899.61 25.4372L1895.69 24.6449ZM1892.95 50.2653H1915.21V46.2653H1892.95V50.2653ZM1915.21 50.2653C1921.39 50.2653 1926.52 49.0594 1930.41 46.4338L1928.18 43.1175C1925.17 45.1448 1920.92 46.2653 1915.21 46.2653V50.2653ZM1930.44 46.4159C1934.48 43.5985 1936.47 39.4662 1936.47 34.3067H1932.47C1932.47 38.2925 1931.01 41.1395 1928.15 43.1354L1930.44 46.4159ZM1936.47 34.3067C1936.47 30.5948 1934.95 27.6129 1931.9 25.6702C1929 23.8251 1924.91 23.0411 1919.91 23.0411V27.0411C1924.61 27.0411 1927.8 27.8014 1929.75 29.0448C1931.55 30.1907 1932.47 31.8415 1932.47 34.3067H1936.47ZM1919.91 23.0411H1897.65V27.0411H1919.91V23.0411ZM1911 86.7261C1917.78 86.7261 1923.3 85.4936 1927.29 82.7685L1925.04 79.4636C1921.98 81.5519 1917.38 82.7261 1911 82.7261V86.7261ZM1927.27 82.7802C1931.49 79.9718 1933.58 75.7908 1933.58 70.5268H1929.58C1929.58 74.5685 1928.06 77.4471 1925.06 79.452L1927.27 82.7802ZM1933.58 70.5268C1933.58 66.384 1932.06 63.0707 1928.75 61.1058L1926.71 64.5452C1928.53 65.6288 1929.58 67.4497 1929.58 70.5268H1933.58ZM1928.81 61.1449C1925.85 59.2314 1921.62 58.4189 1916.42 58.4189V62.4189C1921.33 62.4189 1924.64 63.2108 1926.65 64.5061L1928.81 61.1449ZM1916.42 58.4189H1890.55V62.4189H1916.42V58.4189ZM1888.58 60.0304L1883.77 84.3376L1887.7 85.1146L1892.51 60.8074L1888.58 60.0304ZM1885.73 86.7261H1911V82.7261H1885.73V86.7261ZM1973.67 12.7672V10.7672H1972.03L1971.7 12.3749L1973.67 12.7672ZM1989.31 12.7672L1991.27 13.1594L1991.75 10.7672H1989.31V12.7672ZM1972.46 97V99H1974.1L1974.42 97.3922L1972.46 97ZM1956.82 97L1954.86 96.6078L1954.38 99H1956.82V97ZM1973.67 14.7672H1989.31V10.7672H1973.67V14.7672ZM1987.35 12.3749L1970.5 96.6078L1974.42 97.3922L1991.27 13.1594L1987.35 12.3749ZM1972.46 95H1956.82V99H1972.46V95ZM1958.78 97.3922L1975.63 13.1594L1971.7 12.3749L1954.86 96.6078L1958.78 97.3922ZM2040.13 51.9956L2039.23 50.2068L2037.21 51.2193L2038.46 53.104L2040.13 51.9956ZM2070.09 97V99H2073.83L2071.76 95.8916L2070.09 97ZM2052.64 97L2050.99 98.1185L2051.58 99H2052.64V97ZM2028.7 61.5019L2030.36 60.3834L2029.09 58.5063L2027.38 59.9946L2028.7 61.5019ZM2012.69 75.4605L2011.38 73.9532L2010.87 74.3999L2010.73 75.0661L2012.69 75.4605ZM2008.36 97V99H2010L2010.32 97.3943L2008.36 97ZM1992.84 97L1990.88 96.6078L1990.4 99H1992.84V97ZM2009.69 12.7672V10.7672H2008.05L2007.72 12.3749L2009.69 12.7672ZM2025.21 12.7672L2027.17 13.1605L2027.65 10.7672H2025.21V12.7672ZM2016.66 55.3649L2014.7 54.9716L2013.55 60.7248L2017.98 56.874L2016.66 55.3649ZM2065.64 12.7672V10.7672H2064.89L2064.33 11.2581L2065.64 12.7672ZM2085.37 12.7672L2086.69 14.2768L2090.73 10.7672H2085.37V12.7672ZM2040.37 51.8753L2041.26 53.6641L2041.49 53.5509L2041.68 53.3849L2040.37 51.8753ZM2038.46 53.104L2068.43 98.1084L2071.76 95.8916L2041.79 50.8872L2038.46 53.104ZM2070.09 95H2052.64V99H2070.09V95ZM2054.3 95.8815L2030.36 60.3834L2027.04 62.6203L2050.99 98.1185L2054.3 95.8815ZM2027.38 59.9946L2011.38 73.9532L2014.01 76.9677L2030.01 63.0091L2027.38 59.9946ZM2010.73 75.0661L2006.4 96.6057L2010.32 97.3943L2014.65 75.8548L2010.73 75.0661ZM2008.36 95H1992.84V99H2008.36V95ZM1994.8 97.3922L2011.65 13.1594L2007.72 12.3749L1990.88 96.6078L1994.8 97.3922ZM2009.69 14.7672H2025.21V10.7672H2009.69V14.7672ZM2023.25 12.3739L2014.7 54.9716L2018.63 55.7582L2027.17 13.1605L2023.25 12.3739ZM2017.98 56.874L2066.95 14.2762L2064.33 11.2581L2015.35 53.8559L2017.98 56.874ZM2065.64 14.7672H2085.37V10.7672H2065.64V14.7672ZM2084.06 11.2575L2039.06 50.3656L2041.68 53.3849L2086.69 14.2768L2084.06 11.2575ZM2039.48 50.0864L2039.23 50.2068L2041.02 53.7844L2041.26 53.6641L2039.48 50.0864ZM2107.82 25.8834V23.8834H2106.18L2105.86 25.4953L2107.82 25.8834ZM2103.49 47.784L2101.52 47.3959L2101.05 49.784H2103.49V47.784ZM2144.28 47.784L2146.24 48.1691L2146.71 45.784H2144.28V47.784ZM2141.75 60.6595V62.6595H2143.4L2143.71 61.0447L2141.75 60.6595ZM2100.84 60.6595V58.6595H2099.19L2098.88 60.2732L2100.84 60.6595ZM2096.27 83.8837L2094.3 83.4974L2093.83 85.8837H2096.27V83.8837ZM2143.92 83.8837L2145.88 84.2794L2146.36 81.8837H2143.92V83.8837ZM2141.27 97V99H2142.91L2143.23 97.3957L2141.27 97ZM2078.1 97L2076.14 96.6078L2075.66 99H2078.1V97ZM2094.94 12.7672V10.7672H2093.3L2092.98 12.3749L2094.94 12.7672ZM2156.43 12.7672L2158.39 13.1629L2158.88 10.7672H2156.43V12.7672ZM2153.79 25.8834V27.8834H2155.42L2155.75 26.2791L2153.79 25.8834ZM2105.86 25.4953L2101.52 47.3959L2105.45 48.172L2109.78 26.2715L2105.86 25.4953ZM2103.49 49.784H2144.28V45.784H2103.49V49.784ZM2142.32 47.3988L2139.79 60.2744L2143.71 61.0447L2146.24 48.1691L2142.32 47.3988ZM2141.75 58.6595H2100.84V62.6595H2141.75V58.6595ZM2098.88 60.2732L2094.3 83.4974L2098.23 84.2701L2102.8 61.0459L2098.88 60.2732ZM2096.27 85.8837H2143.92V81.8837H2096.27V85.8837ZM2141.96 83.4881L2139.31 96.6043L2143.23 97.3957L2145.88 84.2794L2141.96 83.4881ZM2141.27 95H2078.1V99H2141.27V95ZM2080.06 97.3922L2096.9 13.1594L2092.98 12.3749L2076.14 96.6078L2080.06 97.3922ZM2094.94 14.7672H2156.43V10.7672H2094.94V14.7672ZM2154.47 12.3715L2151.83 25.4877L2155.75 26.2791L2158.39 13.1629L2154.47 12.3715ZM2153.79 23.8834H2107.82V27.8834H2153.79V23.8834Z" fill="white" mask="url(#path-9-outside-5_615_2194)"/>
<mask id="path-11-outside-6_615_2194" maskUnits="userSpaceOnUse" x="2178" y="10" width="414" height="89" fill="black">
<rect fill="white" x="2178" y="10" width="414" height="89"/>
<path d="M2210.66 25.8834L2206.32 47.784H2247.12L2244.59 60.6595H2203.68L2199.1 83.8837H2246.76L2244.11 97H2180.93L2197.78 12.7672H2259.27L2256.62 25.8834H2210.66ZM2260.04 57.2902H2293.13L2290.6 69.8048H2257.63L2260.04 57.2902ZM2368.79 53.4396C2372.4 54.8034 2375.21 56.9292 2377.21 59.8172C2379.22 62.7052 2380.22 66.2751 2380.22 70.5268C2380.22 79.1908 2376.85 85.769 2370.12 90.2614C2363.38 94.7538 2354.31 97 2342.92 97H2300.68L2317.53 12.7672H2356.4C2365.14 12.7672 2371.88 14.4117 2376.61 17.7008C2381.43 20.9097 2383.83 25.5625 2383.83 31.6594C2383.83 36.8738 2382.47 41.3662 2379.74 45.1366C2377.01 48.8268 2373.36 51.5945 2368.79 53.4396ZM2330.65 25.0411L2325.95 48.2653H2348.21C2354.15 48.2653 2358.84 47.1021 2362.29 44.7756C2365.74 42.369 2367.47 38.8793 2367.47 34.3067C2367.47 28.1296 2362.61 25.0411 2352.91 25.0411H2330.65ZM2344 84.7261C2350.58 84.7261 2355.64 83.5227 2359.17 81.1161C2362.78 78.7094 2364.58 75.1797 2364.58 70.5268C2364.58 66.9168 2363.3 64.3497 2360.73 62.8255C2358.24 61.2211 2354.47 60.4189 2349.42 60.4189H2323.55L2318.73 84.7261H2344ZM2406.67 12.7672H2422.31L2405.46 97H2389.82L2406.67 12.7672ZM2473.13 51.9956L2503.09 97H2485.64L2461.7 61.5019L2445.69 75.4605L2441.36 97H2425.84L2442.69 12.7672H2458.21L2449.66 55.3649L2498.64 12.7672H2518.37L2473.37 51.8753L2473.13 51.9956ZM2540.82 25.8834L2536.49 47.784H2577.28L2574.75 60.6595H2533.84L2529.27 83.8837H2576.92L2574.27 97H2511.1L2527.94 12.7672H2589.43L2586.79 25.8834H2540.82Z"/>
</mask>
<path d="M2210.66 25.8834V23.8834H2209.01L2208.69 25.4953L2210.66 25.8834ZM2206.32 47.784L2204.36 47.3959L2203.89 49.784H2206.32V47.784ZM2247.12 47.784L2249.08 48.1691L2249.55 45.784H2247.12V47.784ZM2244.59 60.6595V62.6595H2246.24L2246.55 61.0447L2244.59 60.6595ZM2203.68 60.6595V58.6595H2202.03L2201.71 60.2732L2203.68 60.6595ZM2199.1 83.8837L2197.14 83.4974L2196.67 85.8837H2199.1V83.8837ZM2246.76 83.8837L2248.72 84.2794L2249.2 81.8837H2246.76V83.8837ZM2244.11 97V99H2245.74L2246.07 97.3957L2244.11 97ZM2180.93 97L2178.97 96.6078L2178.49 99H2180.93V97ZM2197.78 12.7672V10.7672H2196.14L2195.82 12.3749L2197.78 12.7672ZM2259.27 12.7672L2261.23 13.1629L2261.71 10.7672H2259.27V12.7672ZM2256.62 25.8834V27.8834H2258.26L2258.58 26.2791L2256.62 25.8834ZM2208.69 25.4953L2204.36 47.3959L2208.29 48.172L2212.62 26.2715L2208.69 25.4953ZM2206.32 49.784H2247.12V45.784H2206.32V49.784ZM2245.15 47.3988L2242.63 60.2744L2246.55 61.0447L2249.08 48.1691L2245.15 47.3988ZM2244.59 58.6595H2203.68V62.6595H2244.59V58.6595ZM2201.71 60.2732L2197.14 83.4974L2201.07 84.2701L2205.64 61.0459L2201.71 60.2732ZM2199.1 85.8837H2246.76V81.8837H2199.1V85.8837ZM2244.8 83.4881L2242.15 96.6043L2246.07 97.3957L2248.72 84.2794L2244.8 83.4881ZM2244.11 95H2180.93V99H2244.11V95ZM2182.89 97.3922L2199.74 13.1594L2195.82 12.3749L2178.97 96.6078L2182.89 97.3922ZM2197.78 14.7672H2259.27V10.7672H2197.78V14.7672ZM2257.31 12.3715L2254.66 25.4877L2258.58 26.2791L2261.23 13.1629L2257.31 12.3715ZM2256.62 23.8834H2210.66V27.8834H2256.62V23.8834ZM2260.04 57.2902V55.2902H2258.39L2258.08 56.9125L2260.04 57.2902ZM2293.13 57.2902L2295.09 57.6861L2295.57 55.2902H2293.13V57.2902ZM2290.6 69.8048V71.8048H2292.24L2292.56 70.2007L2290.6 69.8048ZM2257.63 69.8048L2255.67 69.4271L2255.21 71.8048H2257.63V69.8048ZM2260.04 59.2902H2293.13V55.2902H2260.04V59.2902ZM2291.17 56.8944L2288.64 69.409L2292.56 70.2007L2295.09 57.6861L2291.17 56.8944ZM2290.6 67.8048H2257.63V71.8048H2290.6V67.8048ZM2259.6 70.1825L2262 57.6679L2258.08 56.9125L2255.67 69.4271L2259.6 70.1825ZM2368.79 53.4396L2368.04 51.5849L2363.29 53.5009L2368.08 55.3105L2368.79 53.4396ZM2377.21 59.8172L2378.86 58.6764L2378.86 58.6764L2377.21 59.8172ZM2300.68 97L2298.72 96.6078L2298.24 99H2300.68V97ZM2317.53 12.7672V10.7672H2315.89L2315.57 12.3749L2317.53 12.7672ZM2376.61 17.7008L2375.47 19.3432L2375.49 19.3542L2375.5 19.3649L2376.61 17.7008ZM2379.74 45.1366L2381.35 46.3254L2381.36 46.3172L2381.36 46.3089L2379.74 45.1366ZM2330.65 25.0411V23.0411H2329.01L2328.69 24.6449L2330.65 25.0411ZM2325.95 48.2653L2323.99 47.8691L2323.51 50.2653H2325.95V48.2653ZM2362.29 44.7756L2363.41 46.4338L2363.43 46.4249L2363.44 46.4159L2362.29 44.7756ZM2359.17 81.1161L2358.06 79.452L2358.05 79.4578L2358.04 79.4636L2359.17 81.1161ZM2360.73 62.8255L2359.65 64.5061L2359.68 64.5263L2359.71 64.5452L2360.73 62.8255ZM2323.55 60.4189V58.4189H2321.9L2321.58 60.0304L2323.55 60.4189ZM2318.73 84.7261L2316.77 84.3376L2316.3 86.7261H2318.73V84.7261ZM2368.08 55.3105C2371.35 56.5458 2373.82 58.4349 2375.57 60.958L2378.86 58.6764C2376.6 55.4236 2373.45 53.0609 2369.5 51.5686L2368.08 55.3105ZM2375.57 60.958C2377.3 63.4462 2378.22 66.5961 2378.22 70.5268H2382.22C2382.22 65.954 2381.14 61.9642 2378.86 58.6764L2375.57 60.958ZM2378.22 70.5268C2378.22 78.5775 2375.14 84.5055 2369.01 88.5973L2371.22 91.9255C2378.56 87.0324 2382.22 79.804 2382.22 70.5268H2378.22ZM2369.01 88.5973C2362.7 92.7984 2354.07 95 2342.92 95V99C2354.55 99 2364.05 96.7092 2371.22 91.9255L2369.01 88.5973ZM2342.92 95H2300.68V99H2342.92V95ZM2302.64 97.3922L2319.49 13.1594L2315.57 12.3749L2298.72 96.6078L2302.64 97.3922ZM2317.53 14.7672H2356.4V10.7672H2317.53V14.7672ZM2356.4 14.7672C2364.93 14.7672 2371.21 16.3789 2375.47 19.3432L2377.75 16.0584C2372.55 12.4446 2365.35 10.7672 2356.4 10.7672V14.7672ZM2375.5 19.3649C2379.73 22.1796 2381.83 26.1882 2381.83 31.6594H2385.83C2385.83 24.9369 2383.13 19.6398 2377.72 16.0367L2375.5 19.3649ZM2381.83 31.6594C2381.83 36.5059 2380.57 40.5756 2378.12 43.9644L2381.36 46.3089C2384.37 42.1568 2385.83 37.2417 2385.83 31.6594H2381.83ZM2378.13 43.9479C2375.64 47.3187 2372.3 49.8673 2368.04 51.5849L2369.54 55.2943C2374.43 53.3216 2378.39 50.335 2381.35 46.3254L2378.13 43.9479ZM2328.69 24.6449L2323.99 47.8691L2327.91 48.6614L2332.61 25.4372L2328.69 24.6449ZM2325.95 50.2653H2348.21V46.2653H2325.95V50.2653ZM2348.21 50.2653C2354.39 50.2653 2359.52 49.0594 2363.41 46.4338L2361.18 43.1175C2358.17 45.1448 2353.92 46.2653 2348.21 46.2653V50.2653ZM2363.44 46.4159C2367.48 43.5985 2369.47 39.4662 2369.47 34.3067H2365.47C2365.47 38.2925 2364.01 41.1395 2361.15 43.1354L2363.44 46.4159ZM2369.47 34.3067C2369.47 30.5948 2367.95 27.6129 2364.9 25.6702C2362 23.8251 2357.91 23.0411 2352.91 23.0411V27.0411C2357.61 27.0411 2360.8 27.8014 2362.75 29.0448C2364.55 30.1907 2365.47 31.8415 2365.47 34.3067H2369.47ZM2352.91 23.0411H2330.65V27.0411H2352.91V23.0411ZM2344 86.7261C2350.78 86.7261 2356.3 85.4936 2360.29 82.7685L2358.04 79.4636C2354.98 81.5519 2350.38 82.7261 2344 82.7261V86.7261ZM2360.27 82.7802C2364.49 79.9718 2366.58 75.7908 2366.58 70.5268H2362.58C2362.58 74.5685 2361.06 77.4471 2358.06 79.452L2360.27 82.7802ZM2366.58 70.5268C2366.58 66.384 2365.06 63.0707 2361.75 61.1058L2359.71 64.5452C2361.53 65.6288 2362.58 67.4497 2362.58 70.5268H2366.58ZM2361.81 61.1449C2358.85 59.2314 2354.62 58.4189 2349.42 58.4189V62.4189C2354.33 62.4189 2357.64 63.2108 2359.65 64.5061L2361.81 61.1449ZM2349.42 58.4189H2323.55V62.4189H2349.42V58.4189ZM2321.58 60.0304L2316.77 84.3376L2320.7 85.1146L2325.51 60.8074L2321.58 60.0304ZM2318.73 86.7261H2344V82.7261H2318.73V86.7261ZM2406.67 12.7672V10.7672H2405.03L2404.7 12.3749L2406.67 12.7672ZM2422.31 12.7672L2424.27 13.1594L2424.75 10.7672H2422.31V12.7672ZM2405.46 97V99H2407.1L2407.42 97.3922L2405.46 97ZM2389.82 97L2387.86 96.6078L2387.38 99H2389.82V97ZM2406.67 14.7672H2422.31V10.7672H2406.67V14.7672ZM2420.35 12.3749L2403.5 96.6078L2407.42 97.3922L2424.27 13.1594L2420.35 12.3749ZM2405.46 95H2389.82V99H2405.46V95ZM2391.78 97.3922L2408.63 13.1594L2404.7 12.3749L2387.86 96.6078L2391.78 97.3922ZM2473.13 51.9956L2472.23 50.2068L2470.21 51.2193L2471.46 53.104L2473.13 51.9956ZM2503.09 97V99H2506.83L2504.76 95.8916L2503.09 97ZM2485.64 97L2483.99 98.1185L2484.58 99H2485.64V97ZM2461.7 61.5019L2463.36 60.3834L2462.09 58.5063L2460.38 59.9946L2461.7 61.5019ZM2445.69 75.4605L2444.38 73.9532L2443.87 74.3999L2443.73 75.0661L2445.69 75.4605ZM2441.36 97V99H2443L2443.32 97.3943L2441.36 97ZM2425.84 97L2423.88 96.6078L2423.4 99H2425.84V97ZM2442.69 12.7672V10.7672H2441.05L2440.72 12.3749L2442.69 12.7672ZM2458.21 12.7672L2460.17 13.1605L2460.65 10.7672H2458.21V12.7672ZM2449.66 55.3649L2447.7 54.9716L2446.55 60.7248L2450.98 56.874L2449.66 55.3649ZM2498.64 12.7672V10.7672H2497.89L2497.33 11.2581L2498.64 12.7672ZM2518.37 12.7672L2519.69 14.2768L2523.73 10.7672H2518.37V12.7672ZM2473.37 51.8753L2474.26 53.6641L2474.49 53.5509L2474.68 53.3849L2473.37 51.8753ZM2471.46 53.104L2501.43 98.1084L2504.76 95.8916L2474.79 50.8872L2471.46 53.104ZM2503.09 95H2485.64V99H2503.09V95ZM2487.3 95.8815L2463.36 60.3834L2460.04 62.6203L2483.99 98.1185L2487.3 95.8815ZM2460.38 59.9946L2444.38 73.9532L2447.01 76.9677L2463.01 63.0091L2460.38 59.9946ZM2443.73 75.0661L2439.4 96.6057L2443.32 97.3943L2447.65 75.8548L2443.73 75.0661ZM2441.36 95H2425.84V99H2441.36V95ZM2427.8 97.3922L2444.65 13.1594L2440.72 12.3749L2423.88 96.6078L2427.8 97.3922ZM2442.69 14.7672H2458.21V10.7672H2442.69V14.7672ZM2456.25 12.3739L2447.7 54.9716L2451.63 55.7582L2460.17 13.1605L2456.25 12.3739ZM2450.98 56.874L2499.95 14.2762L2497.33 11.2581L2448.35 53.8559L2450.98 56.874ZM2498.64 14.7672H2518.37V10.7672H2498.64V14.7672ZM2517.06 11.2575L2472.06 50.3656L2474.68 53.3849L2519.69 14.2768L2517.06 11.2575ZM2472.48 50.0864L2472.23 50.2068L2474.02 53.7844L2474.26 53.6641L2472.48 50.0864ZM2540.82 25.8834V23.8834H2539.18L2538.86 25.4953L2540.82 25.8834ZM2536.49 47.784L2534.52 47.3959L2534.05 49.784H2536.49V47.784ZM2577.28 47.784L2579.24 48.1691L2579.71 45.784H2577.28V47.784ZM2574.75 60.6595V62.6595H2576.4L2576.71 61.0447L2574.75 60.6595ZM2533.84 60.6595V58.6595H2532.19L2531.88 60.2732L2533.84 60.6595ZM2529.27 83.8837L2527.3 83.4974L2526.83 85.8837H2529.27V83.8837ZM2576.92 83.8837L2578.88 84.2794L2579.36 81.8837H2576.92V83.8837ZM2574.27 97V99H2575.91L2576.23 97.3957L2574.27 97ZM2511.1 97L2509.14 96.6078L2508.66 99H2511.1V97ZM2527.94 12.7672V10.7672H2526.3L2525.98 12.3749L2527.94 12.7672ZM2589.43 12.7672L2591.39 13.1629L2591.88 10.7672H2589.43V12.7672ZM2586.79 25.8834V27.8834H2588.42L2588.75 26.2791L2586.79 25.8834ZM2538.86 25.4953L2534.52 47.3959L2538.45 48.172L2542.78 26.2715L2538.86 25.4953ZM2536.49 49.784H2577.28V45.784H2536.49V49.784ZM2575.32 47.3988L2572.79 60.2744L2576.71 61.0447L2579.24 48.1691L2575.32 47.3988ZM2574.75 58.6595H2533.84V62.6595H2574.75V58.6595ZM2531.88 60.2732L2527.3 83.4974L2531.23 84.2701L2535.8 61.0459L2531.88 60.2732ZM2529.27 85.8837H2576.92V81.8837H2529.27V85.8837ZM2574.96 83.4881L2572.31 96.6043L2576.23 97.3957L2578.88 84.2794L2574.96 83.4881ZM2574.27 95H2511.1V99H2574.27V95ZM2513.06 97.3922L2529.9 13.1594L2525.98 12.3749L2509.14 96.6078L2513.06 97.3922ZM2527.94 14.7672H2589.43V10.7672H2527.94V14.7672ZM2587.47 12.3715L2584.83 25.4877L2588.75 26.2791L2591.39 13.1629L2587.47 12.3715ZM2586.79 23.8834H2540.82V27.8834H2586.79V23.8834Z" fill="white" mask="url(#path-11-outside-6_615_2194)"/>
</g>
</svg>
