<svg width="2751" height="108" viewBox="0 0 2751 108" fill="none" xmlns="http://www.w3.org/2000/svg">
<g opacity="0.3">
<mask id="path-1-outside-1_615_2179" maskUnits="userSpaceOnUse" x="13" y="9" width="368" height="92" fill="black">
<rect fill="white" x="13" y="9" width="368" height="92"/>
<path d="M97.5192 38.1573C97.5192 54.5226 88.3739 65.9542 72.851 70.2862L87.8926 97H71.2866L57.4484 72.3318H57.3281H36.5105L31.6972 97H15.9336L32.7802 12.7672H65.5107C85.8469 12.7672 97.5192 22.1531 97.5192 38.1573ZM57.8094 59.4562C72.9713 59.4562 81.7556 52.5973 81.7556 39.6013C81.7556 30.4561 75.2576 26.0038 63.826 26.0038H45.8965L39.1578 59.4562H57.8094ZM143.66 98.2033C118.27 98.2033 103.349 83.5227 103.349 62.2239C103.349 33.705 123.926 11.5638 154.971 11.5638C180.362 11.5638 195.283 26.2444 195.283 47.5433C195.283 76.0621 174.706 98.2033 143.66 98.2033ZM144.984 84.4854C166.162 84.4854 179.519 67.9998 179.519 48.506C179.519 34.6677 170.374 25.2818 153.527 25.2818C132.349 25.2818 119.112 41.7673 119.112 61.2612C119.112 75.0995 128.137 84.4854 144.984 84.4854ZM263.034 97L258.582 77.5061H216.224L204.071 97H187.345L242.096 12.7672H257.619L278.557 97H263.034ZM223.926 65.2322H255.694L247.15 28.1697L223.926 65.2322ZM286.983 97L303.829 12.7672H337.884C363.514 12.7672 378.797 26.3648 378.797 47.5433C378.797 77.3858 357.738 97 326.332 97H286.983ZM305.273 83.7634H326.813C349.435 83.7634 363.033 68.7218 363.033 48.506C363.033 34.6677 354.008 26.0038 336.199 26.0038H316.825L305.273 83.7634Z"/>
</mask>
<path d="M72.851 70.2862L72.3134 68.3598L69.857 69.0453L71.1082 71.2674L72.851 70.2862ZM87.8926 97V99H91.3139L89.6353 96.0187L87.8926 97ZM71.2866 97L69.5424 97.9785L70.1154 99H71.2866V97ZM57.4484 72.3318L59.1927 71.3533L58.6196 70.3318H57.4484V72.3318ZM36.5105 72.3318V70.3318H34.863L34.5475 71.9488L36.5105 72.3318ZM31.6972 97V99H33.3447L33.6602 97.383L31.6972 97ZM15.9336 97L13.9725 96.6078L13.494 99H15.9336V97ZM32.7802 12.7672V10.7672H31.1406L30.819 12.3749L32.7802 12.7672ZM45.8965 26.0038V24.0038H44.2592L43.9358 25.6088L45.8965 26.0038ZM39.1578 59.4562L37.1972 59.0613L36.7148 61.4562H39.1578V59.4562ZM95.5192 38.1573C95.5192 45.9558 93.3461 52.4582 89.4263 57.5079C85.5031 62.5619 79.7293 66.2902 72.3134 68.3598L73.3886 72.2125C81.4956 69.9501 88.0558 65.7967 92.586 59.9606C97.1196 54.1202 99.5192 46.7241 99.5192 38.1573H95.5192ZM71.1082 71.2674L86.1498 97.9813L89.6353 96.0187L74.5937 69.3049L71.1082 71.2674ZM87.8926 95H71.2866V99H87.8926V95ZM73.0309 96.0215L59.1927 71.3533L55.7041 73.3103L69.5424 97.9785L73.0309 96.0215ZM57.4484 70.3318H57.3281V74.3318H57.4484V70.3318ZM57.3281 70.3318H36.5105V74.3318H57.3281V70.3318ZM34.5475 71.9488L29.7342 96.617L33.6602 97.383L38.4735 72.7148L34.5475 71.9488ZM31.6972 95H15.9336V99H31.6972V95ZM17.8948 97.3922L34.7414 13.1594L30.819 12.3749L13.9725 96.6078L17.8948 97.3922ZM32.7802 14.7672H65.5107V10.7672H32.7802V14.7672ZM65.5107 14.7672C75.403 14.7672 82.9064 17.0535 87.8953 21.0253C92.8213 24.9472 95.5192 30.687 95.5192 38.1573H99.5192C99.5192 29.6234 96.3809 22.6682 90.3867 17.896C84.4554 13.1738 75.9545 10.7672 65.5107 10.7672V14.7672ZM57.8094 61.4562C65.6557 61.4562 72.1578 59.6857 76.7328 55.9517C81.3723 52.1651 83.7556 46.5844 83.7556 39.6013H79.7556C79.7556 45.6142 77.7468 49.961 74.2036 52.8528C70.596 55.7972 65.125 57.4562 57.8094 57.4562V61.4562ZM83.7556 39.6013C83.7556 34.4992 81.909 30.4562 78.2662 27.7645C74.7264 25.1489 69.7504 24.0038 63.826 24.0038V28.0038C69.3333 28.0038 73.322 29.0847 75.8891 30.9816C78.3532 32.8024 79.7556 35.5582 79.7556 39.6013H83.7556ZM63.826 24.0038H45.8965V28.0038H63.826V24.0038ZM43.9358 25.6088L37.1972 59.0613L41.1185 59.8512L47.8571 26.3987L43.9358 25.6088ZM39.1578 61.4562H57.8094V57.4562H39.1578V61.4562ZM143.66 96.2033C131.346 96.2033 121.79 92.6478 115.335 86.7268C108.895 80.82 105.349 72.3864 105.349 62.2239H101.349C101.349 73.3603 105.263 82.9163 112.631 89.6746C119.984 96.4186 130.584 100.203 143.66 100.203V96.2033ZM105.349 62.2239C105.349 34.7939 125.046 13.5638 154.971 13.5638V9.56384C122.805 9.56384 101.349 32.6162 101.349 62.2239H105.349ZM154.971 13.5638C167.286 13.5638 176.841 17.1194 183.297 23.0404C189.736 28.9471 193.283 37.3808 193.283 47.5433H197.283C197.283 36.4069 193.369 26.8508 186 20.0926C178.648 13.3486 168.047 9.56384 154.971 9.56384V13.5638ZM193.283 47.5433C193.283 74.9732 173.586 96.2033 143.66 96.2033V100.203C175.826 100.203 197.283 77.151 197.283 47.5433H193.283ZM144.984 86.4854C167.435 86.4854 181.519 68.9288 181.519 48.506H177.519C177.519 67.0708 164.89 82.4854 144.984 82.4854V86.4854ZM181.519 48.506C181.519 41.1327 179.071 34.7576 174.201 30.2386C169.347 25.7337 162.314 23.2818 153.527 23.2818V27.2818C161.587 27.2818 167.55 29.5228 171.48 33.1705C175.395 36.804 177.519 42.041 177.519 48.506H181.519ZM153.527 23.2818C131.068 23.2818 117.112 40.8482 117.112 61.2612H121.112C121.112 42.6864 133.63 27.2818 153.527 27.2818V23.2818ZM117.112 61.2612C117.112 68.6267 119.526 75.0018 124.365 79.5239C129.19 84.0332 136.197 86.4854 144.984 86.4854V82.4854C136.924 82.4854 130.995 80.2447 127.096 76.6014C123.211 72.971 121.112 67.734 121.112 61.2612H117.112ZM263.034 97L261.084 97.4453L261.439 99H263.034V97ZM258.582 77.5061L260.531 77.0608L260.176 75.5061H258.582V77.5061ZM216.224 77.5061V75.5061H215.115L214.527 76.448L216.224 77.5061ZM204.071 97V99H205.181L205.768 98.0581L204.071 97ZM187.345 97L185.668 95.91L183.659 99H187.345V97ZM242.096 12.7672V10.7672H241.011L240.419 11.6772L242.096 12.7672ZM257.619 12.7672L259.56 12.2847L259.183 10.7672H257.619V12.7672ZM278.557 97V99H281.115L280.498 96.5175L278.557 97ZM223.926 65.2322L222.231 64.1702L220.312 67.2322H223.926V65.2322ZM255.694 65.2322V67.2322H258.207L257.642 64.7829L255.694 65.2322ZM247.15 28.1697L249.099 27.7205L248.016 23.0216L245.455 27.1078L247.15 28.1697ZM264.984 96.5547L260.531 77.0608L256.632 77.9514L261.084 97.4453L264.984 96.5547ZM258.582 75.5061H216.224V79.5061H258.582V75.5061ZM214.527 76.448L202.374 95.9419L205.768 98.0581L217.922 78.5642L214.527 76.448ZM204.071 95H187.345V99H204.071V95ZM189.022 98.09L243.773 13.8571L240.419 11.6772L185.668 95.91L189.022 98.09ZM242.096 14.7672H257.619V10.7672H242.096V14.7672ZM255.678 13.2496L276.616 97.4825L280.498 96.5175L259.56 12.2847L255.678 13.2496ZM278.557 95H263.034V99H278.557V95ZM223.926 67.2322H255.694V63.2322H223.926V67.2322ZM257.642 64.7829L249.099 27.7205L245.201 28.619L253.745 65.6814L257.642 64.7829ZM245.455 27.1078L222.231 64.1702L225.621 66.2942L248.845 29.2317L245.455 27.1078ZM286.983 97L285.022 96.6078L284.543 99H286.983V97ZM303.829 12.7672V10.7672H302.19L301.868 12.3749L303.829 12.7672ZM305.273 83.7634L303.312 83.3712L302.834 85.7634H305.273V83.7634ZM316.825 26.0038V24.0038H315.186L314.864 25.6115L316.825 26.0038ZM288.944 97.3922L305.791 13.1594L301.868 12.3749L285.022 96.6078L288.944 97.3922ZM303.829 14.7672H337.884V10.7672H303.829V14.7672ZM337.884 14.7672C350.361 14.7672 360.08 18.076 366.647 23.729C373.18 29.3528 376.797 37.4671 376.797 47.5433H380.797C380.797 36.441 376.772 27.1672 369.256 20.6975C361.775 14.2571 351.036 10.7672 337.884 10.7672V14.7672ZM376.797 47.5433C376.797 61.9736 371.718 73.789 362.972 82.0049C354.215 90.232 341.618 95 326.332 95V99C342.452 99 356.088 93.9608 365.711 84.9202C375.346 75.8684 380.797 62.9555 380.797 47.5433H376.797ZM326.332 95H286.983V99H326.332V95ZM305.273 85.7634H326.813V81.7634H305.273V85.7634ZM326.813 85.7634C338.582 85.7634 348.174 81.8405 354.827 75.123C361.474 68.4121 365.033 59.0678 365.033 48.506H361.033C361.033 58.16 357.793 66.4444 351.985 72.3082C346.184 78.1655 337.667 81.7634 326.813 81.7634V85.7634ZM365.033 48.506C365.033 41.132 362.612 34.9061 357.606 30.556C352.642 26.241 345.402 24.0038 336.199 24.0038V28.0038C344.806 28.0038 350.982 30.0984 354.982 33.575C358.942 37.0164 361.033 42.0417 361.033 48.506H365.033ZM336.199 24.0038H316.825V28.0038H336.199V24.0038ZM314.864 25.6115L303.312 83.3712L307.235 84.1556L318.787 26.396L314.864 25.6115Z" fill="white" mask="url(#path-1-outside-1_615_2179)"/>
<mask id="path-3-outside-2_615_2179" maskUnits="userSpaceOnUse" x="406" y="9" width="368" height="92" fill="black">
<rect fill="white" x="406" y="9" width="368" height="92"/>
<path d="M490.519 38.1573C490.519 54.5226 481.374 65.9542 465.851 70.2862L480.893 97H464.287L450.448 72.3318H450.328H429.511L424.697 97H408.934L425.78 12.7672H458.511C478.847 12.7672 490.519 22.1531 490.519 38.1573ZM450.809 59.4562C465.971 59.4562 474.756 52.5973 474.756 39.6013C474.756 30.4561 468.258 26.0038 456.826 26.0038H438.896L432.158 59.4562H450.809ZM536.66 98.2033C511.27 98.2033 496.349 83.5227 496.349 62.2239C496.349 33.705 516.926 11.5638 547.971 11.5638C573.362 11.5638 588.283 26.2444 588.283 47.5433C588.283 76.0621 567.706 98.2033 536.66 98.2033ZM537.984 84.4854C559.162 84.4854 572.519 67.9998 572.519 48.506C572.519 34.6677 563.374 25.2818 546.527 25.2818C525.349 25.2818 512.112 41.7673 512.112 61.2612C512.112 75.0995 521.137 84.4854 537.984 84.4854ZM656.034 97L651.582 77.5061H609.224L597.071 97H580.345L635.096 12.7672H650.619L671.557 97H656.034ZM616.926 65.2322H648.694L640.15 28.1697L616.926 65.2322ZM679.983 97L696.829 12.7672H730.884C756.514 12.7672 771.797 26.3648 771.797 47.5433C771.797 77.3858 750.738 97 719.332 97H679.983ZM698.273 83.7634H719.813C742.435 83.7634 756.033 68.7218 756.033 48.506C756.033 34.6677 747.008 26.0038 729.199 26.0038H709.825L698.273 83.7634Z"/>
</mask>
<path d="M465.851 70.2862L465.313 68.3598L462.857 69.0453L464.108 71.2674L465.851 70.2862ZM480.893 97V99H484.314L482.635 96.0187L480.893 97ZM464.287 97L462.542 97.9785L463.115 99H464.287V97ZM450.448 72.3318L452.193 71.3533L451.62 70.3318H450.448V72.3318ZM429.511 72.3318V70.3318H427.863L427.548 71.9488L429.511 72.3318ZM424.697 97V99H426.345L426.66 97.383L424.697 97ZM408.934 97L406.972 96.6078L406.494 99H408.934V97ZM425.78 12.7672V10.7672H424.141L423.819 12.3749L425.78 12.7672ZM438.896 26.0038V24.0038H437.259L436.936 25.6088L438.896 26.0038ZM432.158 59.4562L430.197 59.0613L429.715 61.4562H432.158V59.4562ZM488.519 38.1573C488.519 45.9558 486.346 52.4582 482.426 57.5079C478.503 62.5619 472.729 66.2902 465.313 68.3598L466.389 72.2125C474.496 69.9501 481.056 65.7967 485.586 59.9606C490.12 54.1202 492.519 46.7241 492.519 38.1573H488.519ZM464.108 71.2674L479.15 97.9813L482.635 96.0187L467.594 69.3049L464.108 71.2674ZM480.893 95H464.287V99H480.893V95ZM466.031 96.0215L452.193 71.3533L448.704 73.3103L462.542 97.9785L466.031 96.0215ZM450.448 70.3318H450.328V74.3318H450.448V70.3318ZM450.328 70.3318H429.511V74.3318H450.328V70.3318ZM427.548 71.9488L422.734 96.617L426.66 97.383L431.473 72.7148L427.548 71.9488ZM424.697 95H408.934V99H424.697V95ZM410.895 97.3922L427.741 13.1594L423.819 12.3749L406.972 96.6078L410.895 97.3922ZM425.78 14.7672H458.511V10.7672H425.78V14.7672ZM458.511 14.7672C468.403 14.7672 475.906 17.0535 480.895 21.0253C485.821 24.9472 488.519 30.687 488.519 38.1573H492.519C492.519 29.6234 489.381 22.6682 483.387 17.896C477.455 13.1738 468.955 10.7672 458.511 10.7672V14.7672ZM450.809 61.4562C458.656 61.4562 465.158 59.6857 469.733 55.9517C474.372 52.1651 476.756 46.5844 476.756 39.6013H472.756C472.756 45.6142 470.747 49.961 467.204 52.8528C463.596 55.7972 458.125 57.4562 450.809 57.4562V61.4562ZM476.756 39.6013C476.756 34.4992 474.909 30.4562 471.266 27.7645C467.726 25.1489 462.75 24.0038 456.826 24.0038V28.0038C462.333 28.0038 466.322 29.0847 468.889 30.9816C471.353 32.8024 472.756 35.5582 472.756 39.6013H476.756ZM456.826 24.0038H438.896V28.0038H456.826V24.0038ZM436.936 25.6088L430.197 59.0613L434.118 59.8512L440.857 26.3987L436.936 25.6088ZM432.158 61.4562H450.809V57.4562H432.158V61.4562ZM536.66 96.2033C524.346 96.2033 514.79 92.6478 508.335 86.7268C501.895 80.82 498.349 72.3864 498.349 62.2239H494.349C494.349 73.3603 498.263 82.9163 505.631 89.6746C512.984 96.4186 523.584 100.203 536.66 100.203V96.2033ZM498.349 62.2239C498.349 34.7939 518.046 13.5638 547.971 13.5638V9.56384C515.805 9.56384 494.349 32.6162 494.349 62.2239H498.349ZM547.971 13.5638C560.286 13.5638 569.841 17.1194 576.297 23.0404C582.736 28.9471 586.283 37.3808 586.283 47.5433H590.283C590.283 36.4069 586.369 26.8508 579 20.0926C571.648 13.3486 561.047 9.56384 547.971 9.56384V13.5638ZM586.283 47.5433C586.283 74.9732 566.586 96.2033 536.66 96.2033V100.203C568.826 100.203 590.283 77.151 590.283 47.5433H586.283ZM537.984 86.4854C560.435 86.4854 574.519 68.9288 574.519 48.506H570.519C570.519 67.0708 557.89 82.4854 537.984 82.4854V86.4854ZM574.519 48.506C574.519 41.1327 572.071 34.7576 567.201 30.2386C562.347 25.7337 555.314 23.2818 546.527 23.2818V27.2818C554.587 27.2818 560.55 29.5228 564.48 33.1705C568.395 36.804 570.519 42.041 570.519 48.506H574.519ZM546.527 23.2818C524.068 23.2818 510.112 40.8482 510.112 61.2612H514.112C514.112 42.6864 526.63 27.2818 546.527 27.2818V23.2818ZM510.112 61.2612C510.112 68.6267 512.526 75.0018 517.365 79.5239C522.19 84.0332 529.197 86.4854 537.984 86.4854V82.4854C529.924 82.4854 523.995 80.2447 520.096 76.6014C516.211 72.971 514.112 67.734 514.112 61.2612H510.112ZM656.034 97L654.084 97.4453L654.439 99H656.034V97ZM651.582 77.5061L653.531 77.0608L653.176 75.5061H651.582V77.5061ZM609.224 77.5061V75.5061H608.115L607.527 76.448L609.224 77.5061ZM597.071 97V99H598.181L598.768 98.0581L597.071 97ZM580.345 97L578.668 95.91L576.659 99H580.345V97ZM635.096 12.7672V10.7672H634.011L633.419 11.6772L635.096 12.7672ZM650.619 12.7672L652.56 12.2847L652.183 10.7672H650.619V12.7672ZM671.557 97V99H674.115L673.498 96.5175L671.557 97ZM616.926 65.2322L615.231 64.1702L613.312 67.2322H616.926V65.2322ZM648.694 65.2322V67.2322H651.207L650.642 64.7829L648.694 65.2322ZM640.15 28.1697L642.099 27.7205L641.016 23.0216L638.455 27.1078L640.15 28.1697ZM657.984 96.5547L653.531 77.0608L649.632 77.9514L654.084 97.4453L657.984 96.5547ZM651.582 75.5061H609.224V79.5061H651.582V75.5061ZM607.527 76.448L595.374 95.9419L598.768 98.0581L610.922 78.5642L607.527 76.448ZM597.071 95H580.345V99H597.071V95ZM582.022 98.09L636.773 13.8571L633.419 11.6772L578.668 95.91L582.022 98.09ZM635.096 14.7672H650.619V10.7672H635.096V14.7672ZM648.678 13.2496L669.616 97.4825L673.498 96.5175L652.56 12.2847L648.678 13.2496ZM671.557 95H656.034V99H671.557V95ZM616.926 67.2322H648.694V63.2322H616.926V67.2322ZM650.642 64.7829L642.099 27.7205L638.201 28.619L646.745 65.6814L650.642 64.7829ZM638.455 27.1078L615.231 64.1702L618.621 66.2942L641.845 29.2317L638.455 27.1078ZM679.983 97L678.022 96.6078L677.543 99H679.983V97ZM696.829 12.7672V10.7672H695.19L694.868 12.3749L696.829 12.7672ZM698.273 83.7634L696.312 83.3712L695.834 85.7634H698.273V83.7634ZM709.825 26.0038V24.0038H708.186L707.864 25.6115L709.825 26.0038ZM681.944 97.3922L698.791 13.1594L694.868 12.3749L678.022 96.6078L681.944 97.3922ZM696.829 14.7672H730.884V10.7672H696.829V14.7672ZM730.884 14.7672C743.361 14.7672 753.08 18.076 759.647 23.729C766.18 29.3528 769.797 37.4671 769.797 47.5433H773.797C773.797 36.441 769.772 27.1672 762.256 20.6975C754.775 14.2571 744.036 10.7672 730.884 10.7672V14.7672ZM769.797 47.5433C769.797 61.9736 764.718 73.789 755.972 82.0049C747.215 90.232 734.618 95 719.332 95V99C735.452 99 749.088 93.9608 758.711 84.9202C768.346 75.8684 773.797 62.9555 773.797 47.5433H769.797ZM719.332 95H679.983V99H719.332V95ZM698.273 85.7634H719.813V81.7634H698.273V85.7634ZM719.813 85.7634C731.582 85.7634 741.174 81.8405 747.827 75.123C754.474 68.4121 758.033 59.0678 758.033 48.506H754.033C754.033 58.16 750.793 66.4444 744.985 72.3082C739.184 78.1655 730.667 81.7634 719.813 81.7634V85.7634ZM758.033 48.506C758.033 41.132 755.612 34.9061 750.606 30.556C745.642 26.241 738.402 24.0038 729.199 24.0038V28.0038C737.806 28.0038 743.982 30.0984 747.982 33.575C751.942 37.0164 754.033 42.0417 754.033 48.506H758.033ZM729.199 24.0038H709.825V28.0038H729.199V24.0038ZM707.864 25.6115L696.312 83.3712L700.235 84.1556L711.787 26.396L707.864 25.6115Z" fill="white" mask="url(#path-3-outside-2_615_2179)"/>
<mask id="path-5-outside-3_615_2179" maskUnits="userSpaceOnUse" x="799" y="9" width="368" height="92" fill="black">
<rect fill="white" x="799" y="9" width="368" height="92"/>
<path d="M883.519 38.1573C883.519 54.5226 874.374 65.9542 858.851 70.2862L873.893 97H857.287L843.448 72.3318H843.328H822.511L817.697 97H801.934L818.78 12.7672H851.511C871.847 12.7672 883.519 22.1531 883.519 38.1573ZM843.809 59.4562C858.971 59.4562 867.756 52.5973 867.756 39.6013C867.756 30.4561 861.258 26.0038 849.826 26.0038H831.896L825.158 59.4562H843.809ZM929.66 98.2033C904.27 98.2033 889.349 83.5227 889.349 62.2239C889.349 33.705 909.926 11.5638 940.971 11.5638C966.362 11.5638 981.283 26.2444 981.283 47.5433C981.283 76.0621 960.706 98.2033 929.66 98.2033ZM930.984 84.4854C952.162 84.4854 965.519 67.9998 965.519 48.506C965.519 34.6677 956.374 25.2818 939.527 25.2818C918.349 25.2818 905.112 41.7673 905.112 61.2612C905.112 75.0995 914.137 84.4854 930.984 84.4854ZM1049.03 97L1044.58 77.5061H1002.22L990.071 97H973.345L1028.1 12.7672H1043.62L1064.56 97H1049.03ZM1009.93 65.2322H1041.69L1033.15 28.1697L1009.93 65.2322ZM1072.98 97L1089.83 12.7672H1123.88C1149.51 12.7672 1164.8 26.3648 1164.8 47.5433C1164.8 77.3858 1143.74 97 1112.33 97H1072.98ZM1091.27 83.7634H1112.81C1135.44 83.7634 1149.03 68.7218 1149.03 48.506C1149.03 34.6677 1140.01 26.0038 1122.2 26.0038H1102.83L1091.27 83.7634Z"/>
</mask>
<path d="M858.851 70.2862L858.313 68.3598L855.857 69.0453L857.108 71.2674L858.851 70.2862ZM873.893 97V99H877.314L875.635 96.0187L873.893 97ZM857.287 97L855.542 97.9785L856.115 99H857.287V97ZM843.448 72.3318L845.193 71.3533L844.62 70.3318H843.448V72.3318ZM822.511 72.3318V70.3318H820.863L820.548 71.9488L822.511 72.3318ZM817.697 97V99H819.345L819.66 97.383L817.697 97ZM801.934 97L799.972 96.6078L799.494 99H801.934V97ZM818.78 12.7672V10.7672H817.141L816.819 12.3749L818.78 12.7672ZM831.896 26.0038V24.0038H830.259L829.936 25.6088L831.896 26.0038ZM825.158 59.4562L823.197 59.0613L822.715 61.4562H825.158V59.4562ZM881.519 38.1573C881.519 45.9558 879.346 52.4582 875.426 57.5079C871.503 62.5619 865.729 66.2902 858.313 68.3598L859.389 72.2125C867.496 69.9501 874.056 65.7967 878.586 59.9606C883.12 54.1202 885.519 46.7241 885.519 38.1573H881.519ZM857.108 71.2674L872.15 97.9813L875.635 96.0187L860.594 69.3049L857.108 71.2674ZM873.893 95H857.287V99H873.893V95ZM859.031 96.0215L845.193 71.3533L841.704 73.3103L855.542 97.9785L859.031 96.0215ZM843.448 70.3318H843.328V74.3318H843.448V70.3318ZM843.328 70.3318H822.511V74.3318H843.328V70.3318ZM820.548 71.9488L815.734 96.617L819.66 97.383L824.473 72.7148L820.548 71.9488ZM817.697 95H801.934V99H817.697V95ZM803.895 97.3922L820.741 13.1594L816.819 12.3749L799.972 96.6078L803.895 97.3922ZM818.78 14.7672H851.511V10.7672H818.78V14.7672ZM851.511 14.7672C861.403 14.7672 868.906 17.0535 873.895 21.0253C878.821 24.9472 881.519 30.687 881.519 38.1573H885.519C885.519 29.6234 882.381 22.6682 876.387 17.896C870.455 13.1738 861.955 10.7672 851.511 10.7672V14.7672ZM843.809 61.4562C851.656 61.4562 858.158 59.6857 862.733 55.9517C867.372 52.1651 869.756 46.5844 869.756 39.6013H865.756C865.756 45.6142 863.747 49.961 860.204 52.8528C856.596 55.7972 851.125 57.4562 843.809 57.4562V61.4562ZM869.756 39.6013C869.756 34.4992 867.909 30.4562 864.266 27.7645C860.726 25.1489 855.75 24.0038 849.826 24.0038V28.0038C855.333 28.0038 859.322 29.0847 861.889 30.9816C864.353 32.8024 865.756 35.5582 865.756 39.6013H869.756ZM849.826 24.0038H831.896V28.0038H849.826V24.0038ZM829.936 25.6088L823.197 59.0613L827.118 59.8512L833.857 26.3987L829.936 25.6088ZM825.158 61.4562H843.809V57.4562H825.158V61.4562ZM929.66 96.2033C917.346 96.2033 907.79 92.6478 901.335 86.7268C894.895 80.82 891.349 72.3864 891.349 62.2239H887.349C887.349 73.3603 891.263 82.9163 898.631 89.6746C905.984 96.4186 916.584 100.203 929.66 100.203V96.2033ZM891.349 62.2239C891.349 34.7939 911.046 13.5638 940.971 13.5638V9.56384C908.805 9.56384 887.349 32.6162 887.349 62.2239H891.349ZM940.971 13.5638C953.286 13.5638 962.841 17.1194 969.297 23.0404C975.736 28.9471 979.283 37.3808 979.283 47.5433H983.283C983.283 36.4069 979.369 26.8508 972 20.0926C964.648 13.3486 954.047 9.56384 940.971 9.56384V13.5638ZM979.283 47.5433C979.283 74.9732 959.586 96.2033 929.66 96.2033V100.203C961.826 100.203 983.283 77.151 983.283 47.5433H979.283ZM930.984 86.4854C953.435 86.4854 967.519 68.9288 967.519 48.506H963.519C963.519 67.0708 950.89 82.4854 930.984 82.4854V86.4854ZM967.519 48.506C967.519 41.1327 965.071 34.7576 960.201 30.2386C955.347 25.7337 948.314 23.2818 939.527 23.2818V27.2818C947.587 27.2818 953.55 29.5228 957.48 33.1705C961.395 36.804 963.519 42.041 963.519 48.506H967.519ZM939.527 23.2818C917.068 23.2818 903.112 40.8482 903.112 61.2612H907.112C907.112 42.6864 919.63 27.2818 939.527 27.2818V23.2818ZM903.112 61.2612C903.112 68.6267 905.526 75.0018 910.365 79.5239C915.19 84.0332 922.197 86.4854 930.984 86.4854V82.4854C922.924 82.4854 916.995 80.2447 913.096 76.6014C909.211 72.971 907.112 67.734 907.112 61.2612H903.112ZM1049.03 97L1047.08 97.4453L1047.44 99H1049.03V97ZM1044.58 77.5061L1046.53 77.0608L1046.18 75.5061H1044.58V77.5061ZM1002.22 77.5061V75.5061H1001.11L1000.53 76.448L1002.22 77.5061ZM990.071 97V99H991.181L991.768 98.0581L990.071 97ZM973.345 97L971.668 95.91L969.659 99H973.345V97ZM1028.1 12.7672V10.7672H1027.01L1026.42 11.6772L1028.1 12.7672ZM1043.62 12.7672L1045.56 12.2847L1045.18 10.7672H1043.62V12.7672ZM1064.56 97V99H1067.11L1066.5 96.5175L1064.56 97ZM1009.93 65.2322L1008.23 64.1702L1006.31 67.2322H1009.93V65.2322ZM1041.69 65.2322V67.2322H1044.21L1043.64 64.7829L1041.69 65.2322ZM1033.15 28.1697L1035.1 27.7205L1034.02 23.0216L1031.46 27.1078L1033.15 28.1697ZM1050.98 96.5547L1046.53 77.0608L1042.63 77.9514L1047.08 97.4453L1050.98 96.5547ZM1044.58 75.5061H1002.22V79.5061H1044.58V75.5061ZM1000.53 76.448L988.374 95.9419L991.768 98.0581L1003.92 78.5642L1000.53 76.448ZM990.071 95H973.345V99H990.071V95ZM975.022 98.09L1029.77 13.8571L1026.42 11.6772L971.668 95.91L975.022 98.09ZM1028.1 14.7672H1043.62V10.7672H1028.1V14.7672ZM1041.68 13.2496L1062.62 97.4825L1066.5 96.5175L1045.56 12.2847L1041.68 13.2496ZM1064.56 95H1049.03V99H1064.56V95ZM1009.93 67.2322H1041.69V63.2322H1009.93V67.2322ZM1043.64 64.7829L1035.1 27.7205L1031.2 28.619L1039.74 65.6814L1043.64 64.7829ZM1031.46 27.1078L1008.23 64.1702L1011.62 66.2942L1034.84 29.2317L1031.46 27.1078ZM1072.98 97L1071.02 96.6078L1070.54 99H1072.98V97ZM1089.83 12.7672V10.7672H1088.19L1087.87 12.3749L1089.83 12.7672ZM1091.27 83.7634L1089.31 83.3712L1088.83 85.7634H1091.27V83.7634ZM1102.83 26.0038V24.0038H1101.19L1100.86 25.6115L1102.83 26.0038ZM1074.94 97.3922L1091.79 13.1594L1087.87 12.3749L1071.02 96.6078L1074.94 97.3922ZM1089.83 14.7672H1123.88V10.7672H1089.83V14.7672ZM1123.88 14.7672C1136.36 14.7672 1146.08 18.076 1152.65 23.729C1159.18 29.3528 1162.8 37.4671 1162.8 47.5433H1166.8C1166.8 36.441 1162.77 27.1672 1155.26 20.6975C1147.77 14.2571 1137.04 10.7672 1123.88 10.7672V14.7672ZM1162.8 47.5433C1162.8 61.9736 1157.72 73.789 1148.97 82.0049C1140.21 90.232 1127.62 95 1112.33 95V99C1128.45 99 1142.09 93.9608 1151.71 84.9202C1161.35 75.8684 1166.8 62.9555 1166.8 47.5433H1162.8ZM1112.33 95H1072.98V99H1112.33V95ZM1091.27 85.7634H1112.81V81.7634H1091.27V85.7634ZM1112.81 85.7634C1124.58 85.7634 1134.17 81.8405 1140.83 75.123C1147.47 68.4121 1151.03 59.0678 1151.03 48.506H1147.03C1147.03 58.16 1143.79 66.4444 1137.99 72.3082C1132.18 78.1655 1123.67 81.7634 1112.81 81.7634V85.7634ZM1151.03 48.506C1151.03 41.132 1148.61 34.9061 1143.61 30.556C1138.64 26.241 1131.4 24.0038 1122.2 24.0038V28.0038C1130.81 28.0038 1136.98 30.0984 1140.98 33.575C1144.94 37.0164 1147.03 42.0417 1147.03 48.506H1151.03ZM1122.2 24.0038H1102.83V28.0038H1122.2V24.0038ZM1100.86 25.6115L1089.31 83.3712L1093.23 84.1556L1104.79 26.396L1100.86 25.6115Z" fill="white" mask="url(#path-5-outside-3_615_2179)"/>
<mask id="path-7-outside-4_615_2179" maskUnits="userSpaceOnUse" x="1192" y="9" width="368" height="92" fill="black">
<rect fill="white" x="1192" y="9" width="368" height="92"/>
<path d="M1276.52 38.1573C1276.52 54.5226 1267.37 65.9542 1251.85 70.2862L1266.89 97H1250.29L1236.45 72.3318H1236.33H1215.51L1210.7 97H1194.93L1211.78 12.7672H1244.51C1264.85 12.7672 1276.52 22.1531 1276.52 38.1573ZM1236.81 59.4562C1251.97 59.4562 1260.76 52.5973 1260.76 39.6013C1260.76 30.4561 1254.26 26.0038 1242.83 26.0038H1224.9L1218.16 59.4562H1236.81ZM1322.66 98.2033C1297.27 98.2033 1282.35 83.5227 1282.35 62.2239C1282.35 33.705 1302.93 11.5638 1333.97 11.5638C1359.36 11.5638 1374.28 26.2444 1374.28 47.5433C1374.28 76.0621 1353.71 98.2033 1322.66 98.2033ZM1323.98 84.4854C1345.16 84.4854 1358.52 67.9998 1358.52 48.506C1358.52 34.6677 1349.37 25.2818 1332.53 25.2818C1311.35 25.2818 1298.11 41.7673 1298.11 61.2612C1298.11 75.0995 1307.14 84.4854 1323.98 84.4854ZM1442.03 97L1437.58 77.5061H1395.22L1383.07 97H1366.34L1421.1 12.7672H1436.62L1457.56 97H1442.03ZM1402.93 65.2322H1434.69L1426.15 28.1697L1402.93 65.2322ZM1465.98 97L1482.83 12.7672H1516.88C1542.51 12.7672 1557.8 26.3648 1557.8 47.5433C1557.8 77.3858 1536.74 97 1505.33 97H1465.98ZM1484.27 83.7634H1505.81C1528.44 83.7634 1542.03 68.7218 1542.03 48.506C1542.03 34.6677 1533.01 26.0038 1515.2 26.0038H1495.83L1484.27 83.7634Z"/>
</mask>
<path d="M1251.85 70.2862L1251.31 68.3598L1248.86 69.0453L1250.11 71.2674L1251.85 70.2862ZM1266.89 97V99H1270.31L1268.64 96.0187L1266.89 97ZM1250.29 97L1248.54 97.9785L1249.12 99H1250.29V97ZM1236.45 72.3318L1238.19 71.3533L1237.62 70.3318H1236.45V72.3318ZM1215.51 72.3318V70.3318H1213.86L1213.55 71.9488L1215.51 72.3318ZM1210.7 97V99H1212.34L1212.66 97.383L1210.7 97ZM1194.93 97L1192.97 96.6078L1192.49 99H1194.93V97ZM1211.78 12.7672V10.7672H1210.14L1209.82 12.3749L1211.78 12.7672ZM1224.9 26.0038V24.0038H1223.26L1222.94 25.6088L1224.9 26.0038ZM1218.16 59.4562L1216.2 59.0613L1215.71 61.4562H1218.16V59.4562ZM1274.52 38.1573C1274.52 45.9558 1272.35 52.4582 1268.43 57.5079C1264.5 62.5619 1258.73 66.2902 1251.31 68.3598L1252.39 72.2125C1260.5 69.9501 1267.06 65.7967 1271.59 59.9606C1276.12 54.1202 1278.52 46.7241 1278.52 38.1573H1274.52ZM1250.11 71.2674L1265.15 97.9813L1268.64 96.0187L1253.59 69.3049L1250.11 71.2674ZM1266.89 95H1250.29V99H1266.89V95ZM1252.03 96.0215L1238.19 71.3533L1234.7 73.3103L1248.54 97.9785L1252.03 96.0215ZM1236.45 70.3318H1236.33V74.3318H1236.45V70.3318ZM1236.33 70.3318H1215.51V74.3318H1236.33V70.3318ZM1213.55 71.9488L1208.73 96.617L1212.66 97.383L1217.47 72.7148L1213.55 71.9488ZM1210.7 95H1194.93V99H1210.7V95ZM1196.89 97.3922L1213.74 13.1594L1209.82 12.3749L1192.97 96.6078L1196.89 97.3922ZM1211.78 14.7672H1244.51V10.7672H1211.78V14.7672ZM1244.51 14.7672C1254.4 14.7672 1261.91 17.0535 1266.9 21.0253C1271.82 24.9472 1274.52 30.687 1274.52 38.1573H1278.52C1278.52 29.6234 1275.38 22.6682 1269.39 17.896C1263.46 13.1738 1254.95 10.7672 1244.51 10.7672V14.7672ZM1236.81 61.4562C1244.66 61.4562 1251.16 59.6857 1255.73 55.9517C1260.37 52.1651 1262.76 46.5844 1262.76 39.6013H1258.76C1258.76 45.6142 1256.75 49.961 1253.2 52.8528C1249.6 55.7972 1244.13 57.4562 1236.81 57.4562V61.4562ZM1262.76 39.6013C1262.76 34.4992 1260.91 30.4562 1257.27 27.7645C1253.73 25.1489 1248.75 24.0038 1242.83 24.0038V28.0038C1248.33 28.0038 1252.32 29.0847 1254.89 30.9816C1257.35 32.8024 1258.76 35.5582 1258.76 39.6013H1262.76ZM1242.83 24.0038H1224.9V28.0038H1242.83V24.0038ZM1222.94 25.6088L1216.2 59.0613L1220.12 59.8512L1226.86 26.3987L1222.94 25.6088ZM1218.16 61.4562H1236.81V57.4562H1218.16V61.4562ZM1322.66 96.2033C1310.35 96.2033 1300.79 92.6478 1294.33 86.7268C1287.9 80.82 1284.35 72.3864 1284.35 62.2239H1280.35C1280.35 73.3603 1284.26 82.9163 1291.63 89.6746C1298.98 96.4186 1309.58 100.203 1322.66 100.203V96.2033ZM1284.35 62.2239C1284.35 34.7939 1304.05 13.5638 1333.97 13.5638V9.56384C1301.81 9.56384 1280.35 32.6162 1280.35 62.2239H1284.35ZM1333.97 13.5638C1346.29 13.5638 1355.84 17.1194 1362.3 23.0404C1368.74 28.9471 1372.28 37.3808 1372.28 47.5433H1376.28C1376.28 36.4069 1372.37 26.8508 1365 20.0926C1357.65 13.3486 1347.05 9.56384 1333.97 9.56384V13.5638ZM1372.28 47.5433C1372.28 74.9732 1352.59 96.2033 1322.66 96.2033V100.203C1354.83 100.203 1376.28 77.151 1376.28 47.5433H1372.28ZM1323.98 86.4854C1346.43 86.4854 1360.52 68.9288 1360.52 48.506H1356.52C1356.52 67.0708 1343.89 82.4854 1323.98 82.4854V86.4854ZM1360.52 48.506C1360.52 41.1327 1358.07 34.7576 1353.2 30.2386C1348.35 25.7337 1341.31 23.2818 1332.53 23.2818V27.2818C1340.59 27.2818 1346.55 29.5228 1350.48 33.1705C1354.4 36.804 1356.52 42.041 1356.52 48.506H1360.52ZM1332.53 23.2818C1310.07 23.2818 1296.11 40.8482 1296.11 61.2612H1300.11C1300.11 42.6864 1312.63 27.2818 1332.53 27.2818V23.2818ZM1296.11 61.2612C1296.11 68.6267 1298.53 75.0018 1303.37 79.5239C1308.19 84.0332 1315.2 86.4854 1323.98 86.4854V82.4854C1315.92 82.4854 1309.99 80.2447 1306.1 76.6014C1302.21 72.971 1300.11 67.734 1300.11 61.2612H1296.11ZM1442.03 97L1440.08 97.4453L1440.44 99H1442.03V97ZM1437.58 77.5061L1439.53 77.0608L1439.18 75.5061H1437.58V77.5061ZM1395.22 77.5061V75.5061H1394.11L1393.53 76.448L1395.22 77.5061ZM1383.07 97V99H1384.18L1384.77 98.0581L1383.07 97ZM1366.34 97L1364.67 95.91L1362.66 99H1366.34V97ZM1421.1 12.7672V10.7672H1420.01L1419.42 11.6772L1421.1 12.7672ZM1436.62 12.7672L1438.56 12.2847L1438.18 10.7672H1436.62V12.7672ZM1457.56 97V99H1460.11L1459.5 96.5175L1457.56 97ZM1402.93 65.2322L1401.23 64.1702L1399.31 67.2322H1402.93V65.2322ZM1434.69 65.2322V67.2322H1437.21L1436.64 64.7829L1434.69 65.2322ZM1426.15 28.1697L1428.1 27.7205L1427.02 23.0216L1424.46 27.1078L1426.15 28.1697ZM1443.98 96.5547L1439.53 77.0608L1435.63 77.9514L1440.08 97.4453L1443.98 96.5547ZM1437.58 75.5061H1395.22V79.5061H1437.58V75.5061ZM1393.53 76.448L1381.37 95.9419L1384.77 98.0581L1396.92 78.5642L1393.53 76.448ZM1383.07 95H1366.34V99H1383.07V95ZM1368.02 98.09L1422.77 13.8571L1419.42 11.6772L1364.67 95.91L1368.02 98.09ZM1421.1 14.7672H1436.62V10.7672H1421.1V14.7672ZM1434.68 13.2496L1455.62 97.4825L1459.5 96.5175L1438.56 12.2847L1434.68 13.2496ZM1457.56 95H1442.03V99H1457.56V95ZM1402.93 67.2322H1434.69V63.2322H1402.93V67.2322ZM1436.64 64.7829L1428.1 27.7205L1424.2 28.619L1432.74 65.6814L1436.64 64.7829ZM1424.46 27.1078L1401.23 64.1702L1404.62 66.2942L1427.84 29.2317L1424.46 27.1078ZM1465.98 97L1464.02 96.6078L1463.54 99H1465.98V97ZM1482.83 12.7672V10.7672H1481.19L1480.87 12.3749L1482.83 12.7672ZM1484.27 83.7634L1482.31 83.3712L1481.83 85.7634H1484.27V83.7634ZM1495.83 26.0038V24.0038H1494.19L1493.86 25.6115L1495.83 26.0038ZM1467.94 97.3922L1484.79 13.1594L1480.87 12.3749L1464.02 96.6078L1467.94 97.3922ZM1482.83 14.7672H1516.88V10.7672H1482.83V14.7672ZM1516.88 14.7672C1529.36 14.7672 1539.08 18.076 1545.65 23.729C1552.18 29.3528 1555.8 37.4671 1555.8 47.5433H1559.8C1559.8 36.441 1555.77 27.1672 1548.26 20.6975C1540.77 14.2571 1530.04 10.7672 1516.88 10.7672V14.7672ZM1555.8 47.5433C1555.8 61.9736 1550.72 73.789 1541.97 82.0049C1533.21 90.232 1520.62 95 1505.33 95V99C1521.45 99 1535.09 93.9608 1544.71 84.9202C1554.35 75.8684 1559.8 62.9555 1559.8 47.5433H1555.8ZM1505.33 95H1465.98V99H1505.33V95ZM1484.27 85.7634H1505.81V81.7634H1484.27V85.7634ZM1505.81 85.7634C1517.58 85.7634 1527.17 81.8405 1533.83 75.123C1540.47 68.4121 1544.03 59.0678 1544.03 48.506H1540.03C1540.03 58.16 1536.79 66.4444 1530.99 72.3082C1525.18 78.1655 1516.67 81.7634 1505.81 81.7634V85.7634ZM1544.03 48.506C1544.03 41.132 1541.61 34.9061 1536.61 30.556C1531.64 26.241 1524.4 24.0038 1515.2 24.0038V28.0038C1523.81 28.0038 1529.98 30.0984 1533.98 33.575C1537.94 37.0164 1540.03 42.0417 1540.03 48.506H1544.03ZM1515.2 24.0038H1495.83V28.0038H1515.2V24.0038ZM1493.86 25.6115L1482.31 83.3712L1486.23 84.1556L1497.79 26.396L1493.86 25.6115Z" fill="white" mask="url(#path-7-outside-4_615_2179)"/>
<mask id="path-9-outside-5_615_2179" maskUnits="userSpaceOnUse" x="1585" y="9" width="368" height="92" fill="black">
<rect fill="white" x="1585" y="9" width="368" height="92"/>
<path d="M1669.52 38.1573C1669.52 54.5226 1660.37 65.9542 1644.85 70.2862L1659.89 97H1643.29L1629.45 72.3318H1629.33H1608.51L1603.7 97H1587.93L1604.78 12.7672H1637.51C1657.85 12.7672 1669.52 22.1531 1669.52 38.1573ZM1629.81 59.4562C1644.97 59.4562 1653.76 52.5973 1653.76 39.6013C1653.76 30.4561 1647.26 26.0038 1635.83 26.0038H1617.9L1611.16 59.4562H1629.81ZM1715.66 98.2033C1690.27 98.2033 1675.35 83.5227 1675.35 62.2239C1675.35 33.705 1695.93 11.5638 1726.97 11.5638C1752.36 11.5638 1767.28 26.2444 1767.28 47.5433C1767.28 76.0621 1746.71 98.2033 1715.66 98.2033ZM1716.98 84.4854C1738.16 84.4854 1751.52 67.9998 1751.52 48.506C1751.52 34.6677 1742.37 25.2818 1725.53 25.2818C1704.35 25.2818 1691.11 41.7673 1691.11 61.2612C1691.11 75.0995 1700.14 84.4854 1716.98 84.4854ZM1835.03 97L1830.58 77.5061H1788.22L1776.07 97H1759.34L1814.1 12.7672H1829.62L1850.56 97H1835.03ZM1795.93 65.2322H1827.69L1819.15 28.1697L1795.93 65.2322ZM1858.98 97L1875.83 12.7672H1909.88C1935.51 12.7672 1950.8 26.3648 1950.8 47.5433C1950.8 77.3858 1929.74 97 1898.33 97H1858.98ZM1877.27 83.7634H1898.81C1921.44 83.7634 1935.03 68.7218 1935.03 48.506C1935.03 34.6677 1926.01 26.0038 1908.2 26.0038H1888.83L1877.27 83.7634Z"/>
</mask>
<path d="M1644.85 70.2862L1644.31 68.3598L1641.86 69.0453L1643.11 71.2674L1644.85 70.2862ZM1659.89 97V99H1663.31L1661.64 96.0187L1659.89 97ZM1643.29 97L1641.54 97.9785L1642.12 99H1643.29V97ZM1629.45 72.3318L1631.19 71.3533L1630.62 70.3318H1629.45V72.3318ZM1608.51 72.3318V70.3318H1606.86L1606.55 71.9488L1608.51 72.3318ZM1603.7 97V99H1605.34L1605.66 97.383L1603.7 97ZM1587.93 97L1585.97 96.6078L1585.49 99H1587.93V97ZM1604.78 12.7672V10.7672H1603.14L1602.82 12.3749L1604.78 12.7672ZM1617.9 26.0038V24.0038H1616.26L1615.94 25.6088L1617.9 26.0038ZM1611.16 59.4562L1609.2 59.0613L1608.71 61.4562H1611.16V59.4562ZM1667.52 38.1573C1667.52 45.9558 1665.35 52.4582 1661.43 57.5079C1657.5 62.5619 1651.73 66.2902 1644.31 68.3598L1645.39 72.2125C1653.5 69.9501 1660.06 65.7967 1664.59 59.9606C1669.12 54.1202 1671.52 46.7241 1671.52 38.1573H1667.52ZM1643.11 71.2674L1658.15 97.9813L1661.64 96.0187L1646.59 69.3049L1643.11 71.2674ZM1659.89 95H1643.29V99H1659.89V95ZM1645.03 96.0215L1631.19 71.3533L1627.7 73.3103L1641.54 97.9785L1645.03 96.0215ZM1629.45 70.3318H1629.33V74.3318H1629.45V70.3318ZM1629.33 70.3318H1608.51V74.3318H1629.33V70.3318ZM1606.55 71.9488L1601.73 96.617L1605.66 97.383L1610.47 72.7148L1606.55 71.9488ZM1603.7 95H1587.93V99H1603.7V95ZM1589.89 97.3922L1606.74 13.1594L1602.82 12.3749L1585.97 96.6078L1589.89 97.3922ZM1604.78 14.7672H1637.51V10.7672H1604.78V14.7672ZM1637.51 14.7672C1647.4 14.7672 1654.91 17.0535 1659.9 21.0253C1664.82 24.9472 1667.52 30.687 1667.52 38.1573H1671.52C1671.52 29.6234 1668.38 22.6682 1662.39 17.896C1656.46 13.1738 1647.95 10.7672 1637.51 10.7672V14.7672ZM1629.81 61.4562C1637.66 61.4562 1644.16 59.6857 1648.73 55.9517C1653.37 52.1651 1655.76 46.5844 1655.76 39.6013H1651.76C1651.76 45.6142 1649.75 49.961 1646.2 52.8528C1642.6 55.7972 1637.13 57.4562 1629.81 57.4562V61.4562ZM1655.76 39.6013C1655.76 34.4992 1653.91 30.4562 1650.27 27.7645C1646.73 25.1489 1641.75 24.0038 1635.83 24.0038V28.0038C1641.33 28.0038 1645.32 29.0847 1647.89 30.9816C1650.35 32.8024 1651.76 35.5582 1651.76 39.6013H1655.76ZM1635.83 24.0038H1617.9V28.0038H1635.83V24.0038ZM1615.94 25.6088L1609.2 59.0613L1613.12 59.8512L1619.86 26.3987L1615.94 25.6088ZM1611.16 61.4562H1629.81V57.4562H1611.16V61.4562ZM1715.66 96.2033C1703.35 96.2033 1693.79 92.6478 1687.33 86.7268C1680.9 80.82 1677.35 72.3864 1677.35 62.2239H1673.35C1673.35 73.3603 1677.26 82.9163 1684.63 89.6746C1691.98 96.4186 1702.58 100.203 1715.66 100.203V96.2033ZM1677.35 62.2239C1677.35 34.7939 1697.05 13.5638 1726.97 13.5638V9.56384C1694.81 9.56384 1673.35 32.6162 1673.35 62.2239H1677.35ZM1726.97 13.5638C1739.29 13.5638 1748.84 17.1194 1755.3 23.0404C1761.74 28.9471 1765.28 37.3808 1765.28 47.5433H1769.28C1769.28 36.4069 1765.37 26.8508 1758 20.0926C1750.65 13.3486 1740.05 9.56384 1726.97 9.56384V13.5638ZM1765.28 47.5433C1765.28 74.9732 1745.59 96.2033 1715.66 96.2033V100.203C1747.83 100.203 1769.28 77.151 1769.28 47.5433H1765.28ZM1716.98 86.4854C1739.43 86.4854 1753.52 68.9288 1753.52 48.506H1749.52C1749.52 67.0708 1736.89 82.4854 1716.98 82.4854V86.4854ZM1753.52 48.506C1753.52 41.1327 1751.07 34.7576 1746.2 30.2386C1741.35 25.7337 1734.31 23.2818 1725.53 23.2818V27.2818C1733.59 27.2818 1739.55 29.5228 1743.48 33.1705C1747.4 36.804 1749.52 42.041 1749.52 48.506H1753.52ZM1725.53 23.2818C1703.07 23.2818 1689.11 40.8482 1689.11 61.2612H1693.11C1693.11 42.6864 1705.63 27.2818 1725.53 27.2818V23.2818ZM1689.11 61.2612C1689.11 68.6267 1691.53 75.0018 1696.37 79.5239C1701.19 84.0332 1708.2 86.4854 1716.98 86.4854V82.4854C1708.92 82.4854 1702.99 80.2447 1699.1 76.6014C1695.21 72.971 1693.11 67.734 1693.11 61.2612H1689.11ZM1835.03 97L1833.08 97.4453L1833.44 99H1835.03V97ZM1830.58 77.5061L1832.53 77.0608L1832.18 75.5061H1830.58V77.5061ZM1788.22 77.5061V75.5061H1787.11L1786.53 76.448L1788.22 77.5061ZM1776.07 97V99H1777.18L1777.77 98.0581L1776.07 97ZM1759.34 97L1757.67 95.91L1755.66 99H1759.34V97ZM1814.1 12.7672V10.7672H1813.01L1812.42 11.6772L1814.1 12.7672ZM1829.62 12.7672L1831.56 12.2847L1831.18 10.7672H1829.62V12.7672ZM1850.56 97V99H1853.11L1852.5 96.5175L1850.56 97ZM1795.93 65.2322L1794.23 64.1702L1792.31 67.2322H1795.93V65.2322ZM1827.69 65.2322V67.2322H1830.21L1829.64 64.7829L1827.69 65.2322ZM1819.15 28.1697L1821.1 27.7205L1820.02 23.0216L1817.46 27.1078L1819.15 28.1697ZM1836.98 96.5547L1832.53 77.0608L1828.63 77.9514L1833.08 97.4453L1836.98 96.5547ZM1830.58 75.5061H1788.22V79.5061H1830.58V75.5061ZM1786.53 76.448L1774.37 95.9419L1777.77 98.0581L1789.92 78.5642L1786.53 76.448ZM1776.07 95H1759.34V99H1776.07V95ZM1761.02 98.09L1815.77 13.8571L1812.42 11.6772L1757.67 95.91L1761.02 98.09ZM1814.1 14.7672H1829.62V10.7672H1814.1V14.7672ZM1827.68 13.2496L1848.62 97.4825L1852.5 96.5175L1831.56 12.2847L1827.68 13.2496ZM1850.56 95H1835.03V99H1850.56V95ZM1795.93 67.2322H1827.69V63.2322H1795.93V67.2322ZM1829.64 64.7829L1821.1 27.7205L1817.2 28.619L1825.74 65.6814L1829.64 64.7829ZM1817.46 27.1078L1794.23 64.1702L1797.62 66.2942L1820.84 29.2317L1817.46 27.1078ZM1858.98 97L1857.02 96.6078L1856.54 99H1858.98V97ZM1875.83 12.7672V10.7672H1874.19L1873.87 12.3749L1875.83 12.7672ZM1877.27 83.7634L1875.31 83.3712L1874.83 85.7634H1877.27V83.7634ZM1888.83 26.0038V24.0038H1887.19L1886.86 25.6115L1888.83 26.0038ZM1860.94 97.3922L1877.79 13.1594L1873.87 12.3749L1857.02 96.6078L1860.94 97.3922ZM1875.83 14.7672H1909.88V10.7672H1875.83V14.7672ZM1909.88 14.7672C1922.36 14.7672 1932.08 18.076 1938.65 23.729C1945.18 29.3528 1948.8 37.4671 1948.8 47.5433H1952.8C1952.8 36.441 1948.77 27.1672 1941.26 20.6975C1933.77 14.2571 1923.04 10.7672 1909.88 10.7672V14.7672ZM1948.8 47.5433C1948.8 61.9736 1943.72 73.789 1934.97 82.0049C1926.21 90.232 1913.62 95 1898.33 95V99C1914.45 99 1928.09 93.9608 1937.71 84.9202C1947.35 75.8684 1952.8 62.9555 1952.8 47.5433H1948.8ZM1898.33 95H1858.98V99H1898.33V95ZM1877.27 85.7634H1898.81V81.7634H1877.27V85.7634ZM1898.81 85.7634C1910.58 85.7634 1920.17 81.8405 1926.83 75.123C1933.47 68.4121 1937.03 59.0678 1937.03 48.506H1933.03C1933.03 58.16 1929.79 66.4444 1923.99 72.3082C1918.18 78.1655 1909.67 81.7634 1898.81 81.7634V85.7634ZM1937.03 48.506C1937.03 41.132 1934.61 34.9061 1929.61 30.556C1924.64 26.241 1917.4 24.0038 1908.2 24.0038V28.0038C1916.81 28.0038 1922.98 30.0984 1926.98 33.575C1930.94 37.0164 1933.03 42.0417 1933.03 48.506H1937.03ZM1908.2 24.0038H1888.83V28.0038H1908.2V24.0038ZM1886.86 25.6115L1875.31 83.3712L1879.23 84.1556L1890.79 26.396L1886.86 25.6115Z" fill="white" mask="url(#path-9-outside-5_615_2179)"/>
<mask id="path-11-outside-6_615_2179" maskUnits="userSpaceOnUse" x="1978" y="9" width="368" height="92" fill="black">
<rect fill="white" x="1978" y="9" width="368" height="92"/>
<path d="M2062.52 38.1573C2062.52 54.5226 2053.37 65.9542 2037.85 70.2862L2052.89 97H2036.29L2022.45 72.3318H2022.33H2001.51L1996.7 97H1980.93L1997.78 12.7672H2030.51C2050.85 12.7672 2062.52 22.1531 2062.52 38.1573ZM2022.81 59.4562C2037.97 59.4562 2046.76 52.5973 2046.76 39.6013C2046.76 30.4561 2040.26 26.0038 2028.83 26.0038H2010.9L2004.16 59.4562H2022.81ZM2108.66 98.2033C2083.27 98.2033 2068.35 83.5227 2068.35 62.2239C2068.35 33.705 2088.93 11.5638 2119.97 11.5638C2145.36 11.5638 2160.28 26.2444 2160.28 47.5433C2160.28 76.0621 2139.71 98.2033 2108.66 98.2033ZM2109.98 84.4854C2131.16 84.4854 2144.52 67.9998 2144.52 48.506C2144.52 34.6677 2135.37 25.2818 2118.53 25.2818C2097.35 25.2818 2084.11 41.7673 2084.11 61.2612C2084.11 75.0995 2093.14 84.4854 2109.98 84.4854ZM2228.03 97L2223.58 77.5061H2181.22L2169.07 97H2152.34L2207.1 12.7672H2222.62L2243.56 97H2228.03ZM2188.93 65.2322H2220.69L2212.15 28.1697L2188.93 65.2322ZM2251.98 97L2268.83 12.7672H2302.88C2328.51 12.7672 2343.8 26.3648 2343.8 47.5433C2343.8 77.3858 2322.74 97 2291.33 97H2251.98ZM2270.27 83.7634H2291.81C2314.44 83.7634 2328.03 68.7218 2328.03 48.506C2328.03 34.6677 2319.01 26.0038 2301.2 26.0038H2281.83L2270.27 83.7634Z"/>
</mask>
<path d="M2037.85 70.2862L2037.31 68.3598L2034.86 69.0453L2036.11 71.2674L2037.85 70.2862ZM2052.89 97V99H2056.31L2054.64 96.0187L2052.89 97ZM2036.29 97L2034.54 97.9785L2035.12 99H2036.29V97ZM2022.45 72.3318L2024.19 71.3533L2023.62 70.3318H2022.45V72.3318ZM2001.51 72.3318V70.3318H1999.86L1999.55 71.9488L2001.51 72.3318ZM1996.7 97V99H1998.34L1998.66 97.383L1996.7 97ZM1980.93 97L1978.97 96.6078L1978.49 99H1980.93V97ZM1997.78 12.7672V10.7672H1996.14L1995.82 12.3749L1997.78 12.7672ZM2010.9 26.0038V24.0038H2009.26L2008.94 25.6088L2010.9 26.0038ZM2004.16 59.4562L2002.2 59.0613L2001.71 61.4562H2004.16V59.4562ZM2060.52 38.1573C2060.52 45.9558 2058.35 52.4582 2054.43 57.5079C2050.5 62.5619 2044.73 66.2902 2037.31 68.3598L2038.39 72.2125C2046.5 69.9501 2053.06 65.7967 2057.59 59.9606C2062.12 54.1202 2064.52 46.7241 2064.52 38.1573H2060.52ZM2036.11 71.2674L2051.15 97.9813L2054.64 96.0187L2039.59 69.3049L2036.11 71.2674ZM2052.89 95H2036.29V99H2052.89V95ZM2038.03 96.0215L2024.19 71.3533L2020.7 73.3103L2034.54 97.9785L2038.03 96.0215ZM2022.45 70.3318H2022.33V74.3318H2022.45V70.3318ZM2022.33 70.3318H2001.51V74.3318H2022.33V70.3318ZM1999.55 71.9488L1994.73 96.617L1998.66 97.383L2003.47 72.7148L1999.55 71.9488ZM1996.7 95H1980.93V99H1996.7V95ZM1982.89 97.3922L1999.74 13.1594L1995.82 12.3749L1978.97 96.6078L1982.89 97.3922ZM1997.78 14.7672H2030.51V10.7672H1997.78V14.7672ZM2030.51 14.7672C2040.4 14.7672 2047.91 17.0535 2052.9 21.0253C2057.82 24.9472 2060.52 30.687 2060.52 38.1573H2064.52C2064.52 29.6234 2061.38 22.6682 2055.39 17.896C2049.46 13.1738 2040.95 10.7672 2030.51 10.7672V14.7672ZM2022.81 61.4562C2030.66 61.4562 2037.16 59.6857 2041.73 55.9517C2046.37 52.1651 2048.76 46.5844 2048.76 39.6013H2044.76C2044.76 45.6142 2042.75 49.961 2039.2 52.8528C2035.6 55.7972 2030.13 57.4562 2022.81 57.4562V61.4562ZM2048.76 39.6013C2048.76 34.4992 2046.91 30.4562 2043.27 27.7645C2039.73 25.1489 2034.75 24.0038 2028.83 24.0038V28.0038C2034.33 28.0038 2038.32 29.0847 2040.89 30.9816C2043.35 32.8024 2044.76 35.5582 2044.76 39.6013H2048.76ZM2028.83 24.0038H2010.9V28.0038H2028.83V24.0038ZM2008.94 25.6088L2002.2 59.0613L2006.12 59.8512L2012.86 26.3987L2008.94 25.6088ZM2004.16 61.4562H2022.81V57.4562H2004.16V61.4562ZM2108.66 96.2033C2096.35 96.2033 2086.79 92.6478 2080.33 86.7268C2073.9 80.82 2070.35 72.3864 2070.35 62.2239H2066.35C2066.35 73.3603 2070.26 82.9163 2077.63 89.6746C2084.98 96.4186 2095.58 100.203 2108.66 100.203V96.2033ZM2070.35 62.2239C2070.35 34.7939 2090.05 13.5638 2119.97 13.5638V9.56384C2087.81 9.56384 2066.35 32.6162 2066.35 62.2239H2070.35ZM2119.97 13.5638C2132.29 13.5638 2141.84 17.1194 2148.3 23.0404C2154.74 28.9471 2158.28 37.3808 2158.28 47.5433H2162.28C2162.28 36.4069 2158.37 26.8508 2151 20.0926C2143.65 13.3486 2133.05 9.56384 2119.97 9.56384V13.5638ZM2158.28 47.5433C2158.28 74.9732 2138.59 96.2033 2108.66 96.2033V100.203C2140.83 100.203 2162.28 77.151 2162.28 47.5433H2158.28ZM2109.98 86.4854C2132.43 86.4854 2146.52 68.9288 2146.52 48.506H2142.52C2142.52 67.0708 2129.89 82.4854 2109.98 82.4854V86.4854ZM2146.52 48.506C2146.52 41.1327 2144.07 34.7576 2139.2 30.2386C2134.35 25.7337 2127.31 23.2818 2118.53 23.2818V27.2818C2126.59 27.2818 2132.55 29.5228 2136.48 33.1705C2140.4 36.804 2142.52 42.041 2142.52 48.506H2146.52ZM2118.53 23.2818C2096.07 23.2818 2082.11 40.8482 2082.11 61.2612H2086.11C2086.11 42.6864 2098.63 27.2818 2118.53 27.2818V23.2818ZM2082.11 61.2612C2082.11 68.6267 2084.53 75.0018 2089.37 79.5239C2094.19 84.0332 2101.2 86.4854 2109.98 86.4854V82.4854C2101.92 82.4854 2095.99 80.2447 2092.1 76.6014C2088.21 72.971 2086.11 67.734 2086.11 61.2612H2082.11ZM2228.03 97L2226.08 97.4453L2226.44 99H2228.03V97ZM2223.58 77.5061L2225.53 77.0608L2225.18 75.5061H2223.58V77.5061ZM2181.22 77.5061V75.5061H2180.11L2179.53 76.448L2181.22 77.5061ZM2169.07 97V99H2170.18L2170.77 98.0581L2169.07 97ZM2152.34 97L2150.67 95.91L2148.66 99H2152.34V97ZM2207.1 12.7672V10.7672H2206.01L2205.42 11.6772L2207.1 12.7672ZM2222.62 12.7672L2224.56 12.2847L2224.18 10.7672H2222.62V12.7672ZM2243.56 97V99H2246.11L2245.5 96.5175L2243.56 97ZM2188.93 65.2322L2187.23 64.1702L2185.31 67.2322H2188.93V65.2322ZM2220.69 65.2322V67.2322H2223.21L2222.64 64.7829L2220.69 65.2322ZM2212.15 28.1697L2214.1 27.7205L2213.02 23.0216L2210.46 27.1078L2212.15 28.1697ZM2229.98 96.5547L2225.53 77.0608L2221.63 77.9514L2226.08 97.4453L2229.98 96.5547ZM2223.58 75.5061H2181.22V79.5061H2223.58V75.5061ZM2179.53 76.448L2167.37 95.9419L2170.77 98.0581L2182.92 78.5642L2179.53 76.448ZM2169.07 95H2152.34V99H2169.07V95ZM2154.02 98.09L2208.77 13.8571L2205.42 11.6772L2150.67 95.91L2154.02 98.09ZM2207.1 14.7672H2222.62V10.7672H2207.1V14.7672ZM2220.68 13.2496L2241.62 97.4825L2245.5 96.5175L2224.56 12.2847L2220.68 13.2496ZM2243.56 95H2228.03V99H2243.56V95ZM2188.93 67.2322H2220.69V63.2322H2188.93V67.2322ZM2222.64 64.7829L2214.1 27.7205L2210.2 28.619L2218.74 65.6814L2222.64 64.7829ZM2210.46 27.1078L2187.23 64.1702L2190.62 66.2942L2213.84 29.2317L2210.46 27.1078ZM2251.98 97L2250.02 96.6078L2249.54 99H2251.98V97ZM2268.83 12.7672V10.7672H2267.19L2266.87 12.3749L2268.83 12.7672ZM2270.27 83.7634L2268.31 83.3712L2267.83 85.7634H2270.27V83.7634ZM2281.83 26.0038V24.0038H2280.19L2279.86 25.6115L2281.83 26.0038ZM2253.94 97.3922L2270.79 13.1594L2266.87 12.3749L2250.02 96.6078L2253.94 97.3922ZM2268.83 14.7672H2302.88V10.7672H2268.83V14.7672ZM2302.88 14.7672C2315.36 14.7672 2325.08 18.076 2331.65 23.729C2338.18 29.3528 2341.8 37.4671 2341.8 47.5433H2345.8C2345.8 36.441 2341.77 27.1672 2334.26 20.6975C2326.77 14.2571 2316.04 10.7672 2302.88 10.7672V14.7672ZM2341.8 47.5433C2341.8 61.9736 2336.72 73.789 2327.97 82.0049C2319.21 90.232 2306.62 95 2291.33 95V99C2307.45 99 2321.09 93.9608 2330.71 84.9202C2340.35 75.8684 2345.8 62.9555 2345.8 47.5433H2341.8ZM2291.33 95H2251.98V99H2291.33V95ZM2270.27 85.7634H2291.81V81.7634H2270.27V85.7634ZM2291.81 85.7634C2303.58 85.7634 2313.17 81.8405 2319.83 75.123C2326.47 68.4121 2330.03 59.0678 2330.03 48.506H2326.03C2326.03 58.16 2322.79 66.4444 2316.99 72.3082C2311.18 78.1655 2302.67 81.7634 2291.81 81.7634V85.7634ZM2330.03 48.506C2330.03 41.132 2327.61 34.9061 2322.61 30.556C2317.64 26.241 2310.4 24.0038 2301.2 24.0038V28.0038C2309.81 28.0038 2315.98 30.0984 2319.98 33.575C2323.94 37.0164 2326.03 42.0417 2326.03 48.506H2330.03ZM2301.2 24.0038H2281.83V28.0038H2301.2V24.0038ZM2279.86 25.6115L2268.31 83.3712L2272.23 84.1556L2283.79 26.396L2279.86 25.6115Z" fill="white" mask="url(#path-11-outside-6_615_2179)"/>
<mask id="path-13-outside-7_615_2179" maskUnits="userSpaceOnUse" x="2371" y="9" width="368" height="92" fill="black">
<rect fill="white" x="2371" y="9" width="368" height="92"/>
<path d="M2455.52 38.1573C2455.52 54.5226 2446.37 65.9542 2430.85 70.2862L2445.89 97H2429.29L2415.45 72.3318H2415.33H2394.51L2389.7 97H2373.93L2390.78 12.7672H2423.51C2443.85 12.7672 2455.52 22.1531 2455.52 38.1573ZM2415.81 59.4562C2430.97 59.4562 2439.76 52.5973 2439.76 39.6013C2439.76 30.4561 2433.26 26.0038 2421.83 26.0038H2403.9L2397.16 59.4562H2415.81ZM2501.66 98.2033C2476.27 98.2033 2461.35 83.5227 2461.35 62.2239C2461.35 33.705 2481.93 11.5638 2512.97 11.5638C2538.36 11.5638 2553.28 26.2444 2553.28 47.5433C2553.28 76.0621 2532.71 98.2033 2501.66 98.2033ZM2502.98 84.4854C2524.16 84.4854 2537.52 67.9998 2537.52 48.506C2537.52 34.6677 2528.37 25.2818 2511.53 25.2818C2490.35 25.2818 2477.11 41.7673 2477.11 61.2612C2477.11 75.0995 2486.14 84.4854 2502.98 84.4854ZM2621.03 97L2616.58 77.5061H2574.22L2562.07 97H2545.34L2600.1 12.7672H2615.62L2636.56 97H2621.03ZM2581.93 65.2322H2613.69L2605.15 28.1697L2581.93 65.2322ZM2644.98 97L2661.83 12.7672H2695.88C2721.51 12.7672 2736.8 26.3648 2736.8 47.5433C2736.8 77.3858 2715.74 97 2684.33 97H2644.98ZM2663.27 83.7634H2684.81C2707.44 83.7634 2721.03 68.7218 2721.03 48.506C2721.03 34.6677 2712.01 26.0038 2694.2 26.0038H2674.83L2663.27 83.7634Z"/>
</mask>
<path d="M2430.85 70.2862L2430.31 68.3598L2427.86 69.0453L2429.11 71.2674L2430.85 70.2862ZM2445.89 97V99H2449.31L2447.64 96.0187L2445.89 97ZM2429.29 97L2427.54 97.9785L2428.12 99H2429.29V97ZM2415.45 72.3318L2417.19 71.3533L2416.62 70.3318H2415.45V72.3318ZM2394.51 72.3318V70.3318H2392.86L2392.55 71.9488L2394.51 72.3318ZM2389.7 97V99H2391.34L2391.66 97.383L2389.7 97ZM2373.93 97L2371.97 96.6078L2371.49 99H2373.93V97ZM2390.78 12.7672V10.7672H2389.14L2388.82 12.3749L2390.78 12.7672ZM2403.9 26.0038V24.0038H2402.26L2401.94 25.6088L2403.9 26.0038ZM2397.16 59.4562L2395.2 59.0613L2394.71 61.4562H2397.16V59.4562ZM2453.52 38.1573C2453.52 45.9558 2451.35 52.4582 2447.43 57.5079C2443.5 62.5619 2437.73 66.2902 2430.31 68.3598L2431.39 72.2125C2439.5 69.9501 2446.06 65.7967 2450.59 59.9606C2455.12 54.1202 2457.52 46.7241 2457.52 38.1573H2453.52ZM2429.11 71.2674L2444.15 97.9813L2447.64 96.0187L2432.59 69.3049L2429.11 71.2674ZM2445.89 95H2429.29V99H2445.89V95ZM2431.03 96.0215L2417.19 71.3533L2413.7 73.3103L2427.54 97.9785L2431.03 96.0215ZM2415.45 70.3318H2415.33V74.3318H2415.45V70.3318ZM2415.33 70.3318H2394.51V74.3318H2415.33V70.3318ZM2392.55 71.9488L2387.73 96.617L2391.66 97.383L2396.47 72.7148L2392.55 71.9488ZM2389.7 95H2373.93V99H2389.7V95ZM2375.89 97.3922L2392.74 13.1594L2388.82 12.3749L2371.97 96.6078L2375.89 97.3922ZM2390.78 14.7672H2423.51V10.7672H2390.78V14.7672ZM2423.51 14.7672C2433.4 14.7672 2440.91 17.0535 2445.9 21.0253C2450.82 24.9472 2453.52 30.687 2453.52 38.1573H2457.52C2457.52 29.6234 2454.38 22.6682 2448.39 17.896C2442.46 13.1738 2433.95 10.7672 2423.51 10.7672V14.7672ZM2415.81 61.4562C2423.66 61.4562 2430.16 59.6857 2434.73 55.9517C2439.37 52.1651 2441.76 46.5844 2441.76 39.6013H2437.76C2437.76 45.6142 2435.75 49.961 2432.2 52.8528C2428.6 55.7972 2423.13 57.4562 2415.81 57.4562V61.4562ZM2441.76 39.6013C2441.76 34.4992 2439.91 30.4562 2436.27 27.7645C2432.73 25.1489 2427.75 24.0038 2421.83 24.0038V28.0038C2427.33 28.0038 2431.32 29.0847 2433.89 30.9816C2436.35 32.8024 2437.76 35.5582 2437.76 39.6013H2441.76ZM2421.83 24.0038H2403.9V28.0038H2421.83V24.0038ZM2401.94 25.6088L2395.2 59.0613L2399.12 59.8512L2405.86 26.3987L2401.94 25.6088ZM2397.16 61.4562H2415.81V57.4562H2397.16V61.4562ZM2501.66 96.2033C2489.35 96.2033 2479.79 92.6478 2473.33 86.7268C2466.9 80.82 2463.35 72.3864 2463.35 62.2239H2459.35C2459.35 73.3603 2463.26 82.9163 2470.63 89.6746C2477.98 96.4186 2488.58 100.203 2501.66 100.203V96.2033ZM2463.35 62.2239C2463.35 34.7939 2483.05 13.5638 2512.97 13.5638V9.56384C2480.81 9.56384 2459.35 32.6162 2459.35 62.2239H2463.35ZM2512.97 13.5638C2525.29 13.5638 2534.84 17.1194 2541.3 23.0404C2547.74 28.9471 2551.28 37.3808 2551.28 47.5433H2555.28C2555.28 36.4069 2551.37 26.8508 2544 20.0926C2536.65 13.3486 2526.05 9.56384 2512.97 9.56384V13.5638ZM2551.28 47.5433C2551.28 74.9732 2531.59 96.2033 2501.66 96.2033V100.203C2533.83 100.203 2555.28 77.151 2555.28 47.5433H2551.28ZM2502.98 86.4854C2525.43 86.4854 2539.52 68.9288 2539.52 48.506H2535.52C2535.52 67.0708 2522.89 82.4854 2502.98 82.4854V86.4854ZM2539.52 48.506C2539.52 41.1327 2537.07 34.7576 2532.2 30.2386C2527.35 25.7337 2520.31 23.2818 2511.53 23.2818V27.2818C2519.59 27.2818 2525.55 29.5228 2529.48 33.1705C2533.4 36.804 2535.52 42.041 2535.52 48.506H2539.52ZM2511.53 23.2818C2489.07 23.2818 2475.11 40.8482 2475.11 61.2612H2479.11C2479.11 42.6864 2491.63 27.2818 2511.53 27.2818V23.2818ZM2475.11 61.2612C2475.11 68.6267 2477.53 75.0018 2482.37 79.5239C2487.19 84.0332 2494.2 86.4854 2502.98 86.4854V82.4854C2494.92 82.4854 2488.99 80.2447 2485.1 76.6014C2481.21 72.971 2479.11 67.734 2479.11 61.2612H2475.11ZM2621.03 97L2619.08 97.4453L2619.44 99H2621.03V97ZM2616.58 77.5061L2618.53 77.0608L2618.18 75.5061H2616.58V77.5061ZM2574.22 77.5061V75.5061H2573.11L2572.53 76.448L2574.22 77.5061ZM2562.07 97V99H2563.18L2563.77 98.0581L2562.07 97ZM2545.34 97L2543.67 95.91L2541.66 99H2545.34V97ZM2600.1 12.7672V10.7672H2599.01L2598.42 11.6772L2600.1 12.7672ZM2615.62 12.7672L2617.56 12.2847L2617.18 10.7672H2615.62V12.7672ZM2636.56 97V99H2639.11L2638.5 96.5175L2636.56 97ZM2581.93 65.2322L2580.23 64.1702L2578.31 67.2322H2581.93V65.2322ZM2613.69 65.2322V67.2322H2616.21L2615.64 64.7829L2613.69 65.2322ZM2605.15 28.1697L2607.1 27.7205L2606.02 23.0216L2603.46 27.1078L2605.15 28.1697ZM2622.98 96.5547L2618.53 77.0608L2614.63 77.9514L2619.08 97.4453L2622.98 96.5547ZM2616.58 75.5061H2574.22V79.5061H2616.58V75.5061ZM2572.53 76.448L2560.37 95.9419L2563.77 98.0581L2575.92 78.5642L2572.53 76.448ZM2562.07 95H2545.34V99H2562.07V95ZM2547.02 98.09L2601.77 13.8571L2598.42 11.6772L2543.67 95.91L2547.02 98.09ZM2600.1 14.7672H2615.62V10.7672H2600.1V14.7672ZM2613.68 13.2496L2634.62 97.4825L2638.5 96.5175L2617.56 12.2847L2613.68 13.2496ZM2636.56 95H2621.03V99H2636.56V95ZM2581.93 67.2322H2613.69V63.2322H2581.93V67.2322ZM2615.64 64.7829L2607.1 27.7205L2603.2 28.619L2611.74 65.6814L2615.64 64.7829ZM2603.46 27.1078L2580.23 64.1702L2583.62 66.2942L2606.84 29.2317L2603.46 27.1078ZM2644.98 97L2643.02 96.6078L2642.54 99H2644.98V97ZM2661.83 12.7672V10.7672H2660.19L2659.87 12.3749L2661.83 12.7672ZM2663.27 83.7634L2661.31 83.3712L2660.83 85.7634H2663.27V83.7634ZM2674.83 26.0038V24.0038H2673.19L2672.86 25.6115L2674.83 26.0038ZM2646.94 97.3922L2663.79 13.1594L2659.87 12.3749L2643.02 96.6078L2646.94 97.3922ZM2661.83 14.7672H2695.88V10.7672H2661.83V14.7672ZM2695.88 14.7672C2708.36 14.7672 2718.08 18.076 2724.65 23.729C2731.18 29.3528 2734.8 37.4671 2734.8 47.5433H2738.8C2738.8 36.441 2734.77 27.1672 2727.26 20.6975C2719.77 14.2571 2709.04 10.7672 2695.88 10.7672V14.7672ZM2734.8 47.5433C2734.8 61.9736 2729.72 73.789 2720.97 82.0049C2712.21 90.232 2699.62 95 2684.33 95V99C2700.45 99 2714.09 93.9608 2723.71 84.9202C2733.35 75.8684 2738.8 62.9555 2738.8 47.5433H2734.8ZM2684.33 95H2644.98V99H2684.33V95ZM2663.27 85.7634H2684.81V81.7634H2663.27V85.7634ZM2684.81 85.7634C2696.58 85.7634 2706.17 81.8405 2712.83 75.123C2719.47 68.4121 2723.03 59.0678 2723.03 48.506H2719.03C2719.03 58.16 2715.79 66.4444 2709.99 72.3082C2704.18 78.1655 2695.67 81.7634 2684.81 81.7634V85.7634ZM2723.03 48.506C2723.03 41.132 2720.61 34.9061 2715.61 30.556C2710.64 26.241 2703.4 24.0038 2694.2 24.0038V28.0038C2702.81 28.0038 2708.98 30.0984 2712.98 33.575C2716.94 37.0164 2719.03 42.0417 2719.03 48.506H2723.03ZM2694.2 24.0038H2674.83V28.0038H2694.2V24.0038ZM2672.86 25.6115L2661.31 83.3712L2665.23 84.1556L2676.79 26.396L2672.86 25.6115Z" fill="white" mask="url(#path-13-outside-7_615_2179)"/>
</g>
</svg>
