<svg width="22" height="20" viewBox="0 0 22 20" fill="none" xmlns="http://www.w3.org/2000/svg">
<path d="M10.5501 6.20628C10.0776 6.2036 9.74404 6.19869 9.54938 6.19155C9.53299 6.19095 9.52926 6.1847 9.5382 6.1728L12.9308 1.55762C12.9351 1.55167 12.9406 1.54683 12.947 1.54349C12.9534 1.54016 12.9604 1.53842 12.9674 1.53842H20.6473C20.6709 1.53842 20.6735 1.54467 20.6554 1.55717L13.9158 6.20182C13.9027 6.21083 13.8876 6.21566 13.8725 6.21565C12.7632 6.21565 11.6558 6.21253 10.5501 6.20628ZM7.71158 14.2527C7.62259 14.6965 7.60873 15.2987 7.85601 15.6982C8.5804 16.8697 9.62763 16.9581 10.9002 16.9737C12.1706 16.9889 13.4481 16.7036 14.6501 16.3116C15.5399 16.0218 16.3513 15.5792 17.0844 14.984C17.0904 14.9791 17.0974 14.9761 17.1042 14.9754C17.1111 14.9747 17.1173 14.9763 17.1219 14.9799L18.3463 15.9116C18.3485 15.9134 18.3504 15.9156 18.3518 15.9182C18.3531 15.9207 18.3539 15.9235 18.3541 15.9264C18.3543 15.9293 18.3538 15.9322 18.3528 15.9349C18.3517 15.9375 18.3501 15.94 18.348 15.942C16.715 17.4991 14.7511 18.8237 12.4715 19.1723C10.2393 19.5134 7.9508 19.2956 5.7432 18.696C3.09873 17.9773 1.47288 16.2429 1.53906 13.4032C1.54472 13.1606 1.57721 12.9262 1.63654 12.7C2.0108 11.2737 2.95117 10.0554 4.1169 9.17324C6.53288 7.34423 9.49349 6.46208 12.5006 6.65583C15.6602 6.8594 18.3673 8.76655 18.7196 12.0889C18.7933 12.7838 18.7837 13.4896 18.691 14.2063C18.6902 14.2123 18.6876 14.2178 18.6834 14.2219C18.6793 14.2259 18.6741 14.2281 18.6686 14.2282H7.73572C7.7303 14.2282 7.72493 14.2306 7.72052 14.2351C7.71612 14.2396 7.71295 14.2458 7.71158 14.2527ZM13.9708 11.1674C13.7088 9.9853 12.6982 9.52994 11.5839 9.48708C10.289 9.43753 9.22832 10.1371 8.49723 11.1746C8.48828 11.1871 8.49156 11.1933 8.50706 11.1933H13.9512C13.9542 11.1933 13.9572 11.1926 13.9599 11.1912C13.9627 11.1898 13.9651 11.1878 13.967 11.1853C13.9688 11.1828 13.9702 11.1799 13.9708 11.1768C13.9715 11.1738 13.9715 11.1705 13.9708 11.1674Z" fill="white"/>
</svg>
