<svg width="90" height="14" viewBox="0 0 90 14" fill="none" xmlns="http://www.w3.org/2000/svg">
<g clip-path="url(#clip0_54_109)">
<path d="M75.6491 1.90556H70.9496L67.4489 13.5829H72.7307L76.1606 1.90556H75.6491ZM34.4505 4.46639H29.9032L26.6833 13.5829H31.5392C31.5392 13.5829 33.3066 8.97945 33.3813 8.785C33.577 8.63285 34.1196 8.22063 34.6982 7.85556C35.411 7.40493 35.9787 7.25375 36.2642 7.30869C36.2453 7.46132 36.2311 7.6582 36.2311 7.86674C36.2311 8.05875 36.2453 8.26098 36.2836 8.4457C36.3904 8.95514 36.7704 9.80875 38.1105 9.80535C38.8276 9.80535 39.3121 9.69841 39.6789 9.45001C40.0514 9.19771 40.2565 8.83945 40.4503 8.3791V8.37424C40.9414 7.14924 40.6399 6.36563 40.3 5.92375C39.9375 5.45223 39.4676 5.27966 39.4151 5.26167C38.2121 4.81834 36.8395 4.88785 35.4526 5.46438C35.0943 5.61264 34.7606 5.77598 34.4741 5.92619C34.493 5.87709 34.9912 4.46785 34.9912 4.46785H34.4481L34.4505 4.46639ZM56.2268 4.46639H53.2337C53.2337 4.46639 49.1918 8.64598 48.6529 9.20257C48.3527 8.56431 46.4251 4.46639 46.4251 4.46639H40.127L43.0511 10.1408L44.8492 13.5834H45.0756H48.5465L57.123 4.46688H56.2268V4.46639ZM1.73473 6.54452C0.80826 7.50021 0.311936 8.61341 0.330843 9.67848C0.330843 10.7849 0.907523 11.8076 1.89544 12.5592C2.99681 13.3909 5.56351 14.5692 10.4322 13.1133L10.4795 13.1036V13.0988L11.2405 12.7298L11.8597 12.337C12.2001 12.0983 12.8287 11.5063 12.8571 11.4815L13.1454 11.2092L12.1103 10.1145L11.8503 10.2754C9.82716 11.5359 7.9175 11.8572 6.60342 11.1567C5.9322 10.7985 5.48788 10.1908 5.45007 9.57105C5.38862 8.69362 5.7384 7.89494 6.40489 7.37966C7.26991 6.7098 8.52727 6.59994 9.88389 7.03063C9.88389 7.16674 9.83662 7.32084 9.83662 7.46667C9.83662 7.48612 9.83662 7.5007 9.83662 7.51674C9.83662 7.90028 10.0021 8.43987 10.6686 8.82973V8.84431L10.7158 8.85403C12.1386 9.45681 13.136 8.83945 13.5567 8.1273C13.8214 7.68882 13.9017 7.1682 13.7788 6.69862C13.6701 6.25042 13.3912 5.8873 12.98 5.64813L13.0273 5.6773C12.2473 5.06528 11.5478 4.68709 10.7631 4.45084C10.0115 4.22528 9.22685 4.14945 8.35238 4.07945C5.73841 4.04056 3.28042 4.9632 1.74418 6.54646M78.3723 5.075C76.6876 5.83285 75.4014 7.07778 74.932 8.40438C74.8077 8.75632 74.7463 9.10195 74.7463 9.43785C74.7463 10.3746 75.2246 11.235 76.1492 11.9263C77.2213 12.7269 78.8261 13.2592 80.6686 13.4249C82.4573 13.5863 84.3991 13.3306 85.9963 12.7235C87.7849 12.0444 89.0182 10.9706 89.4677 9.70035C89.9503 8.33632 89.5462 6.91494 88.3867 5.89848C87.2442 4.89709 85.5732 4.24424 83.682 4.05952C82.0649 3.90105 80.1789 4.26174 78.3723 5.075ZM80.4105 10.7649C80.2342 10.3221 80.2607 9.68868 80.4833 9.02709C80.7187 8.32757 81.1403 7.66938 81.6707 7.17452C82.1699 6.70882 82.7187 6.44146 83.1753 6.44146C83.6815 6.44146 83.9155 6.76327 84.0233 7.03306C84.1996 7.47591 84.1731 8.1098 83.9505 8.77139C83.7146 9.47139 83.293 10.1296 82.7626 10.6235C82.2639 11.0897 81.7156 11.3565 81.258 11.3565C80.7523 11.3565 80.5178 11.0352 80.4105 10.7649ZM21.0157 4.07848C18.0189 4.29042 14.5777 6.19695 14.0057 9.0198V9.04896V9.07813C13.8781 11.3804 15.0457 12.9199 17.376 13.5299C19.1486 13.9937 21.2568 14.0282 22.4196 13.8221C23.1475 13.6811 23.866 13.4123 24.5514 13.0215C25.1754 12.6661 25.7804 12.2126 26.4044 11.6346L26.74 11.3196L25.7851 10.5695L25.5535 10.7518C25.5535 10.7567 24.8681 11.288 23.9889 11.5894C23.0436 11.9136 21.5451 12.197 20.6754 12.111C19.6591 12.1304 19.0115 11.4756 18.7893 11.0858C18.7043 10.9331 18.6759 10.6993 18.6759 10.4704C18.6759 10.2939 18.6759 10.1257 18.7232 9.99396H27.0425L27.0898 9.63716C27.0898 9.4291 27.137 9.22591 27.137 9.0266C27.137 7.64264 26.7116 6.47403 25.8986 5.62139C24.8303 4.50237 23.0861 3.94091 21.115 4.08091M23.0861 6.80945C23.3413 7.06952 23.4595 7.385 23.5162 7.62903C22.8876 7.62903 20.2641 7.62903 19.3377 7.62903C19.7205 7.07584 20.4485 6.30195 21.5546 6.28591C22.2258 6.2791 22.741 6.4541 23.0861 6.80605M61.7861 4.07751C58.7911 4.28945 55.35 6.19598 54.7766 9.01882L54.7719 9.04799V9.07716C54.6428 11.3794 55.8066 12.9184 58.1374 13.529C59.9114 13.9927 62.0187 14.0272 63.1829 13.8211C63.9137 13.6801 64.6288 13.4113 65.3147 13.0205C65.9406 12.6647 66.5461 12.2111 67.1662 11.6336L67.5042 11.3186L66.5508 10.5685L66.3196 10.7508C66.3149 10.7557 65.6338 11.287 64.7517 11.5884C63.8068 11.9126 62.3098 12.196 61.4401 12.11H61.4164H61.3928C60.3779 12.1294 59.7304 11.4747 59.5082 11.0853C59.4208 10.9322 59.3914 10.6979 59.3914 10.4684C59.3914 10.2924 59.4104 10.1242 59.4293 9.99299H67.7476L67.776 9.63619C67.7949 9.42813 67.7996 9.22494 67.7996 9.02563C67.7996 7.64167 67.3775 6.47306 66.5631 5.62042C65.4943 4.50139 63.7511 3.93993 61.7795 4.07994M63.752 6.80848C64.0058 7.06855 64.125 7.38403 64.1826 7.62806C63.553 7.62855 60.9291 7.62806 60.0041 7.62806C60.386 7.07487 61.113 6.30098 62.2181 6.28493C62.8922 6.27813 63.4084 6.45313 63.752 6.80507M68.036 0.0850744H63.3956L60.7887 3.73334L64.1089 3.74355L69.2536 0.0850744H68.036Z" fill="white"/>
</g>
<defs>
<clipPath id="clip0_54_109">
<rect width="90" height="14" fill="white"/>
</clipPath>
</defs>
</svg>
