<svg width="107" height="108" viewBox="0 0 107 108" fill="none" xmlns="http://www.w3.org/2000/svg">
<path d="M87.4162 41.0752C87.4162 70.7297 53.5 100.384 53.5 100.384C53.5 100.384 19.5837 70.7297 19.5837 41.0752C19.5837 32.08 23.1571 23.4533 29.5176 17.0928C35.8781 10.7322 44.5048 7.15894 53.5 7.15894C62.4951 7.15894 71.1219 10.7322 77.4824 17.0928C83.8429 23.4533 87.4162 32.08 87.4162 41.0752Z" stroke="white" stroke-width="8.8786" stroke-miterlimit="10"/>
<path d="M53.5001 53.7717C60.5121 53.7717 66.1965 48.0873 66.1965 41.0753C66.1965 34.0633 60.5121 28.3789 53.5001 28.3789C46.4881 28.3789 40.8037 34.0633 40.8037 41.0753C40.8037 48.0873 46.4881 53.7717 53.5001 53.7717Z" stroke="white" stroke-width="8.8786" stroke-miterlimit="10"/>
</svg>
