<svg width="504" height="283" viewBox="0 0 504 283" fill="none" xmlns="http://www.w3.org/2000/svg">
<path opacity="0.2" d="M48.3039 123.033C28.9682 123.033 10.6502 117.266 0.643109 109.803L11.8375 88.6018C22.6926 96.5735 36.9399 100.983 51.0177 100.983C66.1131 100.983 75.6113 95.7255 75.6113 87.0753C75.6113 68.0788 16.7562 78.2555 16.7562 40.4322C16.7562 16.0081 38.1272 0.234291 71.0318 0.234291C86.9753 0.234291 101.731 3.79612 112.078 10.411L101.731 31.4428C92.7421 25.3368 81.2085 22.2838 69.5053 22.2838C53.5618 22.2838 44.2332 28.3898 44.2332 36.8703C44.0636 56.3756 103.088 46.199 103.088 82.6654C103.088 107.259 81.3781 123.033 48.3039 123.033ZM216.846 2.26962H244.323L220.577 120.998H193.1L202.768 72.6583H149.001L139.333 120.998H111.687L135.432 2.26962H163.079L153.75 48.9127H207.517L216.846 2.26962ZM306.845 123.033C270.717 123.033 249.007 102.001 249.007 71.471C249.007 30.9339 278.689 0.234291 322.449 0.234291C358.576 0.234291 380.286 21.2661 380.286 51.7961C380.286 92.3332 350.604 123.033 306.845 123.033ZM309.219 99.6265C336.018 99.6265 352.47 78.4251 352.47 53.3226C352.47 35.6831 340.936 23.6407 320.074 23.6407C293.276 23.6407 276.823 44.8421 276.823 69.9445C276.823 87.5841 288.357 99.6265 309.219 99.6265ZM456.739 2.26962C486.421 2.26962 503.212 16.0081 503.212 39.2449C503.212 69.4357 480.993 88.2626 445.544 88.2626H419.085L412.64 120.998H384.993L408.739 2.26962H456.739ZM446.732 65.8739C464.88 65.8739 475.396 57.3933 475.396 41.6195C475.396 30.0859 467.254 24.6583 453.346 24.6583H431.806L423.495 65.8739H446.732ZM6.91873 279.998L30.6643 161.27H58.311L38.9753 257.609H98.5088L93.9293 279.998H6.91873ZM105.89 279.998L129.635 161.27H157.282L133.536 279.998H105.89ZM199.536 282.033C180.201 282.033 161.883 276.266 151.875 268.803L163.07 247.602C173.925 255.574 188.172 259.983 202.25 259.983C217.345 259.983 226.844 254.725 226.844 246.075C226.844 227.079 167.989 237.256 167.989 199.432C167.989 175.008 189.36 159.234 222.264 159.234C238.208 159.234 252.964 162.796 263.31 169.411L252.964 190.443C243.974 184.337 232.441 181.284 220.738 181.284C204.794 181.284 195.466 187.39 195.466 195.87C195.296 215.376 254.321 205.199 254.321 241.665C254.321 266.259 232.61 282.033 199.536 282.033ZM285.856 279.998L305.023 183.658H267.03L271.609 161.27H375.072L370.493 183.658H332.669L313.334 279.998H285.856Z" fill="white"/>
</svg>
