<svg width="2350" height="120" viewBox="0 0 2350 120" fill="none" xmlns="http://www.w3.org/2000/svg">
<path d="M35.7991 58.3962H87.4084L86.6062 62.541H34.9969L35.7991 58.3962ZM27.5095 103.855H86.3388L85.4029 108H22.1614L40.8798 14.408H102.116L101.314 18.5527H44.4898L27.5095 103.855ZM104.314 74.4406L105.116 70.4295H138.943L138.14 74.4406H104.314ZM154.433 108L173.152 14.408H210.99C219.547 14.408 226.276 16.0124 231.179 19.2213C236.081 22.4301 238.532 27.1989 238.532 33.5275C238.532 39.6778 237.017 44.8031 233.987 48.9033C231.045 53.0035 227.079 56.0787 222.087 58.1288C217.185 60.1789 211.747 61.204 205.775 61.204L208.316 59.3321C216.427 59.3321 222.845 60.9811 227.569 64.2791C232.293 67.5772 234.655 72.5687 234.655 79.2539C234.655 85.4042 233.095 90.6186 229.975 94.8971C226.856 99.1756 222.399 102.429 216.605 104.657C210.811 106.886 203.77 108 195.48 108H154.433ZM159.781 103.989H196.149C207.023 103.989 215.402 101.894 221.285 97.7049C227.168 93.5155 230.109 87.4543 230.109 79.5213C230.109 73.3709 227.97 69.0033 223.691 66.4184C219.502 63.7443 213.263 62.4073 204.973 62.4073H167.135L167.937 58.5299H202.433C208.494 58.5299 213.887 57.6386 218.611 55.8559C223.335 53.984 227.034 51.2654 229.708 47.7C232.471 44.0454 233.853 39.5441 233.853 34.196C233.853 28.937 231.803 25.0151 227.702 22.4301C223.602 19.7561 217.853 18.419 210.455 18.419H176.895L159.781 103.989ZM252.036 108L270.755 14.408H275.301L256.582 108H252.036ZM296.832 83.9335L297.902 77.6494L372.107 14.408H378.391L327.45 57.7277L325.177 59.7332L296.832 83.9335ZM288.141 108L306.86 14.408H311.406L292.687 108H288.141ZM357.266 108L323.172 58.5299L326.648 55.9896L362.48 108H357.266ZM392.331 58.3962H443.941L443.139 62.541H391.529L392.331 58.3962ZM384.042 103.855H442.871L441.935 108H378.694L397.412 14.408H458.648L457.846 18.5527H401.022L384.042 103.855Z" fill="#DC1405"/>
<path d="M505.799 58.3962H557.408L556.606 62.541H504.997L505.799 58.3962ZM497.51 103.855H556.339L555.403 108H492.161L510.88 14.408H572.116L571.314 18.5527H514.49L497.51 103.855ZM574.314 74.4406L575.116 70.4295H608.943L608.14 74.4406H574.314ZM624.433 108L643.152 14.408H680.99C689.547 14.408 696.276 16.0124 701.179 19.2213C706.081 22.4301 708.532 27.1989 708.532 33.5275C708.532 39.6778 707.017 44.8031 703.987 48.9033C701.045 53.0035 697.079 56.0787 692.087 58.1288C687.185 60.1789 681.747 61.204 675.775 61.204L678.316 59.3321C686.427 59.3321 692.845 60.9811 697.569 64.2791C702.293 67.5772 704.655 72.5687 704.655 79.2539C704.655 85.4042 703.095 90.6186 699.975 94.8971C696.856 99.1756 692.399 102.429 686.605 104.657C680.811 106.886 673.77 108 665.48 108H624.433ZM629.781 103.989H666.149C677.023 103.989 685.402 101.894 691.285 97.7049C697.168 93.5155 700.109 87.4543 700.109 79.5213C700.109 73.3709 697.97 69.0033 693.691 66.4184C689.502 63.7443 683.263 62.4073 674.973 62.4073H637.135L637.937 58.5299H672.433C678.494 58.5299 683.887 57.6386 688.611 55.8559C693.335 53.984 697.034 51.2654 699.708 47.7C702.471 44.0454 703.853 39.5441 703.853 34.196C703.853 28.937 701.803 25.0151 697.702 22.4301C693.602 19.7561 687.853 18.419 680.455 18.419H646.895L629.781 103.989ZM722.036 108L740.755 14.408H745.301L726.582 108H722.036ZM766.832 83.9335L767.902 77.6494L842.107 14.408H848.391L797.45 57.7277L795.177 59.7332L766.832 83.9335ZM758.141 108L776.86 14.408H781.406L762.687 108H758.141ZM827.266 108L793.172 58.5299L796.648 55.9896L832.48 108H827.266ZM862.331 58.3962H913.941L913.139 62.541H861.529L862.331 58.3962ZM854.042 103.855H912.871L911.935 108H848.694L867.412 14.408H928.648L927.846 18.5527H871.022L854.042 103.855Z" fill="#DC1405"/>
<path d="M975.799 58.3962H1027.41L1026.61 62.541H974.997L975.799 58.3962ZM967.51 103.855H1026.34L1025.4 108H962.161L980.88 14.408H1042.12L1041.31 18.5527H984.49L967.51 103.855ZM1044.31 74.4406L1045.12 70.4295H1078.94L1078.14 74.4406H1044.31ZM1094.43 108L1113.15 14.408H1150.99C1159.55 14.408 1166.28 16.0124 1171.18 19.2213C1176.08 22.4301 1178.53 27.1989 1178.53 33.5275C1178.53 39.6778 1177.02 44.8031 1173.99 48.9033C1171.05 53.0035 1167.08 56.0787 1162.09 58.1288C1157.18 60.1789 1151.75 61.204 1145.78 61.204L1148.32 59.3321C1156.43 59.3321 1162.84 60.9811 1167.57 64.2791C1172.29 67.5772 1174.66 72.5687 1174.66 79.2539C1174.66 85.4042 1173.1 90.6186 1169.98 94.8971C1166.86 99.1756 1162.4 102.429 1156.61 104.657C1150.81 106.886 1143.77 108 1135.48 108H1094.43ZM1099.78 103.989H1136.15C1147.02 103.989 1155.4 101.894 1161.28 97.7049C1167.17 93.5155 1170.11 87.4543 1170.11 79.5213C1170.11 73.3709 1167.97 69.0033 1163.69 66.4184C1159.5 63.7443 1153.26 62.4073 1144.97 62.4073H1107.14L1107.94 58.5299H1142.43C1148.49 58.5299 1153.89 57.6386 1158.61 55.8559C1163.33 53.984 1167.03 51.2654 1169.71 47.7C1172.47 44.0454 1173.85 39.5441 1173.85 34.196C1173.85 28.937 1171.8 25.0151 1167.7 22.4301C1163.6 19.7561 1157.85 18.419 1150.45 18.419H1116.9L1099.78 103.989ZM1192.04 108L1210.75 14.408H1215.3L1196.58 108H1192.04ZM1236.83 83.9335L1237.9 77.6494L1312.11 14.408H1318.39L1267.45 57.7277L1265.18 59.7332L1236.83 83.9335ZM1228.14 108L1246.86 14.408H1251.41L1232.69 108H1228.14ZM1297.27 108L1263.17 58.5299L1266.65 55.9896L1302.48 108H1297.27ZM1332.33 58.3962H1383.94L1383.14 62.541H1331.53L1332.33 58.3962ZM1324.04 103.855H1382.87L1381.94 108H1318.69L1337.41 14.408H1398.65L1397.85 18.5527H1341.02L1324.04 103.855Z" fill="#DC1405"/>
<path d="M1445.8 58.3962H1497.41L1496.61 62.541H1445L1445.8 58.3962ZM1437.51 103.855H1496.34L1495.4 108H1432.16L1450.88 14.408H1512.12L1511.31 18.5527H1454.49L1437.51 103.855ZM1514.31 74.4406L1515.12 70.4295H1548.94L1548.14 74.4406H1514.31ZM1564.43 108L1583.15 14.408H1620.99C1629.55 14.408 1636.28 16.0124 1641.18 19.2213C1646.08 22.4301 1648.53 27.1989 1648.53 33.5275C1648.53 39.6778 1647.02 44.8031 1643.99 48.9033C1641.05 53.0035 1637.08 56.0787 1632.09 58.1288C1627.18 60.1789 1621.75 61.204 1615.78 61.204L1618.32 59.3321C1626.43 59.3321 1632.84 60.9811 1637.57 64.2791C1642.29 67.5772 1644.66 72.5687 1644.66 79.2539C1644.66 85.4042 1643.1 90.6186 1639.98 94.8971C1636.86 99.1756 1632.4 102.429 1626.61 104.657C1620.81 106.886 1613.77 108 1605.48 108H1564.43ZM1569.78 103.989H1606.15C1617.02 103.989 1625.4 101.894 1631.28 97.7049C1637.17 93.5155 1640.11 87.4543 1640.11 79.5213C1640.11 73.3709 1637.97 69.0033 1633.69 66.4184C1629.5 63.7443 1623.26 62.4073 1614.97 62.4073H1577.14L1577.94 58.5299H1612.43C1618.49 58.5299 1623.89 57.6386 1628.61 55.8559C1633.33 53.984 1637.03 51.2654 1639.71 47.7C1642.47 44.0454 1643.85 39.5441 1643.85 34.196C1643.85 28.937 1641.8 25.0151 1637.7 22.4301C1633.6 19.7561 1627.85 18.419 1620.45 18.419H1586.9L1569.78 103.989ZM1662.04 108L1680.75 14.408H1685.3L1666.58 108H1662.04ZM1706.83 83.9335L1707.9 77.6494L1782.11 14.408H1788.39L1737.45 57.7277L1735.18 59.7332L1706.83 83.9335ZM1698.14 108L1716.86 14.408H1721.41L1702.69 108H1698.14ZM1767.27 108L1733.17 58.5299L1736.65 55.9896L1772.48 108H1767.27ZM1802.33 58.3962H1853.94L1853.14 62.541H1801.53L1802.33 58.3962ZM1794.04 103.855H1852.87L1851.94 108H1788.69L1807.41 14.408H1868.65L1867.85 18.5527H1811.02L1794.04 103.855Z" fill="#DC1405"/>
<path d="M1915.8 58.3962H1967.41L1966.61 62.541H1915L1915.8 58.3962ZM1907.51 103.855H1966.34L1965.4 108H1902.16L1920.88 14.408H1982.12L1981.31 18.5527H1924.49L1907.51 103.855ZM1984.31 74.4406L1985.12 70.4295H2018.94L2018.14 74.4406H1984.31ZM2034.43 108L2053.15 14.408H2090.99C2099.55 14.408 2106.28 16.0124 2111.18 19.2213C2116.08 22.4301 2118.53 27.1989 2118.53 33.5275C2118.53 39.6778 2117.02 44.8031 2113.99 48.9033C2111.05 53.0035 2107.08 56.0787 2102.09 58.1288C2097.18 60.1789 2091.75 61.204 2085.78 61.204L2088.32 59.3321C2096.43 59.3321 2102.84 60.9811 2107.57 64.2791C2112.29 67.5772 2114.66 72.5687 2114.66 79.2539C2114.66 85.4042 2113.1 90.6186 2109.98 94.8971C2106.86 99.1756 2102.4 102.429 2096.61 104.657C2090.81 106.886 2083.77 108 2075.48 108H2034.43ZM2039.78 103.989H2076.15C2087.02 103.989 2095.4 101.894 2101.28 97.7049C2107.17 93.5155 2110.11 87.4543 2110.11 79.5213C2110.11 73.3709 2107.97 69.0033 2103.69 66.4184C2099.5 63.7443 2093.26 62.4073 2084.97 62.4073H2047.14L2047.94 58.5299H2082.43C2088.49 58.5299 2093.89 57.6386 2098.61 55.8559C2103.33 53.984 2107.03 51.2654 2109.71 47.7C2112.47 44.0454 2113.85 39.5441 2113.85 34.196C2113.85 28.937 2111.8 25.0151 2107.7 22.4301C2103.6 19.7561 2097.85 18.419 2090.45 18.419H2056.9L2039.78 103.989ZM2132.04 108L2150.75 14.408H2155.3L2136.58 108H2132.04ZM2176.83 83.9335L2177.9 77.6494L2252.11 14.408H2258.39L2207.45 57.7277L2205.18 59.7332L2176.83 83.9335ZM2168.14 108L2186.86 14.408H2191.41L2172.69 108H2168.14ZM2237.27 108L2203.17 58.5299L2206.65 55.9896L2242.48 108H2237.27ZM2272.33 58.3962H2323.94L2323.14 62.541H2271.53L2272.33 58.3962ZM2264.04 103.855H2322.87L2321.94 108H2258.69L2277.41 14.408H2338.65L2337.85 18.5527H2281.02L2264.04 103.855Z" fill="#DC1405"/>
</svg>
