<svg width="2553" height="120" viewBox="0 0 2553 120" fill="none" xmlns="http://www.w3.org/2000/svg">
<path d="M104.79 39.6778C104.79 49.4827 102.16 57.4157 96.9014 63.4769C91.6424 69.5381 84.2441 73.5046 74.7067 75.3765L93.1577 108H88.2107L70.0271 76.045C67.4421 76.3124 64.8127 76.4461 62.1386 76.4461H32.9914L26.7073 108H22.1614L40.8798 14.408H72.9685C83.0408 14.408 90.8402 16.6363 96.3665 21.0931C101.982 25.4607 104.79 31.6556 104.79 39.6778ZM62.0049 72.435C74.2164 72.435 83.6202 69.6718 90.2162 64.1454C96.9014 58.6191 100.244 50.5523 100.244 39.9452C100.244 33.0818 97.8818 27.8228 93.1577 24.1683C88.4335 20.4246 81.6592 18.5527 72.8348 18.5527H44.6235L33.7936 72.435H62.0049ZM157.037 108.535C148.035 108.535 140.325 106.975 133.907 103.855C127.578 100.646 122.765 96.1896 119.467 90.4849C116.169 84.6911 114.52 78.006 114.52 70.4295C114.52 60.2681 116.793 50.8643 121.339 42.2182C125.974 33.572 132.525 26.7086 140.993 21.6279C149.461 16.4581 159.266 13.8731 170.408 13.8731C179.41 13.8731 187.076 15.4776 193.405 18.6864C199.733 21.8062 204.546 26.263 207.844 32.0567C211.142 37.7614 212.791 44.402 212.791 51.9785C212.791 62.1399 210.519 71.5437 205.973 80.1898C201.427 88.8359 194.92 95.7439 186.452 100.914C177.984 105.994 168.179 108.535 157.037 108.535ZM157.438 104.39C167.422 104.39 176.246 102.028 183.912 97.3038C191.666 92.5796 197.638 86.251 201.828 78.318C206.106 70.2958 208.246 61.5605 208.246 52.1122C208.246 41.6834 204.948 33.3938 198.352 27.2434C191.756 21.0931 182.307 18.0179 170.007 18.0179C159.934 18.0179 151.021 20.38 143.266 25.1042C135.6 29.8284 129.628 36.2015 125.35 44.2237C121.16 52.1567 119.066 60.8474 119.066 70.2958C119.066 80.6355 122.364 88.9251 128.96 95.1645C135.645 101.315 145.138 104.39 157.438 104.39ZM286.615 80.5909H230.326L212.277 108H207.196L269.234 14.408H273.646L298.247 108H293.702L286.615 80.5909ZM285.546 76.7135L270.705 19.355L232.867 76.7135H285.546ZM332.514 14.408H366.608C375.789 14.408 383.589 15.9678 390.006 19.0876C396.513 22.2073 401.416 26.6195 404.714 32.3241C408.101 37.9397 409.794 44.4911 409.794 51.9785C409.794 62.853 407.388 72.5242 402.574 80.992C397.85 89.4599 391.076 96.1004 382.252 100.914C373.427 105.638 363.177 108 351.5 108H313.796L332.514 14.408ZM351.901 103.855C362.597 103.855 372.001 101.671 380.112 97.3038C388.224 92.847 394.463 86.7412 398.831 78.9865C403.198 71.1426 405.382 62.1845 405.382 52.1122C405.382 41.7725 402.04 33.6166 395.354 27.6445C388.669 21.5833 378.954 18.5527 366.207 18.5527H336.124L319.144 103.855H351.901Z" fill="#DC1405"/>
<path d="M531.79 39.6778C531.79 49.4827 529.16 57.4157 523.901 63.4769C518.642 69.5381 511.244 73.5046 501.707 75.3765L520.158 108H515.211L497.027 76.045C494.442 76.3124 491.813 76.4461 489.139 76.4461H459.991L453.707 108H449.161L467.88 14.408H499.969C510.041 14.408 517.84 16.6363 523.367 21.0931C528.982 25.4607 531.79 31.6556 531.79 39.6778ZM489.005 72.435C501.216 72.435 510.62 69.6718 517.216 64.1454C523.901 58.6191 527.244 50.5523 527.244 39.9452C527.244 33.0818 524.882 27.8228 520.158 24.1683C515.434 20.4246 508.659 18.5527 499.835 18.5527H471.624L460.794 72.435H489.005ZM584.037 108.535C575.035 108.535 567.325 106.975 560.907 103.855C554.578 100.646 549.765 96.1896 546.467 90.4849C543.169 84.6911 541.52 78.006 541.52 70.4295C541.52 60.2681 543.793 50.8643 548.339 42.2182C552.974 33.572 559.525 26.7086 567.993 21.6279C576.461 16.4581 586.266 13.8731 597.408 13.8731C606.41 13.8731 614.076 15.4776 620.405 18.6864C626.733 21.8062 631.546 26.263 634.844 32.0567C638.142 37.7614 639.791 44.402 639.791 51.9785C639.791 62.1399 637.519 71.5437 632.973 80.1898C628.427 88.8359 621.92 95.7439 613.452 100.914C604.984 105.994 595.179 108.535 584.037 108.535ZM584.438 104.39C594.422 104.39 603.246 102.028 610.912 97.3038C618.666 92.5796 624.638 86.251 628.828 78.318C633.106 70.2958 635.246 61.5605 635.246 52.1122C635.246 41.6834 631.948 33.3938 625.352 27.2434C618.756 21.0931 609.307 18.0179 597.007 18.0179C586.934 18.0179 578.021 20.38 570.266 25.1042C562.6 29.8284 556.628 36.2015 552.35 44.2237C548.16 52.1567 546.066 60.8474 546.066 70.2958C546.066 80.6355 549.364 88.9251 555.96 95.1645C562.645 101.315 572.138 104.39 584.438 104.39ZM713.615 80.5909H657.326L639.277 108H634.196L696.234 14.408H700.646L725.247 108H720.702L713.615 80.5909ZM712.546 76.7135L697.705 19.355L659.867 76.7135H712.546ZM759.514 14.408H793.608C802.789 14.408 810.589 15.9678 817.006 19.0876C823.513 22.2073 828.416 26.6195 831.714 32.3241C835.101 37.9397 836.794 44.4911 836.794 51.9785C836.794 62.853 834.388 72.5242 829.574 80.992C824.85 89.4599 818.076 96.1004 809.252 100.914C800.427 105.638 790.177 108 778.5 108H740.796L759.514 14.408ZM778.901 103.855C789.597 103.855 799.001 101.671 807.112 97.3038C815.224 92.847 821.463 86.7412 825.831 78.9865C830.198 71.1426 832.382 62.1845 832.382 52.1122C832.382 41.7725 829.04 33.6166 822.354 27.6445C815.669 21.5833 805.954 18.5527 793.207 18.5527H763.124L746.144 103.855H778.901Z" fill="#DC1405"/>
<path d="M958.79 39.6778C958.79 49.4827 956.16 57.4157 950.901 63.4769C945.642 69.5381 938.244 73.5046 928.707 75.3765L947.158 108H942.211L924.027 76.045C921.442 76.3124 918.813 76.4461 916.139 76.4461H886.991L880.707 108H876.161L894.88 14.408H926.969C937.041 14.408 944.84 16.6363 950.367 21.0931C955.982 25.4607 958.79 31.6556 958.79 39.6778ZM916.005 72.435C928.216 72.435 937.62 69.6718 944.216 64.1454C950.901 58.6191 954.244 50.5523 954.244 39.9452C954.244 33.0818 951.882 27.8228 947.158 24.1683C942.434 20.4246 935.659 18.5527 926.835 18.5527H898.624L887.794 72.435H916.005ZM1011.04 108.535C1002.03 108.535 994.325 106.975 987.907 103.855C981.578 100.646 976.765 96.1896 973.467 90.4849C970.169 84.6911 968.52 78.006 968.52 70.4295C968.52 60.2681 970.793 50.8643 975.339 42.2182C979.974 33.572 986.525 26.7086 994.993 21.6279C1003.46 16.4581 1013.27 13.8731 1024.41 13.8731C1033.41 13.8731 1041.08 15.4776 1047.4 18.6864C1053.73 21.8062 1058.55 26.263 1061.84 32.0567C1065.14 37.7614 1066.79 44.402 1066.79 51.9785C1066.79 62.1399 1064.52 71.5437 1059.97 80.1898C1055.43 88.8359 1048.92 95.7439 1040.45 100.914C1031.98 105.994 1022.18 108.535 1011.04 108.535ZM1011.44 104.39C1021.42 104.39 1030.25 102.028 1037.91 97.3038C1045.67 92.5796 1051.64 86.251 1055.83 78.318C1060.11 70.2958 1062.25 61.5605 1062.25 52.1122C1062.25 41.6834 1058.95 33.3938 1052.35 27.2434C1045.76 21.0931 1036.31 18.0179 1024.01 18.0179C1013.93 18.0179 1005.02 20.38 997.266 25.1042C989.6 29.8284 983.628 36.2015 979.35 44.2237C975.16 52.1567 973.066 60.8474 973.066 70.2958C973.066 80.6355 976.364 88.9251 982.96 95.1645C989.645 101.315 999.138 104.39 1011.44 104.39ZM1140.62 80.5909H1084.33L1066.28 108H1061.2L1123.23 14.408H1127.65L1152.25 108H1147.7L1140.62 80.5909ZM1139.55 76.7135L1124.7 19.355L1086.87 76.7135H1139.55ZM1186.51 14.408H1220.61C1229.79 14.408 1237.59 15.9678 1244.01 19.0876C1250.51 22.2073 1255.42 26.6195 1258.71 32.3241C1262.1 37.9397 1263.79 44.4911 1263.79 51.9785C1263.79 62.853 1261.39 72.5242 1256.57 80.992C1251.85 89.4599 1245.08 96.1004 1236.25 100.914C1227.43 105.638 1217.18 108 1205.5 108H1167.8L1186.51 14.408ZM1205.9 103.855C1216.6 103.855 1226 101.671 1234.11 97.3038C1242.22 92.847 1248.46 86.7412 1252.83 78.9865C1257.2 71.1426 1259.38 62.1845 1259.38 52.1122C1259.38 41.7725 1256.04 33.6166 1249.35 27.6445C1242.67 21.5833 1232.95 18.5527 1220.21 18.5527H1190.12L1173.14 103.855H1205.9Z" fill="#DC1405"/>
<path d="M1303.16 108L1321.88 14.408H1353.97C1364.04 14.408 1371.84 16.6363 1377.37 21.0931C1382.98 25.4607 1385.79 31.6556 1385.79 39.6778C1385.79 47.7 1384.05 54.4743 1380.58 60.0007C1377.1 65.4379 1372.15 69.5381 1365.73 72.3013C1359.41 75.0645 1351.87 76.4461 1343.14 76.4461H1311.99L1314.39 74.4406L1307.71 108H1303.16ZM1369.21 108L1349.96 74.0395H1355.04L1374.16 108H1369.21ZM1314.39 74.4406L1312.79 72.435H1343C1355.13 72.435 1364.53 69.7164 1371.22 64.2791C1377.9 58.8419 1381.24 50.7306 1381.24 39.9452C1381.24 33.0818 1378.88 27.8228 1374.16 24.1683C1369.43 20.4246 1362.66 18.5527 1353.83 18.5527H1323.62L1326.02 16.4135L1314.39 74.4406ZM1438.04 108.535C1428.86 108.535 1421.1 106.93 1414.77 103.722C1408.53 100.513 1403.76 96.0559 1400.47 90.3512C1397.17 84.5574 1395.52 77.9168 1395.52 70.4295C1395.52 62.853 1396.81 55.6776 1399.4 48.9033C1401.98 42.129 1405.68 36.1124 1410.49 30.8534C1415.31 25.5944 1421.15 21.4496 1428.01 18.419C1434.96 15.3884 1442.76 13.8731 1451.41 13.8731C1460.5 13.8731 1468.21 15.4776 1474.54 18.6864C1480.87 21.8953 1485.64 26.3521 1488.84 32.0567C1492.14 37.7614 1493.79 44.402 1493.79 51.9785C1493.79 59.555 1492.5 66.7304 1489.91 73.5046C1487.42 80.2789 1483.72 86.2956 1478.82 91.5545C1474 96.8135 1468.17 100.958 1461.3 103.989C1454.44 107.02 1446.68 108.535 1438.04 108.535ZM1438.44 104.39C1446.19 104.39 1453.19 103.008 1459.43 100.245C1465.67 97.482 1470.97 93.6938 1475.34 88.8805C1479.8 84.0672 1483.23 78.4962 1485.64 72.1676C1488.04 65.839 1489.25 59.1539 1489.25 52.1122C1489.25 45.3379 1487.82 39.4104 1484.97 34.3297C1482.11 29.249 1477.84 25.2825 1472.13 22.4301C1466.43 19.4887 1459.39 18.0179 1451.01 18.0179C1443.25 18.0179 1436.21 19.3995 1429.88 22.1627C1423.64 24.9259 1418.29 28.7142 1413.84 33.5275C1409.47 38.3408 1406.08 43.9117 1403.68 50.2403C1401.27 56.5689 1400.07 63.2541 1400.07 70.2958C1400.07 76.9809 1401.49 82.9084 1404.34 88.0783C1407.29 93.159 1411.56 97.1701 1417.18 100.112C1422.88 102.964 1429.97 104.39 1438.44 104.39ZM1488.2 108L1550.23 14.408H1554.65L1579.25 108H1574.7L1551.17 17.4831H1553.04L1493.28 108H1488.2ZM1508.65 80.5909L1511.19 76.7135H1568.42L1569.35 80.5909H1508.65ZM1594.8 108L1613.51 14.408H1647.61C1656.97 14.408 1664.86 15.9678 1671.27 19.0876C1677.69 22.2073 1682.55 26.6195 1685.85 32.3241C1689.15 37.9397 1690.79 44.4911 1690.79 51.9785C1690.79 60.0898 1689.41 67.5772 1686.65 74.4406C1683.98 81.304 1680.1 87.2315 1675.02 92.2231C1669.94 97.2146 1663.79 101.092 1656.57 103.855C1649.44 106.618 1641.41 108 1632.5 108H1594.8ZM1600.14 103.855H1632.9C1643.86 103.855 1653.31 101.671 1661.25 97.3038C1669.18 92.847 1675.33 86.7412 1679.7 78.9865C1684.15 71.1426 1686.38 62.1845 1686.38 52.1122C1686.38 45.427 1684.91 39.5441 1681.97 34.4634C1679.12 29.3827 1674.79 25.4607 1669 22.6975C1663.21 19.9343 1655.94 18.5527 1647.21 18.5527H1617.12L1600.14 103.855Z" fill="#DC1405"/>
<path d="M1727.16 108L1745.88 14.408H1777.97C1788.04 14.408 1795.84 16.6363 1801.37 21.0931C1806.98 25.4607 1809.79 31.6556 1809.79 39.6778C1809.79 47.7 1808.05 54.4743 1804.58 60.0007C1801.1 65.4379 1796.15 69.5381 1789.73 72.3013C1783.41 75.0645 1775.87 76.4461 1767.14 76.4461H1735.99L1738.39 74.4406L1731.71 108H1727.16ZM1793.21 108L1773.96 74.0395H1779.04L1798.16 108H1793.21ZM1738.39 74.4406L1736.79 72.435H1767C1779.13 72.435 1788.53 69.7164 1795.22 64.2791C1801.9 58.8419 1805.24 50.7306 1805.24 39.9452C1805.24 33.0818 1802.88 27.8228 1798.16 24.1683C1793.43 20.4246 1786.66 18.5527 1777.83 18.5527H1747.62L1750.02 16.4135L1738.39 74.4406ZM1862.04 108.535C1852.86 108.535 1845.1 106.93 1838.77 103.722C1832.53 100.513 1827.76 96.0559 1824.47 90.3512C1821.17 84.5574 1819.52 77.9168 1819.52 70.4295C1819.52 62.853 1820.81 55.6776 1823.4 48.9033C1825.98 42.129 1829.68 36.1124 1834.49 30.8534C1839.31 25.5944 1845.15 21.4496 1852.01 18.419C1858.96 15.3884 1866.76 13.8731 1875.41 13.8731C1884.5 13.8731 1892.21 15.4776 1898.54 18.6864C1904.87 21.8953 1909.64 26.3521 1912.84 32.0567C1916.14 37.7614 1917.79 44.402 1917.79 51.9785C1917.79 59.555 1916.5 66.7304 1913.91 73.5046C1911.42 80.2789 1907.72 86.2956 1902.82 91.5545C1898 96.8135 1892.17 100.958 1885.3 103.989C1878.44 107.02 1870.68 108.535 1862.04 108.535ZM1862.44 104.39C1870.19 104.39 1877.19 103.008 1883.43 100.245C1889.67 97.482 1894.97 93.6938 1899.34 88.8805C1903.8 84.0672 1907.23 78.4962 1909.64 72.1676C1912.04 65.839 1913.25 59.1539 1913.25 52.1122C1913.25 45.3379 1911.82 39.4104 1908.97 34.3297C1906.11 29.249 1901.84 25.2825 1896.13 22.4301C1890.43 19.4887 1883.39 18.0179 1875.01 18.0179C1867.25 18.0179 1860.21 19.3995 1853.88 22.1627C1847.64 24.9259 1842.29 28.7142 1837.84 33.5275C1833.47 38.3408 1830.08 43.9117 1827.68 50.2403C1825.27 56.5689 1824.07 63.2541 1824.07 70.2958C1824.07 76.9809 1825.49 82.9084 1828.34 88.0783C1831.29 93.159 1835.56 97.1701 1841.18 100.112C1846.88 102.964 1853.97 104.39 1862.44 104.39ZM1912.2 108L1974.23 14.408H1978.65L2003.25 108H1998.7L1975.17 17.4831H1977.04L1917.28 108H1912.2ZM1932.65 80.5909L1935.19 76.7135H1992.42L1993.35 80.5909H1932.65ZM2018.8 108L2037.51 14.408H2071.61C2080.97 14.408 2088.86 15.9678 2095.27 19.0876C2101.69 22.2073 2106.55 26.6195 2109.85 32.3241C2113.15 37.9397 2114.79 44.4911 2114.79 51.9785C2114.79 60.0898 2113.41 67.5772 2110.65 74.4406C2107.98 81.304 2104.1 87.2315 2099.02 92.2231C2093.94 97.2146 2087.79 101.092 2080.57 103.855C2073.44 106.618 2065.41 108 2056.5 108H2018.8ZM2024.14 103.855H2056.9C2067.86 103.855 2077.31 101.671 2085.25 97.3038C2093.18 92.847 2099.33 86.7412 2103.7 78.9865C2108.15 71.1426 2110.38 62.1845 2110.38 52.1122C2110.38 45.427 2108.91 39.5441 2105.97 34.4634C2103.12 29.3827 2098.79 25.4607 2093 22.6975C2087.21 19.9343 2079.94 18.5527 2071.21 18.5527H2041.12L2024.14 103.855Z" fill="#DC1405"/>
<path d="M2151.16 108L2169.88 14.408H2201.97C2212.04 14.408 2219.84 16.6363 2225.37 21.0931C2230.98 25.4607 2233.79 31.6556 2233.79 39.6778C2233.79 47.7 2232.05 54.4743 2228.58 60.0007C2225.1 65.4379 2220.15 69.5381 2213.73 72.3013C2207.41 75.0645 2199.87 76.4461 2191.14 76.4461H2159.99L2162.39 74.4406L2155.71 108H2151.16ZM2217.21 108L2197.96 74.0395H2203.04L2222.16 108H2217.21ZM2162.39 74.4406L2160.79 72.435H2191C2203.13 72.435 2212.53 69.7164 2219.22 64.2791C2225.9 58.8419 2229.24 50.7306 2229.24 39.9452C2229.24 33.0818 2226.88 27.8228 2222.16 24.1683C2217.43 20.4246 2210.66 18.5527 2201.83 18.5527H2171.62L2174.02 16.4135L2162.39 74.4406ZM2286.04 108.535C2276.86 108.535 2269.1 106.93 2262.77 103.722C2256.53 100.513 2251.76 96.0559 2248.47 90.3512C2245.17 84.5574 2243.52 77.9168 2243.52 70.4295C2243.52 62.853 2244.81 55.6776 2247.4 48.9033C2249.98 42.129 2253.68 36.1124 2258.49 30.8534C2263.31 25.5944 2269.15 21.4496 2276.01 18.419C2282.96 15.3884 2290.76 13.8731 2299.41 13.8731C2308.5 13.8731 2316.21 15.4776 2322.54 18.6864C2328.87 21.8953 2333.64 26.3521 2336.84 32.0567C2340.14 37.7614 2341.79 44.402 2341.79 51.9785C2341.79 59.555 2340.5 66.7304 2337.91 73.5046C2335.42 80.2789 2331.72 86.2956 2326.82 91.5545C2322 96.8135 2316.17 100.958 2309.3 103.989C2302.44 107.02 2294.68 108.535 2286.04 108.535ZM2286.44 104.39C2294.19 104.39 2301.19 103.008 2307.43 100.245C2313.67 97.482 2318.97 93.6938 2323.34 88.8805C2327.8 84.0672 2331.23 78.4962 2333.64 72.1676C2336.04 65.839 2337.25 59.1539 2337.25 52.1122C2337.25 45.3379 2335.82 39.4104 2332.97 34.3297C2330.11 29.249 2325.84 25.2825 2320.13 22.4301C2314.43 19.4887 2307.39 18.0179 2299.01 18.0179C2291.25 18.0179 2284.21 19.3995 2277.88 22.1627C2271.64 24.9259 2266.29 28.7142 2261.84 33.5275C2257.47 38.3408 2254.08 43.9117 2251.68 50.2403C2249.27 56.5689 2248.07 63.2541 2248.07 70.2958C2248.07 76.9809 2249.49 82.9084 2252.34 88.0783C2255.29 93.159 2259.56 97.1701 2265.18 100.112C2270.88 102.964 2277.97 104.39 2286.44 104.39ZM2336.2 108L2398.23 14.408H2402.65L2427.25 108H2422.7L2399.17 17.4831H2401.04L2341.28 108H2336.2ZM2356.65 80.5909L2359.19 76.7135H2416.42L2417.35 80.5909H2356.65ZM2442.8 108L2461.51 14.408H2495.61C2504.97 14.408 2512.86 15.9678 2519.27 19.0876C2525.69 22.2073 2530.55 26.6195 2533.85 32.3241C2537.15 37.9397 2538.79 44.4911 2538.79 51.9785C2538.79 60.0898 2537.41 67.5772 2534.65 74.4406C2531.98 81.304 2528.1 87.2315 2523.02 92.2231C2517.94 97.2146 2511.79 101.092 2504.57 103.855C2497.44 106.618 2489.41 108 2480.5 108H2442.8ZM2448.14 103.855H2480.9C2491.86 103.855 2501.31 101.671 2509.25 97.3038C2517.18 92.847 2523.33 86.7412 2527.7 78.9865C2532.15 71.1426 2534.38 62.1845 2534.38 52.1122C2534.38 45.427 2532.91 39.5441 2529.97 34.4634C2527.12 29.3827 2522.79 25.4607 2517 22.6975C2511.21 19.9343 2503.94 18.5527 2495.21 18.5527H2465.12L2448.14 103.855Z" fill="#DC1405"/>
</svg>
