<svg width="2241" height="120" viewBox="0 0 2241 120" fill="none" xmlns="http://www.w3.org/2000/svg">
<path d="M63.743 108.535C54.7404 108.535 47.0302 106.975 40.6124 103.855C34.2838 100.646 29.4705 96.1896 26.1725 90.4849C22.8745 84.6911 21.2255 78.006 21.2255 70.4295C21.2255 60.2681 23.4985 50.8643 28.0444 42.2182C32.6794 33.572 39.2308 26.7086 47.6987 21.6279C56.1665 16.4581 65.9714 13.8731 77.1133 13.8731C86.116 13.8731 93.7816 15.4776 100.11 18.6864C106.439 21.8062 111.252 26.263 114.55 32.0567C117.848 37.7614 119.497 44.402 119.497 51.9785C119.497 62.1399 117.224 71.5437 112.678 80.1898C108.132 88.8359 101.626 95.7439 93.1577 100.914C84.6898 105.994 74.8849 108.535 63.743 108.535ZM64.1441 104.39C74.1273 104.39 82.9517 102.028 90.6173 97.3038C98.3721 92.5796 104.344 86.251 108.534 78.318C112.812 70.2958 114.951 61.5605 114.951 52.1122C114.951 41.6834 111.653 33.3938 105.057 27.2434C98.4612 21.0931 89.0129 18.0179 76.7122 18.0179C66.6399 18.0179 57.7264 20.38 49.9716 25.1042C42.306 29.8284 36.3339 36.2015 32.0554 44.2237C27.8661 52.1567 25.7714 60.8474 25.7714 70.2958C25.7714 80.6355 29.0694 88.9251 35.6654 95.1645C42.3506 101.315 51.8435 104.39 64.1441 104.39ZM153.714 18.5527L145.157 61.3377H196.097L195.162 65.3488H144.354L135.931 108H131.385L150.104 14.408H211.34L210.537 18.5527H153.714ZM235.257 18.5527L226.7 61.3377H277.641L276.705 65.3488H225.897L217.474 108H212.928L231.647 14.408H292.883L292.08 18.5527H235.257ZM293.402 70.4295H327.229L326.426 74.4406H292.6L293.402 70.4295ZM425.348 39.6778C425.348 49.4827 422.718 57.4157 417.459 63.4769C412.2 69.5381 404.802 73.5046 395.265 75.3765L413.716 108H408.769L390.585 76.045C388 76.3124 385.371 76.4461 382.697 76.4461H353.549L347.265 108H342.719L361.438 14.408H393.526C403.599 14.408 411.398 16.6363 416.924 21.0931C422.54 25.4607 425.348 31.6556 425.348 39.6778ZM382.563 72.435C394.774 72.435 404.178 69.6718 410.774 64.1454C417.459 58.6191 420.802 50.5523 420.802 39.9452C420.802 33.0818 418.44 27.8228 413.716 24.1683C408.991 20.4246 402.217 18.5527 393.393 18.5527H365.181L354.352 72.435H382.563ZM477.595 108.535C468.593 108.535 460.882 106.975 454.465 103.855C448.136 100.646 443.323 96.1896 440.025 90.4849C436.727 84.6911 435.078 78.006 435.078 70.4295C435.078 60.2681 437.351 50.8643 441.897 42.2182C446.532 33.572 453.083 26.7086 461.551 21.6279C470.019 16.4581 479.824 13.8731 490.966 13.8731C499.968 13.8731 507.634 15.4776 513.963 18.6864C520.291 21.8062 525.104 26.263 528.402 32.0567C531.7 37.7614 533.349 44.402 533.349 51.9785C533.349 62.1399 531.076 71.5437 526.531 80.1898C521.985 88.8359 515.478 95.7439 507.01 100.914C498.542 105.994 488.737 108.535 477.595 108.535ZM477.996 104.39C487.98 104.39 496.804 102.028 504.47 97.3038C512.224 92.5796 518.196 86.251 522.386 78.318C526.664 70.2958 528.804 61.5605 528.804 52.1122C528.804 41.6834 525.506 33.3938 518.91 27.2434C512.314 21.0931 502.865 18.0179 490.565 18.0179C480.492 18.0179 471.579 20.38 463.824 25.1042C456.158 29.8284 450.186 36.2015 445.908 44.2237C441.718 52.1567 439.624 60.8474 439.624 70.2958C439.624 80.6355 442.922 88.9251 449.518 95.1645C456.203 101.315 465.696 104.39 477.996 104.39ZM607.173 80.5909H550.884L532.834 108H527.754L589.792 14.408H594.204L618.805 108H614.26L607.173 80.5909ZM606.104 76.7135L591.263 19.355L553.425 76.7135H606.104ZM653.072 14.408H687.166C696.347 14.408 704.147 15.9678 710.564 19.0876C717.071 22.2073 721.974 26.6195 725.272 32.3241C728.659 37.9397 730.352 44.4911 730.352 51.9785C730.352 62.853 727.946 72.5242 723.132 80.992C718.408 89.4599 711.634 96.1004 702.81 100.914C693.985 105.638 683.735 108 672.058 108H634.354L653.072 14.408ZM672.459 103.855C683.155 103.855 692.559 101.671 700.67 97.3038C708.782 92.847 715.021 86.7412 719.389 78.9865C723.756 71.1426 725.94 62.1845 725.94 52.1122C725.94 41.7725 722.598 33.6166 715.912 27.6445C709.227 21.5833 699.512 18.5527 686.765 18.5527H656.682L639.702 103.855H672.459Z" fill="#DC1405"/>
<path d="M810.743 108.535C801.562 108.535 793.807 106.93 787.479 103.722C781.239 100.513 776.471 96.0559 773.173 90.3512C769.875 84.5574 768.226 77.9168 768.226 70.4295C768.226 62.853 769.518 55.6776 772.103 48.9033C774.688 42.129 778.387 36.1124 783.2 30.8534C788.014 25.5944 793.852 21.4496 800.715 18.419C807.668 15.3884 815.467 13.8731 824.113 13.8731C833.205 13.8731 840.915 15.4776 847.244 18.6864C853.573 21.8953 858.341 26.3521 861.55 32.0567C864.848 37.7614 866.497 44.402 866.497 51.9785C866.497 59.555 865.205 66.7304 862.62 73.5046C860.124 80.2789 856.425 86.2956 851.522 91.5545C846.709 96.8135 840.871 100.958 834.007 103.989C827.144 107.02 819.389 108.535 810.743 108.535ZM811.144 104.39C818.899 104.39 825.896 103.008 832.135 100.245C838.375 97.482 843.679 93.6938 848.046 88.8805C852.503 84.0672 855.935 78.4962 858.341 72.1676C860.748 65.839 861.951 59.1539 861.951 52.1122C861.951 45.3379 860.525 39.4104 857.673 34.3297C854.82 29.249 850.542 25.2825 844.837 22.4301C839.133 19.4887 832.091 18.0179 823.712 18.0179C815.957 18.0179 808.916 19.3995 802.587 22.1627C796.348 24.9259 791 28.7142 786.543 33.5275C782.175 38.3408 778.788 43.9117 776.381 50.2403C773.975 56.5689 772.771 63.2541 772.771 70.2958C772.771 76.9809 774.198 82.9084 777.05 88.0783C779.991 93.159 784.27 97.1701 789.885 100.112C795.59 102.964 802.676 104.39 811.144 104.39ZM891.488 61.3377H943.097L942.162 65.3488H890.686L891.488 61.3377ZM882.931 108H878.385L897.104 14.408H958.34L957.537 18.5527H900.714L882.931 108ZM973.031 61.3377H1024.64L1023.7 65.3488H972.229L973.031 61.3377ZM964.474 108H959.928L978.647 14.408H1039.88L1039.08 18.5527H982.257L964.474 108ZM1039.6 74.4406L1040.4 70.4295H1074.23L1073.43 74.4406H1039.6ZM1089.72 108L1108.44 14.408H1140.53C1150.6 14.408 1158.4 16.6363 1163.92 21.0931C1169.54 25.4607 1172.35 31.6556 1172.35 39.6778C1172.35 47.7 1170.61 54.4743 1167.13 60.0007C1163.66 65.4379 1158.71 69.5381 1152.29 72.3013C1145.96 75.0645 1138.43 76.4461 1129.7 76.4461H1098.54L1100.95 74.4406L1094.27 108H1089.72ZM1155.77 108L1136.52 74.0395H1141.6L1160.72 108H1155.77ZM1100.95 74.4406L1099.35 72.435H1129.56C1141.69 72.435 1151.09 69.7164 1157.77 64.2791C1164.46 58.8419 1167.8 50.7306 1167.8 39.9452C1167.8 33.0818 1165.44 27.8228 1160.72 24.1683C1155.99 20.4246 1149.22 18.5527 1140.39 18.5527H1110.18L1112.58 16.4135L1100.95 74.4406ZM1224.6 108.535C1215.41 108.535 1207.66 106.93 1201.33 103.722C1195.09 100.513 1190.32 96.0559 1187.02 90.3512C1183.73 84.5574 1182.08 77.9168 1182.08 70.4295C1182.08 62.853 1183.37 55.6776 1185.96 48.9033C1188.54 42.129 1192.24 36.1124 1197.05 30.8534C1201.87 25.5944 1207.7 21.4496 1214.57 18.419C1221.52 15.3884 1229.32 13.8731 1237.97 13.8731C1247.06 13.8731 1254.77 15.4776 1261.1 18.6864C1267.42 21.8953 1272.19 26.3521 1275.4 32.0567C1278.7 37.7614 1280.35 44.402 1280.35 51.9785C1280.35 59.555 1279.06 66.7304 1276.47 73.5046C1273.98 80.2789 1270.28 86.2956 1265.37 91.5545C1260.56 96.8135 1254.72 100.958 1247.86 103.989C1241 107.02 1233.24 108.535 1224.6 108.535ZM1225 104.39C1232.75 104.39 1239.75 103.008 1245.99 100.245C1252.23 97.482 1257.53 93.6938 1261.9 88.8805C1266.36 84.0672 1269.79 78.4962 1272.19 72.1676C1274.6 65.839 1275.8 59.1539 1275.8 52.1122C1275.8 45.3379 1274.38 39.4104 1271.53 34.3297C1268.67 29.249 1264.39 25.2825 1258.69 22.4301C1252.98 19.4887 1245.94 18.0179 1237.56 18.0179C1229.81 18.0179 1222.77 19.3995 1216.44 22.1627C1210.2 24.9259 1204.85 28.7142 1200.4 33.5275C1196.03 38.3408 1192.64 43.9117 1190.23 50.2403C1187.83 56.5689 1186.62 63.2541 1186.62 70.2958C1186.62 76.9809 1188.05 82.9084 1190.9 88.0783C1193.84 93.159 1198.12 97.1701 1203.74 100.112C1209.44 102.964 1216.53 104.39 1225 104.39ZM1274.75 108L1336.79 14.408H1341.2L1365.81 108H1361.26L1337.73 17.4831H1339.6L1279.83 108H1274.75ZM1295.21 80.5909L1297.75 76.7135H1354.98L1355.91 80.5909H1295.21ZM1381.35 108L1400.07 14.408H1434.17C1443.53 14.408 1451.41 15.9678 1457.83 19.0876C1464.25 22.2073 1469.11 26.6195 1472.41 32.3241C1475.7 37.9397 1477.35 44.4911 1477.35 51.9785C1477.35 60.0898 1475.97 67.5772 1473.21 74.4406C1470.53 81.304 1466.66 87.2315 1461.58 92.2231C1456.49 97.2146 1450.34 101.092 1443.12 103.855C1435.99 106.618 1427.97 108 1419.06 108H1381.35ZM1386.7 103.855H1419.46C1430.42 103.855 1439.87 101.671 1447.8 97.3038C1455.74 92.847 1461.89 86.7412 1466.25 78.9865C1470.71 71.1426 1472.94 62.1845 1472.94 52.1122C1472.94 45.427 1471.47 39.5441 1468.53 34.4634C1465.68 29.3827 1461.35 25.4607 1455.56 22.6975C1449.76 19.9343 1442.5 18.5527 1433.77 18.5527H1403.68L1386.7 103.855Z" fill="#DC1405"/>
<path d="M1557.74 108.535C1548.56 108.535 1540.81 106.93 1534.48 103.722C1528.24 100.513 1523.47 96.0559 1520.17 90.3512C1516.87 84.5574 1515.23 77.9168 1515.23 70.4295C1515.23 62.853 1516.52 55.6776 1519.1 48.9033C1521.69 42.129 1525.39 36.1124 1530.2 30.8534C1535.01 25.5944 1540.85 21.4496 1547.72 18.419C1554.67 15.3884 1562.47 13.8731 1571.11 13.8731C1580.21 13.8731 1587.92 15.4776 1594.24 18.6864C1600.57 21.8953 1605.34 26.3521 1608.55 32.0567C1611.85 37.7614 1613.5 44.402 1613.5 51.9785C1613.5 59.555 1612.2 66.7304 1609.62 73.5046C1607.12 80.2789 1603.42 86.2956 1598.52 91.5545C1593.71 96.8135 1587.87 100.958 1581.01 103.989C1574.14 107.02 1566.39 108.535 1557.74 108.535ZM1558.14 104.39C1565.9 104.39 1572.9 103.008 1579.14 100.245C1585.37 97.482 1590.68 93.6938 1595.05 88.8805C1599.5 84.0672 1602.93 78.4962 1605.34 72.1676C1607.75 65.839 1608.95 59.1539 1608.95 52.1122C1608.95 45.3379 1607.53 39.4104 1604.67 34.3297C1601.82 29.249 1597.54 25.2825 1591.84 22.4301C1586.13 19.4887 1579.09 18.0179 1570.71 18.0179C1562.96 18.0179 1555.92 19.3995 1549.59 22.1627C1543.35 24.9259 1538 28.7142 1533.54 33.5275C1529.18 38.3408 1525.79 43.9117 1523.38 50.2403C1520.97 56.5689 1519.77 63.2541 1519.77 70.2958C1519.77 76.9809 1521.2 82.9084 1524.05 88.0783C1526.99 93.159 1531.27 97.1701 1536.89 100.112C1542.59 102.964 1549.68 104.39 1558.14 104.39ZM1638.49 61.3377H1690.1L1689.16 65.3488H1637.69L1638.49 61.3377ZM1629.93 108H1625.39L1644.1 14.408H1705.34L1704.54 18.5527H1647.71L1629.93 108ZM1720.03 61.3377H1771.64L1770.7 65.3488H1719.23L1720.03 61.3377ZM1711.47 108H1706.93L1725.65 14.408H1786.88L1786.08 18.5527H1729.26L1711.47 108ZM1786.6 74.4406L1787.4 70.4295H1821.23L1820.43 74.4406H1786.6ZM1836.72 108L1855.44 14.408H1887.53C1897.6 14.408 1905.4 16.6363 1910.92 21.0931C1916.54 25.4607 1919.35 31.6556 1919.35 39.6778C1919.35 47.7 1917.61 54.4743 1914.13 60.0007C1910.66 65.4379 1905.71 69.5381 1899.29 72.3013C1892.96 75.0645 1885.43 76.4461 1876.7 76.4461H1845.54L1847.95 74.4406L1841.27 108H1836.72ZM1902.77 108L1883.52 74.0395H1888.6L1907.72 108H1902.77ZM1847.95 74.4406L1846.35 72.435H1876.56C1888.69 72.435 1898.09 69.7164 1904.77 64.2791C1911.46 58.8419 1914.8 50.7306 1914.8 39.9452C1914.8 33.0818 1912.44 27.8228 1907.72 24.1683C1902.99 20.4246 1896.22 18.5527 1887.39 18.5527H1857.18L1859.58 16.4135L1847.95 74.4406ZM1971.6 108.535C1962.41 108.535 1954.66 106.93 1948.33 103.722C1942.09 100.513 1937.32 96.0559 1934.02 90.3512C1930.73 84.5574 1929.08 77.9168 1929.08 70.4295C1929.08 62.853 1930.37 55.6776 1932.96 48.9033C1935.54 42.129 1939.24 36.1124 1944.05 30.8534C1948.87 25.5944 1954.7 21.4496 1961.57 18.419C1968.52 15.3884 1976.32 13.8731 1984.97 13.8731C1994.06 13.8731 2001.77 15.4776 2008.1 18.6864C2014.42 21.8953 2019.19 26.3521 2022.4 32.0567C2025.7 37.7614 2027.35 44.402 2027.35 51.9785C2027.35 59.555 2026.06 66.7304 2023.47 73.5046C2020.98 80.2789 2017.28 86.2956 2012.37 91.5545C2007.56 96.8135 2001.72 100.958 1994.86 103.989C1988 107.02 1980.24 108.535 1971.6 108.535ZM1972 104.39C1979.75 104.39 1986.75 103.008 1992.99 100.245C1999.23 97.482 2004.53 93.6938 2008.9 88.8805C2013.36 84.0672 2016.79 78.4962 2019.19 72.1676C2021.6 65.839 2022.8 59.1539 2022.8 52.1122C2022.8 45.3379 2021.38 39.4104 2018.53 34.3297C2015.67 29.249 2011.39 25.2825 2005.69 22.4301C1999.98 19.4887 1992.94 18.0179 1984.56 18.0179C1976.81 18.0179 1969.77 19.3995 1963.44 22.1627C1957.2 24.9259 1951.85 28.7142 1947.4 33.5275C1943.03 38.3408 1939.64 43.9117 1937.23 50.2403C1934.83 56.5689 1933.62 63.2541 1933.62 70.2958C1933.62 76.9809 1935.05 82.9084 1937.9 88.0783C1940.84 93.159 1945.12 97.1701 1950.74 100.112C1956.44 102.964 1963.53 104.39 1972 104.39ZM2021.75 108L2083.79 14.408H2088.2L2112.81 108H2108.26L2084.73 17.4831H2086.6L2026.83 108H2021.75ZM2042.21 80.5909L2044.75 76.7135H2101.98L2102.91 80.5909H2042.21ZM2128.35 108L2147.07 14.408H2181.17C2190.53 14.408 2198.41 15.9678 2204.83 19.0876C2211.25 22.2073 2216.11 26.6195 2219.41 32.3241C2222.7 37.9397 2224.35 44.4911 2224.35 51.9785C2224.35 60.0898 2222.97 67.5772 2220.21 74.4406C2217.53 81.304 2213.66 87.2315 2208.58 92.2231C2203.49 97.2146 2197.34 101.092 2190.12 103.855C2182.99 106.618 2174.97 108 2166.06 108H2128.35ZM2133.7 103.855H2166.46C2177.42 103.855 2186.87 101.671 2194.8 97.3038C2202.74 92.847 2208.89 86.7412 2213.25 78.9865C2217.71 71.1426 2219.94 62.1845 2219.94 52.1122C2219.94 45.427 2218.47 39.5441 2215.53 34.4634C2212.68 29.3827 2208.35 25.4607 2202.56 22.6975C2196.76 19.9343 2189.5 18.5527 2180.77 18.5527H2150.68L2133.7 103.855Z" fill="#DC1405"/>
</svg>
