<svg width="2992" height="120" viewBox="0 0 2992 120" fill="none" xmlns="http://www.w3.org/2000/svg">
<path d="M27.8102 108L45.7264 18.5527H11.4985L12.3007 14.408H85.4362L84.5002 18.5527H50.2723L32.3561 108H27.8102ZM81.6507 108L100.369 14.408H104.915L86.1966 108H81.6507ZM117.756 108L136.474 14.408H140.218L169.632 91.0197L167.627 90.6186L225.921 14.408H229.932L211.214 108H206.802L224.183 20.9594L225.788 21.2268L169.098 95.0308H166.825L138.212 20.9594L139.549 21.0931L122.168 108H117.756ZM256.547 58.3962H308.156L307.354 62.541H255.744L256.547 58.3962ZM248.257 103.855H307.086L306.15 108H242.909L261.627 14.408H322.863L322.061 18.5527H265.237L248.257 103.855ZM325.061 74.4406L325.863 70.4295H359.69L358.888 74.4406H325.061ZM388.651 108L406.568 18.5527H372.34L373.142 14.408H446.277L445.341 18.5527H411.113L393.197 108H388.651ZM442.492 108L461.21 14.408H493.299C503.371 14.408 511.171 16.6363 516.697 21.0931C522.313 25.4607 525.12 31.6556 525.12 39.6778C525.12 47.7 523.382 54.4743 519.906 60.0007C516.43 65.4379 511.483 69.5381 505.065 72.3013C498.736 75.0645 491.204 76.4461 482.469 76.4461H451.316L453.723 74.4406L447.038 108H442.492ZM508.541 108L489.288 74.0395H494.369L513.488 108H508.541ZM453.723 74.4406L452.118 72.435H482.335C494.458 72.435 503.862 69.7164 510.547 64.2791C517.232 58.8419 520.574 50.7306 520.574 39.9452C520.574 33.0818 518.212 27.8228 513.488 24.1683C508.764 20.4246 501.99 18.5527 493.165 18.5527H462.948L465.355 16.4135L453.723 74.4406ZM535.786 108L554.505 14.408H559.05L540.332 108H535.786ZM555.713 108L617.751 14.408H622.164L646.765 108H642.219L618.687 17.4831H620.559L560.794 108H555.713ZM576.17 80.5909L578.71 76.7135H635.935L636.871 80.5909H576.17ZM662.313 108L681.031 14.408H685.577L667.661 103.855H722.613L721.677 108H662.313Z" fill="#DC1405"/>
<path d="M781.81 108L799.726 18.5527H765.498L766.301 14.408H839.436L838.5 18.5527H804.272L786.356 108H781.81ZM835.651 108L854.369 14.408H858.915L840.197 108H835.651ZM871.756 108L890.474 14.408H894.218L923.632 91.0197L921.627 90.6186L979.921 14.408H983.932L965.214 108H960.802L978.183 20.9594L979.788 21.2268L923.098 95.0308H920.825L892.212 20.9594L893.549 21.0931L876.168 108H871.756ZM1010.55 58.3962H1062.16L1061.35 62.541H1009.74L1010.55 58.3962ZM1002.26 103.855H1061.09L1060.15 108H996.909L1015.63 14.408H1076.86L1076.06 18.5527H1019.24L1002.26 103.855ZM1079.06 74.4406L1079.86 70.4295H1113.69L1112.89 74.4406H1079.06ZM1142.65 108L1160.57 18.5527H1126.34L1127.14 14.408H1200.28L1199.34 18.5527H1165.11L1147.2 108H1142.65ZM1196.49 108L1215.21 14.408H1247.3C1257.37 14.408 1265.17 16.6363 1270.7 21.0931C1276.31 25.4607 1279.12 31.6556 1279.12 39.6778C1279.12 47.7 1277.38 54.4743 1273.91 60.0007C1270.43 65.4379 1265.48 69.5381 1259.06 72.3013C1252.74 75.0645 1245.2 76.4461 1236.47 76.4461H1205.32L1207.72 74.4406L1201.04 108H1196.49ZM1262.54 108L1243.29 74.0395H1248.37L1267.49 108H1262.54ZM1207.72 74.4406L1206.12 72.435H1236.34C1248.46 72.435 1257.86 69.7164 1264.55 64.2791C1271.23 58.8419 1274.57 50.7306 1274.57 39.9452C1274.57 33.0818 1272.21 27.8228 1267.49 24.1683C1262.76 20.4246 1255.99 18.5527 1247.17 18.5527H1216.95L1219.36 16.4135L1207.72 74.4406ZM1289.79 108L1308.5 14.408H1313.05L1294.33 108H1289.79ZM1309.71 108L1371.75 14.408H1376.16L1400.76 108H1396.22L1372.69 17.4831H1374.56L1314.79 108H1309.71ZM1330.17 80.5909L1332.71 76.7135H1389.93L1390.87 80.5909H1330.17ZM1416.31 108L1435.03 14.408H1439.58L1421.66 103.855H1476.61L1475.68 108H1416.31Z" fill="#DC1405"/>
<path d="M1535.81 108L1553.73 18.5527H1519.5L1520.3 14.408H1593.44L1592.5 18.5527H1558.27L1540.36 108H1535.81ZM1589.65 108L1608.37 14.408H1612.92L1594.2 108H1589.65ZM1625.76 108L1644.47 14.408H1648.22L1677.63 91.0197L1675.63 90.6186L1733.92 14.408H1737.93L1719.21 108H1714.8L1732.18 20.9594L1733.79 21.2268L1677.1 95.0308H1674.82L1646.21 20.9594L1647.55 21.0931L1630.17 108H1625.76ZM1764.55 58.3962H1816.16L1815.35 62.541H1763.74L1764.55 58.3962ZM1756.26 103.855H1815.09L1814.15 108H1750.91L1769.63 14.408H1830.86L1830.06 18.5527H1773.24L1756.26 103.855ZM1833.06 74.4406L1833.86 70.4295H1867.69L1866.89 74.4406H1833.06ZM1896.65 108L1914.57 18.5527H1880.34L1881.14 14.408H1954.28L1953.34 18.5527H1919.11L1901.2 108H1896.65ZM1950.49 108L1969.21 14.408H2001.3C2011.37 14.408 2019.17 16.6363 2024.7 21.0931C2030.31 25.4607 2033.12 31.6556 2033.12 39.6778C2033.12 47.7 2031.38 54.4743 2027.91 60.0007C2024.43 65.4379 2019.48 69.5381 2013.06 72.3013C2006.74 75.0645 1999.2 76.4461 1990.47 76.4461H1959.32L1961.72 74.4406L1955.04 108H1950.49ZM2016.54 108L1997.29 74.0395H2002.37L2021.49 108H2016.54ZM1961.72 74.4406L1960.12 72.435H1990.34C2002.46 72.435 2011.86 69.7164 2018.55 64.2791C2025.23 58.8419 2028.57 50.7306 2028.57 39.9452C2028.57 33.0818 2026.21 27.8228 2021.49 24.1683C2016.76 20.4246 2009.99 18.5527 2001.17 18.5527H1970.95L1973.36 16.4135L1961.72 74.4406ZM2043.79 108L2062.5 14.408H2067.05L2048.33 108H2043.79ZM2063.71 108L2125.75 14.408H2130.16L2154.76 108H2150.22L2126.69 17.4831H2128.56L2068.79 108H2063.71ZM2084.17 80.5909L2086.71 76.7135H2143.93L2144.87 80.5909H2084.17ZM2170.31 108L2189.03 14.408H2193.58L2175.66 103.855H2230.61L2229.68 108H2170.31Z" fill="#DC1405"/>
<path d="M2289.81 108L2307.73 18.5527H2273.5L2274.3 14.408H2347.44L2346.5 18.5527H2312.27L2294.36 108H2289.81ZM2343.65 108L2362.37 14.408H2366.92L2348.2 108H2343.65ZM2379.76 108L2398.47 14.408H2402.22L2431.63 91.0197L2429.63 90.6186L2487.92 14.408H2491.93L2473.21 108H2468.8L2486.18 20.9594L2487.79 21.2268L2431.1 95.0308H2428.82L2400.21 20.9594L2401.55 21.0931L2384.17 108H2379.76ZM2518.55 58.3962H2570.16L2569.35 62.541H2517.74L2518.55 58.3962ZM2510.26 103.855H2569.09L2568.15 108H2504.91L2523.63 14.408H2584.86L2584.06 18.5527H2527.24L2510.26 103.855ZM2587.06 74.4406L2587.86 70.4295H2621.69L2620.89 74.4406H2587.06ZM2650.65 108L2668.57 18.5527H2634.34L2635.14 14.408H2708.28L2707.34 18.5527H2673.11L2655.2 108H2650.65ZM2704.49 108L2723.21 14.408H2755.3C2765.37 14.408 2773.17 16.6363 2778.7 21.0931C2784.31 25.4607 2787.12 31.6556 2787.12 39.6778C2787.12 47.7 2785.38 54.4743 2781.91 60.0007C2778.43 65.4379 2773.48 69.5381 2767.06 72.3013C2760.74 75.0645 2753.2 76.4461 2744.47 76.4461H2713.32L2715.72 74.4406L2709.04 108H2704.49ZM2770.54 108L2751.29 74.0395H2756.37L2775.49 108H2770.54ZM2715.72 74.4406L2714.12 72.435H2744.34C2756.46 72.435 2765.86 69.7164 2772.55 64.2791C2779.23 58.8419 2782.57 50.7306 2782.57 39.9452C2782.57 33.0818 2780.21 27.8228 2775.49 24.1683C2770.76 20.4246 2763.99 18.5527 2755.17 18.5527H2724.95L2727.36 16.4135L2715.72 74.4406ZM2797.79 108L2816.5 14.408H2821.05L2802.33 108H2797.79ZM2817.71 108L2879.75 14.408H2884.16L2908.76 108H2904.22L2880.69 17.4831H2882.56L2822.79 108H2817.71ZM2838.17 80.5909L2840.71 76.7135H2897.93L2898.87 80.5909H2838.17ZM2924.31 108L2943.03 14.408H2947.58L2929.66 103.855H2984.61L2983.68 108H2924.31Z" fill="#DC1405"/>
</svg>
