<svg width="2262" height="120" viewBox="0 0 2262 120" fill="none" xmlns="http://www.w3.org/2000/svg">
<path d="M39.8102 108L57.7264 18.5527H23.4985L24.3007 14.408H97.4362L96.5002 18.5527H62.2723L44.3561 108H39.8102ZM93.6507 108L112.369 14.408H116.915L98.1966 108H93.6507ZM129.756 108L148.474 14.408H152.218L181.632 91.0197L179.627 90.6186L237.921 14.408H241.932L223.214 108H218.802L236.183 20.9594L237.788 21.2268L181.098 95.0308H178.825L150.212 20.9594L151.549 21.0931L134.168 108H129.756ZM268.547 58.3962H320.156L319.354 62.541H267.744L268.547 58.3962ZM260.257 103.855H319.086L318.15 108H254.909L273.627 14.408H334.863L334.061 18.5527H277.237L260.257 103.855ZM337.061 74.4406L337.863 70.4295H371.69L370.888 74.4406H337.061ZM400.651 108L418.568 18.5527H384.34L385.142 14.408H458.277L457.341 18.5527H423.113L405.197 108H400.651ZM454.492 108L473.21 14.408H505.299C515.371 14.408 523.171 16.6363 528.697 21.0931C534.313 25.4607 537.12 31.6556 537.12 39.6778C537.12 47.7 535.382 54.4743 531.906 60.0007C528.43 65.4379 523.483 69.5381 517.065 72.3013C510.736 75.0645 503.204 76.4461 494.469 76.4461H463.316L465.723 74.4406L459.038 108H454.492ZM520.541 108L501.288 74.0395H506.369L525.488 108H520.541ZM465.723 74.4406L464.118 72.435H494.335C506.458 72.435 515.862 69.7164 522.547 64.2791C529.232 58.8419 532.574 50.7306 532.574 39.9452C532.574 33.0818 530.212 27.8228 525.488 24.1683C520.764 20.4246 513.99 18.5527 505.165 18.5527H474.948L477.355 16.4135L465.723 74.4406ZM547.786 108L566.505 14.408H571.05L552.332 108H547.786ZM567.713 108L629.751 14.408H634.164L658.765 108H654.219L630.687 17.4831H632.559L572.794 108H567.713ZM588.17 80.5909L590.71 76.7135H647.935L648.871 80.5909H588.17ZM674.313 108L693.031 14.408H697.577L679.661 103.855H734.613L733.677 108H674.313Z" fill="#DC1405"/>
<path d="M793.81 108L811.726 18.5527H777.498L778.301 14.408H851.436L850.5 18.5527H816.272L798.356 108H793.81ZM847.651 108L866.369 14.408H870.915L852.197 108H847.651ZM883.756 108L902.474 14.408H906.218L935.632 91.0197L933.627 90.6186L991.921 14.408H995.932L977.214 108H972.802L990.183 20.9594L991.788 21.2268L935.098 95.0308H932.825L904.212 20.9594L905.549 21.0931L888.168 108H883.756ZM1022.55 58.3962H1074.16L1073.35 62.541H1021.74L1022.55 58.3962ZM1014.26 103.855H1073.09L1072.15 108H1008.91L1027.63 14.408H1088.86L1088.06 18.5527H1031.24L1014.26 103.855ZM1091.06 74.4406L1091.86 70.4295H1125.69L1124.89 74.4406H1091.06ZM1154.65 108L1172.57 18.5527H1138.34L1139.14 14.408H1212.28L1211.34 18.5527H1177.11L1159.2 108H1154.65ZM1208.49 108L1227.21 14.408H1259.3C1269.37 14.408 1277.17 16.6363 1282.7 21.0931C1288.31 25.4607 1291.12 31.6556 1291.12 39.6778C1291.12 47.7 1289.38 54.4743 1285.91 60.0007C1282.43 65.4379 1277.48 69.5381 1271.06 72.3013C1264.74 75.0645 1257.2 76.4461 1248.47 76.4461H1217.32L1219.72 74.4406L1213.04 108H1208.49ZM1274.54 108L1255.29 74.0395H1260.37L1279.49 108H1274.54ZM1219.72 74.4406L1218.12 72.435H1248.34C1260.46 72.435 1269.86 69.7164 1276.55 64.2791C1283.23 58.8419 1286.57 50.7306 1286.57 39.9452C1286.57 33.0818 1284.21 27.8228 1279.49 24.1683C1274.76 20.4246 1267.99 18.5527 1259.17 18.5527H1228.95L1231.36 16.4135L1219.72 74.4406ZM1301.79 108L1320.5 14.408H1325.05L1306.33 108H1301.79ZM1321.71 108L1383.75 14.408H1388.16L1412.76 108H1408.22L1384.69 17.4831H1386.56L1326.79 108H1321.71ZM1342.17 80.5909L1344.71 76.7135H1401.93L1402.87 80.5909H1342.17ZM1428.31 108L1447.03 14.408H1451.58L1433.66 103.855H1488.61L1487.68 108H1428.31Z" fill="#DC1405"/>
<path d="M1547.81 108L1565.73 18.5527H1531.5L1532.3 14.408H1605.44L1604.5 18.5527H1570.27L1552.36 108H1547.81ZM1601.65 108L1620.37 14.408H1624.92L1606.2 108H1601.65ZM1637.76 108L1656.47 14.408H1660.22L1689.63 91.0197L1687.63 90.6186L1745.92 14.408H1749.93L1731.21 108H1726.8L1744.18 20.9594L1745.79 21.2268L1689.1 95.0308H1686.82L1658.21 20.9594L1659.55 21.0931L1642.17 108H1637.76ZM1776.55 58.3962H1828.16L1827.35 62.541H1775.74L1776.55 58.3962ZM1768.26 103.855H1827.09L1826.15 108H1762.91L1781.63 14.408H1842.86L1842.06 18.5527H1785.24L1768.26 103.855ZM1845.06 74.4406L1845.86 70.4295H1879.69L1878.89 74.4406H1845.06ZM1908.65 108L1926.57 18.5527H1892.34L1893.14 14.408H1966.28L1965.34 18.5527H1931.11L1913.2 108H1908.65ZM1962.49 108L1981.21 14.408H2013.3C2023.37 14.408 2031.17 16.6363 2036.7 21.0931C2042.31 25.4607 2045.12 31.6556 2045.12 39.6778C2045.12 47.7 2043.38 54.4743 2039.91 60.0007C2036.43 65.4379 2031.48 69.5381 2025.06 72.3013C2018.74 75.0645 2011.2 76.4461 2002.47 76.4461H1971.32L1973.72 74.4406L1967.04 108H1962.49ZM2028.54 108L2009.29 74.0395H2014.37L2033.49 108H2028.54ZM1973.72 74.4406L1972.12 72.435H2002.34C2014.46 72.435 2023.86 69.7164 2030.55 64.2791C2037.23 58.8419 2040.57 50.7306 2040.57 39.9452C2040.57 33.0818 2038.21 27.8228 2033.49 24.1683C2028.76 20.4246 2021.99 18.5527 2013.17 18.5527H1982.95L1985.36 16.4135L1973.72 74.4406ZM2055.79 108L2074.5 14.408H2079.05L2060.33 108H2055.79ZM2075.71 108L2137.75 14.408H2142.16L2166.76 108H2162.22L2138.69 17.4831H2140.56L2080.79 108H2075.71ZM2096.17 80.5909L2098.71 76.7135H2155.93L2156.87 80.5909H2096.17ZM2182.31 108L2201.03 14.408H2205.58L2187.66 103.855H2242.61L2241.68 108H2182.31Z" fill="#DC1405"/>
</svg>
