<?xml version="1.0" standalone="no"?>
<!DOCTYPE svg PUBLIC "-//W3C//DTD SVG 20010904//EN"
 "http://www.w3.org/TR/2001/REC-SVG-20010904/DTD/svg10.dtd">
<svg version="1.0" xmlns="http://www.w3.org/2000/svg"
 width="520.000000pt" height="520.000000pt" viewBox="0 0 520.000000 520.000000"
 preserveAspectRatio="xMidYMid meet">
<metadata>
Created by potrace 1.14, written by Peter Selinger 2001-2017
</metadata>
<g transform="translate(0.000000,520.000000) scale(0.100000,-0.100000)"
fill="#000000" stroke="none">
<path d="M0 2600 l0 -2600 2600 0 2600 0 0 2600 0 2600 -2600 0 -2600 0 0
-2600z m4428 1575 c-3 -3 -279 -195 -614 -425 l-608 -420 -394 0 c-345 0 -393
2 -388 15 3 8 141 199 306 425 l302 410 700 0 c386 0 699 -2 696 -5z m-1313
-946 c412 -69 747 -314 886 -647 57 -138 80 -251 86 -423 3 -85 3 -185 -1
-222 l-8 -67 -998 0 -999 0 -6 -55 c-15 -114 13 -199 93 -286 62 -67 146 -114
244 -136 112 -25 409 -22 558 5 315 57 586 162 759 293 28 21 56 39 62 39 12
0 204 -144 215 -162 9 -13 -56 -75 -191 -183 -318 -254 -600 -379 -965 -426
-122 -16 -476 -16 -605 0 -231 28 -487 83 -637 137 -408 147 -627 433 -645
844 -7 151 12 239 81 386 111 233 286 416 569 592 437 273 1015 393 1502 311z"/>
<path d="M2600 2712 c-129 -43 -233 -114 -323 -221 l-48 -56 492 -3 c271 -1
494 0 496 2 8 7 -33 96 -64 140 -36 52 -99 95 -183 128 -79 31 -290 36 -370
10z"/>
</g>
</svg>
